<svg xmlns="http://www.w3.org/2000/svg" width="630" height="788" fill="none"><path fill="#A3A3A3" d="M323.75 787.907c82.153 0 148.75-12.444 148.75-27.795 0-15.35-66.597-27.794-148.75-27.794-82.152 0-148.75 12.444-148.75 27.794 0 15.351 66.598 27.795 148.75 27.795" opacity=".4"/><path fill="#DBEAFE" d="M547.635 99.076c-52.133-51.458-148.168-80.822-217.857-87.641C250.343-1.62 159.168 27.932 99.197 92.48 39.227 157.027 8.257 232.952 1.08 327.8c-6.977 92.193 20.485 159.546 64.067 198.824 59.963 54.038 180.435 57.249 180.435 57.249l83.104 2.939c19.613.743 79.881-4.819 98.76-10.462 32.848-9.819 82.91-38.097 107.809-58.001 57.191-45.715 93.045-126.008 94.684-207.007 1.644-81.001-30.171-160.809-82.304-212.266"/><path fill="#fff" d="M166.539 476.565c2.497-20.383-1.946-42.513-16.075-57.414-13.747-14.497-35.429-20.392-54.265-7.101-.415.28-.817.581-1.214.89-.117.09-.236.17-.353.259l.03-.013c-5.36 4.299-9.195 11.095-11.205 17.843-4.658 15.63-2.814 33.091 5.006 47.404s21.517 25.298 37.186 29.823c7.415 2.142 15.625 2.821 22.676-.319 11.564-5.148 16.676-18.809 18.214-31.372"/><path fill="#fff" d="M162.122 511.508a105 105 0 0 0-11.981-4.712l-5.443 2.914c-.968 1.541-1.206 3.465-.942 5.266s.993 3.505 1.841 5.116c.696 1.323 1.748 2.764 3.244 2.757 1.295-.005 2.343-1.186 2.644-2.446s.033-2.577-.236-3.845c.666 1.187 1.376 2.421 2.523 3.152 1.148.73 2.868.753 3.705-.319.678-.873.545-2.17-.022-3.117-.566-.949-1.481-1.628-2.371-2.282a11.4 11.4 0 0 0 7.106 1.111c.724-.123 1.538-.403 1.797-1.092.405-1.077-.822-2.016-1.865-2.503"/><path fill="#DBEAFE" d="M96.36 419.306c-9.418 12.041-12.69 29.775-6.408 43.999.532 1.204 2.622.34 2.147-.905-5.334-13.973-2.614-29.841 5.135-42.42.322-.524-.479-1.18-.874-.674M91.772 468.525c.355 1.079.423 2.286.675 3.4.397 1.749 3.254.724 2.34-.987-.248-.465-.489-.94-.766-1.391-.285-.464-.643-.904-.853-1.408-.346-.832-1.696-.526-1.396.386M142.346 511.129c4.26.805 8.677-1.097 11.675-4.092 1.095-1.094-.545-2.697-1.686-1.686-2.959 2.62-6.185 3.608-9.989 4.313-.726.135-.724 1.328 0 1.465"/><path fill="#fff" d="M128.018 66.628a476.6 476.6 0 0 0 69.991 20.147 492 492 0 0 0 71.826 9.386 497 497 0 0 0 72.855-1.23c24.069-2.18 47.985-6.104 71.474-11.784 23.516-5.687 46.61-13.133 68.991-22.324a502 502 0 0 0 8.093-3.41c1.001-.431.136-1.895-.858-1.466-22.248 9.6-45.235 17.462-68.685 23.557a489 489 0 0 1-71.128 12.951 497 497 0 0 1-72.192 2.417 491 491 0 0 1-71.843-8.135c-23.668-4.474-47.007-10.716-69.728-18.717a491 491 0 0 1-8.346-3.029c-1.023-.382-1.465 1.258-.45 1.637"/><path fill="#fff" d="M139.334 69.737a154.8 154.8 0 0 0 2.368 46.271c.511 2.502 1.46 5.412 3.911 6.13 2.366.692 4.676-1.095 6.484-2.77a428 428 0 0 0 34.214-35.596zM205.969 86.552a154.8 154.8 0 0 0 9.973 45.246c.918 2.383 2.332 5.097 4.869 5.399 2.448.291 4.432-1.853 5.938-3.803a427 427 0 0 0 27.869-40.755zM426.384 80.338a154.8 154.8 0 0 0 28.41 36.6c1.851 1.759 4.294 3.605 6.714 2.789 2.335-.786 3.209-3.572 3.734-5.981a428 428 0 0 0 7.705-48.768zM292.955 96.241a154.8 154.8 0 0 0 17.331 42.969c1.3 2.199 3.144 4.64 5.696 4.518 2.463-.119 4.064-2.56 5.227-4.735a427 427 0 0 0 20.732-44.81zM363.294 91.53a154.8 154.8 0 0 0 22.75 40.361c1.574 2.011 3.719 4.194 6.234 3.741 2.427-.436 3.698-3.064 4.569-5.371a428 428 0 0 0 14.756-47.116z"/><path fill="#DBEAFE" d="M446.044 107.851c7.238-2.191 14.578-4.017 21.833-6.149.628-.184.359-1.169-.272-.983-7.254 2.133-14.595 3.96-21.833 6.149-.625.19-.359 1.173.272.983M438.119 98.085l31.779-11.13c.615-.214.35-1.199-.27-.983l-31.781 11.13c-.613.217-.35 1.201.272.983M430.232 86.31a209 209 0 0 0 41.499-11.76c.602-.24.339-1.226-.27-.983a209 209 0 0 1-41.499 11.76c-.646.112-.373 1.093.27.982M454.464 116.425l10.125-2.033c.643-.128.371-1.112-.27-.983q-5.063 1.018-10.126 2.033c-.643.13-.371 1.112.271.983M300.549 97.99a281.5 281.5 0 0 0 7.288 35.761c.173.631 1.156.363.983-.27a282 282 0 0 1-7.288-35.762c-.088-.646-1.071-.371-.983.27M312.603 97.984a397 397 0 0 1 3.96 43.576c.023.654 1.042.658 1.019 0a400 400 0 0 0-3.996-43.846c-.094-.648-1.077-.373-.983.27M323.962 95.566a285 285 0 0 0 2.795 29.638c.094.646 1.077.371.983-.27a282 282 0 0 1-2.759-29.368c-.026-.655-1.047-.658-1.019 0M333.559 94.57l1.286 15.263c.055.65 1.074.655 1.019 0l-1.286-15.263c-.054-.65-1.074-.655-1.019 0M141.775 114.955q10.797-2.974 21.593-5.945c.632-.175.363-1.158-.27-.983l-21.593 5.945c-.632.174-.365 1.157.27.983M139.438 103.881l40.517-12.38c.625-.19.36-1.175-.27-.983l-40.517 12.38c-.625.192-.36 1.175.27.983M139.037 91.5l31.655-10.843c.617-.212.352-1.197-.27-.983l-31.655 10.843c-.619.211-.354 1.196.27.983M138.891 80.833l12.673-4.942c.603-.236.341-1.22-.271-.983l-12.672 4.942c-.606.236-.342 1.222.27.983"/><path fill="#fff" d="m544.068 208.741 4.684-14.266 5.321 14.266s10.628 1.808 10.752 2.8c.12.968-10.172 4.003-10.172 4.003s-4.32 13.832-5.901 10.7-3.112-10.066-3.112-10.066-13.383-2.78-13.383-4.146c0-1.481 11.811-3.291 11.811-3.291M82.01 347.499l4.683-14.266 5.321 14.266s10.628 1.808 10.752 2.8c.121.968-10.172 4.004-10.172 4.004s-4.32 13.831-5.9 10.699c-1.58-3.133-3.112-10.066-3.112-10.066s-13.384-2.78-13.384-4.146c0-1.479 11.811-3.291 11.811-3.291M221.246 172.294l3.212-9.777 3.645 9.777s7.285 1.239 7.37 1.919c.083.664-6.973 2.744-6.973 2.744s-2.96 9.479-4.042 7.333c-1.083-2.147-2.133-6.9-2.133-6.9s-9.173-1.906-9.173-2.84c0-1.014 8.094-2.256 8.094-2.256M377.721 57.716l3.211-9.777 3.646 9.777s7.285 1.238 7.37 1.919c.083.664-6.973 2.744-6.973 2.744s-2.96 9.479-4.043 7.332c-1.082-2.147-2.132-6.9-2.132-6.9s-9.173-1.905-9.173-2.84c0-1.013 8.094-2.255 8.094-2.255M123.216 163.199c6.531 4.761 9.834 13.558 8.045 21.44 2.801 1.176 7.96-1.023 7.96-1.023 1.512-2.634 1.257-8.034.744-11.027a29.33 29.33 0 0 0-7.654-15.214zM181.528 539.869c6.531 4.761 9.834 13.558 8.045 21.44 2.801 1.176 7.961-1.023 7.961-1.023 1.512-2.634 1.256-8.034.743-11.027a29.33 29.33 0 0 0-7.654-15.214zM539.967 140.73c6.531 4.761 9.834 13.558 8.047 21.44 2.799 1.176 7.96-1.023 7.96-1.023 1.512-2.634 1.257-8.034.744-11.027a29.34 29.34 0 0 0-7.655-15.214zM388.004 492.943c6.531 4.761 9.834 13.56 8.047 21.441 2.799 1.175 7.96-1.024 7.96-1.024 1.512-2.633 1.257-8.034.744-11.027a29.33 29.33 0 0 0-7.655-15.213zM405.89 331.949c5.613-5.814 14.783-7.873 22.343-5.016 1.55-2.613.083-8.026.083-8.026-2.4-1.86-7.785-2.35-10.82-2.256a29.34 29.34 0 0 0-16.123 5.487zM269.41 341.471c6.116-15.417 7.168-33.615-.827-48.147-7.778-14.137-23.514-23.173-40.947-16.639-.381.134-.757.288-1.131.448-.111.046-.22.083-.329.13l.026-.003c-5.068 2.262-9.453 6.79-12.402 11.65-6.835 11.262-8.962 25.282-5.777 38.063s11.642 24.164 22.961 30.902c5.356 3.189 11.632 5.399 17.783 4.387 10.086-1.661 16.872-11.288 20.643-20.791"/><path fill="#fff" d="M258.818 367.87a85 85 0 0 0-8.399-6.131l-4.849 1.164c-1.072 1.007-1.65 2.461-1.813 3.922-.162 1.462.061 2.941.394 4.374.274 1.176.801 2.516 1.971 2.817 1.013.26 2.074-.448 2.567-1.37s.552-2.007.601-3.052c.278 1.063.579 2.173 1.326 2.977.747.805 2.087 1.175 2.959.508.708-.542.869-1.584.622-2.44-.249-.858-.824-1.574-1.387-2.267a9.2 9.2 0 0 0 5.326 2.32c.59.053 1.284-.001 1.627-.486.536-.757-.231-1.742-.945-2.336"/><path fill="#DBEAFE" d="M226.274 282.379c-9.842 7.497-16.001 20.659-14.017 33.081.171 1.068 2.025.83 1.906-.259-1.305-12.017 4.057-23.833 12.667-32.101.367-.35-.133-1.044-.556-.721M212.622 319.9c.055.915-.144 1.868-.178 2.788-.054 1.499 2.455 1.273 2.079-.282-.215-.885-.599-1.769-.726-2.666-.095-.665-1.216-.511-1.175.16M243.433 363.544c3.169 1.514 7.015.926 9.979-.802 1.104-.643.132-2.268-.994-1.701-2.844 1.432-5.559 1.541-8.667 1.334-.609-.04-.876.902-.318 1.169M215.847 343.37c7.805 5.2 19.562 5.334 28.501 3.986 10.303-1.553 19.649-5.894 27.552-12.63.69-.589-.302-1.558-.991-.991-7.515 6.194-16.636 10.309-26.242 11.876-10.137 1.654-18.89-.758-28.776-2.348-.063-.01-.102.068-.044.107"/><path fill="#DBEAFE" d="M207.24 320.668c20.718 7.279 48.159 3.301 66.542-8.555.682-.439.087-1.447-.634-1.084-10.309 5.191-20.436 9.392-31.975 10.909-11.426 1.502-22.543.286-33.843-1.592-.212-.036-.296.25-.09.322M210.587 296.112c16.779 6.929 38.864.386 52.637-10.045.494-.374.042-1.218-.502-.856-7.557 5.023-16.1 8.652-25.021 10.384-9.321 1.808-17.726.566-27.025-.142-.411-.032-.408.528-.089.659"/><path fill="#fff" d="M78.997 297.345c14.27-8.454 26.235-22.206 28.801-38.591 2.495-15.941-4.424-32.716-22.212-38.213a19 19 0 0 0-1.169-.338c-.114-.031-.225-.069-.34-.098l.023.013c-5.394-1.31-11.631-.412-16.939 1.629-12.295 4.727-22.555 14.517-27.855 26.576s-5.573 26.237-.742 38.491c2.287 5.799 5.9 11.387 11.384 14.349 8.995 4.857 20.253 1.392 29.05-3.818"/><path fill="#fff" d="M54.467 311.749a85 85 0 0 0-2.892-9.989l-4.548-2.046c-1.465.142-2.81.938-3.833 1.994-1.022 1.056-1.751 2.362-2.363 3.7-.503 1.098-.907 2.48-.165 3.436.642.825 1.915.914 2.868.486.954-.428 1.665-1.25 2.343-2.046-.43 1.011-.87 2.074-.772 3.168.098 1.093.931 2.207 2.03 2.212.892.004 1.657-.721 1.984-1.55s.31-1.75.29-2.642a9.2 9.2 0 0 0 2.792 5.093c.437.402 1.018.785 1.584.611.89-.274.885-1.522.682-2.427"/><path fill="#DBEAFE" d="M81.024 224.211c-12.371-.091-25.296 6.553-31.324 17.593-.52.949 1.093 1.896 1.665.962 6.318-10.304 17.79-16.37 29.658-17.643.504-.054.532-.908.001-.912M47.271 245.54c-.516.758-1.256 1.389-1.845 2.098-.96 1.152 1.163 2.508 1.816 1.048.371-.832.609-1.766 1.056-2.554.332-.584-.65-1.147-1.027-.592M44.946 298.914c1.58 3.136 4.982 5.024 8.384 5.468 1.266.166 1.49-1.713.254-1.953-3.126-.605-5.339-2.181-7.673-4.246-.456-.404-1.244.179-.965.731M35.465 266.08c2.993 8.888 12.212 16.186 20.106 20.589 9.1 5.075 19.148 7.359 29.521 6.865.907-.044.713-1.417-.177-1.39-9.735.303-19.467-2.023-28.023-6.658-9.031-4.893-14.479-12.157-21.326-19.463-.044-.047-.124-.01-.101.057"/><path fill="#DBEAFE" d="M42.545 242.857c11.935 18.433 36.077 32.072 57.871 33.941.807.07.954-1.091.161-1.245-11.331-2.201-21.91-5.074-31.968-10.935-9.957-5.802-18.006-13.562-25.797-21.963-.145-.157-.386.018-.267.202M60.214 225.478c9.035 15.745 30.508 24.08 47.783 24.254.622.007.78-.937.129-.984-9.051-.65-18.03-3.005-26.146-7.094-8.48-4.27-14.369-10.395-21.29-16.645-.308-.273-.649.169-.476.469"/><path fill="#fff" d="M503.603 500.11c17.095-8.957 31.833-24.212 35.809-43.097 3.867-18.373-3.156-38.287-23.493-45.752a21 21 0 0 0-1.338-.464c-.131-.044-.257-.093-.389-.135l.026.016c-6.188-1.849-13.491-1.183-19.781.866-14.574 4.747-27.09 15.499-33.982 29.191-6.889 13.691-8.068 30.15-3.198 44.682 2.305 6.879 6.166 13.589 12.359 17.365 10.159 6.192 23.45 2.849 33.987-2.672"/><path fill="#fff" d="M474.225 515.359a99 99 0 0 0-2.756-11.782l-5.159-2.653c-1.709.075-3.324.918-4.575 2.085-1.254 1.165-2.18 2.638-2.972 4.155-.651 1.247-1.203 2.829-.399 3.981.695.998 2.17 1.178 3.304.739 1.134-.44 2.01-1.351 2.847-2.236-.562 1.149-1.136 2.356-1.089 3.634s.949 2.62 2.225 2.694c1.037.058 1.968-.738 2.399-1.682s.469-2.015.498-3.051a10.7 10.7 0 0 0 2.936 6.089c.483.494 1.134.973 1.805.805 1.047-.262 1.117-1.712.936-2.778"/><path fill="#DBEAFE" d="M510.298 415.24c-14.223-.866-29.75 6.099-37.324 18.465-.768 1.254 1.136 2.324 1.95 1.14 7.896-11.485 21.646-17.798 35.374-18.536.689-.037.689-1.027 0-1.069M469.806 438.088c-.308.406-.731.717-1.099 1.065-.363.343-.698.723-1.038 1.09-.498.541-.474 1.376.125 1.838.55.425 1.468.317 1.808-.345.258-.5.525-1.001.741-1.52.203-.49.378-.977.664-1.426.497-.773-.675-1.395-1.201-.702M463.999 499.998c1.574 3.616 5.468 6.033 9.253 6.71 1.429.256 2.063-1.857.608-2.21-3.6-.876-6.136-2.824-8.715-5.386-.627-.622-1.46.165-1.146.886M454.913 461.134c2.925 10.524 13.14 19.5 22.057 25.127 10.223 6.45 21.841 9.742 33.887 9.793 1.05.005 1.05-1.608 0-1.629a64.4 64.4 0 0 1-32.895-9.862c-9.939-6.253-15.56-14.767-22.937-23.494-.044-.056-.13.003-.112.065"/><path fill="#DBEAFE" d="M464.544 434.571c12.646 22.085 40.003 39.541 65.133 42.946.899.122 1.33-1.172.388-1.408-13.054-3.278-25.209-7.221-36.583-14.671-11.238-7.36-20.079-16.877-28.632-27.104-.145-.173-.414.048-.306.237M486.124 415.437c9.505 18.893 34.105 29.888 54.172 31.113.757.046.717-1.066 0-1.154-10.697-1.323-21.252-4.769-30.562-10.229-9.236-5.417-15.571-12.772-22.996-20.204-.324-.322-.809.087-.614.474"/><path fill="#fff" d="M588.693 322.553c5.61-17.053 5.19-36.952-5.231-52.512-10.139-15.136-28.912-24.409-48.233-16.627-.423.159-.838.342-1.252.53-.122.054-.242.1-.364.155l.029-.005c-5.584 2.66-10.187 7.764-13.122 13.179-6.798 12.545-7.98 27.925-3.204 41.754 4.773 13.83 15.444 25.935 28.966 32.865 6.4 3.28 13.761 5.456 20.695 4.121 11.367-2.189 18.257-12.949 21.716-23.46"/><path fill="#fff" d="M578.95 351.76a103 103 0 0 0-10.136-6.377l-5.431 1.451c-1.134 1.139-1.665 2.747-1.72 4.347-.056 1.601.33 3.206.838 4.757.418 1.273 1.139 2.717 2.502 3.002 1.18.247 2.327-.567 2.807-1.592s.453-2.21.415-3.353c.412 1.149.856 2.349 1.781 3.2s2.487 1.204 3.423.444c.76-.618.851-1.761.491-2.685-.359-.926-1.08-1.688-1.784-2.422a11.3 11.3 0 0 0 6.286 2.334c.681.034 1.467-.051 1.815-.591.545-.85-.418-1.895-1.287-2.515"/><path fill="#DBEAFE" d="M534.031 259.656c-10.69 8.528-16.398 23.221-13.153 36.688.407 1.691 2.897.961 2.582-.712-2.43-12.889 2.659-25.67 11.468-35.079.571-.611-.272-1.397-.897-.897M521.82 301.332c.064.464-.06.949-.089 1.415-.028.463-.01.934-.003 1.399a1.46 1.46 0 0 0 1.653 1.434c.799-.107 1.527-.983 1.214-1.821-.188-.506-.371-1.021-.595-1.51-.207-.451-.471-.868-.588-1.355-.255-1.062-1.73-.579-1.592.438M560.877 347.756c3.631 1.714 8.162.956 11.486-1.129 1.484-.931.177-3.163-1.372-2.347-3.171 1.671-6.182 1.787-9.678 1.863-.801.018-1.252 1.229-.436 1.613"/><path fill="#fff" d="M492.511 243.873a4.198 4.198 0 1 1-8.396-.002 4.198 4.198 0 0 1 8.396.002M539.967 385.129a4.199 4.199 0 0 1-8.395 0 4.198 4.198 0 0 1 8.395 0M322.308 47.182a4.198 4.198 0 1 1-8.397-.002 4.198 4.198 0 0 1 8.397.002M266.765 538.25a4.198 4.198 0 1 1-8.396-.002 4.198 4.198 0 0 1 8.396.002M41.791 422.797a4.197 4.197 0 1 1-8.395.001 4.197 4.197 0 0 1 8.395-.001M154.381 301.222a4.197 4.197 0 1 1-8.394 0 4.197 4.197 0 0 1 8.394 0M96.212 162.094a4.198 4.198 0 1 1-8.397-.001 4.198 4.198 0 0 1 8.397.001M493.954 102.11a4.198 4.198 0 1 1-8.396 0 4.198 4.198 0 0 1 8.396 0M174.955 408.891a4.198 4.198 0 1 1-8.395-.001 4.198 4.198 0 0 1 8.395.001M170.759 352.31a4.197 4.197 0 1 0 .002-8.394 4.197 4.197 0 0 0-.002 8.394M354.433 157.107a4.198 4.198 0 1 0 0-8.396 4.198 4.198 0 0 0 0 8.396"/><path fill="#F1F5F9" d="M502.703 187.029c5.506-8.342 7.942-22.902 4.869-33.661-3.87-13.548-12.454-25.273-29.749-30.091-13.574-3.781-28.76-.921-39.896 7.713-10.981 8.514-18.346 24.423-15.825 39.209 0 0-14.894 9.525-12.959 12.911.509 1.927 13.423 1.344 18.275.141l-.036-.135c6.261 12.432 18.127 24.126 37.65 24.626 14.58.372 27.539-5.363 37.671-20.713"/><path fill="#1E40AF" d="M467.701 140.543c-.593-.197-24.867-1.974-25.853 19.538-.986 21.51 16.577 20.721 16.973 20.919.393.197-.396 3.553.789 4.144 1.183.593 12.827 1.579 13.42 0 .592-1.579 0-4.144 0-4.144s16.888-.983 15.984-22.103c-.789-18.473-21.313-18.354-21.313-18.354"/><path fill="#262626" d="M462.413 182.94c.06-4.487.257-8.995.163-13.483-.067-3.167-1.065-6.987-4.538-7.964-2.855-.802-5.283 1.46-5.729 4.175-.511 3.111 1.647 5.767 4.114 7.36 5.529 3.573 13.242 3.255 18.695-.298 2.549-1.661 5.353-4.42 4.989-7.742-.297-2.707-3.046-4.595-5.684-4.253-3.835.496-4.758 4.992-5.326 8.114a75.6 75.6 0 0 0-1.201 14.702c.017 1.035 1.626 1.038 1.61 0a75 75 0 0 1 .5-10.021c.338-2.837.6-6.138 1.831-8.762 1.131-2.412 4.1-3.468 6.01-1.169 1.986 2.393-.579 5.466-2.457 6.965-4.1 3.271-9.904 4.211-14.87 2.614-2.454-.789-5.138-2.295-6.255-4.738-.949-2.077-.028-5.804 2.853-5.496 3.98.424 3.879 5.75 3.84 8.639l-.155 11.356c-.014 1.038 1.595 1.038 1.61.001M432.112 175.608q2.94-1.469 5.88-2.938c.389-.194.498-.744.288-1.102-.231-.395-.711-.483-1.101-.288l-5.881 2.938c-.389.194-.498.744-.288 1.102.233.395.711.483 1.102.288M437.478 154.016l-6.408-1.382c-.425-.091-.871.127-.989.562-.111.402.135.898.561.989l6.408 1.382c.425.091.871-.127.99-.561.11-.401-.136-.897-.562-.99M489.831 172.983q3.268 1.626 6.532 3.253c.389.194.872.104 1.102-.288.208-.356.102-.907-.288-1.102q-3.267-1.626-6.532-3.253c-.389-.194-.872-.105-1.102.288-.208.358-.102.908.288 1.102"/><path fill="#262626" d="M456.693 183.708s.677 6.405 1.186 7.883 2.795 3.776 5.506 4.105c2.71.329 5.845 0 5.845 0s3.727-.822 4.489-4.517c.762-3.694 1.257-7.241 1.257-7.241-1.083-.838-18.433-1.564-18.283-.23"/><path fill="#1E40AF" d="M456.989 187.991a58.4 58.4 0 0 0 17.388.104c1.022-.147.588-1.698-.428-1.553a55.8 55.8 0 0 1-16.532-.106c-1.014-.156-1.45 1.395-.428 1.555M457.97 192.356a32.1 32.1 0 0 0 15.701.078c1.006-.249.579-1.802-.428-1.553a30.3 30.3 0 0 1-14.845-.078c-1.003-.259-1.431 1.294-.428 1.553"/><path fill="#262626" d="m452.244 139.294-3.688-6.142c-.533-.887-1.926-.078-1.39.812l3.688 6.143c.532.888 1.925.079 1.39-.813M477.242 139.246l3.315-5.28c.232-.368.079-.887-.288-1.102-.387-.226-.869-.08-1.102.288l-3.315 5.28c-.231.368-.078.887.288 1.102.387.226.871.079 1.102-.288M492.095 153.998l6.171-1.129c.428-.078.67-.598.563-.992-.124-.449-.562-.641-.991-.561q-3.085.565-6.171 1.129c-.428.079-.67.598-.561.99.123.451.56.641.989.563"/><path fill="#F1F5F9" d="M418.215 422.594c8.526 1.123 20.707-2.468 27.875-8.893 9.026-8.091 14.869-19.143 12.093-34.336-2.18-11.924-10.106-22.598-20.974-27.968-10.717-5.294-25.795-5.008-36.289 2.504 0 0-12.972-7.941-14.861-5.171-1.299 1.12 4.008 10.89 6.764 14.192l.091-.078c-7.264 9.52-11.849 23.099-4.892 38.392 5.195 11.423 14.506 19.291 30.193 21.358"/><path fill="#1E40AF" d="M443.183 375.924c-1.688-.264-6.991.21-6.991.21l-1.193-1.512s3.566-6.016 2.694-7.17c-.873-1.154-7.139-4.819-8.184-4.367-1.047.453-4.185 4.875-4.185 4.875l-2.197-.291s-.854-6.089-3.33-5.972c-2.474.119-7.329 1.723-8.299 2.35s.488 6.581.488 6.581l-1.601 1.28-.689-.33s-4.759-2.974-6.118-1.955c-1.359 1.021-4.588 7.648-4.334 8.498s5.218 4.419 5.218 4.419l-.375 1.699s-5.608 1.699-5.862 3.314c-.256 1.615.765 8.242 2.464 8.413 1.699.169 6.968-.594 6.968-.594l1.274 1.444s-3.229 6.202-2.295 7.308 7.393 4.419 8.412 3.909 3.909-5.099 3.909-5.099l2.209.169s1.19 6.034 3.654 5.778c2.464-.255 7.223-2.124 8.157-2.804.935-.681-.849-6.543-.849-6.543l1.614-1.446s4.76 2.889 6.543 1.7c1.784-1.19 4.673-6.797 4.248-7.647-.424-.849-4.759-4.419-4.759-4.419l.023-.452c1.506-.42 5.109-1.55 5.381-2.811.345-1.597-.308-8.272-1.995-8.535m-21.456 16.883a7.678 7.678 0 1 1 .001-15.355 7.678 7.678 0 0 1-.001 15.355"/><path fill="#F1F5F9" d="M162.927 207.03c-5.965 6.537-10.103 18.933-8.898 28.765 1.517 12.381 7.407 23.818 21.868 30.417 11.349 5.177 25.025 4.769 35.954-1.247 10.778-5.933 19.411-18.828 19.245-32.108 0 0 14.339-6.277 13.112-9.503-.181-1.755-11.553-3.026-15.962-2.642l.013.122c-3.762-11.735-12.528-23.598-29.53-26.725-12.702-2.336-24.826.893-35.802 12.921"/><path fill="#1E40AF" d="M210.422 255.408c.152-2.521-4.635-12.792-16.434-12.984-10.446-.169-16.946 4.46-19.599 13.868 0 0 6.211 5.182 18.94 4.301 12.733-.879 17.093-5.185 17.093-5.185M203.594 230.33c-1.36 8.798-7.806 10.348-14.462 9.866-6.657-.482-9.54-5.517-9.1-11.574.437-6.054 5.647-10.612 12.304-10.13 6.656.482 12.186 5.837 11.258 11.838M178.17 238.954c.076-1.29-2.373-6.549-8.415-6.647-5.348-.086-8.677 2.284-10.036 7.101 0 0 3.181 2.653 9.699 2.203 6.52-.451 8.752-2.657 8.752-2.657M174.963 226.113c-.696 4.505-3.997 5.299-7.405 5.052s-4.885-2.826-4.66-5.927 2.892-5.434 6.3-5.187c3.41.248 6.24 2.99 5.765 6.062M225.382 239.788c.089-1.49-2.738-7.557-9.707-7.67-6.17-.1-10.01 2.636-11.577 8.192 0 0 3.668 3.062 11.188 2.541 7.519-.519 10.096-3.063 10.096-3.063M221.682 224.973c-.804 5.197-4.611 6.113-8.543 5.829-3.933-.285-5.635-3.26-5.376-6.836.258-3.578 3.336-6.27 7.268-5.985s7.199 3.447 6.651 6.992"/><path fill="#F1F5F9" d="M503.436 328.796c8.413-1.775 18.707-9.213 23.33-17.656 5.822-10.631 7.658-22.996-.013-36.403-6.021-10.521-17.045-17.952-29.079-19.401-11.869-1.429-25.993 3.854-33.39 14.429 0 0-14.875-3.176-15.736.065-.853 1.488 7.402 8.937 11.098 11.136l.059-.104c-3.685 11.393-3.493 25.726 8.153 37.834 8.698 9.044 20.096 13.369 35.578 10.1"/><path fill="#1E40AF" d="M502.914 286.866s-.644 12.256.838 16.206c.99 2.635 11.335 1.711 11.434.713.394-3.984-.659-14.585-.823-17.453-.186-3.206-11.45-2.931-11.449.534M486.755 277.057s.493 22.718 1.978 26.668c.989 2.635 11.334 1.71 11.434.713.394-3.985-.66-24.639-.824-27.507-.185-3.208-12.588-3.341-12.588.126M473.162 296.908s-.726 3.498.756 7.448c.99 2.635 11.335 1.711 11.434.713.394-3.984.562-5.417.396-8.286-.184-3.208-12.586-3.341-12.586.125"/><path fill="#262626" d="M322.704 777.522c79.303 0 143.592-13.592 143.592-30.36 0-16.767-64.289-30.359-143.592-30.359s-143.592 13.592-143.592 30.359 64.288 30.36 143.592 30.36"/><path fill="#262626" d="M179.112 718.171s-4.675 21.283 0 28.991c4.674 7.709 287.184 0 287.184 0s5.205-20.869 0-28.991-287.184 0-287.184 0"/><path fill="#262626" d="M322.704 748.531c79.303 0 143.592-13.592 143.592-30.36 0-16.767-64.289-30.359-143.592-30.359s-143.593 13.592-143.593 30.359 64.289 30.36 143.593 30.36"/><path fill="#1E40AF" d="M322.704 749.176c-80.881 0-144.237-13.618-144.237-31.003 0-17.386 63.356-31.004 144.237-31.004 80.88 0 144.236 13.618 144.236 31.004 0 17.385-63.356 31.003-144.236 31.003m0-60.72c-38.312 0-74.323 3.153-101.403 8.879-26.403 5.581-41.546 13.177-41.546 20.836 0 7.66 15.143 15.254 41.546 20.837 27.08 5.724 63.091 8.877 101.403 8.877s74.324-3.153 101.401-8.877c26.403-5.583 41.546-13.177 41.546-20.837 0-7.659-15.143-15.255-41.546-20.836-27.077-5.726-63.089-8.879-101.401-8.879"/><path fill="#262626" d="M429.989 688.373c-3.885-6.061-214.334 0-214.334 0s-3.49 15.884 0 21.636c0 12.513 47.98 22.658 107.166 22.658s107.168-10.145 107.168-22.658c0 0 3.884-15.574 0-21.636"/><path fill="#1E40AF" d="M322.823 733.311c-60.177 0-107.378-10.139-107.808-23.121-3.434-6.016-.131-21.301.012-21.955l.107-.49.503-.015c.526-.014 53.224-1.525 105.72-2.273 106.544-1.525 108.457 1.45 109.174 2.57 3.89 6.069.425 20.737.103 22.063-.197 13.028-47.482 23.221-107.811 23.221m-106.641-44.309c-.542 2.698-2.959 15.758.023 20.672l.093.154v.181c0 11.932 48.783 22.013 106.523 22.013 57.741 0 106.522-10.081 106.522-22.013l.02-.156c.039-.153 3.768-15.352.091-21.12-4.071-4.183-129.553-2.137-213.272.269"/><path fill="#262626" d="M322.821 711.031c59.187 0 107.167-10.144 107.167-22.658 0-12.513-47.98-22.658-107.167-22.658-59.186 0-107.166 10.145-107.166 22.658s47.98 22.658 107.166 22.658"/><path fill="#1E40AF" d="M322.823 711.676c-60.454 0-107.811-10.235-107.811-23.301s47.357-23.302 107.811-23.302 107.811 10.236 107.811 23.302c-.002 13.065-47.357 23.301-107.811 23.301m0-45.318c-57.741 0-106.524 10.082-106.524 22.015s48.783 22.014 106.524 22.014 106.522-10.082 106.522-22.014c0-11.933-48.781-22.015-106.522-22.015"/><path fill="#1E40AF" d="M288.252 679.299v2.7840000000000003c1.709.483 1.843-.9 1.833-2.242zM288.252 694.449v.825c.444.108.903.214 1.364.318l-.26-.943zM288.252 689.503c.502.106 1.001.189 1.555-.139a23 23 0 0 1-.204-2.065l-1.352-.269zM368.174 683.536l-2.357-.382-1.098.807c-.139 3.398 4.7 2.816 3.455-.425M381.313 690.154c-1.811.999-1.758 3.171-.397 3.452a44 44 0 0 0 1.773-.646c.737-1.104.092-2.59-1.376-2.806M320.2 677.322c.617 1.88 2.564 1.564 3.667.195-.937-2.101-3.294-3.011-3.667-.195M304.968 679.807a5.5 5.5 0 0 0-1.301-.708c-4.743 1.668 1.701 6.231 1.301.708M324.136 688.295c.784.967.784.967.994 1.826 1.286.002 1.893-.752 2.463-1.647-.689-1.797-2.964-2.427-3.457-.179M376.868 689.332l-.07.861c1.096.003 1.49-.965 2.307-1.216v-1.614c-1.254-1.272-3.098-.499-3.257 1.194zM351.655 686.204c1.773-.135 1.955-1.901.65-2.875-1.872-.862-3.854 2.941-.65 2.875M364.691 691.435c-.283 1.903 2.404 3.52 3.193 1.229.839-1.896-2.112-2.458-3.193-1.229M336.585 697.677c-.504.434-1.587 1.006-1.235 1.819q1.556-.021 3.091-.06c-.363-.626-1.249-1.24-1.856-1.759M355.728 674.906c-.446-.043-.889-.091-1.341-.131.395.21.882.247 1.341.131M382.668 685.321c1.161-2.555-2.899-2.945-2.832-.289.506 1.644 2.023 1.875 2.832.289M312.137 674.508a201 201 0 0 0-2.031.169c1.042.557 1.348.529 2.031-.169M319.46 679.654c-1.721-1.826-3.5 1.6-1.867 2.43.957.283 2.129.781 2.459-.744-.63-.416-.522-1.077-.592-1.686M338.955 695.818c.497.48.752.947 1.017 1.541.684.647 1.814-.21 1.781-1.043.685-2.573-2.393-3.105-2.798-.498M320.507 684.604c-.422 2.428 3.18 1.706 3.3-.199-.481-1.507-3.108-1.359-3.3.199M359.265 693.967c.452-.49.866-.937 1.326-1.437-.26-1.087-.605-1.969-1.64-2.301-2.364.584-1.32 2.975.314 3.738M303.757 697.31c.54-.253.956-.432 1.405-.735.397-2.808-3.815-3.34-2.951-.031.574.285 1.074.534 1.546.766M307.198 675.336l-1.524 1.214c-.442 1.898 1.516 2.129 2.86 1.828 1.092-1.597-.428-1.945-1.336-3.042M375.791 685.365c-.207-2.696-2.759-3.079-3.348-.305.361.651.928.945 1.536 1.079zM375.021 678.336c.061-.106.106-.205.152-.306a91 91 0 0 0-2.86-.648l-.063.438c1.682 1.066 1.682 1.066 2.771.516M364.685 677.66c.988 1.555 3.04 1.41 3.314-.516l-.357-.655q-1.064-.183-2.168-.355c-.387.327-.602.849-.789 1.526M357.979 676.135c-1.572 2.084 1.515 3.802 2.523 1.651.156-1.713-.996-2.601-2.523-1.651M362.054 689.799c2.91.882 2.555-3.682.018-2.882-.905 1.268-1.576 1.57-.018 2.882M306.706 698.292q.77.08 1.552.155c-.406-.645-.994-.534-1.552-.155M313.812 693.487c.894.265 1.434.534 2.337.241-.253-.807-.232-1.395-.213-2.166-.628-1.28-2.565-.83-2.868.519.243.457.477.903.744 1.406M350.194 676.225c-.594 3.094 2.864 2.715 3.312.589-1.029-.854-2.012-1.698-3.312-.589M337.168 675.764c-1.445.69-2.243.209-1.712 2.324.151.446.682.339 1.08.391.982.436 1.77.288 2.098-.882-.255-.817-.704-1.457-1.466-1.833M322.22 690.333c-2.109.758-2.355 2.531-.324 3.205 2.093.374 1.88-2.447.324-3.205M326.805 682.029l.361-1.878q-.39-.354-.862-.79c-.829.41-1.918.13-2.421 1.291l1.176 1.756c.664.195 1.178-.192 1.746-.379M318.856 697.174c.674-.386.711-1.112.895-1.753-.981-.667-.981-.667-1.437-1.457-1.403-.255-1.99.422-1.022 1.525-1.429 1.253.409 1.662 1.564 1.685M327.167 673.811q-1.454.024-2.884.065c.598 1.123 2.76 1.664 2.884-.065M345.724 677.25c.266-2.15-3.086-2.054-3.239-.053.868 1.728 2.473 1.985 3.239.053M298.006 677.46c.463.584.905 1.066 1.678 1.209l1.42-.758c-.111-.833-.021-.993.226-1.953-.552-.054-1.074-.117-1.538-.106-.222.033-.449.062-.669.094-.555.166-.96.578-1.117 1.514M358.524 698.088c.291-.032.588-.065.876-.099a1.8 1.8 0 0 0-.876.099M329.242 675.758c-3.561 2.291 1.082 4.764 1.87 1.222-.482-.563-.962-1.082-1.87-1.222M349.071 674.347q-1.295-.088-2.616-.163c.666 1.308 1.944 1.014 2.616.163M354.609 696.891c1.76.642 2.968-1.814 1.407-2.912-1.869-.41-2.893 1.766-1.407 2.912M334.953 692.086l1.199 1.487 2.17-.727c.614-3.122-1.872-2.477-3.369-.76M315.972 676.37c-.601.019-1.099.104-1.42-.449-.838-.611-1.752.598-1.525 1.494.464 2.254 4.066 1.111 2.945-1.045M387.258 685.359c.53.802 2.798 1.346 2.622-.078-.316-.661-.863-1.305-1.615-1.932-.537.402-.817 1.181-1.007 2.01M334.912 695.981c-.107-1.348-2.555-2.573-3.019-.972-.036.962.243 1.121.16 2.228 1.025.111 1.953-.447 2.859-1.256M333.353 679.843c-3.921-.459.287 5.944 1.294 1.2.082-.852-.62-.995-1.294-1.2M350.513 698.839q1.198-.09 2.373-.191c-.348-.296-.679-.385-1.701-.643-.324.282-.54.564-.672.834M363.073 679.268c-.797.064-1.452.266-1.779 1.096l.777 1.751h2.073c.161-.407.308-.778.476-1.209zM319.948 674.07c-.002-.015-.008-.024-.012-.041q-1.563.071-3.095.16c1.198.82 1.875.779 3.107-.119M386.206 681.965a26 26 0 0 0-2.558-1.241 8 8 0 0 0-.158.444c1.009 1.68 2.166 1.502 2.716.797M352.012 693.756c.552-.593 1.287-1.092 1.448-2.114l-.838-.913h-1.704c-.218.467-.446.945-.703 1.494.504.506.604 1.578 1.797 1.533M341.913 673.969q-1.45-.056-2.924-.096c.746 1.825 2.583 1.336 2.924.096M290.614 678.049c.747.052 1.573.271 2.221.612.669-.537.816-1.175.656-1.766-1.025.196-2.028.396-2.99.606.015.161.049.34.113.548M310.731 690.177c1.457-.113 1.172-1.125 1.311-2.154.024-1.225-1.39-.841-2.25-.996l-.898 1.493c1.09.228 1.32 1.098 1.837 1.657M353.848 689.195c.317.34.659.707.963 1.031l1.499-.464.873-1.35c-1.304-2.028-2.816-1.39-3.335.783M324.357 695.2c-.459 1.03.73 2.324 1.97 2.273 2.279-1.424-.283-4.163-1.97-2.273M311.652 694.501c-1.066-.664-1.637.098-2.357.92 1.053 4.113 4.382.345 2.357-.92M303.561 675.375c.011-.008.018-.018.029-.026l-.073.01zM377.445 694.671q.18-.051.36-.101c-.016-.005-.027-.012-.044-.017-.12.03-.21.079-.316.118M346.532 686.889c-.417 1.847 1.199 3.444 2.622 2.285 1.189-1.654-1.143-2.733-2.622-2.285M368.773 688.3l.646 1.271c4.702.93.695-5.81-.646-1.271M379.714 680.828c-1.291-1.065-3.015-1.712-3.599.312.441 2.31 2.604 1.175 3.599-.312M358.434 686.181c1.561.334 2.04-.638 2.124-2.054-.38-.355-.745-.695-1.14-1.061-1.91.67-2.017 1.735-.984 3.115M330.585 693.16c.011-.693.107-1.072.299-1.797-3.206-3.19-3.849 3.657-.299 1.797M375.685 691.962c-.289-.119-.6-.246-.905-.373-.021-.208-.04-.4-.07-.662a9 9 0 0 1-1.46-.312c-.571.558-.623 1.271-.82 1.857.776 1.735 2.671 1.199 3.255-.51M349.811 696.031c-.194-.84-.877-1.222-1.504-1.806-3.846 1.411-.571 4.373 1.504 1.806M356.158 682.052c.162-.557.419-.962.782-1.477-2.521-3.964-4.633 3.075-.782 1.477M322.249 697.952c-.968.298-1.471.786-1.562 1.343q1.381.059 2.785.1c-.052-.545-.407-1.103-1.223-1.443M330.84 698.471c-1.048-1.095-2.062.021-2.995.708.003.116.02.212.031.314q1.452.02 2.925.026c.109-.322.138-.677.039-1.048M332.515 674.91c1.098.101 1.235-.672 1.709-1.029.045-.031.076-.065.112-.096q-1.315-.014-2.645-.015h-.093c-.105.534.347.92.917 1.14M346.112 692.185c-1.133-1.732-1.273-1.803-2.684-1.458-.311.932-.246 1.85.076 2.931.918-.477 1.843-.721 2.608-1.473M314.705 682.866c-1.39.19-1.609 1.632-1.222 2.788 2.614.934 3.423-1.478 1.222-2.788M385.539 689.75c1.073-1.491 1.089-1.566.513-2.575h-1.719l-.788 1.189c.562 1.604.562 1.604 1.994 1.386M316.802 687.965l.329 1.439c1.714 1.653 1.759.242 2.676-1.049-.673-1.189-2.338-1.785-3.005-.39M346.838 680.156l-.435 1.323c.347 1.181 2.031 1.364 2.715.407v-1.682c-.374-.244-.706-.46-1.056-.686zM344.919 698.188c-.895-.469-1.774.098-1.909 1.092q1.239-.055 2.457-.119c-.061-.327-.223-.661-.548-.973M363.351 697.268c.341-.382.663-.744.985-1.108l-.547-.651.192-.843c-.752-.124-1.346-.222-1.976-.328-.402.357-.879.655-1.019 1.166.604.939 1.514 1.211 2.365 1.764M297.266 695.048c-1.192-1.217-2.801-.301-2.619 1.286q.076.177.179.312c.617.111 1.24.22 1.878.324.705-.348 1.162-1.118.562-1.922M330.421 684.933c.9-.756-.807-2.289-1.653-1.604-1.036.832-.907 2.847.568 3.094.452-.491.519-1.126 1.085-1.49M307.656 693.823c1.416-1.971 1.222-3.747-1.597-2.5-.431 2.293.005 2.236 1.597 2.5M341.086 687.011c-1.361.08-1.864.884-2.095 1.947.776.857 1.691.633 2.562.568.62-1.519.62-1.519-.467-2.515M313.441 698.881q1.175.085 2.37.158c-.402-.918-1.699-1.117-2.37-.158M339.912 679.627c-.95.906-.333 1.342-.345 2.426 1.193.272 2.131.168 2.684-.931-.322-1.276-1.24-1.538-2.339-1.495M297.027 681.723c1.017-2.411-1.47-3.307-2.393-.962.143 1.608 1.143 1.644 2.393.962M306.865 685.824c2.103-.406 1.804-3.095-.41-2.613-.788.857-1.321 2.949.41 2.613M304.406 689.586c.493-.622.851-1.574-.096-1.777-1.829-3.059-3.566 2.91.096 1.777M300.859 693.097l.337-1.455c-.441-.668-1.036-.997-1.797-1.097l-1.061 1.316c.881 1.486 1.081 1.584 2.521 1.236M337.622 686.062c.347-.853.897-2.707-.486-2.643-2.925-.635-.853 4.147.486 2.643M368.965 680.346l.814 1.995c1.453.192 1.509.16 2.158-1.29-.508-1.151-1.981-1.646-2.972-.705M291.106 691.362c.056.486.164 1.033.271 1.516 4.004 1.926 2.596-3.502-.271-1.516M346.034 684.667c-.739-.532-1.268-1.028-2.084-1.227l-1.311 1.39c.532 1.546 2.843 1.317 3.395-.163M301.166 685.248c-.502-1.572-1.732-2.662-2.705-.825.275 1.916 1.37 2.087 2.705.825M334.536 687.556c-.848-.04-1.505-.737-2.288-.187-.057.513-.121 1.061-.189 1.67 2.069 1.416 2.328.633 2.477-1.483M370.959 694.933c-1.86-1.031-2.194.616-1.484 1.543q1.13-.21 2.21-.435c.132-.488-.195-.659-.726-1.108M311.151 682.122c.819-.402.819-.402 1.18-1.252-.501-1.631-1.657-1.128-2.884-.605.156 1.15.867 1.573 1.704 1.857M295.254 689.199c.827.354 1.677.582 2.064-.404l-.594-1.616h-1.089c-.428.594-1.4 1.5-.381 2.02M293.333 685.769v-2.064c-1.036-.897-1.66.632-2.54.951.589 1.141 1.443 1.461 2.54 1.113M357.78 694.054l-.003-.098-.116.055z"/><path fill="#1E40AF" d="M286.743 681.183c.256.768.894.976 1.511 1.211v-2.7840000000000003c-1.327-.446-1.201.785-1.511 1.573M287.063 694.971c.392.101.783.203 1.189.303v-.825c-.748-.208-1.068.072-1.189.522M288.252 689.812v-2.7830000000000004c-1.434-.381-1.437 2.99 0 2.783M275.16 688.845l-.311-1.308-1.331-.643-.311.076c.097.871.587 1.721 1.434 2.539.192-.166.369-.385.519-.664M280.673 686.56c-2.209 1.73-1.096 3.98 1.515 2.699 1.346-.987-.176-2.479-1.515-2.699M285.969 693.176c.418-1.554-.231-2.996-2.03-2.612-.47.511-.985.873-1.219 1.595.594 1.156 2.083 1.358 3.249 1.017M276.154 686.101c1.725.152 2.126-.099 2.694-1.693-.459-.634-1.047-1.088-1.898-1.289-1.471 1.071-1.834 1.273-.796 2.982M276.423 690.88q.99.626 2.256 1.22c.013-1.061-1.272-1.507-2.256-1.22M284.847 682.997c-1.766.728-1.735 1.779-.651 3.125 2.111.078 2.468-2.151.651-3.125M281.132 682.146c1.01-.42 1.01-.42 1.442-1.094-.126-.512-.417-.851-.787-1.133-.826.297-1.591.603-2.309.914.35.693 1.165.851 1.654 1.313"/><path fill="#421B36" d="m320.392 86.469-5.728-29.092q-.93.391-1.858.784l17.734 24.76c.544.758 1.515.58 1.859-.243a305.6 305.6 0 0 1 26.229-49.344l-1.896-.513-.686 48.664c-.009.728.889 1.327 1.53.879l31.693-22.124-1.494-1.15-6.698 36.947c-.233 1.28 1.729 1.83 1.961.54q3.35-18.473 6.698-36.946c.142-.784-.698-1.704-1.494-1.149l-31.693 22.124q.766.44 1.53.88.343-24.333.685-48.665c.015-1.05-1.362-1.328-1.896-.514a308.3 308.3 0 0 0-26.434 49.83q.931-.12 1.859-.242l-17.734-24.76c-.671-.936-2.089-.381-1.859.784l5.727 29.092c.256 1.282 2.217.739 1.965-.542"/><path fill="#FFAE7A" d="M283.181 92.242c-.296-.721-3.529-14.105-3.529-14.105s11.714-12.28 10.694-19.586c-1.019-7.307-10.389-8.563-10.389-8.563s-2.58-16.75-16.218-8.269c0 0-8.203.416-8.413 9.084 0 0-7.033 6.416-2.944 18.761 4.088 12.346 8.53 11.428 8.53 11.428s4.966 18.763 9.846 21.113c4.881 2.347 13.904-6.26 12.423-9.863"/><path fill="#1E40AF" d="M280.867 37.74c-7.608-9.23-20.21-7.57-24.672-6.624.5-1.475.915-2.735 1.229-3.724q.05-.133.101-.279l.707-2.177c2.163-6.48-10.16-15.931-27.52-21.106-17.36-5.174-33.294-4.697-35.449 1.792a4.5 4.5 0 0 0-.209 1c-.302.768-.766 1.852-1.342 3.187-1.937-2.229-11.828-12.62-24.891-8.931-14.6 4.111-11.628 17.806-9.772 25.016 2.745 10.699 13.629 23.322 18.859 28.924-.567.935-1.556 1.692-2.793 2.121-2.033.705-3.098-.33-4.512-1.732-2.176-2.158-7.114-.879-6.089 2.82 1.815 6.537 8.695 8.588 14.481 5.763 4.401 11.27 14.63 20.48 16.334 21.83-.247 1.235-.673 2.444-1.272 3.653-1.353 2.767-3.555 5.46-6.294 8.106-.018.022-.044.037-.064.06-.366-.042-.722-.093-1.105-.137-8.768-.988-8.932 4.522-8.932 4.522-7.339.773-7.611 6.378-7.611 6.378-1.919 11.237 16.096 16.096 28.101 17.897 4.401.661 7.884-.27 9.933-1.953 4.748-3.895 1.912-8.107 1.912-8.107s1.457.072 1.62-3.07c.142-2.641-1.926-5.836-5.593-8.457-.83-3.761-.325-8.35 1.19-12.58.327-.938.71-1.865 1.138-2.753 5.784-.334 19.115-2.43 27.287-9.439a10.4 10.4 0 0 0 1.43 2.924c3.223 4.563 9.582 5.707 13.47 1.443 2.123-2.326-.675-5.934-3.424-5.44-1.59.286-2.699.616-3.799-.76-.356-.444-.633-1.028-.833-1.67 8.302-1.96 22.944-6.14 31.017-12.752 5.923-4.861 16.74-14.383 7.367-25.745m-100.769 7.658c-6.588-7.754-20.934-26.906-10.6-36.27 0 0 4.043-4.19 12.562 1.394 3.229 2.119 6.1 4.534 8.427 6.718-3.424 8.007-7.811 18.749-10.389 28.158m63.446 22.654h-.008c-.168.035-.319.077-.48.12 3.151-8.163 6.383-17.281 9.065-25.019.012-.032.023-.063.035-.104.464-1.346.908-2.66 1.338-3.91 3.16-.476 6.868-.844 10.678-.798 10.355.117 11.092 5.752 11.092 5.752 2.743 13.675-22.115 21.476-31.72 23.96"/><path fill="#262626" d="M231.28 77.644c-.008.011-.015.016-.023.026l-.01.002q-.002-.009-.005-.015c.012-.005.028-.003.038-.013m-.331-.143c-.086.128.165.221.293.156-.029-.166-.14-.176-.293-.156m-3.517 1.412c-.032.42.033.759.549 1.068.317-.257.687-.197 1.069-.132.928-.084.23-1.258-.135-1.648-.659-.256-1.401-.397-1.797-1.052q-.727.161-1.471.318c.778.267 2.01.364 1.785 1.447m-4.346.69c.715.316 1.288.193 1.797-.313.192-.705-.021-1.268-.434-1.576q-.871.175-1.76.342c-.078.548.176 1.025.397 1.548m7.014.863-.775 1.047c1.763 3.078 3.509-1.434.775-1.047m-31.859 8.081c.609-.71-.013-1.482-.607-1.936-.721.15-1.229.455-1.265 1.215.394.85 1.037.813 1.872.721m1.283-8.224c-.108.256-.196.457-.308.721.815 2.267 2.824.537 1.52-1.053-.412.03-.862.15-1.212.332m-15.756-10.8a92 92 0 0 0-.833-.352l-.882.498c-.013.107-.011.205-.01.3q.35.591.711 1.166c.676.225 1.517-.36 1.014-1.611m14.623 7.997c-1.196.095-1.411 1.426-.506 2.093.747.069 1.075-.483 1.546-.914-.384-.435-.7-.791-1.04-1.179m-3.008-.88c.588.394 1.34.58 1.688-.139a25 25 0 0 1-1.535-1.004c-.179.256-.264.635-.153 1.143m35.872 1.032-.009.001-.005-.014c-.129.065-.378-.03-.293-.158.153-.02.263-.008.293.158.011-.007.027-.005.037-.013-.006.01-.014.014-.023.026.354.029.425-.37.59-.593l-.407-.952q-.671.168-1.371.339c-.329.84.396 2.313 1.188 1.206m-37.228-3.249c.023-.005.039-.013.06-.02a32 32 0 0 1-.778-.656c.098.33.293.578.718.676m-9.858-6.089c.708 1.15 1.65 1.042 2.104-.187-.185-.898-.348-1.07-1.279-.94.106.662-.789.49-.825 1.127m4.404 4.497.781.819-.148.166c2.945.485.729-3.257-.633-.985m6.753 12.788c-.032.165-.078.327-.117.492 1.048.146 1.847-1.913-.239-1.812l-.542.558c.394.349.704.61.898.762m-13.978-23.746c-.722.418-1.562.891-.893 1.774.66.052 1.295.167 1.77-.378-.328-.588-.1-1.222-.877-1.396m43.438 19.155c1.299 1.124.587 1.81 2.194.421l.066-.717c-.812-.258-1.862-.731-2.26.296m-29.981-2.544c-.081-1.471-1.863-1.763-2.191-.29.43.873 1.459.832 2.191.29m5.083 6.074-.836.485c-.023.409.372.602.135.931.299.92 1.256.703 1.679-.023-.097-.621-.107-1.258-.978-1.393m24.611-1.037c-.233-.491-.472-.962-.69-1.456-.628.293-1.186.457-1.372 1.105.088.994 1.471 1.12 2.062.351m9.575-4.07c-.39-.664-2.163-1.166-2.045.039-.113 1.378 1.834 1.118 2.045-.04m6.47-5.337c.226-.323.373-.546.436-.646.01-.015.02-.031.028-.038.008-.008.01-.016.01-.016h-.008a65 65 0 0 1-1.167.37c.135.247.351.374.701.33m-11.45 9.48c-.464-1.111-1.759-.844-2.279-.019.386 1.107 1.799 1.029 2.279.02m-26.26-3.45c.523-.265.855-.66.925-1.061-.091-.016-.188-.03-.277-.046a19 19 0 0 1-1.294-.307c-.124.481.083 1.058.646 1.414m-14.402-3.16c-.28.61-.08 1.108.312 1.568.802.139.802.139 1.374-.714-.222-.656-.98-1.426-1.686-.853m50.502-2.268c-.613-.29-.686-.324-1.123-.322-.078.022-.149.044-.229.068-1.27 2.005 1.587 2.495 1.352.254m-25.918 5.653c-.081-.367-.144-.725-.283-.984a52 52 0 0 1-1.312.077l-.218.345c.197 1.128 1.035 1.56 1.813.562m-29.025-18.68c-.398-.757-.607-1.211-.607-1.211l-.706.38c-.031.043-.059.084-.094.13.569.653 1.059.8 1.407.7m19.465 28.289-.342.845c.584.654 1.071 1.124 1.865.397l.078-.832c-.437-.556-.968-.622-1.601-.41m15.361-3.35c-1.313-.62-1.725.337-1.111 1.19.493-.109.992-.23 1.497-.355.007-.239-.114-.52-.386-.835m-3.398-1.382c2.026.919 2.812-1.126.672-1.287-.438.228-1.149.747-.672 1.287m4.57-6.723q-.607.098-1.217.189a.86.86 0 0 1 .187.623c.576-.187.893-.491 1.03-.812m-28.748-3.888c-.531.302-.342.898-.659 1.214.529 1.203 2.081.714 1.71-.68-.348-.178-.706-.36-1.051-.534m26.395 5.33c-.461-.975-1.556-.744-1.926.278.48 1.115 2.025 1.073 1.926-.278m-11.089 4.932c.42-.158.932.01 1.386-.393.215-2.324-3.084-.879-1.386.393m-5.231 2.8-.101 1.08.636.3c.274-.108.537-.212.827-.33.316-1.14.316-1.14-.606-1.503zM184.96 71.82c-.055-.183-.324-.183-.503-.074-1.576 1.21.937 2.8 1.352.85-.253-.336-.721-.347-.849-.776m18.351 11.386-.895-.398c-.462.11-.876.248-1.099.677.127 1.125 1.188.813 1.963.661.012-.322.02-.594.031-.94m10.601 4.53c1.626-.374.522-2.156-.866-1.438-.202.744-.142 1.582.866 1.437m-5.572-8.23a35 35 0 0 1-1.642-.072c-.044.913 1.55.996 1.642.072m11.945 1.068c.419.763.977 1.043 1.75.883.007-.475.011-.908.018-1.345-.804-.419-1.432-.53-1.768.462m-8.947 7.39c-.314.406-.672.71-1.126.964.013.034.038.062.054.096a59 59 0 0 0 1.876-.22c-.239-.315-.432-.631-.804-.84m-7.745-1.616c.447.954 2.77.235 1.84-.685-1.616-1.175-.95-.242-1.84.685m30.423-10.89-.817.218c.138.05.289.09.464.116.14-.119.254-.23.353-.334M179.542 65.13l.086-.175a3 3 0 0 0-.279-.284q.094.23.193.46m14.182 16.883c-.929-.299-1.22.158-1.346.925l.575.557c.902.135 1.642-.533.771-1.481m15.189.569a2.73 2.73 0 0 0 1.592-.682c-.085-1.734-2.765-.759-1.592.681m-1.414 6.347c.055-.7 0-.796-.739-1.253-1.986 1.014-.933 2.404.739 1.253m-11.224-7.326c.35-.04.487-.43.212-.688-.35-.31-.083-.767-.357-1.14-.324-.037-.5.069-.81.136-.624 1.03-.381 1.902.955 1.692m13.267 5.243c.441-.17.392-.521.349-.913-.826-.884-1.896.395-1.487 1.336.29.09.597.189.893.189.171-.192-.031-.505.245-.612m-15.259 2.528c.482.216.98.418 1.486.611.029-.082.06-.165.065-.266-.252-.787-.985-.75-1.551-.346m4.476.885c.236.949 1.372.898 1.901.163-.14-.181-.314-.3-.318-.425-.143-.973-1.797-.726-1.583.262m22.096-4.027c.309-.285.605-.558.913-.84-.062-.232-.124-.473-.215-.82-1.535-.166-2.466 1.066-.698 1.66m-34.598-10.408c.444.042.876.081 1.366.128.805-1.894-2.434-2.042-1.366-.128m10.809 7.703 1.04.576c1.416-2.036-.736-3.024-1.04-.576m-11.538-19.158q-.35-.57-.645-1.076l-.223.13c.274.345.505.708.868.946m-4.535 2.269c-.244.084-.459.138-.638.236q.356.722.736 1.427c.439-.568.661-1.15-.098-1.663m33.436 14.622c-1.434.421-1.417 2.168.171 1.997-.111-.378.008-.669.246-.915-.14-.366-.26-.678-.417-1.082m-24.039-1.104.459.75c1.046.365 1.124-.509 1.093-1.318l-.963-.306c-.432.194-.349.629-.589.874m-2.766-8.877.798-.804c-1.398-1.97-2.91 1.052-.798.804m-3.507-5.297c-.287-.54-.542-1.027-.905-1.714-.238.573-.5.937-.767 1.302.15.337.147.72.523.869zm35.525 16.427c-.797-.915-1.57.06-1.593.944l.451.38c.345-.191.646-.359.947-.528zm15.401-5.73-.195.842c.953 1.16 1.422.954 1.56-.506-.468-.119-.797-.488-1.365-.335m-30.464 3.907c-.197.32-.405.654-.638 1.029.71.477 1.217 1.134 1.94.122-.264-.235-.457-.454-.693-.604s-.181-.583-.609-.547m7.93 3.877-1.022-.926c-.44.59-.44.59-.445 1.564 1.177.22 1.214.204 1.467-.638m13.506.687c-1.068-.8-1.693.049-1.275.638q.647-.234 1.292-.49-.005-.076-.017-.148" opacity=".3"/><path fill="#262626" d="M238.271 78.437c4.251-5.313 6.451-11.827 8.658-18.17 2.416-6.941 4.667-13.94 6.971-20.919a685 685 0 0 1 4.091-12.059c.213-.609-.725-.965-.938-.356-2.402 6.842-4.639 13.738-6.904 20.626-2.227 6.77-4.359 13.625-7.041 20.23-1.457 3.585-3.224 7.03-5.65 10.062-.407.507.411 1.088.813.586M195.754 85.263c3.958-2.562 11.53-1.35 12.15 3.99.049.422.757.517.864.082.809-3.273-2.132-5.832-5.049-6.525-2.148-.511-8.002-.88-8.46 2.19-.044.289.295.393.495.263M186.545 97.804c6.833.364 13.859 2.745 19.182 7.11.499.411 1.082-.406.584-.815-5.448-4.47-12.677-6.922-19.673-7.295-.641-.032-.739.965-.093 1M175.463 102.989c6.771-.959 13.646.223 19.94 2.806a52 52 0 0 1 8.291 4.298c2.454 1.573 4.533 3.523 5.848 6.156.288.576 1.2.156.91-.423-1.297-2.596-3.281-4.614-5.677-6.222-2.7-1.812-5.689-3.352-8.682-4.608-6.548-2.748-13.739-3.996-20.804-2.995-.64.091-.465 1.078.174.988"/><path fill="#262626" d="M209.041 122.937c-1.341 4.22-11.195 4.855-22.007 1.416-10.812-3.438-18.49-9.647-17.147-13.867s11.195-4.855 22.007-1.416 18.488 9.647 17.147 13.867M195.139 7.113c18.237-4.583 38.003-1.079 53.141 10.225 1.768 1.32 3.364 2.839 4.844 4.474 1.505 1.665 2.987 3.465 3.942 5.511.273.585 1.183.165.91-.423-1.647-3.525-4.627-6.624-7.547-9.136-3.495-3.004-7.619-5.424-11.76-7.418-8.555-4.121-18.042-6.239-27.534-6.239-5.452 0-10.884.689-16.172 2.017-.62.158-.452 1.146.176.99"/><path fill="#fff" d="M165.424 3.95c-4.126 1.73-6.771 5.834-6.367 10.36.073.826 1.486.784 1.474-.06-.057-3.924 1.719-7.628 5.192-9.655.391-.227.13-.825-.299-.644M159.223 17.945q.023.031.045.065.1.129.245.192.137.09.304.1a.6.6 0 0 0 .317-.041.6.6 0 0 0 .275-.143l.142-.152a.8.8 0 0 0 .148-.397l-.008-.218a.84.84 0 0 0-.174-.376l-.055-.057a.6.6 0 0 0-.243-.19.6.6 0 0 0-.303-.098.6.6 0 0 0-.316.04.6.6 0 0 0-.275.142l-.14.152a.8.8 0 0 0-.148.395q.005.108.008.217a.9.9 0 0 0 .178.369M271.868 34.848c3.978 1.753 6.45 5.22 6.93 9.503.094.847 1.317.585 1.278-.226-.215-4.565-3.589-8.72-7.961-9.932-.43-.12-.666.47-.247.655M268.134 34.039q.102.042.208.084a.73.73 0 0 0 .734-.122.76.76 0 0 0 .264-.5.77.77 0 0 0-.166-.54.74.74 0 0 0-.698-.257l-.22.046-.166.052a.5.5 0 0 0-.204.154.33.33 0 0 0-.099.14.5.5 0 0 0-.081.253.8.8 0 0 0 .06.345.68.68 0 0 0 .368.345"/><path fill="#262626" d="M178.972 63.958c3.763-.811 6.234-4.23 6.545-7.961.361-4.35-1.885-8.31-4.728-11.421-.435-.475-1.21.163-.773.64 2.526 2.762 4.609 6.191 4.534 10.057-.068 3.499-2.182 6.928-5.753 7.696-.629.136-.458 1.125.175.989M193.715 10.041c4.193 3.282 10.954 1.538 13.494-2.976l-.901-.206c.875 3.182 3.523 5.687 6.761 6.376 3.392.723 7.037-.67 9.108-3.438l-.902-.205c1.169 6.237 8.884 8.67 13.628 4.634l-.814-.3c1.039 5.567 6.82 8.812 12.178 7.26q-.293-.272-.586-.54c-.975 6.077 4.774 10.82 10.589 9.638.632-.129.461-1.117-.174-.988-5.205 1.058-10.288-3.117-9.416-8.558.048-.3-.283-.628-.587-.54-4.826 1.398-10.07-1.377-11.016-6.447-.068-.367-.522-.545-.814-.3-4.165 3.544-10.968 1.47-12-4.036-.08-.428-.643-.55-.902-.205-1.803 2.409-4.952 3.63-7.915 3.08-2.885-.535-5.372-2.778-6.152-5.61-.101-.364-.667-.62-.902-.205-2.28 4.052-8.296 5.72-12.094 2.748-.507-.396-1.089.421-.583.818"/><path fill="#fff" d="M192.843 95.919c2.465-2.666 4.609-6.02 6.394-9.178.459-.81-.626-1.647-1.201-.863-2.174 2.974-4.355 6.32-5.786 9.722-.161.384.35.58.593.319M214.333 34.443s8.708-11.524 9.634-7.832c.926 3.69-1.457 11.404-1.457 11.404l6.942 3.254c2.65 1.276 7.121 3.676-1.875 3.96l-4.613.236s-2.106 11.68-3.906 12.23c-1.69.515-3.765-9.701-3.765-9.701s-12.015 8.034-11.201 3.945 5.77-12.065 5.77-12.065-10.387-9.85-5.443-9.302c1.052.119 9.914 3.87 9.914 3.87M180.103 100.937c.594-.004 1.078-.412 1.633-.599.643-.215 1.336-.246 2.002-.152.927.13.997-1.22.133-1.414a4.36 4.36 0 0 0-2.534.189c-.664.249-1.535.734-1.624 1.504-.026.214.159.473.39.472M172.709 106.905c.672-.666 1.483-1.02 2.43-.959 1.009.067 1.089-1.326.143-1.528-1.401-.298-2.931.55-3.398 1.896-.16.462.433.98.825.591"/><path fill="#262626" d="M190.567 17.807c2.145.366 4.46-.952 5.147-3.04.613-1.868.164-4.273-1.413-5.541-.505-.405-1.086.412-.584.815 1.212.974 1.526 2.95 1.059 4.372-.557 1.693-2.386 2.69-4.115 2.396-.636-.11-.727.89-.094.998"/><path fill="#fff" d="M190.328 52.654c.268 8.287 3.429 15.877 9.093 21.99.589.635 1.605-.189 1.044-.864-5.097-6.131-8.418-13.293-9.924-21.134-.023-.114-.218-.116-.213.008"/><path fill="#FFAE7A" d="M279.685 51.046c-6.11 1.302-11.533 5.51-14.313 11.103-.739 1.488-1.306 3.197-.837 4.79.607 2.06 2.873 3.316 5.021 3.282 2.149-.033 4.152-1.11 5.84-2.439s3.15-2.924 4.834-4.257c-1.072 1.774-.363 4.296 1.332 5.491 1.694 1.193 2.998.53 4.788-.513s2.842-2.973 3.379-4.975c.879-3.275 1.268-6.327-.972-8.872-2.239-2.546-5.788-3.874-9.147-3.42"/><path fill="#FFAE7A" d="M264.091 41.641c2.508-1.811 5.843-2.428 8.833-1.634 2.992.794 5.579 2.985 6.857 5.804.619 1.364.939 2.907.63 4.372s-1.328 2.824-2.751 3.291c-1.295.425-1.014.482-2.185-.218s-1.054-1.335-1.981-2.334c3.408 1.053 2.436 2.433-.871 4.463-1.696 1.04-2.352 3.405-4.336 3.532s-3.984-1.114-4.753-2.948c.86 1.105 4.234 3.936 4.698 5.257s.055 4.546-.769 5.677c-.966 1.329-2.141 1.823-3.785 1.83-2.325.008-7.426-4.066-9.258-5.493-1.833-1.43-3.054-3.718-2.909-6.035.145-2.32 1.802-4.548 4.063-5.084a8.74 8.74 0 0 1 1.922-6.738 8.73 8.73 0 0 1 6.291-3.084"/><path fill="#262626" d="M283.995 50.427c-2.738-.797-5.63.088-7.868 1.743-1.167.863-2.191 1.887-3.143 2.979-.967 1.108-1.966 2.25-2.748 3.5-1.359 2.172-1.717 5.286.624 6.94 2.178 1.537 4.988.794 7.067-.51 1.476-.925 2.837-2.048 4.228-3.093q2.3-1.726 4.6-3.453c.819-.616.016-2.014-.812-1.39l-6.589 4.948c-1.727 1.297-3.732 3-6.046 2.727-.977-.114-1.94-.6-2.347-1.538-.493-1.136-.124-2.443.457-3.468.593-1.048 1.395-1.971 2.165-2.89.768-.917 1.569-1.812 2.459-2.613 2.03-1.825 4.772-3.128 7.525-2.327.996.29 1.422-1.265.428-1.555"/><path fill="#262626" d="M256.171 61.946c.962 2.423 2.143 4.827 4.341 6.36 1.893 1.32 4.428 1.69 6.458.454.898-.546 1.61-1.367 1.974-2.358.433-1.178.799-2.539.633-3.799-.159-1.21-.848-2.324-1.503-3.328-.718-1.102-1.527-2.14-2.318-3.19-1.683-2.235-3.436-4.208-6.183-5.101-.988-.323-1.412 1.232-.429 1.552 2.51.818 4.019 2.77 5.547 4.792 1.478 1.955 3.785 4.359 3.177 6.99-.278 1.208-.595 2.369-1.709 3.053-1.027.631-2.244.693-3.372.307-2.697-.923-4.08-3.688-5.062-6.16-.379-.953-1.937-.538-1.554.428M262.052 42.576c5.646.838 10.641 4.824 12.568 10.224.345.969 1.903.552 1.553-.428-2.103-5.895-7.476-10.426-13.693-11.35-1.014-.15-1.452 1.4-.428 1.554"/><path fill="#1E40AF" d="M357.009 289.906s24.909-32.759 38.833-27.82c13.924 4.936 19.858 32.282 12.661 39.79-7.199 7.508-50.872 44.764-60.319 36.17s5.879-48.757 5.879-48.757"/><path fill="#262626" d="M372.924 321.168c-2.515-.521-1.022-2.931.667-3.61 2.708.612 1.073 3.688-.667 3.61m-14.243-18.513c-4.983 1.011 1.972 7.007 1.404 1.148-.486-.332-.781-.925-1.404-1.148m3.317 3.786-1.356 1.125c-.35 2.523 1.738 2.884 3.288 1.836.084-1.222-.476-2.756-1.932-2.961m-5.912-6.743c-.49-.241-.972-.478-1.426-.705-.9.503-1.079 1.392-1.442 2.092.266.499.502.939.793 1.487 1.953.567 3.234-1.254 2.075-2.874m21.655 14.16c-2.918.248-3.383 2.232-.598 3.286 1.938.002 2.236-2.482.598-3.286m-9.505 10.15c1.488 1.683 3.933-.604 2.681-2.463-1.618-.423-3.965.57-2.681 2.463m11.766-6.551-1.177 1.847c2.16 4.637 5.56-1.18 1.177-1.847m2.163-14.002-1.209-.835c-1.278.263-2.397 1.569-1.657 2.963 1.746 1.143 3.399-.161 2.866-2.128m-36.894 8.035-.637 1.419c.505-.431.782-.916.637-1.419m29.718 15.342c-.916-2.359-2.008-2.274-3.559-.506.12 2.314 2.807 2.596 3.559.506m-9.188-5.741c1.973-1.001 2.679-3.266-.249-3.305-1.941.299-1.465 2.895.249 3.305m-13.59-25.084-1.1 2.454c.96.212 1.743-.493 1.1-2.454m16.992 10.441c-1.128.573-1.574 2.252-.739 3.149 2.645.931 4.035-3.185.739-3.149m-12.241 6.489c1.725.967 2.436.739 3.309-1.092-.824-2.562-3.963-1.46-3.309 1.092m-5.58 4.902-.833.443c-.529-.153-.498-1.016-1.392-.784-.068 6.01 5.814 2.736 2.225.341m24.768 3.526c-1.569 2.161-.155 4.082 2.218 2.555.483-1.499-.789-3.34-2.218-2.555m-8.013-27.639c.07.616.117.754.602.842 1.294.474 2.207-.122 2.717-1.318-1.014-1.97-3.921-2.315-3.319.476m9.424 1.452c1.092-.298.257-1.748.947-2.536-2.791-3.004-4.725 2.758-.947 2.536m-20.264 3.303c2.039.688 2.276-.466 2.949-2.102-1.691-1.65-5.216.313-2.949 2.102m10.119-29.75c.164-1.085.485-2.929-1.281-2.885a1 1 0 0 0-.404-.009l-1.126 2.513c.62.555 2.223.534 2.811.381m-14.71 42.878c-.85-1.362-3.041-1.387-3.498.335.574 2.316 3.958 1.984 3.498-.335m34.785 6.444c-.578.257-.996.83-.93 1.731.085.292.199.523.328.708.091-.127.187-.255.26-.374.259-.433.356-1.152.342-2.065m-39.416 6.422c.052-.659.956-.946.846-1.878-.887-1.231-2.028-1.538-2.804-.77q.222 1.133.474 2.311c.364.318.799.528 1.484.337m14.063 7.43c2.462.415 2.321-3.576-.189-2.951-1.187.319-1.678 3.483.189 2.951m4.563-28.616c-2.33-1.145-2.635 1.463-1.549 3.001 1.574.272 3.729-2.215 1.549-3.001m5.026 8.535.404 1.092c.599.291 1.082.529 1.589.776.21-.107.434-.223.73-.376-.201-.9-.201-.9.507-1.665-.547-1.946-2.997-1.813-3.23.173m-2.075 2.034c-1.743 1.203-2.384 3.238.249 3.566.957-.761 1.022-.867 1.416-2.295-.442-.584-.993-.804-1.665-1.271m-16.369 2.847c.93.915 2.902-.011 3.264-1.488-1.159-2.226-4.066-.717-3.264 1.488m18.108-26.782c1.131 1.39 1.354 1.443 2.996.773.793-1.647-.011-1.808-1.125-2.795-1.084.28-1.592.985-1.871 2.022m-5.179 34.933-1.853 1.169c-.674 4.353 5.925 1.11 1.853-1.169m-5.534 12.345q.713-.31 1.461-.654l-.906-.148c-.28.259-.443.531-.555.802m-6.426-42.588c1.974.847 2.27-1.43 1.505-2.739-.638-.275-1.276-.15-1.767.163l-.816 1.82c.14.337.476.618 1.078.756m-5.125 32.245c.538.324.719.705 1.007 1.156.716.507 2.022-.269 2.358-.949.572-2.746-2.737-2.46-3.365-.207m-.674-9.795c1.054-1.283.849-2.716-.48-2.624-.827.454-2.137-.171-2.391 1.022.582 1.555 1.202 2.002 2.871 1.602m7.378 6.554c.678-1.227.14-1.982-1.024-2.337-1.263.195-1.371 1.117-1.626 1.983.142 1.403 2.506 2.098 2.65.354m22.374-15.527c.118-.827-.833-1.681-1.673-1.51-3.721.669 1.485 5.711 1.673 1.51m-24.648-.352c-.2 2.424 2.77 2.758 2.695.046.252-1.644-3.162-2.069-2.695-.046m13.813-11.523c-.849-.506-1.894-1.24-2.405-.01-.174.663-1.157.567-.956 1.366.975 1.673 4.086 1.238 3.361-1.356m-2.724 14.767c-.653 2.53 2.221 3.392 3.05.912-1.152-1.532-1.27-2.565-3.05-.912m.719-19.835c4.212-.161.884-5.332-1.222-1.719.141.853.706 1.222 1.222 1.719m21.226 21.215q.01.208.091.388-.044-.192-.091-.388m-24.566-13.442c-.898.335-1.373 1.012-1.707 1.903 1.369 3.621 4.753-.137 1.707-1.903m14.06-14.461c-.892.221-.905 1.733-.087 2.008.559.189.367.65.603.917.849.061 1.241.074 1.515-.227q-.503-1.303-1.006-2.589c-.34-.112-.687-.179-1.025-.109m7.924 25.164c.718-.07.681-.949 1.345-.626q.192 0 .338-.028-.293-1.03-.623-2.118c-.374-.27-.776-.45-1.105-.433-1.566.905-1.161 2.237.045 3.205m-1.323 6.193c1.094 1.652 2.302 1.564 3.592.218-.861-2.176-2.729-2.659-3.592-.218m-33.644-7.526c-.646-.775-1.082-1.364-1.655-1.522l-1.086 2.422q.236.267.575.502c.931-.298 1.984-.147 2.166-1.402m13.493-31.217c-1.672.35-1.727.879-1.706 2.472.77.26 1.476.728 2.44.366.757-1.422 1.009-2.086-.734-2.838m.747 39.886c.664-1.623-1.175-3.517-2.539-2.139-.876 1.515 1.253 3.532 2.539 2.139m13.094-14.46c4.394.047 1.4-5.436-.926-1.753.267.617.49 1.231.926 1.753m2.698-5.613.632 1.274c1.575.633 2.091.168 2.209-.781l-.671-1.869c-.29-.166-.586-.265-.942-.221zm-13.984 38.243q1.118-.557 2.262-1.158c-.319-2.696-4.575-.728-2.262 1.158m-8.812-4.353c-.089-1.579-1.367-2.408-2.71-1.439-1.329 1.994 1.662 3.856 2.71 1.439m4.431-45.717.585 1.957 1.145.747c1.365-.475 1.32-1.471 1.155-2.572-.905-.49-1.792-.98-2.885-.132m9.897 46.856c1.631-1.366.119-2.64-1.45-2.889-.926.412-.877 1.258-.956 2.1.645.654 1.369 1.04 2.406.789m13.441-10.137c-.781-.001-1.24.386-1.338 1.139.241.406.48.694.714.931a30 30 0 0 0 2.108-1.829c-.311-.231-.789-.348-1.484-.241m-13.667-19.521c.412-.493.843-.961 1.028-1.783-2.934-3.527-4.812 1.721-1.028 1.783m-17.119 35.739c.454.603.756 1.009 1.046 1.394.402-.071.86-.185 1.345-.322.162-.268.286-.693.499-1.46-.462-1.375-2.947-1.312-2.89.388m18.506-41.333c.319 2.654 2.954 2.57 3.04-.241-1.026-1.11-2.233-1.096-3.04.241m-20.43 9.334c1.452-.661 1.417-2.692.029-3.267-2.069.397-1.478.931-1.704 2.365.441.674 1.117.638 1.675.902m17.711-41.141-.807-1.89a6 6 0 0 0-.247.64c.246.75.636 1.118 1.054 1.25m2.326 21.468a232 232 0 0 0-.475-1.297c-5.174-1.961-1.883 5.137.475 1.297m-11.51-3.372c.14-1.467.148-1.628-.876-2.069l-1.116 2.49c1.074.104 1.145.072 1.992-.421m-1.546 8.141c2.19-.376 2.011-2.992-.144-2.935-1.648.503-1.469 2.434.144 2.935m23.769 20.072c-1.172-1.096-2.674-.245-3.221 1.069.861 1.72 3.874 1.335 3.221-1.069m-10.259-35.456c.331.294.702.623 1.089.97.35-.111.64-.254.878-.418-.365-.897-.72-1.763-1.067-2.606a3.4 3.4 0 0 0-.753.206zm-15.325 10.98c-.002-.056-.023-.121-.036-.181l-.119.265c.052-.027.104-.05.155-.084m7.078-16.053-.869 1.938.134.054c.839-.528.986-1.34.735-1.992m6.304 6.432-1.113.351c-.738 1.182-.619 3.322 1.201 2.852.33-.402.679-.825 1.016-1.237-.274-.734-.088-1.637-1.104-1.966m-11.063 40.791c-.573.146-1.059.273-1.515.391-.163.494-.305.927-.431 1.315 1.095 2.511 5.312-.414 1.946-1.706m9.369-46.9 1.346 1.648c.918-.007 1.399-.868 1.569-1.742-.669-1.885-2.673-2.155-2.915.094m-18.619 62.31c.347.734-.022 1.543.513 2.349 3.586.208 2.342-4.515-.513-2.349m7.401-7.218c-.166 1.378.601 1.43 1.419 2.036 3.262.56.806-4.297-1.419-2.036m3.002 8.243c-.713-1.451-.713-1.451-2.318-1.209-1.467 2.282 1.224 3.82 2.318 1.209m-11.234-3.492c-.788-.651-.223-1.558-.982-2.152l-.115.041c.247.978.506 1.94.775 2.859.293-.088.459-.299.322-.748m14.619-7.079-.122-1.81c-1.164-.846-2.069.445-2.72 1.345 1.037 1.587 1.473 1.406 2.842.465m11.434-19.577c-1.17-1.43-2.813-1.574-3.161.503 1.102 1.485 2.547 1.254 3.161-.503m-2.582-22.856c-.41.776.357 1.317.121 2.002 3.377 1.577 3.1-3.218-.121-2.002m6.679 45.224c.079.175.17.303.258.45q.715-.482 1.387-.956c-.723-.145-1.357-.314-1.645.506m-16.524-34.295-1.239.812-.087 1.495h2.143l.84-1.216zm2.637-18.24c-1.571 2.535 1.517 2.081 2.632.867-.29-.96-.604-1.064-2.632-.867m-.249 7.555c-.768 1.566 1.012 1.727 2.218 1.828 1.322-1.75-1.054-2.199-2.218-1.828" opacity=".2"/><path fill="#FFAE7A" d="M417.849 244.055s.304-3.802-4.715-3.042-10.554 11.558-11.284 14.753 0 10.797 0 10.797-3.772 2.434-4.229 7.3c-.456 4.867 6.691 12.775 12.166 10.951 5.476-1.825 23.573-21.9 26.159-24.029 2.587-2.129-.913-7.148-.913-7.148s4.338-4.867 1.865-8.364-11.445-7.758-19.049-1.218"/><path fill="#262626" d="M417.118 243.489c-5.52 5.631-12.663 12.798-12.457 21.339.085 3.482 2.107 7.191 5.775 7.902 3.189.619 6.625-2.018 6.223-5.39-.121-1.016-1.734-1.029-1.61 0 .194 1.621-.793 3.082-2.324 3.655-1.545.578-3.195-.032-4.359-1.105-2.692-2.482-2.349-6.486-1.325-9.67 1.997-6.21 6.758-11.043 11.216-15.592.724-.741-.414-1.88-1.139-1.139"/><path fill="#262626" d="M407.122 260.046c6.009-3.369 13.493-1.78 17.71 3.623.636.816 1.769-.33 1.137-1.139-4.659-5.97-13.079-7.565-19.661-3.874-.903.507-.093 1.898.814 1.39M412.974 250.419c5.939-2.86 13.208-1.139 17.186 4.128.616.817 2.015.014 1.39-.812-4.537-6.006-12.592-7.979-19.39-4.706-.933.449-.117 1.839.814 1.39M353.378 660.159c-1.139-.773-2.566-1.226-3.722-2.194-5.262-4.41-10.137-11.062-12.56-17.268-2.956-7.566 5.286-37.086 5.986-37.828l-32.204 7.688c3.007 26.372 3.011 26.512 2.103 35.007-.913 8.542-7.534 29.66-4.791 34.779 2.742 5.118 40.463 10.913 54.606 11.738 21.971 1.282 29.511-8.267 29.567-11.084.039-1.932-32.657-16.543-38.985-20.838"/><path fill="#1E40AF" d="m383.691 675.777-30.312-15.618c-3.091-1.685-6.252-4.781-9.445-8.55 0 0-8.85 7.396-18.023 7.537s-14.456-5.231-14.456-5.231c-1.651 7.237-3.138 14.134-3.71 19.116 0 0 18.736 13.604 43.225 14.208 24.489.602 38.382-8.544 38.382-8.544z"/><path fill="#fff" d="M391.937 680.357c-.681-.534-1.353-.941-2.583-1.662-.455.297-14.244 8.851-38.322 8.265-24.489-.6-43.285-13.927-43.285-13.927-.356 3.252-.36 6.035.399 7.446a2.3 2.3 0 0 0 .356.477c.301.327.739.653 1.291.978 7.969 4.701 40.15 9.54 52.962 10.287 16.893.989 25.072-4.375 28.166-8.205 1.549-2.02 1.717-3.107 1.016-3.659"/><path fill="#1E40AF" d="M344.371 652.607s1.628-8.29-3.075-13.217c-4.322-4.528-20.053 2.65-19.352 8.327.622 5.039 8.487 10.602 3.968 11.429s-13.585-4.798-14.044-4.915v8.493l11.704 7.949h13.073l8.087-7.039 7.121-4.416c-1.722-.962-4.715-3.804-7.482-6.611"/><path fill="#fff" d="M339.022 662.509c2.351-2.775 5.594-4.225 9.218-4.219 1.156.002 1.153-1.766 0-1.793-4.049-.096-7.825 1.738-10.304 4.925-.594.763.436 1.855 1.086 1.087M357.021 661.913c-4.095-.413-8.856 2.331-10.748 5.952-.547 1.047.883 2.333 1.723 1.33 1.249-1.489 2.352-2.84 3.989-3.932 1.61-1.074 3.368-1.623 5.189-2.219.641-.208.485-1.066-.153-1.131M364.575 666.075c-3.682-.513-7.828 2.634-9.987 5.327-.902 1.123.621 2.736 1.616 1.618 1.196-1.346 2.519-2.55 4.035-3.532 1.416-.916 3.113-1.343 4.482-2.292.376-.263.427-1.043-.146-1.121M309.049 665.064s21.631 8.615 25.413 13.057 4.016 7.702 4.016 7.702l4.881.812s.48-7.197-7.91-12.625-25.479-13.415-25.479-13.415z"/><path fill="#262626" d="M344.037 652.498c-3.837.387-9.171 2.057-11.152 5.695-.373.683.366 1.383 1.039 1.038 1.792-.916 3.19-2.533 4.886-3.626 1.684-1.086 3.452-2.093 5.276-2.92.091-.039.049-.197-.049-.187"/><path fill="#1E40AF" d="M310.722 654.626c-1.076 4.921-1.885 9.906-2.575 14.895-.303 2.186-.586 4.378-.784 6.577-.121 1.325-.365 2.822-.113 4.147.513 2.679 5.275 3.896 7.496 4.617 4.267 1.384 8.668 2.365 13.061 3.261a295 295 0 0 0 29.276 4.445c9.583.963 20.036 1.245 28.763-3.487 1.538-.833 3.001-1.839 4.282-3.034 1.273-1.186 3.021-2.983 3.009-4.817-.009-1.711-2.028-2.224-3.305-2.788-1.955-.865-4.017-1.604-5.884-2.65-.913-.513-1.735.892-.82 1.404 1.453.816 3.048 1.412 4.573 2.077.752.327 3.636 1.123 3.796 1.986.231 1.247-1.953 3.149-2.849 3.939-1.137 1.004-2.418 1.837-3.754 2.55-8.186 4.37-18.005 4.138-26.978 3.275-8.984-.864-17.944-2.207-26.808-3.903-4.261-.814-8.514-1.716-12.697-2.866-2.865-.788-6.276-1.559-8.722-3.347-1.244-.908-.9-2.21-.787-3.753.166-2.269.45-4.531.757-6.785.697-5.127 1.527-10.253 2.632-15.308.223-1.022-1.344-1.458-1.569-.435"/><path fill="#262626" d="M176.008 368.235c1.311.421 2.809.452 4.189 1.056 6.291 2.748 12.843 7.757 16.917 13.028 4.969 6.427 5.381 37.073 4.917 37.983l28.731-16.454c-10.318-24.456-10.362-24.588-11.883-32.994-1.532-8.454-1.13-30.581-5.204-34.72s-41.898.932-55.701 4.126c-21.441 4.961-25.985 16.248-25.244 18.966.509 1.867 35.996 6.672 43.278 9.009"/><path fill="#1E40AF" d="m142.523 361.793 33.485 6.443c3.44.744 7.345 2.824 11.471 5.542 0 0 6.406-9.589 15.168-12.311 8.761-2.721 15.345.944 15.345.944-.456-7.409-.972-14.446-1.828-19.386 0 0-21.81-7.774-45.477-1.45s-34.419 19.013-34.419 19.013z"/><path fill="#fff" d="M133.322 359.722c.803.321 1.563.523 2.948.868.353-.412 11.17-12.507 34.44-18.73 23.665-6.327 45.456 1.165 45.456 1.165-.575-3.221-1.356-5.892-2.483-7.031a2.2 2.2 0 0 0-.476-.357c-.381-.229-.894-.418-1.514-.576-8.97-2.266-41.211 2.163-53.716 5.055-16.488 3.812-22.822 11.265-24.712 15.809-.918 2.373-.773 3.465.057 3.797"/><path fill="#1E40AF" d="M186.779 372.944s.775 8.413 6.675 11.813c5.423 3.126 18.495-8.194 16.221-13.443-2.017-4.659-11.131-7.78-7.028-9.847s14.386.775 14.862.759l-2.395-8.15-13.471-4.329-12.544 3.685-5.775 9.033-5.588 6.244c1.924.436 5.598 2.319 9.043 4.235"/><path fill="#fff" d="M189.121 361.933c-1.475 3.325-4.177 5.631-7.656 6.645-1.109.324-.609 2.02.504 1.721 3.911-1.05 7.018-3.874 8.5-7.631.354-.896-.941-1.655-1.348-.735M172.018 367.577c4.047-.758 7.841-4.733 8.635-8.74.229-1.159-1.506-1.989-2.03-.791-.778 1.781-1.456 3.389-2.719 4.898-1.242 1.484-2.774 2.506-4.353 3.59-.555.383-.162 1.162.467 1.043M163.599 365.714c3.676-.547 6.767-4.733 8.081-7.927.548-1.331-1.367-2.449-2.007-1.095-.768 1.628-1.698 3.157-2.876 4.525-1.1 1.279-2.609 2.164-3.656 3.463-.286.357-.115 1.12.458 1.034M217.159 351.036s-23.182-2.17-28.064-5.365c-4.881-3.195-6.023-6.258-6.023-6.258l-4.912.598s1.567 7.041 11.147 9.884c9.58 2.845 28.228 5.69 28.228 5.69z"/><path fill="#262626" d="M187.129 372.953c3.574-1.453 8.221-4.559 9.095-8.606.165-.762-.74-1.224-1.289-.704-1.462 1.384-2.349 3.329-3.667 4.857-1.31 1.517-2.723 2.982-4.24 4.289-.075.062.01.2.101.164"/><path fill="#1E40AF" d="M218.495 361.521c-.355-5.024-.985-10.036-1.727-15.016-.325-2.183-.672-4.365-1.102-6.532-.258-1.305-.444-2.811-1.061-4.01-1.247-2.427-6.159-2.253-8.493-2.318-4.484-.125-8.984.174-13.45.552a294 294 0 0 0-29.341 3.986c-9.466 1.776-19.575 4.453-26.615 11.45-1.24 1.234-2.361 2.611-3.253 4.118-.886 1.497-2.058 3.712-1.53 5.47.491 1.639 2.573 1.561 3.958 1.743 2.119.279 4.307.406 6.393.884 1.021.235 1.413-1.344.393-1.579-1.625-.372-3.324-.494-4.974-.703-.814-.102-3.806-.053-4.201-.835-.573-1.131.986-3.572 1.623-4.583.807-1.283 1.801-2.445 2.884-3.506 6.622-6.499 16.108-9.044 24.961-10.744 8.864-1.702 17.838-2.939 26.821-3.812 4.318-.419 8.652-.753 12.99-.828 2.97-.052 6.461-.273 9.311.754 1.449.52 1.486 1.866 1.813 3.38.481 2.225.847 4.474 1.187 6.724.776 5.115 1.426 10.267 1.789 15.429.071 1.045 1.697 1.023 1.624-.024"/><path fill="#262626" d="M301.457 400.017s-6.963 77.76-4.328 126.239-2.145 99.809 11.662 103.813c13.809 4.004 48.034 7.381 55.363-7.749 7.331-15.13-4.728-201.247-5.251-210.177-.638-10.882-6.915-88.456-8.515-91.298s-33.021-3.932-33.021-3.932z"/><path fill="#262626" d="M287.254 313.009s-26.365 20.135-33.636 39.707c-7.269 19.572-18.453 66.543-18.453 66.543s4.472-40.821-10.066-41.939-31.315 23.486-34.109 38.024c-2.796 14.54 5.032 103.449 38.024 108.483 32.991 5.034 79.544-132.623 79.544-132.623l8.809-74.289z"/><path fill="#1E40AF" d="M290.803 438.852c7.893-17.998 14.873-36.411 22.049-54.702 1.727-4.403 3.453-8.807 5.197-13.204.382-.963-1.175-1.381-1.553-.428-7.183 18.109-14.162 36.299-21.537 54.331-1.805 4.414-3.631 8.822-5.546 13.19-.412.94.975 1.76 1.39.813M224.572 469.814l16.865-72.575c.235-1.009-1.318-1.439-1.552-.428l-16.866 72.574c-.232 1.008 1.319 1.439 1.553.429M311.9 392.93a1339 1339 0 0 0-2.29 89.569 1335 1335 0 0 0 3.725 89.522 1342 1342 0 0 0 4.734 50.162c.115 1.018 1.726 1.031 1.609 0a1338 1338 0 0 1-7.104-89.316 1335 1335 0 0 1 .934-139.937c.063-1.035-1.548-1.03-1.608 0M344.786 221.89c1.678.464 9.664.764 19.777 9.393 10.112 8.63 13.092 37.272 11.437 46.127-1.655 8.854-15.392 18.263-15.392 18.263z"/><path fill="#262626" d="M341.472 137.318c-10.274-3.354-23.57-.102-31.885 7.053s-13.524 17.723-15.938 28.708c-1.095 4.988-1.64 10.314-.052 15.154 1.589 4.841 5.778 9.033 10.664 9.102-1.168 4.765 1.34 10.226 5.625 12.243s9.849.353 12.473-3.729c5.39 3.242 10.924 6.336 16.893 8.156 5.968 1.819 12.451 2.304 18.37.32s11.179-6.674 13.094-12.868c5.721 3.451 12.85 4.229 19.126 2.087 1.846-.63 3.662-1.531 4.989-3.016 1.328-1.483 2.091-3.633 1.589-5.597-.731-2.85-3.676-4.33-6.343-5.277-2.668-.949-5.659-1.956-6.999-4.552 3.164 1.269 6.836 1.072 9.86-.528 1.082-.573 2.205-1.572 2.083-2.837-.14-1.433-1.707-2.112-2.999-2.609-9.029-3.466-14.256-20.38-19.475-27.721"/><path fill="#262626" d="M372.549 151.409c-3.297-4.966-8.304-8.651-13.784-10.998a39.6 39.6 0 0 0-18.608-3.068l.441 62.811 22.99-15.108c2.129-5.691 11.069-11.831 12.264-16.582 1.453-5.783-.005-12.09-3.303-17.055"/><path fill="#FFAE7A" d="M318.305 150.509c11.486-15.44 35.854-12.925 43.997 4.508 2.577 5.514 3.608 12.785 3.219 22.461-1.085 26.995-23.94 26.569-23.94 26.569l-2.375 17.438-5.065 7.085-17.568-8.042-.759-29.518s-2.762-20.16-.828-32.863c.43-2.826 1.637-5.378 3.319-7.638"/><path fill="#1E40AF" d="M313.947 214.683s1.41-6.993 6.527-7.488c5.119-.495 22.619 0 23.94 4.292 1.32 4.292 0 11.722 0 11.722z"/><path fill="#262626" d="M328.235 154.582c2.942-2.864 6.569-3.222 10.397-3.597.877-.086 1.281-1.365.276-1.65-4.324-1.224-8.639 1.449-11.31 4.58-.379.441.2 1.091.637.667M329.242 200.129c4.329 3.495 9.845 5.028 15.381 4.629.94-.068.965-1.479 0-1.482-5.415-.01-10.332-1.176-15.315-3.262-.063-.025-.118.075-.066.115"/><path fill="#262626" d="M299.731 158.238c-4.206 11.421-10.557 45.2-1.947 53.802l28.296.622c5.928.13 10.119-5.85 7.873-11.338-4.865-11.891-14.511-27.643-14.511-38.454 0-8.366 8.223-9.552 21.532-22.483v-3.575c-7.375-2.581-16.307-1.059-23.267 2.491-3.925 2.001-8.009 4.744-10.848 8.115 0 0-5.32 5.911-7.128 10.82"/><path fill="#262626" d="M335.302 169.716c0 1.468-2.298 2.658-5.134 2.658-2.835 0-5.133-1.19-5.133-2.658s2.298-2.658 5.133-2.658 5.134 1.19 5.134 2.658M363.586 169.716c0 1.468-2.298 2.658-5.133 2.658s-5.134-1.19-5.134-2.658 2.299-2.658 5.134-2.658 5.133 1.19 5.133 2.658" opacity=".3"/><path fill="#262626" d="M341.853 138.253c2.606-2.069 4.858-4.312 8.185-5.192 3.304-.876 6.345-.264 9.575.589.612.161 1-.711.435-1.032-5.899-3.338-15.775-1.192-18.366 5.535-.042.106.101.155.171.1"/><path fill="#262626" d="M353.834 126.57c-7.536.202-13.29 5.356-14.627 12.772-.171.947 1.282 1.352 1.45.4 1.193-6.72 6.491-11.755 13.216-12.881.166-.029.125-.296-.039-.291"/><path fill="#FFAE7A" d="M308.205 170.128c-1.517-.757-3.434-.417-4.793.594-1.361 1.011-2.207 2.597-2.614 4.243-.676 2.734-.14 5.843 1.763 7.92 1.902 2.077 5.242 2.848 7.69 1.453z"/><path fill="#262626" d="M304.841 177.873c.513-.364 1.644-.579 2.259-.556.871.032 1.436.48 2.028 1.063.612.6 1.68-.176 1.208-.933-.645-1.033-1.88-1.655-3.094-1.629-.573.013-1.218.179-1.696.503-.544.369-.625.81-.9 1.356-.059.118.07.286.195.196M356.391 151.995c-3.024-3.261-8.155-2.738-10.35 1.08-3.117 5.42-.481 14.09 2.718 18.9.635.954 2.013.132 1.525-.892-1.843-3.861-3.636-7.829-3.729-12.199-.12-5.706 4.191-9.179 9.406-6.334.356.193.705-.259.43-.555M348.962 176.581a40.3 40.3 0 0 0-8.305-2.705c-1.288-.27-2.801-.418-3.76.483-.746.7-.902 1.828-.814 2.847.265 3.099 2.533 5.933 5.497 6.874 2.965.939 6.45-.07 8.452-2.452.478-.569.885-1.23.988-1.967.101-.736.522-2.157-2.058-3.08M374.082 157.065c1.911 4.596 4.761 8.627 8.803 11.606 5.013 3.695 11.313 4.035 16.403 7.432 1.01.675 2.285-.928 1.316-1.708-3.96-3.188-9.036-3.424-13.502-5.623-5.295-2.608-9.344-6.909-11.927-12.168-.293-.597-1.355-.168-1.093.461"/><path fill="#1E40AF" d="M287.255 313.009s-10.938-7.857-12.668-17.845 14.699-79.009 25.941-80.526c11.24-1.519 31.417 1.958 40.063 4.975 8.648 3.018 26.869 30.3 26.836 44.761-.016 7.23-2.269 21.545-5.055 34.351-2.787 12.804-6.107 24.1-8.257 25.289-4.3 2.378-66.86-11.005-66.86-11.005"/><path fill="#1E40AF" d="M314.009 219.612S297.216 85.001 284.786 85.001s-29.766 7.828-32.56 25.162 28.79 147.727 28.79 147.727"/><path fill="#262626" d="M273.907 65.24c-3.112 1.836-5.306 5.049-5.78 8.644-.486 3.7.907 7.486 3.591 10.059.747.718 1.888-.42 1.139-1.14-2.313-2.218-3.55-5.459-3.151-8.66.389-3.123 2.323-5.924 5.015-7.513.89-.526.081-1.917-.814-1.39M281.962 255.087c15.703.918 30.172-8.787 35.39-23.591.345-.979-1.209-1.399-1.552-.428-4.989 14.152-18.879 23.285-33.838 22.409-1.035-.06-1.032 1.55 0 1.61M337.917 164.512c-.391-2.044-1.919-3.562-4.002-3.842-1.789-.241-4.396.665-4.855 2.605-.192.816.68 1.552 1.437 1.106 1.094-.647 1.715-1.638 3.139-1.656 1.434-.018 2.667.985 3.298 2.202.296.569 1.091.153.983-.415M351.571 164.971c.4-.911 1.242-2.26 2.385-2.288 1.15-.026 1.528 1.182 2.356 1.707.642.406 1.462-.127 1.472-.844.027-1.88-2.417-3.238-4.108-2.924-1.984.37-2.961 2.22-3.108 4.078-.039.516.79.758 1.003.271M316.337 223.412c.615-1.756.343-3.587-.116-5.345-.516-1.977-1.063-3.844-1.214-5.897-.301-4.072.241-8.146.482-12.207.062-1.035-1.55-1.032-1.61 0-.234 3.928-.745 7.863-.509 11.804.107 1.789.39 3.548.885 5.272.557 1.94 1.227 3.953.531 5.947-.346.978 1.21 1.4 1.551.426M352.533 324.539c5.511-.632 8.042-5.8 9.25-10.63 1.099-4.398 1.912-8.877 2.664-13.345 1.796-10.654 3.093-21.421 3.697-32.21.32-5.718.442-11.459.089-17.178-.063-1.03-1.675-1.037-1.609 0 .602 9.728-.066 19.539-1.06 29.219-.973 9.48-2.329 18.95-4.261 28.287-1.065 5.144-2.246 13.5-8.77 14.247-1.017.115-1.028 1.727 0 1.61M321.657 218.917a98.7 98.7 0 0 0 24.403 4.655c1.035.065 1.03-1.545 0-1.61a97 97 0 0 1-23.975-4.598c-.988-.322-1.411 1.232-.428 1.553"/></svg>