<svg xmlns="http://www.w3.org/2000/svg" width="630" height="544" fill="none"><path fill="#DBEAFE" d="m566.291 102.041-3.485-5.745c-29.383-48.42-82.509-77.61-138.522-74.068a147 147 0 0 0-21.442 2.944c-50.926 10.9-95.239 49.413-113.607 98.735-10.802 29.007-13.819 62.404-34.318 85.428-26.679 29.965-71.971 30.906-111.792 29.664-39.822-1.241-85.145-.182-111.694 29.9-16.626 18.84-21.912 45.632-20.57 70.864 3.55 66.801 50.098 126.53 109.295 156.219 59.196 29.69 128.896 32.348 193.682 19.289 90.76-18.296 177.072-68.54 228.952-146.143s65.011-183.328 23.501-267.087M78.063 180.599c35.715 0 64.667-28.952 64.667-64.667s-28.952-64.668-64.667-64.668-64.668 28.953-64.668 64.668 28.953 64.667 64.668 64.667"/><path fill="#FAFAFA" d="M391.637 246.06H280.026l-21.318 32.004-20.8-32.004H128.274c-7.012 0-12.696-5.75-12.696-12.843V13.258c0-7.093 5.684-12.842 12.696-12.842h263.363c7.012 0 12.696 5.75 12.696 12.843v219.958c-.001 7.093-5.684 12.843-12.696 12.843"/><path fill="#263238" d="M391.637 246.06s.236-.025.698-.056c.464-.011 1.153-.107 2.047-.294a12.64 12.64 0 0 0 6.817-4.177c1.17-1.354 2.164-3.165 2.676-5.324.163-.532.19-1.106.292-1.676.02-.581.079-1.169.063-1.782l-.009-3.82-.034-18.289-.119-116.551-.046-80.485c.092-3.55-1.35-7.12-3.994-9.54a12.5 12.5 0 0 0-4.566-2.715c-1.71-.606-3.493-.653-5.357-.614l-22.513.008-46.995.016-100.91.022c-17.497.002-35.305.005-53.376.006L139.01.79h-10.333c-.583-.011-1.122.045-1.687.067-.548.102-1.112.134-1.648.302-2.182.517-4.185 1.698-5.789 3.285-1.569 1.623-2.738 3.656-3.247 5.88-.526 1.982-.312 4.107-.358 6.228V35.49l-.001 24.989-.005 48.976-.017 93.217q-.002 11.207-.006 22.165l-.001 5.462c.03 1.823-.113 3.637.237 5.349.653 3.461 2.858 6.533 5.807 8.3a12.2 12.2 0 0 0 4.816 1.667c1.675.176 3.464.073 5.193.102l10.372.004 20.325.009 75.237.038h.154l.084.129 20.78 32.017-.43-.002 21.344-31.987.067-.102h.121l82.287.106 21.815.059c2.466.014 4.34.025 5.609.031 1.261.019 1.901.041 1.901.041s-.64.021-1.899.032l-5.61.03-21.814.06-82.288.106.188-.102c-6.611 9.944-13.714 20.624-21.291 32.022l-.217.325-.214-.328c-6.599-10.137-13.545-20.81-20.821-31.99l.237.129-75.237.038-20.325.009-10.372.004c-1.749-.03-3.463.081-5.274-.103a12.9 12.9 0 0 1-5.081-1.756c-3.111-1.862-5.437-5.099-6.13-8.751-.372-1.843-.22-3.683-.253-5.483l-.001-5.462q-.004-10.958-.006-22.165l-.017-93.217-.005-48.976-.001-24.989v-22.11c.02-1.08.106-2.178.378-3.234.542-2.358 1.781-4.517 3.445-6.236 1.699-1.685 3.825-2.935 6.141-3.486.568-.177 1.166-.213 1.749-.32.585-.025 1.194-.082 1.763-.07h10.333l27.3.001 53.376.006 100.911.022 46.994.016L390.11.09c1.817-.037 3.778.014 5.552.651a13.217 13.217 0 0 1 7.975 7.426c.718 1.722 1.025 3.606 1.008 5.439l-.046 80.485-.119 116.551-.035 18.289-.008 3.82c.013.608-.049 1.215-.074 1.802-.106.579-.137 1.16-.305 1.699-.533 2.19-1.551 4.017-2.744 5.38-2.398 2.775-5.153 3.761-6.914 4.152-.904.175-1.597.258-2.062.257-.467.02-.701.019-.701.019"/><path fill="#263238" d="M227.763 135.677c0 2.85-2.114 4.622-5.491 4.622h-2.547v3.524h-2.924v-12.786h5.471c3.377 0 5.491 1.772 5.491 4.64m-2.962 0c0-1.407-.903-2.229-2.691-2.229h-2.383v4.44h2.383c1.788 0 2.691-.822 2.691-2.211M238.146 138.216v5.607h-2.636v-1.224c-.524.895-1.535 1.37-2.962 1.37-2.276 0-3.629-1.279-3.629-2.978 0-1.735 1.21-2.941 4.172-2.941h2.239c0-1.224-.722-1.936-2.239-1.936-1.03 0-2.095.348-2.8.914l-1.011-1.991c1.066-.768 2.638-1.188 4.19-1.188 2.96.001 4.676 1.39 4.676 4.367m-2.817 2.502v-1.005h-1.932c-1.318 0-1.733.493-1.733 1.15 0 .712.595 1.188 1.589 1.188.939 0 1.752-.437 2.076-1.333M239.754 142.911l.939-2.046c.867.566 2.185.95 3.377.95 1.301 0 1.787-.347 1.787-.895 0-1.608-5.868.036-5.868-3.891 0-1.863 1.662-3.179 4.497-3.179 1.337 0 2.817.311 3.739.859l-.939 2.027a5.54 5.54 0 0 0-2.8-.73c-1.263 0-1.806.402-1.806.913 0 1.68 5.868.055 5.868 3.927 0 1.827-1.679 3.124-4.586 3.124-1.644 0-3.305-.456-4.208-1.059M249.343 142.911l.939-2.046c.867.566 2.185.95 3.377.95 1.301 0 1.788-.347 1.788-.895 0-1.608-5.87.036-5.87-3.891 0-1.863 1.661-3.179 4.496-3.179 1.336 0 2.818.311 3.738.859l-.939 2.027a5.54 5.54 0 0 0-2.799-.73c-1.264 0-1.805.402-1.805.913 0 1.68 5.868.055 5.868 3.927 0 1.827-1.679 3.124-4.586 3.124-1.643 0-3.304-.456-4.207-1.059M275.293 133.997l-3.521 9.828h-2.709l-2.185-6.101-2.257 6.101h-2.709l-3.504-9.828h2.655l2.293 6.649 2.383-6.649h2.384l2.311 6.649 2.365-6.649zM275.619 138.91c0-2.96 2.257-5.06 5.345-5.06s5.326 2.1 5.326 5.06c0 2.958-2.239 5.06-5.326 5.06-3.088 0-5.345-2.102-5.345-5.06m7.819 0c0-1.699-1.066-2.721-2.474-2.721s-2.491 1.022-2.491 2.721c0 1.698 1.082 2.722 2.491 2.722 1.408 0 2.474-1.023 2.474-2.722M294.201 133.85v2.63c-.234-.018-.415-.036-.632-.036-1.552 0-2.581.858-2.581 2.741v4.64h-2.817v-9.828h2.691v1.297c.684-.95 1.84-1.444 3.339-1.444M305.686 130.271v13.554h-2.691v-1.133c-.703.858-1.733 1.278-3.034 1.278-2.745 0-4.857-1.972-4.857-5.06s2.114-5.06 4.857-5.06c1.192 0 2.204.384 2.908 1.188v-4.767zm-2.763 8.639c0-1.699-1.084-2.721-2.474-2.721-1.408 0-2.491 1.022-2.491 2.721 0 1.698 1.084 2.722 2.491 2.722 1.39 0 2.474-1.023 2.474-2.722"/><path fill="#EBEBEB" d="M189.168 213.516h-18.304c-4.342 0-7.861-3.559-7.861-7.951v-31.723c0-4.391 3.519-7.951 7.861-7.951h18.304c4.341 0 7.86 3.56 7.86 7.951v31.723c.002 4.392-3.519 7.951-7.86 7.951M269.465 213.516h-17.387c-4.341 0-7.86-3.559-7.86-7.951v-31.723c0-4.391 3.519-7.951 7.86-7.951h17.387c4.342 0 7.861 3.56 7.861 7.951v31.723c.001 4.392-3.519 7.951-7.861 7.951M229.671 213.516h-17.386c-4.342 0-7.861-3.559-7.861-7.951v-31.723c0-4.391 3.519-7.951 7.861-7.951h17.386c4.342 0 7.861 3.56 7.861 7.951v31.723c0 4.392-3.519 7.951-7.861 7.951M310.007 213.516h-18.321c-4.342 0-7.861-3.559-7.861-7.951v-31.723c0-4.391 3.519-7.951 7.861-7.951h18.321c4.342 0 7.861 3.56 7.861 7.951v31.723c.001 4.392-3.519 7.951-7.861 7.951M349.055 213.516h-18.321c-4.342 0-7.861-3.559-7.861-7.951v-31.723c0-4.391 3.519-7.951 7.861-7.951h18.321c4.342 0 7.861 3.56 7.861 7.951v31.723c.001 4.392-3.519 7.951-7.861 7.951"/><path fill="#1E40AF" d="m184.405 188.437 3.64 1.992-1.637 2.77-3.674-2.196.068 4.087h-3.139l.033-4.12-3.674 2.229-1.604-2.77 3.641-1.992-3.641-2.026 1.604-2.771 3.674 2.229-.033-4.121h3.139l-.068 4.121 3.674-2.229 1.637 2.771zM224.066 188.217l3.639 1.993-1.636 2.771-3.674-2.196.067 4.087h-3.138l.033-4.12-3.674 2.229-1.604-2.771 3.641-1.993-3.641-2.026 1.604-2.771 3.674 2.23-.033-4.122h3.138l-.067 4.122 3.674-2.23 1.636 2.771zM264.683 188.217l3.639 1.993-1.635 2.771-3.674-2.196.066 4.087h-3.138l.034-4.12-3.672 2.229-1.604-2.771 3.639-1.993-3.639-2.026 1.604-2.771 3.672 2.23-.034-4.122h3.138l-.066 4.122 3.674-2.23 1.635 2.771zM304.026 188.217l3.64 1.993-1.636 2.771-3.674-2.196.066 4.087h-3.138l.034-4.12-3.672 2.229-1.604-2.771 3.64-1.993-3.64-2.026 1.604-2.771 3.672 2.23-.034-4.122h3.138l-.066 4.122 3.674-2.23 1.636 2.771z"/><path fill="#263238" d="M188.82 213.811h-17.608c-4.526 0-8.208-3.725-8.208-8.302v-31.608c0-4.579 3.683-8.303 8.208-8.303h17.61c4.527 0 8.208 3.725 8.208 8.303v31.608c0 4.577-3.683 8.302-8.21 8.302m-17.608-47.626c-4.206 0-7.628 3.46-7.628 7.716v31.608c0 4.255 3.422 7.716 7.628 7.716h17.61c4.205 0 7.628-3.461 7.628-7.716v-31.608c0-4.256-3.422-7.716-7.628-7.716zM229.7 213.811h-17.609c-4.527 0-8.21-3.725-8.21-8.302v-31.608c0-4.579 3.683-8.303 8.21-8.303H229.7c4.527 0 8.208 3.725 8.208 8.303v31.608c0 4.577-3.683 8.302-8.208 8.302m-17.609-47.626c-4.207 0-7.628 3.46-7.628 7.716v31.608c0 4.255 3.421 7.716 7.628 7.716H229.7c4.206 0 7.628-3.461 7.628-7.716v-31.608c0-4.256-3.422-7.716-7.628-7.716zM269.454 213.811h-17.61c-4.526 0-8.208-3.725-8.208-8.302v-31.608c0-4.579 3.683-8.303 8.208-8.303h17.61c4.527 0 8.209 3.725 8.209 8.303v31.608c0 4.577-3.682 8.302-8.209 8.302m-17.608-47.626c-4.205 0-7.628 3.46-7.628 7.716v31.608c0 4.255 3.421 7.716 7.628 7.716h17.609c4.205 0 7.628-3.461 7.628-7.716v-31.608c0-4.256-3.421-7.716-7.628-7.716zM309.66 213.811h-17.609c-4.527 0-8.208-3.725-8.208-8.302v-31.608c0-4.579 3.682-8.303 8.208-8.303h17.609c4.527 0 8.208 3.725 8.208 8.303v31.608c.002 4.577-3.681 8.302-8.208 8.302m-17.608-47.626c-4.206 0-7.628 3.46-7.628 7.716v31.608c0 4.255 3.422 7.716 7.628 7.716h17.609c4.207 0 7.628-3.461 7.628-7.716v-31.608c0-4.256-3.421-7.716-7.628-7.716zM348.699 213.811H331.09c-4.527 0-8.209-3.725-8.209-8.302v-31.608c0-4.579 3.683-8.303 8.209-8.303h17.609c4.527 0 8.208 3.725 8.208 8.303v31.608c0 4.577-3.681 8.302-8.208 8.302m-17.609-47.626c-4.207 0-7.628 3.46-7.628 7.716v31.608c0 4.255 3.421 7.716 7.628 7.716h17.609c4.206 0 7.628-3.461 7.628-7.716v-31.608c0-4.256-3.422-7.716-7.628-7.716z"/><path fill="#1E40AF" d="M349.325 201.169c0 .209-4.223.377-9.43.377-5.21 0-9.431-.169-9.431-.377 0-.209 4.221-.378 9.431-.378 5.207-.001 9.43.169 9.43.378M261.51 116.5c21.001 0 38.026-17.222 38.026-38.466s-17.025-38.466-38.026-38.466-38.027 17.222-38.027 38.466S240.508 116.5 261.51 116.5"/><path fill="#fff" d="M254.816 71.04h-.633v-3.592c0-4.137 3.328-7.502 7.417-7.502 4.091 0 7.417 3.366 7.417 7.502v2.927h-.633v-2.927c0-3.784-3.044-6.863-6.785-6.863s-6.786 3.078-6.786 6.863v3.592z"/><path fill="#fff" d="M270.938 96.122H252.08c-1.725 0-3.127-1.42-3.127-3.164V73.882c0-1.744 1.402-3.163 3.127-3.163h18.858c1.724 0 3.129 1.419 3.129 3.163v19.076c0 1.746-1.403 3.164-3.129 3.164M252.081 71.36c-1.375 0-2.495 1.132-2.495 2.523v19.076c0 1.391 1.118 2.524 2.495 2.524h18.859c1.375 0 2.495-1.133 2.495-2.524V73.882c0-1.392-1.119-2.523-2.495-2.523z"/><path fill="#fff" d="M261.6 84.046c-1.632 0-2.96-1.343-2.96-2.994s1.328-2.995 2.96-2.995c1.633 0 2.961 1.343 2.961 2.995 0 1.651-1.328 2.994-2.961 2.994m0-5.347c-1.283 0-2.327 1.056-2.327 2.354s1.044 2.354 2.327 2.354c1.284 0 2.328-1.055 2.328-2.354.001-1.298-1.044-2.354-2.328-2.354"/><path fill="#fff" d="M261.827 83.589h-.633v5.404h.633z"/><path fill="#E0E0E0" d="M390.308 24.804c1.395-6.408-2.61-12.747-8.946-14.157-6.335-1.411-12.601 2.64-13.996 9.048-1.394 6.409 2.611 12.747 8.946 14.158s12.601-2.64 13.996-9.049"/><path fill="#fff" d="M375.023 26.446a.364.364 0 0 1-.254-.619l7.605-7.693a.354.354 0 0 1 .507 0c.14.142.14.372 0 .514l-7.605 7.693a.36.36 0 0 1-.253.105"/><path fill="#fff" d="M382.628 26.445a.35.35 0 0 1-.254-.106l-7.605-7.692a.365.365 0 0 1 0-.515.356.356 0 0 1 .508 0l7.605 7.693a.364.364 0 0 1-.254.62"/><path fill="#455A64" d="M76.751 470.443s-37.933-44.163-52.249-88.328c-14.314-44.163-7.514-39.095-7.514-39.095s19.325 42.901 33.996 63.623c14.673 20.722 40.797 51.13 40.797 51.13z"/><path fill="#455A64" d="M84.312 349.9c-1.223-2.155-4.48-1.037-4.115 1.422 2.313 15.512 7.313 51.917 7.116 75.527-.256 30.673.01 42.529.01 42.529h15.789s-2.803-63.406-6.37-82.737c-2.503-13.556-7.811-28.603-12.43-36.741"/><path fill="#455A64" d="M92.92 464.224s9.937-21.135 12.994-47.683c1.301-11.292-1.019-26.548-4.469-46.911-1.671-9.862-2.05-17.368-1.996-22.571.04-3.933 5.172-5.217 7.072-1.787 1.906 3.439 7.422 15.19 8.822 22.554 3.821 20.105 8.153 30.157 4.841 49.231-3.312 19.073-15.543 48.457-15.543 48.457zM107.14 465.512s41.649-90.539 44.536-103.971 12.702-44.384 13.857-42.633c1.154 1.752 2.887 18.105-4.619 36.793S121.362 468.27 121.362 468.27H107.14"/><path fill="#263238" d="M88.358 461.462c-.019.025-.42-.256-1.168-.81-.739-.567-1.862-1.364-3.225-2.493-2.773-2.203-6.664-5.555-11.193-9.994-9.093-8.832-20.408-22.45-30.217-39.23-9.83-16.777-16.442-33.185-20.626-45.196-2.094-6.014-3.623-10.935-4.614-14.356-.51-1.705-.86-3.044-1.106-3.948-.24-.907-.351-1.386-.323-1.395.03-.008.2.455.494 1.344l1.265 3.896c1.091 3.384 2.71 8.27 4.876 14.244 4.327 11.933 11.01 28.245 20.8 44.952 9.768 16.71 20.947 30.32 29.893 39.236 4.458 4.481 8.272 7.896 10.972 10.177 1.328 1.168 2.414 2.007 3.116 2.62.71.6 1.074.928 1.056.953M92.915 418.027c-.062.004-.191-.943-.374-2.657l-.768-7.257a490 490 0 0 0-3.16-23.851 489 489 0 0 0-4.39-23.657l-1.52-7.135c-.358-1.686-.53-2.625-.469-2.64.06-.016.343.896.804 2.558.467 1.66 1.084 4.078 1.798 7.078 1.43 6 3.173 14.35 4.654 23.654 1.475 9.302 2.408 17.783 2.908 23.932.251 3.076.415 5.568.486 7.292.08 1.724.092 2.678.03 2.683M102.671 344.561c.028-.012.196.384.491 1.15l1.247 3.363a65 65 0 0 1 1.788 5.391c.62 2.126 1.422 4.523 2.024 7.249l1.032 4.258c.351 1.483.598 3.05.916 4.66.681 3.216 1.102 6.701 1.605 10.36.815 7.339 1.26 15.467.995 23.993-.338 8.526-1.358 16.603-2.69 23.866-.762 3.613-1.429 7.059-2.335 10.217-.432 1.583-.789 3.128-1.244 4.582q-.694 2.174-1.33 4.172c-.794 2.675-1.764 5.008-2.532 7.084a66 66 0 0 1-2.164 5.248l-1.483 3.264c-.348.743-.544 1.124-.572 1.111s.114-.421.408-1.186l1.328-3.326a75 75 0 0 0 2.017-5.289c.723-2.086 1.647-4.424 2.399-7.102l1.27-4.171c.435-1.452.773-2.996 1.188-4.575.872-3.15 1.506-6.586 2.244-10.183 1.281-7.234 2.269-15.265 2.608-23.744.262-8.478-.155-16.559-.921-23.866-.481-3.642-.871-7.113-1.517-10.318-.302-1.605-.531-3.169-.863-4.649l-.971-4.252c-.561-2.725-1.318-5.124-1.89-7.258a76 76 0 0 0-1.639-5.421c-.45-1.415-.812-2.549-1.089-3.414-.237-.786-.349-1.204-.32-1.214M165.054 320.728q.023.005-.033.407l-.183 1.176c-.184 1.03-.414 2.559-.822 4.507-.804 3.895-2.143 9.501-4.228 16.299-2.074 6.802-4.919 14.777-8.293 23.537-3.359 8.766-7.266 18.315-10.963 28.481-3.754 10.149-6.647 20.055-9.365 29.045-2.694 8.997-5.249 17.07-7.719 23.736-2.445 6.675-4.798 11.932-6.575 15.483-.853 1.794-1.621 3.131-2.115 4.052l-.583 1.036q-.204.347-.225.338-.02-.012.145-.382c.136-.29.301-.645.504-1.076.442-.945 1.16-2.306 1.961-4.119 1.677-3.588 3.935-8.865 6.297-15.549 2.387-6.677 4.874-14.75 7.523-23.757 2.673-8.997 5.549-18.937 9.315-29.116 3.707-10.191 7.635-19.731 11.035-28.472 3.413-8.736 6.312-16.668 8.457-23.427a215 215 0 0 0 4.489-16.183c.458-1.931.742-3.447.984-4.465l.271-1.159q.101-.395.123-.392"/><path fill="#455A64" d="M36.624 300.73c-2.624-2.639-6.989.121-5.903 3.699 1.1 3.628 2.77 8.319 5.233 13.614 5.726 12.308 22.545 56.471 30.419 80.726 7.873 24.254 18.967 69.503 18.967 69.503l16.813-2.758s-15.381-74.348-30.412-101.135c-12.076-21.525-24.153-52.63-35.117-63.649"/><path fill="#263238" d="M70.974 413.937c.058-.02.364.706.867 2.037a118 118 0 0 1 1.939 5.711c1.547 4.851 3.442 11.627 5.352 19.156a709 709 0 0 1 4.596 19.349l1.265 5.893c.28 1.396.407 2.174.347 2.19-.06.015-.3-.736-.685-2.107l-1.539-5.827c-1.286-5.115-2.976-11.839-4.847-19.275-1.907-7.52-3.701-14.308-5.092-19.193l-1.664-5.783c-.401-1.365-.596-2.131-.539-2.151M93.786 466.891c-.014.001-.047-.153-.094-.453l-.191-1.339c-.177-1.177-.334-2.922-.69-5.15-.617-4.468-1.718-10.906-3.524-18.76-1.795-7.857-4.414-17.096-7.87-27.169-3.448-10.076-7.774-20.963-12.676-32.23-9.89-22.508-19.771-42.471-26.263-57.232-3.282-7.363-5.824-13.376-7.496-17.564-.853-2.087-1.465-3.73-1.891-4.838l-.467-1.268q-.151-.432-.13-.443c.014-.006.087.134.215.41l.548 1.234 2.043 4.77c1.77 4.143 4.397 10.111 7.749 17.434 6.635 14.682 16.6 34.593 26.506 57.134 4.91 11.284 9.222 22.204 12.636 32.323 3.423 10.113 5.987 19.401 7.707 27.297 1.733 7.895 2.743 14.365 3.255 18.855.303 2.24.405 3.994.524 5.178l.104 1.349c.018.303.021.46.005.462M102.152 465.512c-.06.008-.26-1.01-.567-2.858l-1.308-7.817c-1.159-6.589-2.927-15.665-5.471-25.542-2.519-9.889-5.356-18.684-7.538-25l-2.629-7.469c-.629-1.762-.95-2.748-.894-2.77.057-.023.486.918 1.217 2.642a186 186 0 0 1 2.899 7.381 249 249 0 0 1 7.806 24.991 262 262 0 0 1 5.23 25.665c.478 3.318.846 6.007 1.031 7.873.203 1.863.286 2.897.224 2.904"/><path fill="#1E40AF" d="M136.66 463.07H71.036v80.878h65.624z"/><path fill="#000" d="M136.66 463.07H71.036v80.878h65.624z" opacity=".3"/><path fill="#1E40AF" d="M115.726 463.07H57.504v80.878h58.222z"/><path fill="#FFBE9D" d="m520.181 283.134-34.502-5.063-69.017 10.331-19.371 6.926 3.436 42.844 66.354 12.363 44.779-13.42 16.927-25.195z"/><path fill="#1E40AF" d="m541.925 287.229-28.875-6.881s-20.413 63.836-70.793 61.089c-41.062-2.24-41.53-48.602-41.53-48.602l-29.596 9.587s-11.32 76.782 1.212 131.176c2.927 12.709 6.847 29.844 6.847 29.844l-4.002 79.477 218.857.353z"/><path fill="#000" d="M456.133 527.488c10.649-.266 20.479.645 31.128.379 12.784-.319 25.657-.632 38.273 1.471 9.454 1.576 18.655 4.494 28.12 6.004 12.898 2.058 26.679 1.323 38.164-4.962l-1.852-10.842-43.61-10.621z" opacity=".3"/><path fill="#1E40AF" d="M346.423 320.31c10.009-13.08 26.655-18.518 26.655-18.518l11.193 98.605-21.206 143.567-69.455-.334s38.31-204.368 52.813-223.32M538.553 286.502s46.749 3.789 63.522 81.263c7.587 35.044 17.173 76.113 19.937 103.715 2.004 20.02-8.754 51.362-28.484 53.925l-24.806 3.371c-4.866.661-9.826.565-14.612-.546-15.666-3.639-17.262-14.514-20.022-26.07l-7.242-23.122c-3.96-21.988 16.291-26.088 27.477-25.844l-8.339-100.36z"/><path fill="#263238" d="M367.29 356.612c-.026-.005-.099.369-.214 1.08l-.469 3.123-.322 2.259q-.127 1.253-.271 2.702c-.194 1.939-.428 4.146-.529 6.599-.354 4.896-.347 10.75-.114 17.233.271 6.486.997 13.592 2.068 20.997 1.074 7.41 2.425 14.414 3.796 20.748 1.346 6.339 2.726 12.009 3.89 16.765 1.19 4.751 2.175 8.589 2.891 11.232l.836 3.042c.2.692.316 1.054.34 1.047.026-.006-.043-.381-.194-1.085l-.699-3.075-2.66-11.287c-1.097-4.771-2.422-10.448-3.729-16.784-1.332-6.332-2.659-13.324-3.73-20.713-1.068-7.385-1.813-14.461-2.12-20.92-.27-6.457-.331-12.288-.045-17.172.068-2.446.263-4.651.417-6.588l.209-2.701.257-2.263.33-3.137c.065-.719.088-1.098.062-1.102M590.997 480.351c.043-.01-.06-.71-.37-1.949-.308-1.239-.875-3.008-1.807-5.098-1.829-4.164-5.44-9.613-11.081-13.765-5.642-4.153-11.879-5.954-16.358-6.435-2.253-.256-4.089-.257-5.35-.171-1.26.081-1.951.199-1.947.242.005.157 2.8-.177 7.229.459 4.398.609 10.471 2.456 15.987 6.517 5.513 4.06 9.118 9.337 11.042 13.383 1.962 4.068 2.507 6.862 2.655 6.817M580.19 441.756c0-.052-.402-.087-1.13-.108-.728-.029-1.783.014-3.081.138-2.594.246-6.166.981-9.863 2.513-3.694 1.544-6.745 3.564-8.758 5.235-1.01.834-1.789 1.556-2.286 2.095-.504.531-.764.842-.728.88.086.091 1.262-1.012 3.337-2.55a42 42 0 0 1 8.72-4.96 41.9 41.9 0 0 1 9.646-2.681c2.542-.382 4.145-.434 4.143-.562M531.796 341.437c.052-.002.089-.741.114-2.071.01-1.331.084-3.256.245-5.625.313-4.738 1.183-11.267 3.111-18.248 1.946-6.979 4.563-13.013 6.734-17.223 1.081-2.109 2.007-3.792 2.683-4.932.664-1.149 1.012-1.8.969-1.829s-.473.568-1.216 1.672c-.753 1.096-1.754 2.748-2.903 4.836-2.304 4.171-5.023 10.23-6.986 17.271-1.945 7.044-2.739 13.647-2.919 18.422-.095 2.389-.089 4.325-.01 5.658.066 1.335.126 2.07.178 2.069M442.258 411.774c-.024.009.049.29.211.817.177.521.381 1.314.776 2.286.719 1.969 1.964 4.753 3.895 7.97 1.922 3.218 4.624 6.818 8.171 10.281a51 51 0 0 0 13.089 9.247c5.147 2.468 10.438 3.927 15.322 4.552 4.89.637 9.357.517 13.042.024 3.69-.488 6.616-1.246 8.585-1.91.996-.296 1.735-.63 2.248-.818.508-.202.77-.319.761-.344-.023-.064-1.107.312-3.093.879-1.982.572-4.903 1.246-8.562 1.66-7.259.873-17.803.207-27.978-4.726-10.167-4.947-17.271-12.854-21.137-19.13-1.969-3.148-3.275-5.874-4.073-7.797-.806-1.922-1.193-3.012-1.257-2.991M540.782 520.768c.077-.067.812.988 2.556 2.443 1.753 1.429 4.65 3.086 8.557 4.13 3.892 1.082 8.744 1.528 14.079 1.252a231 231 0 0 0 17.351-1.941c6.103-.96 11.966-2.071 16.935-3.948 2.441-1.025 4.486-2.594 6.224-4.203a33.5 33.5 0 0 0 4.352-5 47.3 47.3 0 0 0 4.777-8.387c.445-1.054.794-1.874 1.002-2.44.221-.562.347-.855.372-.847.024.009-.055.317-.23.898-.162.585-.469 1.426-.876 2.505a43.3 43.3 0 0 1-4.616 8.585 33.3 33.3 0 0 1-4.357 5.147c-1.759 1.664-3.844 3.298-6.376 4.386-5.107 1.967-10.949 3.083-17.094 4.054a212 212 0 0 1-17.427 1.89c-5.401.241-10.314-.266-14.255-1.432-3.954-1.129-6.877-2.898-8.602-4.42-.84-.794-1.473-1.423-1.824-1.922-.381-.478-.568-.734-.548-.75"/><path fill="#263238" d="M533.067 366.13c.201-.051 5.13 19.308 11.008 43.234 5.88 23.934 10.483 43.37 10.282 43.42-.199.051-5.128-19.304-11.009-43.237-5.878-23.927-10.481-43.368-10.281-43.417M527.114 475.382c-.05.003-.14-.562-.237-1.591-.087-1.028-.226-2.526-.099-4.396.107-1.865.734-4.123 2.101-6.202.68-1.031 1.43-2.088 2.399-3.05.959-.959 2.099-1.78 3.322-2.5 4.979-2.739 9.994-3.885 13.608-4.443a39 39 0 0 1 4.32-.389c1.024-.029 1.59.011 1.591.058.006.126-2.253.212-5.825.858-3.536.678-8.496 1.913-13.319 4.571-1.179.694-2.271 1.475-3.186 2.377-.915.889-1.664 1.917-2.333 2.899-1.341 1.979-1.976 4.066-2.151 5.871-.189 1.807-.133 3.303-.136 4.331.006 1.03-.002 1.604-.055 1.606"/><path fill="#000" d="M369.442 421.662c-11.926-20.431-12.182-46.982-1.777-68.248-3.104 22.645-2.85 45.857 2.129 68.158" opacity=".3"/><path fill="#FFBE9D" d="m432.571 472.668.085.041zM433.084 472.915l.189.092zM432.657 472.709c.167.08.312.151.427.205-.147-.068-.299-.143-.427-.205M432.383 472.577c.072.035.125.059.188.091z"/><path fill="#FFBE9D" d="M388.472 513.381c3.753-7.181 33.083-26.117 33.083-26.117l-7.939-1.856-8.766 3.75s-.548 3.655-3.773 8.305-8.694-.158-8.694-.158l3.704-17.959 17.343-10.56s16.319 2.523 18.953 3.792l6.958 6.441c3.052 2.42 11.866 11.966 14.277 12.255s78.117-16.938 78.117-16.938c10.378 8.314 15.847 24.832 17.495 36.747 0 0 1.847 5.854-.162 9.031l-92.936 7.377-19.691 5.506s-10.896 4.499-16.181 5.623c-6.553 1.393-10.966-.743-11.143-4.413-.176-3.669 4.905-4.065 4.905-4.065s8.268-3.025 12.664-5.634c4.397-2.608 7.149-7.934 7.149-7.934l-7.022.85s-14.926 10.48-20.538 13.554c-5.613 3.075-6.72-2.566-7.172-4.286s16.765-18.756 16.765-18.756-16.37 10.21-19.315 12.785-7.308 3.346-8.244 1.619c-.933-1.731-3.59-1.779.163-8.959"/><path fill="#FFBE9D" d="m433.273 473.007.166.079q-.07-.034-.166-.079M433.529 473.13q.042.02 0 0M433.439 473.087l.091.043z"/><path fill="#EB996E" d="M469.239 515.041c.047.001.076-.41.087-1.164.025-.379-.014-.836-.09-1.368a10.3 10.3 0 0 0-.323-1.789c-.586-2.645-2.265-6.046-4.757-9.274-2.489-3.239-5.17-5.778-7.16-7.528-2-1.745-3.322-2.713-3.378-2.646-.066.08 1.146 1.182 3.051 3.011 1.895 1.833 4.495 4.403 6.943 7.588 2.451 3.178 4.143 6.44 4.831 8.977.728 2.525.652 4.197.796 4.193M422.233 486.702c-.029.173 2.31.473 5.005-.455 2.703-.905 4.389-2.572 4.262-2.692-.124-.167-1.918 1.179-4.481 2.033-2.554.883-4.786.905-4.786 1.114M417.358 506.366c.072.177 3.416-1.044 7.468-2.73s7.277-3.197 7.204-3.376c-.072-.177-3.414 1.045-7.467 2.731-4.05 1.686-7.276 3.196-7.205 3.375M433.087 516.41c.092.174 1.756-.553 3.829-1.369 2.07-.822 3.782-1.428 3.733-1.62-.045-.181-1.869.132-3.983.972-2.118.832-3.668 1.854-3.579 2.017M419.773 507.674c-.074.192 1.627.83 2.896 2.558 1.308 1.699 1.463 3.528 1.666 3.506.084-.002.172-.471.057-1.224-.111-.75-.475-1.769-1.174-2.703-.704-.931-1.578-1.559-2.263-1.866-.688-.313-1.157-.352-1.182-.271M412.885 496.701c-.091.181 1.193.884 2.038 2.39.882 1.485.855 2.962 1.056 2.972.175.064.538-1.612-.461-3.322-.981-1.722-2.602-2.226-2.633-2.04M415.222 477.098c.076.038.345-.291.549-.934.206-.639.297-1.603.057-2.616-.244-1.012-.76-1.827-1.232-2.3-.474-.479-.86-.646-.91-.578-.132.152 1.062 1.214 1.473 3.041.459 1.815-.124 3.313.063 3.387"/><path fill="#263238" d="M549.892 522.805c-.052-.002-.093-.773-.125-2.16a42 42 0 0 0-.097-2.526c-.064-.983-.088-2.104-.23-3.335-.422-4.928-1.509-11.735-4.057-18.838a68.4 68.4 0 0 0-4.404-9.641c-.853-1.387-1.601-2.746-2.458-3.915l-1.194-1.723q-.62-.788-1.193-1.519c-3.086-3.841-5.453-5.804-5.341-5.928.033-.039.624.445 1.668 1.358a20 20 0 0 1 1.826 1.747c.681.713 1.486 1.502 2.254 2.482l1.244 1.506c.413.539.812 1.123 1.243 1.717.889 1.167 1.667 2.53 2.546 3.925a64.3 64.3 0 0 1 4.509 9.732c2.577 7.189 3.592 14.085 3.882 19.057.109 1.243.097 2.373.121 3.364.03.99.007 1.843-.03 2.54-.055 1.391-.112 2.158-.164 2.157"/><path fill="#000" d="M581.781 455.63c-8.568-3.621-18.58-4.547-27.541-2.533 16.087-.996 31.603 9.408 37.161 24.309.673 1.806 1.994 3.935 3.882 3.652 1.757-.263 2.412-2.488 2.413-4.286.009-9.392-7.346-17.52-15.915-21.142" opacity=".3"/><path fill="#fff" d="M366.73 349.969c-.021.048-.461-.105-1.242-.423-.782-.312-1.891-.82-3.237-1.497-2.694-1.351-6.307-3.462-10.007-6.223-3.696-2.768-6.754-5.642-8.821-7.851-1.036-1.104-1.841-2.026-2.366-2.691-.529-.661-.803-1.043-.764-1.076.089-.079 1.352 1.294 3.503 3.391a92 92 0 0 0 8.89 7.62 91 91 0 0 0 9.809 6.358c2.616 1.464 4.284 2.283 4.235 2.392M532.469 355.441q.008.018-.361.25l-1.101.668c-.964.596-2.424 1.403-4.322 2.415-3.802 2.003-9.464 4.622-16.732 7.12-7.266 2.492-16.152 4.776-26.175 6.365-10.021 1.602-21.16 2.473-32.849 2.759-11.699.284-22.836.061-32.963-.17-10.129-.246-19.256-.893-26.846-2.049-7.592-1.149-13.616-2.765-17.679-4.153-2.032-.696-3.594-1.281-4.63-1.734-.49-.207-.879-.372-1.185-.5q-.4-.175-.393-.195c.004-.011.148.029.422.122l1.21.43c1.053.408 2.626.946 4.665 1.596 4.077 1.299 10.093 2.828 17.667 3.906 7.57 1.084 16.67 1.674 26.786 1.882 10.119.193 21.253.393 32.927.112 11.667-.285 22.772-1.135 32.763-2.693 9.993-1.545 18.854-3.766 26.113-6.184 7.261-2.422 12.936-4.958 16.768-6.874 1.913-.968 3.393-1.734 4.378-2.286l1.137-.601q.388-.202.4-.186M367.234 407.145c-.014.051-.647-.09-1.78-.385l-4.778-1.32c-4.025-1.146-9.571-2.78-15.683-4.63a1088 1088 0 0 1-15.622-4.842l-4.709-1.551c-1.107-.382-1.713-.617-1.697-.667.014-.049.649.09 1.781.385l4.779 1.32c4.024 1.146 9.57 2.78 15.684 4.63 6.11 1.849 11.632 3.564 15.617 4.842 1.877.617 3.453 1.137 4.71 1.551 1.108.381 1.712.616 1.698.667M371.412 487.463c-.059.2-14.396-3.961-32.017-9.294-17.628-5.334-31.866-9.817-31.805-10.018.058-.2 14.393 3.961 32.021 9.294 17.62 5.333 31.86 9.817 31.801 10.018M578.923 313.804c.03.043-.535.489-1.581 1.262-1.043.777-2.589 1.849-4.53 3.127-3.878 2.559-9.397 5.86-15.743 9.017-6.351 3.15-12.31 5.549-16.681 7.09-2.187.773-3.97 1.354-5.215 1.714-1.243.366-1.938.544-1.954.494s.649-.323 1.862-.774c1.344-.509 3.064-1.158 5.124-1.936a200 200 0 0 0 16.535-7.268 201 201 0 0 0 15.792-8.79c1.868-1.174 3.429-2.153 4.648-2.918 1.094-.697 1.714-1.062 1.743-1.018M607.522 396.318c.02.048-.809.443-2.33 1.118-1.514.685-3.746 1.589-6.531 2.624-5.568 2.078-13.434 4.521-22.326 6.316-8.898 1.782-17.09 2.567-23.02 2.805-2.966.122-5.368.151-7.027.106-1.658-.034-2.575-.077-2.574-.13 0-.052.918-.107 2.572-.164 1.655-.045 4.048-.155 7.002-.345a176 176 0 0 0 22.902-3.012 175 175 0 0 0 22.296-6.08c2.8-.967 5.052-1.793 6.599-2.393 1.55-.59 2.417-.893 2.437-.845M566.178 528.31c-.025-.006.001-.284.074-.81l.355-2.289c.175-.989.37-2.202.502-3.624.145-1.418.392-3.025.456-4.82l.169-2.81c.053-.977.023-1.997.04-3.051.065-2.109-.089-4.359-.197-6.726-.361-4.724-1.071-9.896-2.314-15.221-1.296-5.314-3.001-10.243-4.811-14.616-.972-2.157-1.851-4.229-2.86-6.075-.491-.93-.923-1.852-1.413-2.696l-1.418-2.422c-.867-1.569-1.811-2.883-2.58-4.078a44 44 0 0 0-2.082-2.992l-1.348-1.872c-.302-.434-.451-.67-.432-.687.02-.016.208.187.548.59l1.463 1.789c.64.774 1.398 1.741 2.194 2.928.805 1.178 1.786 2.479 2.688 4.039l1.468 2.413c.506.843.955 1.763 1.46 2.694 1.041 1.848 1.947 3.926 2.944 6.091 1.859 4.391 3.598 9.356 4.906 14.715 1.253 5.369 1.948 10.589 2.274 15.354.09 2.387.221 4.653.129 6.778-.03 1.061-.014 2.088-.083 3.07q-.113 1.471-.219 2.825c-.097 1.803-.383 3.414-.568 4.834a37 37 0 0 1-.63 3.618l-.494 2.267c-.121.523-.197.79-.221.784M621.647 483.791c-.08.005-.118-1.182-.443-3.275-.308-2.094-1.123-5.088-2.819-8.459-1.675-3.38-4.415-7.022-8.113-10.342-3.706-3.303-8.415-6.233-13.792-8.162-5.402-1.891-10.854-2.65-15.807-2.819-4.962-.173-9.44.145-13.187.5-3.749.357-6.777.736-8.872.977-.982.108-1.781.195-2.415.263-.552.052-.845.067-.848.042s.281-.091.828-.192l2.397-.403c2.083-.331 5.104-.792 8.857-1.219 3.751-.424 8.251-.8 13.261-.664 5.001.133 10.539.879 16.032 2.802 5.477 1.965 10.258 4.965 14.002 8.355 3.738 3.406 6.483 7.151 8.128 10.622 1.664 3.463 2.412 6.527 2.633 8.659.187 1.057.127 1.899.171 2.46.017.561.013.855-.013.855M467.187 441.756c.001.026-.277.072-.811.138l-2.339.244-8.613.73c-7.276.57-17.335 1.262-28.455 1.849-11.124.591-21.204.944-28.503 1.024-3.652.026-6.605.039-8.646-.028l-2.351-.075c-.537-.026-.818-.052-.818-.079 0-.026.283-.05.82-.074l2.349-.066 8.634-.214c7.291-.216 17.358-.653 28.476-1.245l28.458-1.628c3.565-.201 6.487-.368 8.627-.489l2.349-.103c.537-.015.82-.01.823.016"/><path fill="#000" d="M475.528 444.771c9.05 2.692 21.584 3.349 30.398-.05-6.899 9.907-20.208 13.5-31.756 10.273-11.547-3.227-22.196-14.92-23.089-27.004 5.595 7.684 15.398 14.088 24.447 16.781" opacity=".3"/><path fill="#fff" d="M548.875 435.197c.005.026-.242.096-.719.208l-2.089.449c-1.816.376-4.455.875-7.721 1.455-6.531 1.16-15.588 2.584-25.634 3.828-10.048 1.241-19.178 2.065-25.794 2.53-3.308.234-5.987.392-7.839.469l-2.135.074c-.488.009-.745 0-.748-.026-.002-.026.253-.068.738-.126l2.125-.215 7.816-.709a821 821 0 0 0 25.745-2.748 825 825 0 0 0 25.638-3.604l7.756-1.217 2.113-.308c.487-.065.744-.086.748-.06"/><path fill="#000" d="M533.828 370.54c-2.266 26.286 4.817 52.377 11.83 77.792.429 1.554.887 3.163 1.931 4.383s2.856 1.927 4.279 1.201c2.191-1.12 1.899-4.329 1.279-6.73l-19.513-75.572" opacity=".3"/><path fill="#E0E0E0" d="m170.304 396.733 29.51 146.539h256.128c2.826 0 5.116-2.317 5.116-5.175s-2.29-5.174-5.116-5.174h-51.561L377.023 396.64c-.526-2.614-2.784-4.502-5.421-4.533l-195.755-2.161c-3.565-.039-6.256 3.255-5.543 6.787"/><path fill="#263238" d="M170.304 396.733s-.032-.147-.081-.441a5 5 0 0 1-.025-1.332c.103-1.134.71-3.035 2.709-4.283.491-.306 1.067-.527 1.693-.678.631-.144 1.318-.134 2.015-.127q2.11.018 4.609.035l11.525.098 74.017.71 51.598.526c9.307.095 18.95.197 28.905.3l15.161.158 7.75.082c.661.017 1.28-.01 1.983.049a5.8 5.8 0 0 1 1.979.578 5.97 5.97 0 0 1 2.811 2.982c.288.647.406 1.352.535 1.991l.397 1.971q.398 1.973.796 3.96l1.61 7.999 3.279 16.301 6.784 33.74 14.367 71.495-.343-.283 29.694-.003h21.012c.624.006 1.311-.03 1.994.122 1.351.28 2.574 1.114 3.357 2.263a5.6 5.6 0 0 1 .906 3.984c-.234 1.696-1.32 3.216-2.796 4.03a5.5 5.5 0 0 1-2.409.658l-2.363.01h-9.371l-18.577-.002-36.417-.004c-23.925-.006-47.109-.012-69.34-.016l-120.257-.063h-.223l-.044-.219-21.441-107.071-5.821-29.275-1.497-7.637c-.33-1.72-.481-2.608-.481-2.608s.204.877.563 2.594l1.573 7.62 5.964 29.247 21.674 107.023-.266-.22 120.257-.061 69.34-.017 36.418-.004 18.576-.002h9.371l2.338-.009a4.8 4.8 0 0 0 2.096-.572c1.284-.708 2.23-2.033 2.432-3.509a4.86 4.86 0 0 0-.788-3.468 4.76 4.76 0 0 0-2.922-1.97c-.578-.133-1.19-.102-1.848-.106H434.07l-29.693-.003h-.286l-.057-.284c-4.938-24.623-9.73-48.525-14.339-71.501l-6.762-33.744-3.267-16.304-1.602-8-.794-3.962-.395-1.971c-.135-.668-.239-1.294-.495-1.868a5.34 5.34 0 0 0-2.514-2.672 5.2 5.2 0 0 0-1.77-.52c-.598-.053-1.285-.032-1.924-.048q-3.903-.044-7.75-.09l-15.162-.175-28.904-.339c-18.612-.221-35.88-.425-51.597-.613l-74.016-.923c-4.34-.06-8.19-.112-11.523-.159l-4.609-.066c-.705-.012-1.367-.027-1.983.107-.61.144-1.174.353-1.657.648a5.66 5.66 0 0 0-2.71 4.177c-.114 1.167.082 1.763.043 1.764"/><path fill="#fff" d="M288.329 463.796c0 4.726-3.787 8.557-8.459 8.557s-8.459-3.831-8.459-8.557 3.787-8.557 8.459-8.557 8.459 3.831 8.459 8.557"/><path fill="#263238" d="M170.542 397.92s.298-.022.883-.03c.609-.002 1.469-.008 2.59-.014l9.958.013 36.623.179 120.821.862 17.474.143 4.293.035c.696.014 1.44-.031 2.192.133a6.137 6.137 0 0 1 4.676 4.419c.321 1.432.559 2.789.84 4.179l6.244 31.83 10.533 53.903 7.041 36.353 1.879 9.89.471 2.575c.102.581.136.883.136.883s-.082-.292-.208-.868l-.54-2.562-2.01-9.864-7.26-36.308c-3.043-15.342-6.662-33.6-10.682-53.874l-6.284-31.822c-.277-1.366-.534-2.794-.832-4.129a5.44 5.44 0 0 0-4.142-3.911c-.641-.145-1.333-.104-2.06-.119l-4.293-.033-17.474-.138-120.82-1.072-36.621-.407-9.957-.146-2.59-.057c-.583-.017-.881-.043-.881-.043M512.596 175.365c.768 27.02-10.573 54.156-30.268 72.426l-13.527-39.644"/><path fill="#263238" d="M410.608 96.508c11.613-6.42 25.642-7.343 38.618-4.715s25.071 8.57 36.525 15.274c6.428 3.762 12.835 7.896 17.455 13.775 8.432 10.731 16.767 28.356 17.581 42.04.657 11.065-3.532 38.765-8.155 48.815-4.243 9.222-24.099 16.242-33.9 18.52L388.8 124.419c3.178-11.752 11.238-22.067 21.808-27.912"/><path fill="#263238" d="m395.104 110.778 21.559-3.9c-11.784 28.39-14.98 93.312-21.721 123.34-7.947-11.663-26.401-47.19-25.414-61.32.985-14.13-.04-60.528 25.576-58.12"/><path fill="#FFBE9D" d="M497.317 158.036c-1.16-16.587-11.774-30.191-27.702-34.301l-49.648-12.812c-21.455-2.344-35.784 24.355-37.19 46.138-1.56 24.201-2.522 49.742.273 67.808 5.623 36.33 33.128 41.013 33.128 41.013.003-.054.006 17.278.025 27.884l16.615 69.573 53.545-74.812 11.081-130.05c.014-.623-.069.385-.127-.441"/><path fill="#263238" d="M393.564 184.5c-.092 2.46 1.892 4.566 4.429 4.709 2.531.143 4.665-1.728 4.755-4.188.091-2.46-1.892-4.569-4.423-4.711-2.537-.146-4.669 1.731-4.761 4.19M388.167 171.289c.569.609 4.063-1.994 9.018-1.97 4.95-.048 8.58 2.538 9.12 1.927.264-.272-.316-1.368-1.896-2.539-1.554-1.164-4.212-2.3-7.297-2.293-3.087.01-5.686 1.153-7.179 2.327-1.528 1.179-2.046 2.275-1.766 2.548M436.754 184.501c-.092 2.459 1.892 4.565 4.429 4.708 2.531.143 4.663-1.729 4.755-4.188s-1.892-4.568-4.425-4.711c-2.537-.146-4.669 1.731-4.759 4.191M435.22 171.289c.572.609 4.069-1.994 9.021-1.969 4.949-.048 8.58 2.539 9.118 1.926.265-.27-.308-1.368-1.896-2.537-1.557-1.166-4.211-2.301-7.298-2.295-3.085.01-5.684 1.155-7.18 2.327-1.521 1.179-2.042 2.275-1.765 2.548M419.732 210.651c.023-.285-3.056-.829-8.045-1.487-1.265-.135-2.461-.392-2.673-1.265-.297-.925.235-2.304.853-3.791q1.792-4.64 3.763-9.736c5.224-13.864 9.012-25.264 8.459-25.47-.554-.21-5.24 10.858-10.466 24.722-1.258 3.417-2.461 6.678-3.606 9.794-.482 1.454-1.309 3.103-.667 5.023.339.957 1.265 1.652 2.076 1.876.81.253 1.522.267 2.148.306 5.022.284 8.139.314 8.158.028"/><path fill="#EB996E" d="M463.797 252.958s-11.684 24.945-47.609 21.465l-.01-8.542s23.659 1.573 47.619-12.923"/><path fill="#263238" d="M436.777 153.179c.485 1.362 5.434.729 11.244 1.451 5.828.604 10.51 2.335 11.284 1.115.346-.583-.47-1.867-2.362-3.192-1.875-1.321-4.872-2.579-8.36-2.981-3.489-.394-6.685.159-8.804 1.025-2.135.867-3.212 1.934-3.002 2.582M389.784 155.959c.868 1.14 4.284-.033 8.389-.08 4.103-.192 7.578.781 8.382-.407.351-.578-.194-1.718-1.71-2.8-1.495-1.077-3.996-1.96-6.816-1.88-2.82.085-5.266 1.111-6.696 2.274-1.454 1.166-1.932 2.337-1.549 2.893"/><path fill="#263238" d="M392.53 123.892c2.196-5.465 8.125-8.746 13.949-9.045s11.511 1.932 16.561 4.884c21.381 12.502 32.371 42.698 53.498 55.633 5.196 3.182 11.958.268 16.379 4.482 4.419 4.215 7.286 10.948 4.841 16.573 2.838-3.939 5.716-7.949 7.329-12.541 1.614-4.594 1.817-9.934-.593-14.156-1.829-3.203-5.056-5.649-5.944-9.238-.779-3.157.453-6.46.318-9.711-.138-3.31-1.677-6.38-3.29-9.265-8.275-14.804-19.659-28.196-34.319-36.522-9.578-5.44-20.531-8.62-31.51-8.243s-21.944 4.46-29.978 12.036c-4.724 4.455-9.691 9.066-7.241 15.113"/><path fill="#FFBE9D" d="M492.398 184.347c.378-1.043 19.107-7.879 19.355 12.256.242 19.561-19.272 15.711-19.312 15.15-.037-.56-.043-27.406-.043-27.406"/><path fill="#EB996E" d="M498.339 204.287c.085-.062.341.236.912.494.557.253 1.513.42 2.518.029 2.036-.778 3.726-4.075 3.788-7.601a11.35 11.35 0 0 0-.989-4.87c-.605-1.426-1.528-2.416-2.557-2.592-1.027-.23-1.749.399-1.98.953-.254.549-.128.938-.23.973-.053.049-.418-.324-.27-1.133.076-.391.299-.854.75-1.233.46-.386 1.141-.588 1.857-.516 1.494.09 2.849 1.464 3.548 2.999.781 1.541 1.255 3.442 1.218 5.442-.088 3.943-2.049 7.651-4.836 8.495-1.357.371-2.495-.032-3.087-.488-.601-.48-.708-.917-.642-.952"/><path fill="#455A64" d="M500.092 174.294c-.014.026-.416-.2-1.167-.659-.739-.477-1.881-1.11-3.243-2.086-2.704-1.976-6.453-5.107-10.441-9.612-4.014-4.481-8.214-10.293-12.768-16.777-4.563-6.47-9.572-13.633-15.959-20.102-3.254-3.159-6.672-5.996-10.298-8.231-3.616-2.253-7.406-3.913-11.125-5.107a54.45 54.45 0 0 0-20.485-2.544c-5.914.375-10.593 1.644-13.723 2.721-1.589.488-2.764 1.029-3.582 1.344-.814.324-1.25.481-1.263.452s.397-.24 1.191-.618c.799-.369 1.957-.964 3.541-1.506 3.115-1.185 7.816-2.562 13.791-3.022 5.95-.495 13.203-.028 20.777 2.39 3.782 1.191 7.641 2.862 11.326 5.143 3.699 2.266 7.175 5.144 10.47 8.344 6.465 6.548 11.476 13.767 16.002 20.261 4.519 6.513 8.645 12.331 12.572 16.833 3.9 4.527 7.552 7.7 10.176 9.752 1.322 1.013 2.428 1.69 3.134 2.212.72.506 1.09.786 1.074.812"/><path fill="#fff" d="M500.537 207.744c1.884-.355 3.924.97 4.391 2.849s-.714 4.023-2.538 4.61c-1.825.588-4.015-.47-4.708-2.276-.694-1.807.214-4.081 1.952-4.894"/><path fill="#263238" d="M499.636 208.034c.112.116-1.261.678-1.739 2.627-.224.931-.102 2.167.755 3.07.813.904 2.28 1.464 3.604 1.046 1.319-.433 2.197-1.75 2.343-2.963.184-1.238-.423-2.319-1.138-2.946-1.505-1.312-2.946-.966-2.922-1.126-.012-.048.297-.202.906-.215.6-.014 1.52.17 2.412.854.879.643 1.73 1.964 1.55 3.528-.14 1.503-1.155 3.138-2.882 3.721-1.743.534-3.505-.205-4.48-1.348-1.039-1.172-1.1-2.746-.752-3.785.337-1.079.982-1.767 1.48-2.107.505-.347.844-.401.863-.356M495.23 179.829c.303 5.342.547 10.984-1.894 15.731-2.441 4.748-8.594 7.978-13.187 5.323-3.746-2.165-4.867-7.019-5.502-11.337-1.833-12.459-2.673-25.053-4.614-37.497z"/><path fill="#455A64" d="M397.291 114.587c.022.113 1.709-.327 4.808-.425 3.081-.085 7.634.328 12.799 2.365 2.571 1.014 5.309 2.36 8.017 4.177 2.712 1.813 5.477 3.984 8.271 6.389 5.548 4.849 11.293 10.682 16.193 17.659 2.457 3.489 4.632 7.077 6.99 10.398 2.334 3.333 4.934 6.344 7.753 8.818 5.622 4.941 11.412 8.403 16.341 11.06 4.948 2.646 9.084 4.499 11.937 5.78l3.308 1.425c.761.313 1.168.46 1.184.427.016-.035-.362-.25-1.094-.628l-3.22-1.612c-2.796-1.399-6.876-3.356-11.749-6.075-4.855-2.727-10.547-6.229-16.046-11.136-2.738-2.441-5.253-5.384-7.549-8.685-2.315-3.286-4.486-6.879-6.969-10.409-4.972-7.078-10.794-12.94-16.43-17.793-2.843-2.41-5.645-4.569-8.431-6.382a41.7 41.7 0 0 0-8.238-4.139c-5.304-1.984-9.965-2.283-13.085-2.065-1.57.105-2.776.317-3.578.504-.804.192-1.22.311-1.212.347M495.764 167.746c-.032.058.572.467 1.71 1.167q1.987 1.181 4.897 2.908l1.649.957c.615.341 1.294.642 2.117.709.405.023.886-.013 1.309-.313.421-.287.691-.775.724-1.291.04-1.026-.506-1.783-.915-2.473l-5.685-9.206-.766.72a20 20 0 0 0 6.216 3.134c2.298.696 4.662.96 6.92.825.554-.019 1.177-.094 1.754-.303.566-.202 1.222-.593 1.501-1.323.287-.715.017-1.506-.325-1.977-.337-.504-.753-.873-1.102-1.224a41.2 41.2 0 0 1-6.586-8.403c-3.104-5.291-3.986-9.083-4.188-9.009-.062.018.102.967.609 2.633a37 37 0 0 0 2.914 6.765 39.4 39.4 0 0 0 6.55 8.737c.721.691 1.437 1.486 1.159 2.102-.229.615-1.33.919-2.345.926a19.2 19.2 0 0 1-6.551-.803 19.4 19.4 0 0 1-5.894-2.948l-2.308-1.708 1.543 2.43 5.8 9.133c.447.677.849 1.346.823 1.91-.024.555-.494.881-1.114.834-1.254-.066-2.388-.927-3.476-1.448l-5.051-2.628c-1.192-.594-1.858-.891-1.889-.833"/><path fill="#EB996E" d="M438.577 219.894c-.657-2.983-3.674-5.271-6.68-4.966-2.207.225-4.198 1.736-5.198 3.74-.999 2.003-1.042 4.428-.294 6.54l.103.47c2.029 2.266 5.541 3.062 8.286 1.784s4.441-4.585 3.783-7.568"/><path fill="#263238" d="M422.918 225.783c-.006-.761 5.003-.519 8.773-4.678 3.782-4.151 3.485-9.581 4.187-9.585.319-.056.914 1.251.863 3.536-.035 2.239-.906 5.471-3.21 8.015-2.312 2.536-5.278 3.528-7.341 3.597-2.107.088-3.32-.54-3.272-.885"/><path fill="#fff" d="M591.698 533.592q0 .02-.338.061l-.996.103-3.836.321c-3.333.269-8.158.599-14.125.953-11.932.715-28.435 1.445-46.673 1.756-18.244.304-34.762.131-46.711-.18-5.976-.154-10.81-.32-14.148-.476l-3.843-.192-1-.07q-.34-.03-.338-.049t.341-.028l1.002-.006 3.848.051 14.149.235c11.948.175 28.456.262 46.69-.042 18.227-.312 34.722-.957 46.657-1.533l14.135-.713q2.43-.115 3.845-.18l1-.028c.224 0 .341.004.341.017"/><path fill="#263238" d="M630 543.272c0 .209-141.042.377-314.985.377-174.003 0-315.015-.17-315.015-.377 0-.209 141.012-.378 315.015-.378 173.945-.001 314.985.169 314.985.378"/></svg>