<svg xmlns="http://www.w3.org/2000/svg" width="630" height="586" fill="none"><path fill="#DBEAFE" d="m365.127 583.128 219.475-2.298s122.231-235.273-34.435-269.017c-139.889-30.13-198.851-119.365-218.896-211.624C301.503-36.831 39.269-54.349 8.651 183.255s29.872 399.873 29.872 399.873z"/><path fill="#FFAC9D" d="m261.252 348.09 78.697-6.173-64-76.383s-2.315-.772-3.859-11.573l-6.944-48.608-2.313-4.627s8.487-6.945 16.974 1.542 26.233 41.663 26.233 41.663 106.476 77.693 122.682 120.344c14.66 38.576-168.975 52.481-168.975 52.481l5.4-68.668"/><path fill="#F19C7C" d="m265.149 348.09 63.471-4.979c7.992 19.627 7.69 43.762 2.712 65.237-37.97 5.831-71.584 8.41-71.584 8.41zM279.807 202.268c.699.699 1.465 1.578 2.274 2.58 2.257 17.11.629 34.845-2.146 51.763-.583 3.555-1.18 7.372-1.936 11.23l-2.05-2.306s-2.315-.771-3.858-11.573l-6.945-48.608-2.313-4.628s8.487-6.945 16.974 1.542"/><path fill="#2563EB" d="M262.062 428.074c4.116 0-16.458-85.384-16.458-85.384s24.175-12.087 73.553-13.115c0 0 5.914 45.778-5.401 91.042z"/><path fill="#1D4ED8" d="M254.217 380.086c5.343 2.345 10.643 4.81 16.017 7.12 11.092 4.769 22.473 8.381 34.246 11.09 4.376 1.007 8.773 1.887 13.176 2.716-.987 6.452-2.258 13.031-3.901 19.604l-51.694 7.458c2.228 0-2.781-25.03-7.844-47.988" opacity=".5"/><path fill="#FFAC9D" d="M256.609 458.693c2.681-39.557 1.453-79.258 1.091-118.907-24.361 6.894-54.84 29.688-48.876-18.699 6.945-56.322-47.835-43.977-47.835-43.977s-.772 70.21-7.715 70.21-60.952-6.944-65.582 47.064c-4.216 49.196 129.836 105.418 168.917 64.309"/><path fill="#F19C7C" d="M211.403 346.815c-11.575-2.252-22.514-6.491-31.455-14.474-10.409-9.295-14.899-21.639-19.526-34.087.465-11.838.568-21.147.568-21.147s54.779-12.345 47.836 43.978c-1.662 13.471-.493 21.414 2.577 25.73"/><path fill="#2563EB" d="M245.602 342.689s7.201 55.551-38.064 63.781-79.211-58.637-79.211-58.637-50.407 8.23-48.35 60.694c2.057 52.465 15.431 160.482 15.431 160.482l153.28-11.317 5.144-63.781s41.149-11.316 26.746-82.297c-14.402-70.983-7.201-77.155-7.201-77.155z"/><path fill="#1D4ED8" d="M97.381 413.963c7.767 11.16 16.967 21.631 26.196 31.592 18.545 20.014 39.089 38.282 61.865 53.372 20.627 13.667 41.791 24.397 65.553 30.159l-2.307 28.608-153.28 11.316S82.034 460.993 79.977 408.529c-.274-6.981.403-13.155 1.743-18.654 5.884 7.501 10.207 16.248 15.661 24.088" opacity=".5"/><path fill="#352C38" d="M509.876 581.797H323.364l71.922-158.732h186.51z"/><path fill="#352C38" d="M349.198 567.934H219.396v13.862h129.802z"/><path fill="#765E69" d="M522.478 581.797H335.966l71.921-158.732h186.512z"/><path fill="#FFAC9D" d="M64.085 438.293S47.724 543.477 59.41 566.851c14.35 28.699 190.111 16.361 190.111 16.361s81.03 4.675 1.558-7.791c0 0 92.717 12.466 5.454-5.454 0 0 84.147 7.791 5.453-6.233 0 0 67.786 3.896-18.7-9.349 0 0 52.981-11.687-15.582-6.233 0 0-63.89-10.907-105.184-19.479 0 0 11.686-71.681 10.128-83.368s-68.563-7.012-68.563-7.012"/><path fill="#F19C7C" d="M123.835 471.403c-10.259 2.735-19.999 4.975-30.7 3.966-11.452-1.08-22.361-3.996-32.996-7.811 2.043-17.039 3.944-29.266 3.944-29.266s67.006-4.675 68.565 7.012c.485 3.631-.312 13.058-1.637 24.324-2.404.53-4.798 1.142-7.176 1.775"/><path fill="#2563EB" d="m138.882 461.668-10.554-113.835s-42.428-.699-59.569 42.154c-17.142 42.852-15.582 67.785-15.582 67.785s39.736 17.141 85.705 3.896"/><path fill="#965450" d="M173.239 168.577s42.847-25.3 24.893-58.762-66.514 9.385-46.111 35.91 26.117-42.031-12.242-35.91-12.243 81.613 33.46 58.762"/><path fill="#965450" d="M160.59 169.801s3.315-.717 9.349-2.69a137 137 0 0 0 10.93-4.117c4.225-1.808 9.005-4.098 14.039-7.201 5.002-3.115 10.345-7.051 14.9-12.508 2.243-2.737 4.286-5.857 5.687-9.405 1.41-3.534 2.211-7.47 2.112-11.542-.086-4.073-.983-8.23-2.537-12.292-1.519-4.035-3.715-8.011-6.848-11.296a25.7 25.7 0 0 0-11.755-7.11c-4.575-1.301-9.574-1.383-14.474-.49a41.3 41.3 0 0 0-14.156 5.516c-4.372 2.742-8.434 6.403-10.932 11.076-1.225 2.326-1.976 4.933-1.888 7.554q.036.98.218 1.949c.12.638.3 1.354.473 1.973.369 1.3.863 2.571 1.482 3.773 1.226 2.409 3.034 4.531 5.306 6.006 2.263 1.474 4.988 2.289 7.711 2.214 2.688-.061 5.501-1.04 7.1-3.086a5.48 5.48 0 0 0 1.145-3.553c-.035-1.294-.487-2.604-1.145-3.821-2.909-4.917-7.474-9.029-12.503-12.203-5.067-3.182-10.796-5.444-16.794-6.513-5.996-1.066-12.272-.892-18.282.646-6.015 1.533-11.736 4.328-16.888 8.006-1.29.949-2.558 1.841-3.718 2.925-1.107.997-2.122 2.211-2.981 3.462-1.744 2.527-2.708 5.527-2.955 8.605-.417 6.227 1.989 12.478 5.365 17.925 3.412 5.49 7.899 10.352 12.922 14.558 5.049 4.176 10.688 7.723 16.771 10.239 6.055 2.511 12.639 4.009 19.136 3.502 3.235-.25 6.425-1.032 9.343-2.406a26 26 0 0 0 4.193-2.457 61 61 0 0 0 3.976-2.996c5.164-4.196 9.757-9.115 13.771-14.45 4.017-5.336 7.464-11.112 10.146-17.209 2.66-6.089 4.593-12.549 5.036-19.1.459-6.493-.776-13.261-4.77-18.279-3.905-5.085-10.209-7.838-16.491-8.993-6.385-1.218-12.961-.312-18.799 2.337-5.863 2.62-10.919 6.821-15.14 11.62-4.209 4.836-7.631 10.319-10.228 16.107-2.598 5.783-4.418 11.899-5.099 18.074-.333 3.082-.376 6.189.053 9.195.416 2.998 1.303 5.93 2.897 8.385 1.555 2.46 3.91 4.366 6.557 5.35 2.723 1.062 5.647 1.046 8.336.066 2.689-.965 5.077-2.736 7.126-4.799 2.043-2.087 3.766-4.48 5.238-6.999 2.909-5.07 4.867-10.625 5.899-16.247 1.036-5.617 1.151-11.358.037-16.769-1.118-5.386-3.607-10.452-7.531-14.034-3.867-3.652-8.958-5.629-14.044-6.435a40 40 0 0 0-7.693-.464 26.4 26.4 0 0 0-7.323 1.37c-4.692 1.576-8.699 4.618-11.619 8.36-2.937 3.745-4.903 8.082-6.111 12.476-2.432 8.827-2.105 17.815-.228 25.751 1.917 7.953 5.491 14.981 10.18 20.297 2.337 2.661 4.926 4.908 7.636 6.701a36.5 36.5 0 0 0 8.339 4.049c2.79.954 5.552 1.469 8.16 1.754 1.304.178 2.58.188 3.81.26 1.231-.029 2.423.022 3.568-.082 4.587-.269 8.431-1.092 11.497-1.885 3.062-.828 5.364-1.627 6.895-2.21l2.323-.886-2.313.912c-1.526.6-3.82 1.426-6.876 2.29-3.062.829-6.906 1.699-11.512 2.022-1.147.116-2.348.08-3.587.122-1.238-.058-2.522-.053-3.838-.218-2.633-.259-5.426-.746-8.259-1.681a36.7 36.7 0 0 1-8.494-4.007c-2.771-1.786-5.425-4.039-7.831-6.716-4.826-5.348-8.537-12.446-10.578-20.51-1.997-8.049-2.446-17.183-.054-26.283 1.196-4.528 3.207-9.027 6.246-12.962 3.021-3.929 7.238-7.182 12.19-8.879a27.7 27.7 0 0 1 7.748-1.494 41.2 41.2 0 0 1 7.953.432c5.296.804 10.721 2.853 14.894 6.741 4.23 3.815 6.907 9.213 8.109 14.853 1.203 5.672 1.112 11.624.076 17.442-1.034 5.824-3.014 11.571-6.017 16.881-1.523 2.641-3.315 5.172-5.49 7.421-2.182 2.222-4.772 4.198-7.847 5.327-3.039 1.157-6.652 1.187-9.694-.013-3.152-1.155-5.845-3.369-7.637-6.174-1.815-2.792-2.775-6.009-3.23-9.223-.466-3.227-.422-6.494-.082-9.716.702-6.453 2.571-12.762 5.239-18.735 2.668-5.976 6.182-11.639 10.543-16.671 4.376-4.992 9.65-9.414 15.879-12.216 6.176-2.838 13.351-3.825 20.089-2.547 3.405.638 6.714 1.615 9.824 3.225 3.104 1.574 5.951 3.797 8.131 6.588 2.193 2.778 3.711 6.068 4.514 9.48.81 3.414 1.028 6.934.792 10.391-.457 6.931-2.46 13.623-5.191 19.914a88 88 0 0 1-10.407 17.713c-4.136 5.471-8.862 10.515-14.21 14.844a65 65 0 0 1-4.13 3.098 28.5 28.5 0 0 1-4.548 2.647c-3.2 1.498-6.68 2.339-10.163 2.6-7 .527-13.91-1.092-20.208-3.713-6.325-2.632-12.133-6.306-17.338-10.631-5.179-4.354-9.806-9.381-13.364-15.129-1.78-2.866-3.279-5.928-4.312-9.164-1.055-3.222-1.575-6.665-1.342-10.1.276-3.423 1.382-6.828 3.341-9.653.98-1.415 2.057-2.708 3.357-3.876 1.21-1.124 2.587-2.097 3.896-3.053 5.342-3.798 11.315-6.711 17.618-8.302 6.3-1.6 12.891-1.769 19.162-.64 6.282 1.122 12.229 3.544 17.489 6.883 5.232 3.369 9.926 7.577 13.089 12.985.747 1.404 1.305 2.983 1.343 4.668.05 1.676-.511 3.403-1.554 4.712-2.129 2.644-5.441 3.664-8.493 3.735-3.102.064-6.155-.877-8.686-2.546-2.54-1.668-4.529-4.05-5.846-6.682a22 22 0 0 1-1.577-4.086 26 26 0 0 1-.493-2.112 14.6 14.6 0 0 1-.233-2.204c-.079-2.962.784-5.831 2.118-8.326 2.726-5.011 6.995-8.766 11.54-11.588a42.7 42.7 0 0 1 14.682-5.617c5.08-.896 10.283-.785 15.067.607a26.57 26.57 0 0 1 12.244 7.542c3.232 3.467 5.439 7.581 6.957 11.746 1.532 4.139 2.417 8.437 2.457 12.621.056 4.188-.813 8.23-2.297 11.831-1.475 3.619-3.591 6.773-5.897 9.523-4.682 5.484-10.105 9.381-15.163 12.457-5.091 3.062-9.908 5.305-14.159 7.071a137 137 0 0 1-10.988 4.003c-6.056 1.906-9.379 2.586-9.379 2.586"/><path fill="#965450" d="M228.114 101.022s.528 1.365 1.118 3.857c.296 1.246.594 2.771.865 4.537.237 1.768.495 3.775.517 5.981.047 2.202-.002 4.6-.326 7.116-.112 1.264-.39 2.541-.611 3.857-.322 1.294-.614 2.632-1.089 3.939-.835 2.65-2.046 5.283-3.559 7.784-1.452 2.548-3.397 4.826-5.423 6.994-2.161 2.037-4.445 3.959-6.938 5.473l-1.839 1.161q-.958.502-1.904 1.001c-.634.324-1.251.676-1.887.973l-1.921.825-1.888.809c-.636.234-1.276.441-1.906.649-1.267.396-2.478.877-3.712 1.148l-3.56.909c-1.155.261-2.287.444-3.364.656-2.15.465-4.156.656-5.925.861-.885.098-1.71.209-2.478.275l-2.113.131-4.006.217 3.976-.515q.948-.117 2.093-.254c.759-.111 1.574-.273 2.448-.422 1.745-.313 3.718-.623 5.831-1.144 1.059-.249 2.171-.469 3.303-.769l3.477-1.024c1.205-.312 2.377-.828 3.604-1.262q.916-.335 1.852-.68.91-.403 1.835-.815l1.867-.826c.617-.297 1.213-.647 1.825-.97l1.84-.994 1.769-1.148c2.4-1.494 4.571-3.382 6.632-5.355 1.967-2.059 3.865-4.221 5.288-6.655 1.483-2.386 2.681-4.907 3.519-7.459a42 42 0 0 0 1.856-7.525c.406-2.442.538-4.791.57-6.957.039-2.17-.092-4.158-.22-5.922a58 58 0 0 0-.589-4.544c-.429-2.505-.827-3.913-.827-3.913M90.778 187.436a27.4 27.4 0 0 1 2.758-3.013c.48-.486.993-.937 1.52-1.37.529-.43 1.022-.91 1.582-1.301 1.098-.813 2.178-1.656 3.355-2.358l1.734-1.102 1.811-.97c.607-.317 1.201-.664 1.825-.947l1.893-.805 1.895-.802 1.956-.641c1.305-.423 2.6-.894 3.95-1.154 1.34-.291 2.669-.661 4.023-.886l4.084-.56c1.358-.245 2.74-.169 4.11-.255 1.372-.021 2.748-.175 4.118-.042l4.114.227c1.377.021 2.726.292 4.086.472l4.074.589c1.346.259 2.673.607 4.01.906l4.006.934 7.326 1.707-7.548-.215c-2.985-.085-5.896-.423-8.819-.834a102 102 0 0 1-8.68-1.627 89 89 0 0 1-4.279-1.103 77 77 0 0 1-4.223-1.309c-1.4-.463-2.776-.992-4.151-1.528-1.361-.569-2.714-1.158-4.034-1.82-1.336-.627-2.623-1.358-3.905-2.087l-1.895-1.146-1.835-1.243c-.623-.397-1.187-.878-1.781-1.317a22 22 0 0 1-1.72-1.395c-1.142-.938-2.184-1.987-3.23-3.028-.974-1.111-1.974-2.199-2.818-3.411-.915-1.156-1.647-2.444-2.419-3.693-.674-1.309-1.379-2.599-1.893-3.978-.604-1.34-.945-2.775-1.397-4.162.53 1.366.945 2.769 1.62 4.068.564 1.346 1.316 2.597 2.033 3.859.814 1.204 1.584 2.44 2.532 3.54.876 1.158 1.907 2.182 2.899 3.236 1.052.995 2.096 1.997 3.24 2.888.548.472 1.126.908 1.72 1.324.593.415 1.155.873 1.776 1.247l1.828 1.172 1.887 1.078c1.276.683 2.554 1.367 3.881 1.95 1.307.624 2.661 1.145 3.998 1.703 1.356.514 2.712 1.023 4.092 1.468 1.377.452 2.763.881 4.167 1.252 1.397.391 2.809.729 4.224 1.052 2.832.636 5.695 1.144 8.571 1.533 2.872.388 5.784.662 8.645.79l-.222 1.492-3.934-.949c-1.315-.306-2.619-.662-3.94-.926l-3.999-.611c-1.335-.188-2.662-.468-4.011-.498l-4.034-.255c-1.345-.145-2.691 0-4.037.007l-2.018.056a13 13 0 0 0-2.013.129l-4.017.448c-1.332.187-2.641.519-3.965.77-1.335.221-2.613.653-3.905 1.036l-1.938.581-1.881.743-1.883.746c-.619.266-1.215.587-1.826.871l-1.825.883-1.754 1.016c-1.19.645-2.291 1.434-3.412 2.196-.57.366-1.077.82-1.62 1.226a22 22 0 0 0-1.566 1.295 27 27 0 0 0-2.916 2.851"/><path fill="#FFA65B" d="M194.17 159.007s-6.534-10.579-24.891-5.6c-18.357 4.978-28.004 20.535-25.203 28.936 2.8 8.401 50.094-23.336 50.094-23.336"/><path fill="#965450" d="M124.213 212.125s-16.461 56.066 43.207 86.928l-11.831-84.87z"/><path fill="#FFAC9D" d="M223.321 174.834s66.213 4.005 49.541 101.844c-14.724 86.413-110.331 72.525-115.685-.772-5.469-74.88 21.047-102.614 66.144-101.072"/><path fill="#965450" d="M266.691 203.895s-23.514-57.944-83.326-44.749c-69.954 15.431-63.781 82.812-58.124 90.527 5.658 7.716 36.519-7.201 36.519-7.201s7.202 22.118-3.086 34.977c0 0 26.747-12.345 8.744-44.75 0 0 16.974 17.488 9.259 33.948 0 0 17.488-21.602-6.686-41.149 0 0 13.887-3.086 14.401-26.233 0 0 47.837-15.43 82.299 4.63"/><path fill="#965450" d="M262.986 201.527s1.299-.982 3.638-2.471a89 89 0 0 1 10.099-5.52c2.173-.977 4.544-2.006 7.129-2.9 2.567-.935 5.346-1.732 8.253-2.407a62 62 0 0 1 9.108-1.348c3.134-.15 6.345-.178 9.512.303 1.594.149 3.143.576 4.7.895.776.173 1.524.455 2.283.678.749.255 1.524.426 2.238.76 1.444.621 2.917 1.139 4.247 1.92l2.022 1.076c.647.392 1.264.825 1.89 1.23.617.419 1.249.802 1.835 1.238l1.691 1.362c.551.456 1.124.876 1.639 1.348l1.486 1.441 1.444 1.4c.456.477.864.986 1.287 1.464.816.983 1.686 1.867 2.373 2.832 1.389 1.919 2.716 3.637 3.65 5.319.992 1.644 1.896 3.052 2.48 4.302l1.97 3.847-2.124-3.761c-.631-1.221-1.591-2.589-2.643-4.183-.998-1.631-2.387-3.283-3.804-5.151-.704-.937-1.589-1.786-2.421-2.735-.431-.46-.847-.951-1.309-1.409l-1.459-1.34q-.74-.678-1.498-1.376c-.518-.449-1.091-.845-1.643-1.278q-.837-.637-1.69-1.289c-.584-.411-1.214-.767-1.827-1.159-.621-.379-1.232-.785-1.872-1.149l-1.996-.992c-1.31-.724-2.759-1.185-4.17-1.749-.699-.305-1.456-.449-2.186-.676-.741-.193-1.467-.449-2.223-.594-1.515-.266-3.017-.637-4.561-.741-3.061-.425-6.167-.353-9.199-.168-3.033.264-5.998.75-8.821 1.429-2.82.696-5.514 1.508-8.008 2.456-2.51.904-4.813 1.943-6.923 2.926-2.091 1.027-3.999 1.989-5.643 2.927a85 85 0 0 0-4.21 2.507c-2.299 1.467-3.507 2.384-3.507 2.384z"/><path fill="#965450" d="m262.058 201.337.498-1.387c.333-.89.833-2.183 1.524-3.804 1.387-3.236 3.501-7.81 6.684-12.955 1.6-2.566 3.484-5.265 5.738-7.922 2.243-2.661 4.913-5.259 8.078-7.449 3.168-2.153 6.925-3.873 10.994-4.337a38 38 0 0 1 12.05.523c3.963.841 7.831 2.471 10.919 5.103 1.519 1.328 2.851 2.92 3.614 4.824.365.953.571 1.993.471 3.039a4.76 4.76 0 0 1-1.251 2.818c-.715.756-1.597 1.251-2.537 1.547-.929.314-2.16.222-2.969-.41-.836-.612-1.298-1.513-1.575-2.386a8.2 8.2 0 0 1-.36-2.671c.06-3.544 1.724-6.669 3.876-8.768a13 13 0 0 1 3.532-2.476c.599-.339 1.248-.523 1.843-.775.624-.174 1.223-.375 1.818-.494a21.8 21.8 0 0 1 6.25-.393c1.734.118 3.084.337 3.992.531l1.396.28-1.403-.246a29 29 0 0 0-3.993-.432 21.5 21.5 0 0 0-6.179.539c-2.313.552-4.877 1.706-6.917 3.808-2.023 2.066-3.53 5.112-3.5 8.426-.005.821.124 1.65.385 2.427.26.77.687 1.508 1.321 1.94 1.255.919 3.179.078 4.293-1.105 1.148-1.244 1.168-3.155.468-4.78-.704-1.644-1.95-3.085-3.389-4.278-2.927-2.376-6.623-3.844-10.412-4.549a36.3 36.3 0 0 0-11.492-.191c-3.7.521-7.097 2.183-9.996 4.266-2.894 2.122-5.358 4.64-7.431 7.24-2.084 2.596-3.828 5.24-5.306 7.758-2.943 5.054-4.882 9.559-6.14 12.727a87 87 0 0 0-1.372 3.708l-.429 1.306z"/><path fill="#965450" d="M309.898 106.166s1.1 1.616 2.627 4.673a50 50 0 0 1 2.393 5.678c.786 2.247 1.508 4.863 1.792 7.804.284 2.916.101 6.249-1.333 9.393-.727 1.549-1.717 3.049-3.013 4.315-1.311 1.232-2.793 2.374-4.474 3.192-.807.479-1.706.767-2.566 1.165-.881.314-1.814.608-2.689.898-1.814.552-3.579 1.155-5.318 1.897a55.4 55.4 0 0 0-10.049 5.519c-6.306 4.411-11.657 10.122-15.41 16.208-3.771 6.084-5.976 12.468-6.731 18.046a39 39 0 0 0-.339 7.645c.078 2.28.446 4.24.765 5.843.324 1.609.875 2.774.723 3.759-.116.974-.613 1.693-.613 1.693s-.816-.202-1.535-.953c-.803-.724-.983-2.142-1.466-3.844-.373-1.732-.811-3.855-.926-6.329-.122-2.466-.064-5.268.408-8.266a45.8 45.8 0 0 1 2.636-9.372c1.262-3.21 2.984-6.427 5.089-9.513 4.214-6.166 9.902-11.886 16.538-16.192a57 57 0 0 1 10.442-5.407c3.623-1.538 7.423-2.02 10.602-3.667 1.632-.743 3.055-1.792 4.329-2.927 1.254-1.168 2.223-2.56 2.952-4.018 1.437-2.951 1.71-6.179 1.499-9.049-.208-2.893-.857-5.503-1.583-7.754a49.5 49.5 0 0 0-2.244-5.71c-1.446-3.082-2.506-4.727-2.506-4.727M163.063 225.867s.194-.068.56-.192c.433-.152.953-.261 1.653-.396a14 14 0 0 1 2.504-.174c.482-.03.99.067 1.524.121l.817.097q.41.105.835.212c1.155.23 2.299.774 3.487 1.328 1.103.706 2.29 1.403 3.272 2.4 1.101.874 1.925 2.036 2.849 3.13.867 1.133 1.547 2.407 2.325 3.607l1.848 3.816c.526 1.289.959 2.587 1.421 3.823.497 1.225.777 2.47 1.101 3.631.314 1.162.611 2.26.887 3.275l1.39 6.848-.488-1.857c-.318-1.179-.736-2.872-1.304-4.881l-1.119-3.181c-.406-1.123-.771-2.33-1.349-3.497-.544-1.179-1.06-2.417-1.663-3.63l-2.052-3.542c-.848-1.066-1.595-2.213-2.491-3.181-.944-.92-1.784-1.916-2.823-2.58-.942-.807-2.011-1.282-2.97-1.797-1.026-.351-1.978-.718-2.906-.803l-.667-.112q-.33-.002-.646-.006c-.417.007-.812-.039-1.179.035a10.7 10.7 0 0 0-1.866.335c-.483.152-.896.29-1.068.382-.181.072-.385.182-.375.175zM186.449 229.1c.487-1.663.838-3.356 1.144-5.051.294-1.696.495-3.406.587-5.115.089-1.709.12-3.415-.01-5.108a28 28 0 0 0-.29-2.521 28 28 0 0 0-.518-2.469c-.235-.805-.471-1.607-.788-2.376a20 20 0 0 0-1.044-2.255c-.376-.737-.835-1.42-1.299-2.1-.509-.644-1-1.304-1.594-1.875-.545-.615-1.202-1.117-1.818-1.656-.676-.469-1.308-.996-2.037-1.391-.692-.449-1.441-.805-2.188-1.162-.742-.369-1.543-.62-2.311-.937l.636-1.938a31 31 0 0 1 2.827 1.097c.908.412 1.803.847 2.673 1.329.891.443 1.72.997 2.574 1.505.851.515 1.64 1.128 2.461 1.688.807.579 1.545 1.256 2.315 1.885.767.636 1.431 1.389 2.15 2.078.737.671 1.311 1.502 1.961 2.255.309.392.65.758.93 1.169l.803 1.265c.526.848 1.107 1.658 1.491 2.585.418.905.877 1.788 1.253 2.705l.914 2.834c.363.925.425 1.931.628 2.894.135.977.401 1.937.365 2.928l.067 2.944c.083.979-.133 1.95-.208 2.922l-.359 2.897.031-2.915c-.008-.965.126-1.931-.038-2.889l-.308-2.869c-.036-.962-.398-1.873-.581-2.806-.247-.921-.348-1.881-.748-2.753l-1.011-2.664c-.405-.856-.89-1.675-1.326-2.512-.403-.858-1.002-1.601-1.538-2.376l-.817-1.155c-.285-.374-.612-.719-.917-1.079-.637-.697-1.191-1.466-1.911-2.085-.7-.634-1.341-1.33-2.087-1.914-.751-.577-1.464-1.197-2.235-1.746-.787-.524-1.539-1.102-2.354-1.584-.819-.475-1.611-.997-2.464-1.411a35 35 0 0 0-2.551-1.241 31 31 0 0 0-2.591-1.031l.636-1.939c.829.347 1.683.629 2.489 1.035.811.394 1.62.792 2.38 1.291.791.443 1.498 1.022 2.229 1.558.671.613 1.377 1.191 1.968 1.887.637.65 1.167 1.395 1.708 2.122.493.764.977 1.53 1.368 2.348.411.803.751 1.645 1.028 2.498.298.849.508 1.72.713 2.588.172.875.323 1.752.415 2.634.09.881.16 1.765.169 2.648.03.882.001 1.763-.043 2.64a29 29 0 0 1-.247 2.618c-.509 3.464-1.336 6.875-2.682 10.076"/><path fill="#965450" d="M162.247 293.909c-3.917-1.673-7.659-3.737-11.273-5.994a94 94 0 0 1-10.345-7.51c-6.536-5.476-12.324-11.935-16.666-19.332-4.333-7.389-7.108-15.714-7.978-24.258a65 65 0 0 1-.033-12.855c.428-4.28 1.137-8.491 2.371-12.642a56 56 0 0 1 4.974-11.886 57.4 57.4 0 0 1 7.556-10.445c5.79-6.389 12.902-11.46 20.517-15.394 7.627-3.944 15.774-6.784 24.076-8.856a139 139 0 0 1 12.591-2.499c4.24-.629 8.477-1.111 12.798-1.277l.055 1.514c-4.197.262-8.424.727-12.614 1.298-4.194.58-8.372 1.276-12.516 2.129-8.284 1.708-16.479 3.951-24.297 7.137-3.903 1.599-7.708 3.441-11.298 5.629-3.591 2.178-6.952 4.749-9.836 7.768-2.842 3.026-5.027 6.667-6.686 10.508-1.66 3.849-2.822 7.917-3.591 12.054-1.538 8.284-1.51 16.843-.286 25.194a83.4 83.4 0 0 0 7.44 24.142c1.851 3.802 3.977 7.473 6.405 10.942 2.433 3.462 5.131 6.747 8.112 9.76 5.932 6.062 12.932 11.06 20.524 14.873m0 0c-7.649-3.696-14.746-8.594-20.801-14.596-6.067-5.982-11.125-12.995-14.933-20.639a84.3 84.3 0 0 1-7.728-24.333c-1.312-8.44-1.419-17.11.073-25.562.746-4.219 1.892-8.389 3.597-12.348 1.696-3.953 3.933-7.722 6.909-10.909 2.981-3.139 6.426-5.779 10.091-8.016 3.662-2.246 7.526-4.127 11.48-5.758 7.92-3.25 16.186-5.531 24.534-7.275a194 194 0 0 1 12.607-2.176c4.228-.584 8.454-1.068 12.738-1.336l.056 1.514c-4.19.15-8.428.618-12.612 1.228-4.19.623-8.351 1.435-12.465 2.441-8.215 2.027-16.269 4.815-23.789 8.679-7.507 3.854-14.495 8.815-20.174 15.05a56.2 56.2 0 0 0-7.411 10.19 56.2 56.2 0 0 0-4.94 11.596c-1.227 4.006-1.978 8.225-2.43 12.409a63.6 63.6 0 0 0-.076 12.648c.783 8.412 3.44 16.632 7.659 23.971 4.194 7.361 9.824 13.872 16.251 19.421a94 94 0 0 0 10.197 7.642c3.571 2.307 7.277 4.427 11.167 6.159"/><path fill="#965450" d="M178.221 161.719s1.581-.678 4.443-1.606c2.866-.907 7.008-2.109 12.1-3.022 5.087-.876 11.123-1.602 17.619-1.373 3.242.136 6.593.455 9.954 1.086 3.349.662 6.738 1.521 9.967 2.837 3.263 1.234 6.306 2.98 9.18 4.844 2.785 1.997 5.425 4.132 7.613 6.557q.83.898 1.649 1.779c.516.61.977 1.259 1.452 1.883l1.394 1.859c.425.636.805 1.29 1.201 1.922 1.649 2.488 2.805 5.065 3.935 7.392.941 2.413 1.914 4.584 2.436 6.624.59 2.016 1.179 3.747 1.449 5.232l.991 4.619-1.281-4.542c-.343-1.46-1.019-3.156-1.703-5.123-.623-1.992-1.699-4.091-2.682-6.449-1.186-2.259-2.399-4.757-4.089-7.144-.407-.605-.798-1.234-1.231-1.842l-1.418-1.77c-.486-.59-.945-1.213-1.45-1.806l-1.622-1.713c-2.148-2.337-4.732-4.377-7.448-6.287-2.805-1.776-5.766-3.435-8.943-4.606-3.118-1.31-6.407-2.179-9.671-2.858-3.276-.65-6.556-.996-9.738-1.162-3.185-.106-6.274-.138-9.2.059-2.929.144-5.685.483-8.223.832-2.531.4-4.853.78-6.893 1.219a99 99 0 0 0-5.262 1.236c-2.901.772-4.529 1.323-4.529 1.323"/><path fill="#FFAC9D" d="M161.495 239.715s-3.485-27.473-21.943-16.527c-18.457 10.947 6.121 55.887 21.193 41.21 6.831-6.655.75-24.683.75-24.683"/><path fill="#FC6A5A" d="M237.372 247.103a127 127 0 0 0-.112 4.72c.003 1.563-.01 3.115.069 4.662.034 1.544.13 3.083.272 4.609.066.763.106 1.528.228 2.282l.3 2.266.39 2.243c.12.75.355 1.469.511 2.208l.243 1.106.331 1.078c.234.713.412 1.452.692 2.146l.81 2.101c.249.713.653 1.346.97 2.026.329.675.635 1.368 1.066 1.984.395.64.807 1.271 1.191 1.93l.741 1.263-1.173.334c-2.826.805-5.671 1.564-8.587 2.132 2.571-1.488 5.213-2.786 7.873-4.039l-.432 1.597c-.529-.617-1.034-1.258-1.555-1.894-.546-.621-.989-1.307-1.409-2.012-.403-.71-.896-1.384-1.226-2.133l-1.037-2.23c-.323-.753-.538-1.542-.812-2.313l-.388-1.164-.294-1.185c-.173-.795-.387-1.584-.5-2.387l-.356-2.405c-.106-.802-.129-1.611-.184-2.416-.067-.805-.052-1.612-.06-2.415a22 22 0 0 1 .074-2.408c.055-.8.092-1.6.193-2.395.201-1.588.423-3.169.799-4.722.337-1.552.79-3.089 1.372-4.569"/><path fill="#76413B" d="M228.114 221.898s.28.723.339 2.084c.017.674.026 1.522-.174 2.467-.15.96-.478 2.029-1.013 3.131-.241.567-.61 1.088-.941 1.673-.37.553-.828 1.068-1.274 1.629a34 34 0 0 1-1.591 1.492c-.589.441-1.203.898-1.847 1.314-.66.376-1.344.745-2.043 1.108-.715.296-1.442.588-2.185.867-.744.268-1.503.447-2.268.651-.397.095-.731.202-1.185.287l-1.083.205a44 44 0 0 1-4.517.591 36 36 0 0 1-4.438.084c-1.432-.045-2.799-.206-3.967-.29-1.179-.089-2.139-.096-3.052.1-.449.129-.894.25-1.316.444-.434.149-.84.353-1.222.558-.774.377-1.431.815-2.003 1.117a38 38 0 0 1-1.769 1.064s.384-.652 1.148-1.742c.426-.51.865-1.2 1.561-1.855a10.1 10.1 0 0 1 2.627-2.058c1.148-.616 2.583-.973 3.928-1.112 1.361-.154 2.661-.212 3.988-.331 1.328-.099 2.673-.27 4.049-.445 1.373-.207 2.684-.383 4.169-.68l1.088-.185c.271-.045.643-.15.959-.22.65-.175 1.333-.261 1.96-.461a46 46 0 0 1 1.871-.576c.584-.246 1.159-.493 1.743-.715.555-.26 1.063-.572 1.604-.828.502-.3.957-.644 1.443-.94l1.256-1.046c.359-.381.775-.717 1.073-1.113.626-.773 1.191-1.537 1.581-2.287.414-.741.713-1.439.936-2.032.436-1.191.565-1.95.565-1.95M272.864 250.703s-.607.033-1.642.001c-.516-.02-1.147-.03-1.855-.096-.709-.015-1.522-.217-2.407-.416-.873-.223-1.907-.37-2.85-.779-.961-.383-2.013-.742-3.025-1.264-.99-.559-2.056-1.094-3.037-1.79-.957-.727-1.99-1.404-2.863-2.265-.886-.847-1.783-1.683-2.521-2.642-.803-.898-1.457-1.891-2.076-2.849-.623-.956-1.103-1.957-1.56-2.887-.408-.963-.779-1.868-1.023-2.747-.297-.85-.459-1.671-.601-2.388a16 16 0 0 1-.248-1.883c-.083-1.05-.01-1.657-.01-1.657l.884 1.364c.569.848 1.364 2.035 2.359 3.385.473.687 1.073 1.373 1.628 2.129.607.724 1.207 1.504 1.886 2.259.347.37.68.76 1.02 1.15.338.392.734.741 1.089 1.13.713.776 1.503 1.493 2.29 2.214.739.774 1.638 1.363 2.412 2.082.815.668 1.683 1.241 2.473 1.882.818.598 1.668 1.099 2.438 1.653.769.58 1.543.953 2.244 1.418.723.407 1.333.901 1.99 1.208.634.323 1.173.65 1.62.909.89.527 1.385.879 1.385.879"/><path fill="#fff" d="M228.114 305.226s-14.401-32.406-32.919-6.173z"/><path fill="#352C38" d="M246.124 259.964c-.383 5.811 1.03 10.635 3.155 10.776 2.127.14 4.16-4.457 4.543-10.268s-1.03-10.635-3.157-10.775c-2.123-.139-4.158 4.456-4.541 10.267M206.518 256.878c-.383 5.811 1.031 10.635 3.156 10.775s4.159-4.456 4.542-10.267-1.03-10.635-3.156-10.776c-2.124-.139-4.158 4.458-4.542 10.268"/><path fill="#FC6A5A" d="M216.798 264.59s-.069.405-.26 1.094c-.205.683-.478 1.674-.947 2.813a22.4 22.4 0 0 1-1.922 3.768c-.833 1.32-1.92 2.653-3.366 3.688a6.6 6.6 0 0 1-2.506 1.037c-.914.194-1.864.003-2.656-.298-.816-.293-1.46-.801-2.01-1.292a8.8 8.8 0 0 1-1.361-1.533 9.3 9.3 0 0 1-.907-1.437 12 12 0 0 1-.593-1.152 22 22 0 0 1-.446-1.032s.27.315.702.874c.419.566 1.081 1.339 1.915 2.168.198.22.426.422.67.617.24.2.468.431.746.599.267.182.531.387.835.516.29.164.59.297.906.389.625.195 1.285.257 1.938.112a5.1 5.1 0 0 0 1.897-.845 10 10 0 0 0 1.683-1.467c.507-.558 1.007-1.122 1.438-1.72.881-1.178 1.627-2.359 2.247-3.388.61-1.034 1.133-1.904 1.459-2.532.343-.621.538-.979.538-.979M243.544 268.192s.15.383.409 1.054c.243.673.649 1.614 1.117 2.735.48 1.115 1.051 2.408 1.77 3.708.345.658.769 1.288 1.2 1.908.434.617.95 1.171 1.508 1.593.551.433 1.158.697 1.772.704.614-.009 1.244-.245 1.829-.584a10.6 10.6 0 0 0 1.586-1.291c.469-.481.905-.956 1.281-1.429.395-.454.712-.913 1.024-1.299s.551-.749.755-1.042c.412-.585.669-.914.669-.914s-.134.389-.405 1.059c-.139.333-.298.744-.526 1.194-.226.452-.445.984-.791 1.51l-.511.839-.638.851c-.462.571-1.005 1.151-1.689 1.653-.705.463-1.554.924-2.571.942-1.012.018-1.98-.403-2.714-.964-1.463-1.169-2.325-2.694-2.987-4.122a23 23 0 0 1-1.396-4.036c-.311-1.203-.453-2.231-.57-2.942a13 13 0 0 1-.122-1.127M153.532 261.504c-.671-.729-1.296-1.514-1.791-2.389a10 10 0 0 1-.639-1.378c-.089-.239-.136-.497-.206-.747-.063-.253-.053-.525-.082-.791-.012-.267.069-.541.106-.813.076-.264.23-.511.352-.768.163-.224.376-.413.569-.62.204-.192.461-.288.693-.434.471-.296.995-.356 1.495-.543l1.531-.226-.449.496c-.16-2.178-.401-4.368-.7-6.536a88 88 0 0 0-1.01-6.479c-.433-2.135-.94-4.259-1.672-6.276-.373-1.003-.744-2.006-1.257-2.912-.499-.904-1.104-1.749-1.855-2.288-.37-.281-.782-.429-1.199-.52-.205.008-.454-.044-.624-.011l-.82.113c-.585.04-.971.261-1.463.378-.465.165-.927.419-1.385.638-.859.557-1.704 1.165-2.387 1.954l-.521.584-.441.648c-.32.418-.536.896-.773 1.367-.462.947-.73 1.974-.918 3.019-.041.526-.092 1.057-.104 1.588.04.528.023 1.069.109 1.597.161 1.06.464 2.104.904 3.098.254.479.475.983.758 1.449l.92 1.37-1.078-1.264c-.347-.434-.603-.932-.908-1.402a12.7 12.7 0 0 1-1.214-3.139c-.138-.55-.171-1.119-.261-1.684-.019-.569.006-1.141.021-1.714.14-1.135.375-2.268.825-3.331.231-.528.447-1.068.772-1.549l.454-.743.543-.681c.715-.924 1.638-1.672 2.625-2.309.525-.27 1.033-.558 1.6-.77.571-.165 1.199-.434 1.723-.472l.816-.128c.375-.062.68-.006 1.025-.003.661.113 1.304.357 1.823.733 1.056.739 1.76 1.739 2.343 2.741a17.6 17.6 0 0 1 1.392 3.136c.733 2.144 1.213 4.33 1.619 6.52.39 2.192.688 4.393.912 6.599.188 2.212.316 4.418.363 6.643l.01.453-.459.044-1.416.133c-.429.142-.93.174-1.31.397-.189.108-.416.18-.581.313-.151.147-.332.273-.474.429-.096.187-.235.355-.312.554-.039.214-.131.419-.141.644.009.227-.026.457.012.688.045.231.066.466.129.697.124.463.297.915.496 1.362.416.883.92 1.739 1.51 2.535"/><path fill="#1E40AF" d="M371.637 178.899c-41.963-87.95-6.142-194.257 143.601-159.015 0 0 93.982 27.202 74.739 129.074-16.409 86.865-133.058 111.29-193.091 62.081-15.796 10.76-56.69 37.118-11.233-10.851a93 93 0 0 1-14.016-21.289"/><path fill="#fff" d="m487.511 126.122-22.052-10.492q2.832-7.131 6.292-11.207 3.457-4.076 7.055-6.167c2.395-1.393 4.781-2.311 7.15-2.756a57 57 0 0 1 6.739-.877q3.177-.208 5.724-.595 2.541-.39 4.192-2.006 1.015-.959 1.548-2.583.534-1.627.046-3.54-.49-1.915-2.291-3.928-1.803-2.02-5.389-3.725-2.347-1.117-5.781-2.23a66 66 0 0 0-7.372-1.907 73 73 0 0 0-7.972-1.155q-4.03-.353-7.546-.028l9.296-26.94q3.095-.288 6.86-.377 3.76-.091 7.989.44 4.228.53 8.906 1.797t9.637 3.625q8.024 3.82 14.111 9.434 6.09 5.617 9.391 12.468 3.3 6.85 3.437 14.638.136 7.785-3.744 15.94c-1.967 4.134-4.131 7.168-6.495 9.112q-3.547 2.915-7.434 4.022a29.6 29.6 0 0 1-8.057 1.128 95 95 0 0 0-8.313.403 31.7 31.7 0 0 0-8.186 1.907c-2.692 1.015-5.276 2.88-7.741 5.599m-4.931 18.775q-1.367 2.871-3.655 4.822a16 16 0 0 1-5.032 2.927c-1.831.647-3.743.94-5.735.87q-2.994-.103-5.796-1.437-2.873-1.365-4.837-3.623a15.3 15.3 0 0 1-2.942-4.997 15.4 15.4 0 0 1-.874-5.738q.105-2.989 1.47-5.861a15.1 15.1 0 0 1 3.62-4.838q2.288-2.034 5.032-3.005c1.828-.653 3.743-.951 5.751-.905q3.005.07 5.877 1.436a14.2 14.2 0 0 1 4.756 3.623 15.9 15.9 0 0 1 2.927 5.033q.973 2.742.873 5.814a14.7 14.7 0 0 1-1.435 5.879M503.501 183.29l-13.01-13.361q3.92-4.357 7.478-6.357 3.559-2 6.688-2.545 3.127-.543 5.851-.078 2.727.467 5.06 1.161 2.328.695 4.257 1.092 1.925.395 3.534-.324.98-.418 1.793-1.439.814-1.024.972-2.523.156-1.501-.599-3.42-.755-1.924-2.871-4.098-1.385-1.423-3.548-3.13a50 50 0 0 0-4.774-3.32 56 56 0 0 0-5.403-2.941q-2.792-1.322-5.397-2.022l13.802-16.826q2.293.615 5.012 1.551 2.718.931 5.604 2.435 2.887 1.501 5.902 3.647 3.013 2.147 5.94 5.151 4.734 4.864 7.603 10.499 2.87 5.637 3.418 11.42.546 5.781-1.421 11.394-1.967 5.61-6.907 10.422-3.756 3.657-7.068 4.803-3.313 1.145-6.391.908a22.6 22.6 0 0 1-6.069-1.33 72 72 0 0 0-6.061-1.916 24.2 24.2 0 0 0-6.367-.805q-3.297.012-7.028 1.952m-8.512 12.137q-1.74 1.693-3.895 2.484a12.3 12.3 0 0 1-4.381.762 11.8 11.8 0 0 1-4.337-.899 11.1 11.1 0 0 1-3.771-2.565q-1.694-1.74-2.504-3.877-.811-2.139-.782-4.359c.02-1.485.319-2.929.897-4.34q.866-2.113 2.607-3.808a11.5 11.5 0 0 1 3.876-2.504c1.452-.564 2.918-.84 4.4-.817q2.222.028 4.358.877 2.134.846 3.828 2.587a10.8 10.8 0 0 1 2.445 3.857q.789 2.156.76 4.38-.03 2.22-.917 4.395a11.2 11.2 0 0 1-2.584 3.827M429.547 139.216l-16.896.818q-.608-5.282.17-8.902.776-3.62 2.287-6.075 1.51-2.452 3.461-4.025a40 40 0 0 1 3.827-2.742 46 46 0 0 0 3.299-2.238q1.424-1.07 1.902-2.597.306-.917.099-2.083-.207-1.169-1.132-2.175-.927-1.008-2.686-1.648-1.763-.642-4.51-.509-1.798.086-4.26.532a46 46 0 0 0-5.125 1.25 50 50 0 0 0-5.244 1.906q-2.575 1.103-4.616 2.454l-3.149-19.49a69 69 0 0 1 4.064-2.477 37 37 0 0 1 5.022-2.347q2.756-1.06 6.025-1.82t7.07-.945q6.15-.297 11.704 1.136 5.558 1.435 9.815 4.536 4.258 3.1 6.893 7.81 2.634 4.708 2.936 10.956.23 4.75-.98 7.689t-3.221 4.89a20.5 20.5 0 0 1-4.55 3.327 65 65 0 0 0-4.943 2.971 22 22 0 0 0-4.372 3.845c-1.309 1.501-2.276 3.487-2.89 5.953m3.139 13.077q.107 2.201-.651 4.141a11.1 11.1 0 0 1-2.112 3.435 10.7 10.7 0 0 1-3.217 2.409 10 10 0 0 1-4.009 1.022q-2.2.106-4.139-.627a10.7 10.7 0 0 1-3.432-2.087 10.6 10.6 0 0 1-2.412-3.217q-.916-1.859-1.023-4.059-.103-2.148.625-4.139c.49-1.327 1.183-2.488 2.088-3.482a11 11 0 0 1 3.214-2.437q1.857-.94 4.058-1.049a9.8 9.8 0 0 1 4.09.655 11 11 0 0 1 3.435 2.115q1.492 1.354 2.438 3.262a10.15 10.15 0 0 1 1.047 4.058"/></svg>