<svg xmlns="http://www.w3.org/2000/svg" width="542" height="452" fill="none"><g fill-rule="evenodd" clip-path="url(#a)" clip-rule="evenodd"><path fill="#DBEAFE" d="M505.539 220.618c16.089 29.791 17.28 64.91 12.432 97.534-3.035 19.761-10.12 38.742-17.437 57.375-5.677 12.742-11.946 25.315-19.865 36.934-2.325 2.633-7.195 12.607-10.248 10.466a2 2 0 0 1-.287-.221c-.981.193-2.178.09-3.235-.249-61.652-6.802-123.668-9.75-185.61-13.036-59.875-2.511-120.263-4.792-180.105-1.846-4.635.18-9.086.45-13.69.578-.308-.005-.623-.004-.94-.005-.334.254-.74.412-1.198.412-.284 0-.588-.061-.904-.197-40.947-20.971-74.393-67.992-62.103-113.439C26.314 278.97 40 268.273 50.823 256.441c16.396-19.537 11.863-35.682 9.844-58.207-2.22-37.802 13.263-81.752 49.793-100.602 6.985-3.827 15.061-4.678 22.707-6.663 10.638-2.909 20.96-7.66 28.999-15.038 6.97-5.962 12.015-13.51 18.144-20.184 12.68-13.526 26.964-26.119 44.128-34.172 11.922-5.654 24.996-7.925 38.216-7.356 9.225-.422 18.464 1.198 27.008 4.535 10.639 3.823 18.872 11.793 29.413 15.76 11.376 4.823 23.716.413 35.47-.428 19.819-2.083 40.895.491 58.021 10.745 14.585 9.754 27.464 23.197 31.187 40.268 6.534 20.916-1.71 43.107 5.752 63.881 8.578 30.433 42.389 44.115 56.034 71.638"/><path fill="#fff" d="m315.344 220.534-.127.062-.2.149-.203.198c.16-.159.34-.298.53-.409m151.361 134.593c.784 28.321-3.223 40.817-20.726 63.508-8.758 10.572-17.622 10.541-30.46 11.146-9.577 1.291-19.009 4.397-28.79 3.602-26.686-3.382-53.604-3.532-80.242-6.164-17.714-1.841-35.076-5.877-52.811-7.57-11.761-1.252-23.383-3.466-35.151-4.608-7.843-.801-15.719-1.144-23.375-3.104a20.5 20.5 0 0 1-4.204-1.001c-.61.713-1.66 1.09-2.647.661-2.466-.864-4.859-2.919-6.66-4.5-3.116-2.704-6.369-5.261-9.461-7.986-10.362-10.707-18.11-23.434-26.728-35.404-2.842-4.504-5.812-8.944-8.151-13.716-1.565-5.057-3.907-7.71-8.768-10.231-3.343-.27-6.646.111-9.905.222-1.542 1.169-3.833.469-5.677.687-4.412-.037-8.84-.076-13.242-.327-.5-.067-.92-.282-1.244-.582a2.06 2.06 0 0 1-1.863-1.145c-.68-1.293-.5-2.78-.645-4.178-.273-3.326-.86-6.62-1.206-9.939-.049-1.806-.712-3.926-.127-5.686-2.973-2.055-6.427-6.112-6.76-8.73-.587-1.128-1.398-2.297-1.342-3.606-.547-1.639-2.01-3.328-1.4-5.119-.958-3.825-2.837-7.433-3.129-11.431-.618-3.555-.203-7.156-.595-10.728-.73-6.333-.988-12.837 4.065-17.735 1.322-4.454 3.33-12.589 8.323-14.63.314-1.263.923-2.543.919-3.821.78-4.632-.521-9.293.118-13.936.278-1.592 2.106-2.014 3.313-1.389 5.713-2.103 17.22-2.865 19.246-2.833 1.186.001 1.86.762 2.028 1.63.882-.022 1.559-.059 1.951-.126 9.512-.329 19.01-.647 28.494-.38 1.464-.054 2.975.024 3.95-.165 6.759-.311 13.526-.097 20.288.012q.239.002.476.011c4.739-.073 9.479-.148 14.22-.248l.34.002a2 2 0 0 1 .309.002c3.726.034 7.444.221 11.173.099.414-.006.803.117 1.131.325 13.099.337 26.21.437 39.29 1.044a11 11 0 0 1 2.177.154 2.6 2.6 0 0 1 1.662-.219c.679.131 1.192.539 1.591 1.059 4.058.02 2.026 11.133 2.552 14.059.003 7.394.305 14.785.623 22.173-.049 6.68.548 13.325 1.079 19.973 2.175-2.312 4.939-4.507 5.935-5.582 4.372-3.741 8.547-7.696 13.109-11.232 7.156-5.764 14.644-11.221 23.109-15.115 8.449-4.3 8.512-.839 15.846-8.896.491-2.561 2.901-5.285 5.341-6.403 2.736-3.573 1.184-8.6-.114-12.471a2.1 2.1 0 0 1-.119-.777c-2.035-.488-4.197-.346-6.294-.387a24.8 24.8 0 0 1-10.883-2.374c-6.89-2.846-13.025-7.346-16.92-13.553-6.333-6.784-8.503-19.822-7.537-28.682-.66-1.137-.221-2.514-.212-3.749.377-2.889.232-5.803.639-8.687-5.966-5.673-7.6-13.378-4.288-20.779.611-1.596 2.758-5.5 5.095-7.318.283-2.632.947-5.479.788-6.848-4.264-2.298-8.877-3.898-12.965-6.524-2.697-1.474-5.315-3.794-5.224-6.996-.579-1.969-2.425-3.248-3.415-5.011a15.3 15.3 0 0 1-1.674-4.117c-1.283-4.378 1.33-5.654 3.014-8.951.211-2.067-.393-4.13-.835-6.14-2.983-2.224-2.073-6.849.012-9.384 1.979-2.411 4.869-3.64 7.873-4.51 5.071-1.522 10.632-.09 15.233 2.155-.745-3.262 1.378-6.495 4.465-7.84 4.303-1.778 8.921.272 12.854 2.018.744-2.258 2.22-4.097 4.109-5.464q.235-.22.488-.394c1.133-.986 2.522-1.628 3.998-1.955.829-.307 1.708-.456 2.558-.358 4.186-.533 8.584.54 11.494 3.5 1.564 1.237 3.151 2.433 4.845 3.499.83-2.684 4.051-4.012 6.815-3.935 3.964.221 7.135 2.456 10.741 3.531 1.67.542 3.327 1.123 5.001 1.65 2.86-2.106 7.813-1.854 10.889-.562 3.685 2.117 5.626 6.053 8.07 9.271 1.937-1.605 3.564-4.247 6.197-4.733 1.795-.043 2.817 1.755 2.62 3.304-.074 1.048-.349 2.05-.708 3.03q.373.078.779.203c1.746.343 3.49.707 5.186 1.201 2.424 1.331.691 4.797-1.925 3.95a19 19 0 0 1-1.435-.333c.475.84.961 1.674 1.625 2.398 2.061 1.566 4.751 3.702 1.349 5.647.663 2.966 2.27 5.654 2.829 8.647.828 3.683.75 7.467.86 11.212.404 7.55.364 15.15-2.101 22.414a180 180 0 0 1-2.146 7.193c-.277.866-.528 2.016-1.034 2.881.221 1.48-1.085 3.256-.921 4.774.726 3.663 1.708 7.405.642 11.115-1.296 4.714-4.635 8.675-8.735 11.464-.898 1.202-.628 2.944-1.058 4.346a31 31 0 0 1-1.086 4.021c-.891 2.6-2.39 4.95-3.864 7.278-.196.32-.467.576-.776.757-.317 3.116-.037 6.28.137 9.403.546 8.45 1.319 16.915 2.951 25.243.293 1.18.62 2.352.972 3.517 2.736-.033 6.418 1.966 8.552 3.11 1.153.842 3.664 2.585 5.649 4.344.518-.047 1.12.021 1.805.235 5.094 1.279 9.452 4.236 13.875 6.845 3.488 1.962 7.177 3.59 10.455 5.886.247.166.708.467 1.34.879a2.53 2.53 0 0 1 1.835.509c1.243.737 2.488 1.476 3.718 2.231q.322.113.658.311c7.14 3.588 13.063 8.673 17.85 14.818 1.178 1.18 2.115 2.277 2.702 3.241q.952 1.137 1.871 2.296c.963-.49 2.268-.213 3.013 1.394 1.726 2.219 3.631 4.32 5.326 6.564.981 1.101 1.925 2.231 2.753 3.447 3.423 5.415 6.878 10.883 9.762 16.597 2.702 4.256 4.893 8.801 5.958 13.708q.23.944.426 1.897c.939.542 1.453 2.006 1.821 3.469 3.299 7.498 4.458 27.12 4.423 29.525M75.234 184.395c-.908-3.038-1.978-5.101-3.416-6.543q.03-.044.058-.087c.357-.553.427-1.278.093-1.859-.358-.624-.99-.966-1.723-1.017a3.6 3.6 0 0 0-.686.031 5 5 0 0 0-1.134.245q-.346.128-.615.333c-1.78-.581-3.928-.904-6.571-1.18q-.264-.003-.53 0c-1.121.01-2.285.018-3.136-.795-2.835-3.029-.36-12.458-.059-16.507.673-6.326 3.118-12.23 6.546-17.637 2.956-5.3 5.633-10.882 10.06-15.248-.34-.006-.653.09-.963.185-.373.114-.743.231-1.15.174-1.81-.164-2.519-2.454-1.257-3.606 1.414-1.237 3.57-1.11 5.367-1.324 5.987-.33 11.987-.095 17.978.054 6.883.173 13.775.437 20.537.987 6.176.18 7.751 2.604 7.397 8.303-.106 5.544-1.19 11.013-1.52 16.543-.159 3.614-.026 7.235-.225 10.849-.2 3.471-.013 6.944-.063 10.413-.156 2.998.262 7.412-3.736 8.127-2.594.527-5.227.41-7.867.292-2.342-.104-4.688-.208-7.011.14q-.554.085-1.108.157-.81-.088-1.62-.17c-1.176-.12-2.356-.186-3.536-.26a26 26 0 0 0-3.4-.006l.099-.003c-.366.016-.72.066-1.055.235-.305.155-.549.386-.723.666-1.425-.013-2.852-.038-4.28-.055-2.252.295-5.117 7.282-5.838 9.353-.426.937-1.178 1.327-1.975 1.327-1.2.002-2.504-.885-2.938-2.117"/><path fill="#F4C9AE" d="m68.891 175.793.034-.033-.035.037z"/><path fill="#fff" d="M218.042 79.77c1 5.543.866 11.246.814 16.854-.115 5.982-1.297 11.93-.518 17.891.845 7.175-6.549 6.099-11.666 6.749-5.842.897-11.795.741-17.637 1.582-1.325.301-2.879.265-4.066.874-1.137 1.964-2.067 4.062-2.709 6.22-.438 1.039-1.745 1.659-2.856 1.206-.751-.328-1.138-.853-1.274-1.495a2.07 2.07 0 0 1-1.016-.857c-1.612-2.362-2.228-5.672-5.008-7.094-4.658-1.49-9.829-1.089-14.69-1.082-3.642.132-7.484.523-10.974-.709-1.922-.563-2.288-2.345-2.038-4.038.072-2.851.007-5.71-.087-8.56-.266-7.109-.805-14.206-1.361-21.298-.181-3.216-.3-6.454-.139-9.668.24-1.791 2.253-2.258 3.494-1.513 1.763-.768 3.961-.533 5.86-.803 12.583-.171 25.198-.157 37.791-.246 8.628.181 17.215 1.042 25.803 1.639 3.514-.208 3.987 3.18 2.277 4.348M223.238 185.586c-.072 3.215.772 6.427.266 9.628-.363 2.537-1.612 5.44-4.809 5.06-2.692.065-5.386.303-8.075.13-5.771-.29-11.455 1.316-17.196 1.267q-.676 1.102-1.268 2.248c-1.103 1.76-1.266 5.261-4.091 5.059-2.211-.301-2.231-2.836-3.117-4.35-1.701-3.564-4.467-2.768-7.874-2.913-2.546-.111-5.094-.186-7.642-.291a2.97 2.97 0 0 1-2.039-.526c-3.555.094-7.113.371-10.671.233-1.108.059-1.879-.356-2.315-.949-.708-.21-1.311-.757-1.477-1.675.327-8.239-.208-16.501-.813-24.739-.125-2.483-.255-4.971-.333-7.458-.109-2.787.281-5.693-.406-8.4-.254-1.415 1.091-2.511 2.403-2.443q.219-.118.486-.186c2.378-.511 4.886-.004 7.301.041 7.558-.052 15.117-.685 22.686-.355 4.982.18 9.91 1.029 14.89 1.276 3.819.111 7.65.03 11.465-.224 2.334-.171 4.658-.427 6.99-.631 1.968-.383 4.155.474 4.023 2.678-.151 2.607.195 5.197.768 7.742 1.226 6.53.925 13.175.848 19.778"/><path fill="#2563EB" d="M465.656 345.054c1.219 7.043 1.556 14.337-.199 21.326.264 4.935-.247 9.86-1.314 14.695-.29 1.244-.54 3.079-1.409 4.164-1.09 4.85-2.101 9.749-4.382 14.228-4.878 8.512-9.704 17.223-16.64 24.394-3.416 3.724-7.138 7.183-10.575 10.813-5.267 4.618-11.688 7.78-18.515 9.717l-.005-.011c-.631.166-1.293.093-1.83-.219-.753.198-1.557.437-2.364.565-2.692 1.031-5.426 1.955-8.223 2.707-9.868 2.761-20.232 2.902-30.438 3.04-9.348-.035-18.679-.744-27.887-2.306-4.534 1.068-9.406-1.132-13.787-2.249-6.955-1.544-13.877-3.613-20.558-5.874-13.578-5.012-26.837-10.787-39.331-17.872-3.052-1.453-7.452-.851-9.385-4.024-4.029-1.667-7.359-4.545-9.385-8.246a3 3 0 0 1-.288-.096c-2.783-1.692.168-4.394 1.078-6.313 2.65-4.519 5.462-8.94 7.657-13.691 3.182-6.627 5.606-13.534 8.511-20.264.818-1.578-.861-2.623-1.586-3.866-1.656-3.779-4.772-6.582-7.509-9.654-3.08-2.89-5.06-6.709-8.118-9.448-1.82-1.273-5.144-2.868-2.979-5.293 1.297-1.138 3.238-1.33 4.755-2.157-.52-7.62.156-15.201.26-22.696-.204-8.047-1.075-16.078-1.085-24.13.06-.702.084-1.508.169-2.316a2.17 2.17 0 0 1-.185-1.131c-1.54-2.75 6.834-9.97 8.843-12.15 2.289-4.21 7.076-6.792 10.668-9.96 6.026-4.804 12.528-9.085 19.579-12.4 3.338-1.778 7.252-2.202 10.608-3.87 4.53-3.869 9.689-7.305 12.397-12.643 1.066-1.119 3.009-.679 3.636.552l.002.003c.294.346.472.78.468 1.252-.24 1.188-.784 2.217-.732 3.478 1.587.669 2.624 2.171 4.02 3.135 3.197 2.419 6.851 4.258 10.591 5.79 2.747-.554 5.705.352 8.533.142 5.655-.094 11.366-.934 16.507-3.265 4.332-1.595 9.855-3.784 8.962-9.154-.078-1.176-.668-2.36-.205-3.525 1.083-2.511 4.1-1.223 5.869-.196 2.923 1.424 5.787 3.084 8.071 5.345q.138.017.279.042c8.74 2.459 16.82 6.588 24.453 11.292 5.413 3.619 11.438 6.928 15.816 11.676 5.546 3.788 10.478 8.274 14.862 13.258 5.827 6.108 11.077 12.854 15.281 20.075a112 112 0 0 1 9.101 16.407c1.816 3.791 3.688 7.63 4.691 11.705.576 6.425 4.318 12.65 3.247 19.218m-218.984 62.341c-9.493-6.278-19.871-10.806-29.429-16.976-7.408-5.384-14.787-11.648-18.821-19.824-.453-.856-.654-1.757-.687-2.676v-.001a2 2 0 0 0 .055-.325c.098-1.755.241-3.611 1.824-4.755 2.301-1.916-.495-4.139.446-6.613.216-1.233 1.157-2.153 2.051-2.995 3.502-2.825-1.225-5.024 2.806-9.12 1.787-1.693.098-4.626-2.34-3.676a9 9 0 0 0-.956.796q-.061.007-.127.017c-4.353.632-8.899.303-13.284-.024-4.645-.18-9.297-.111-13.942-.328-5.634-.069-11.781-1.52-17.172.348-6.602.005-13.259.343-19.79-.784-.852-.138-1.698-.378-2.567-.384-2.01-.024-3.026 2.496-1.553 3.784q.317.148.614.321.061.181.168.365c4.257 7.959 8.741 15.802 14.134 23.118 3.797 8.176 10.017 14.876 15.584 21.957 12.192 15.235 30.978 26.591 51.273 27.853 7.715-.029 15.477-.388 22.815-2.889 1.995-.623 3.783-1.712 5.811-2.254.738-.131 1.548-.416 2.147-.862 2.461.346 3.54-3.323.94-4.073"/><path fill="#1D4ED8" d="M466.414 362.721c.207 5.147-.497 10.266-1.352 15.335-1.392 9.549-5.839 18.272-10.025 26.908-.259.346-.549.957-.868 1.688q.167.066.318.17c2.689 1.461-5.122 8.249-6.163 10.139-8.671 10.196-23.985 23.592-37.152 27.585a1.5 1.5 0 0 1-.819-.19c-2.405 1.267-4.941 2.217-7.602 2.649a66.5 66.5 0 0 1-11.71 2.748c-3.243.619-6.527 1.013-9.786 1.541-.779.295-1.717.548-2.365.007-3.229.496-6.191.653-7.372-.283-1.219-2.953 3.162-2.445 5-2.583 4.849-.503 9.587-1.672 14.37-2.566 9.566-1.861 18.705-5.475 26.728-10.678 10.463-8.646 19.881-18.671 25.509-30.812 20.832-41.058 5.043-96.386-30.657-125.439-9.837-7.288-19.417-15.129-30.294-20.976-2.253-1.117-4.493-2.255-6.74-3.377-2.833 3.616-11.055 11.231-13.517 7.862-.491-4.507-2.897-8.653-6.514-11.589-2.421-1.371-.944-4.327.971-2.533l-.017-.021c.162.184.351.346.538.512 11.461-5.021 5.109-14.223 9.266-14.088 3.136 1.386 5.97 3.482 8.899 5.256.962.456 1.713 1.021 2.285 1.666q.15.032.294.08c9.472 2.383 17.826 7.415 26.131 12.27 7.717 4.612 15.217 9.534 21.5 15.787 8.75 8.788 17.406 18.177 23.768 28.711.184.332.415.712.627 1.113q.004.003.003.004c8.079 12.056 13.385 25.992 15.146 40.086.828 5.076 1.178 10.198 1.451 15.324q.01.196-.025.367c.159 2.829-.09 6.234.174 7.327m-329.265-14.743c-.949-.017-2.241.053-2.661-.99-.271-.68-.098-1.335.458-1.824a2 2 0 0 1-.269-.113 1.7 1.7 0 0 1-.785-.821c-1.592-.63-1.779-2.93.022-3.418 3.866-.48 7.808.432 11.687.585 12.547-1.242 25.163-.423 37.732.02 6.616.378 13.255-.557 19.832-.225 5.192.861 1.334 6.007-2.214 5.983-21.248.496-42.54.425-63.802.803m25.557-3.624q1.546-.022 3.094-.042-1.538-.038-3.075-.059zm116.923 51.161c.154-.384.36-.761.515-1.104.261-.608.649-1.323 1.225-1.704.414-.708.81-1.425 1.17-2.162.446-.913.789-1.874 1.091-2.843q.146.158.249.368.248-1.309.437-2.625.032-.084.059-.168c.264-.812.577-1.622.655-2.475a1.67 1.67 0 0 0-.269-1.049c.191-1.899.338-3.803.497-5.702.326-1.134 1.881-1.477 2.717-.64 1.179 2.03-.142 7.087-.24 9.573-.536 7.987-8.728 36.2-16.847 38.584-.745-.024-1.435-.461-1.752-1.098a2 2 0 0 1-.203-.767c-1.23.473-2.697-.508-2.455-1.809-1.377 1.235-2.679 2.028-3.642 2.028q-.174 0-.331-.035c-3.878-.388-4.68-4.942-7.736-6.654-4.991-2.874-8.899-6.779-5.737-11.565.31-.308.602-.628.891-.955.622-.712 1.119-1.526 1.614-2.32q.306-.488.567-1.004c1.603.421 3.06 2.681 4.512 3.307 3.961 2.362 8.772 4.131 13.501 3.482 2.119-.712 3.273-.485 3.729.326q.346-.759.675-1.526a243 243 0 0 0 2.078-4.9c.38-.157.7-.432.863-.813.254-.591.56-1.15.884-1.708.42-.685.851-1.364 1.283-2.042"/><path fill="#FFB9A6" d="M324.228 180.181c-12.373-2.789-4.072-18.255 6.182-15.01 10.337 4.173 3.593 16.97-6.182 15.01m-52.255-4.8c-.389-.53-.317-1.183-.147-1.769q.06-.21.118-.419c-1.464-.89-.407-2.595-.095-3.821.304-.861.426-1.808.993-2.559-3.925-2.204.636-5.35 3.003-1.657 2.225 2.733 2.942 7.01.19 9.651-.992 1.077-2.975 2.116-4.062.574"/><path fill="#000" d="M281.625 151.916c1.86 2.434.621 7.556-2.948 7.553q-.194 0-.398-.021c-1.33-.13-2.321-1.167-2.984-2.195-1.069-1.795-.969-4.007-.052-5.829.696-1.411 2.032-2.544 3.76-2.21 1.4.229 1.903 1.709 2.622 2.702M318.322 156.337a8.14 8.14 0 0 1 .08 3.808c-.364 1.44-1.744 2.884-3.325 2.883q-.42 0-.851-.144c-3.462-1.341-4.343-5.337-2.718-8.333.543-1.158 1.562-2.119 2.93-2.26 2.277-.128 3.349 2.292 3.884 4.046M357.866 166.588c2-2.631 7.317-6.815 10.75-4.545-.871.827-1.846 1.575-3.092 1.817-1.525.461-2.845 1.329-4.056 2.31l-.488.443-.674.613a179 179 0 0 0-3.496 3.272c-.218.253-.456.527-.437.831-.553-1.371.748-3.546 1.493-4.741"/><path fill="#000" d="M360.982 166.614c2.484.443 5.522 3.201 3.739 5.494-.53-.428-1.187-.687-1.605-1.243-.891-1.226-1.569-2.71-2.809-3.638l-.035-.027c-.139-.106-.773-.429-.605-.041-.008.046-.142-.111-.13-.154-.06-.351.542-.43.782-.452q.322 0 .663.061M320.092 186.831c.187-1.2.503-2.378 1.062-3.475-3.848 2.15-7.821 4.21-12.217 5.12-1.731.401-3.472.803-5.249.959-1.384.127-2.754.436-4.023.987-2.42 1.156-1.843 4.161-.544 5.938 1.482 2.007 4.053 3.186 6.614 3.092q1.053-.088 2.072-.332l.175-.042c4.662-1.163 8.653-4.607 10.729-8.7l.08-.15q.359-.678.653-1.383c.271-.654.494-1.326.648-2.014m2.129-4.532c.11.561-.59.77-.992 1.016 2.398 2.247-.234 6.865-1.585 9.15-2.694 4.59-8.596 8.773-14.317 8.769q-.83 0-1.652-.122c-2.826-.499-5.499-2.179-6.82-4.654-1.843-3.122-1.05-7.17 2.797-8.356 3.725-1.078 7.714-1.058 11.4-2.326 3.071-.938 5.788-2.95 9.086-3.131.235-.032.5-.022.768-.015.43.016.867.03 1.191-.123a.44.44 0 0 0 .114-.199c-.003-.004.006-.021.01-.009"/><path fill="#000" d="M319.445 188.844c.318.083.632.214.94.406a9 9 0 0 1-1.593.978 6.4 6.4 0 0 1-.943.361c-2.278.768-4.541 1.799-6.179 3.544-1.346 1.565-2.872 3.086-3.686 4.947q-.007.012-.012.024c.026-.014.199-.09.178-.048-.074.051-.152.169-.23.169-.038 0-.075-.029-.113-.105-.339-3.816 2.734-7.119 6.084-8.805 1.691-.77 3.682-1.964 5.554-1.471M107.546 296.942c-.077-1.734-.143-3.469-.122-5.205.027-5.309-.081-10.618-.071-15.924-.095-5.336-.189-10.669-.129-16.005.056-3.501-.017-6.998-.074-10.498.133-3.154-.669-9.253 3.274-10.425.57-.245 3.225-.416 2.631.627-.747.236-1.464.499-2.071 1.023-2.287 2.679-1.598 6.797-1.801 10.049-.044 3.528-.149 7.053-.2 10.583-.067 8.817.118 17.638.218 26.458.003 3.549-.021 6.996.236 10.438.162.987-.13 2.023.038 2.98-1.891-.404-1.876-2.621-1.929-4.101"/><path fill="#000" d="M113.278 238.723c2.658-1.051 5.562-1.134 8.386-1.429 6.795-.653 13.617-.571 20.439-.491 2.79.033 5.579.064 8.367.047 5.634.094 11.266.293 16.902.101 8.69-.283 17.492-.257 26.136.536 1.029.098 2.063.096 3.096.092.547-.001 1.093-.002 1.64.012.977.063 1.706.758 2.355 1.39-2.33.744-4.842.509-7.265.338-11.883-1.324-23.793-.737-35.712-.707-12.516-.191-25.104-.761-37.572.568-1.878.189-3.745.462-5.63.577-1.298.128-2.741.031-3.896.561.647-.85 1.743-1.237 2.754-1.595"/><path fill="#000" d="M202.682 298.728c.08-3.545.02-7.087.182-10.629.331-9.056.765-18.115.668-27.177-.022-3.648-.137-7.294-.178-10.942-.069-3.542-.124-7.489-2.462-10.428-.643-.838-1.671-1.156-2.719-1.203.22-.11.556-.253.819-.356 1.403-.515 2.954.163 3.962 1.12 3.323 3.389 2.314 11.466 2.493 15.95.03 5.424.129 10.851-.167 16.271-.289 7.213-.757 14.422-.795 21.64.016 1.791-.06 3.587 0 5.379-.025 1.883.212 3.948-.937 5.58-1.032-1.563-.848-3.437-.866-5.205"/><path fill="#000" d="M118.636 304.533c-3.92-.253-9.839-.739-10.085-5.529.032-.049.096-.053.147-.067.006-.002.01.005.004.009q-.041.027-.072.055c-.016.016-.001.051.008.071 1.308 1.959 3.672 2.732 5.935 3.243 6.244 1.078 12.567.784 18.891.492 3.467-.161 6.932-.322 10.385-.256 3.415-.077 6.829.017 10.241.111 2.746.077 5.493.153 8.242.142 6.191-.036 12.381-.035 18.572.027 4.94.035 9.877-.077 14.816-.194 2.595-.008 5.181-.32 7.743.057.284.032.543.003.811-.064.093.358.059.72-.159 1.045-.936 1.123-2.843 1.022-4.45.926-.475-.03-.924-.059-1.315-.056-5.547.061-11.099-.005-16.648-.069-4.87-.058-9.743-.116-14.611-.087-4.149.039-8.296-.057-12.441-.153-5.835-.135-11.668-.272-17.505-.027-4.499.167-9.004.493-13.508.49a75 75 0 0 1-5.001-.166M156.338 280.169a16.86 16.86 0 0 1-7.182-2.987c-1.448-1.128-2.378-2.729-3.087-4.353-1.17-2.69-1.394-5.6-1.361-8.482-.133-2.158.136-4.319.528-6.443.013-.064.018-.175.059-.226.015-.02.046-.003.041.02.484 1.524 1.067 3.033 1.308 4.615.251 1.834.114 3.694.24 5.54.21 2.581 1.066 5.215 2.771 7.256 1.781 1.757 4.285 2.763 6.731 3.36 2.153.379 4.24-.575 5.774-1.967 2.251-1.701 3.392-4.322 3.958-6.945.39-1.678.448-3.396.405-5.107.076-1.837-.436-3.513.185-5.234.091-.217.19-.444.305-.641.478.45.818 1.012.993 1.634.352 1.53.136 3.128.258 4.687.094 4.59-1.099 9.676-4.905 12.741-1.716 1.518-3.839 2.58-6.164 2.579a7 7 0 0 1-.857-.047"/><path fill="#000" d="M165.245 259.703c-1.509-.516-2.93-1.337-4.247-2.21-.985-.695-1.83-1.564-2.856-2.208-2.683 1.815-5.808 3.191-9.068 3.694-1.658.18-3.393.026-5.014-.199-.337-.473 2.824-.973 3.232-1.129 3.218-.676 6.432-1.66 9.21-3.33.357-.23.703-.486 1.098-.65.789-.295 1.515.251 2.123.671.829.608 1.645 1.236 2.517 1.789 1.722 1.217 3.916 1.75 5.369 3.302a3.482 3.482 0 0 1-2.364.27M142.69 267.387c-1.431-1.756-2.862-5.115.171-6.119 1.538-.334 2.799.932 3.423 2.105-2.291-1.423-4.21-.986-2.695 1.834.927 1.769 2.734 3.197 2.771 5.291-1.731-.392-2.751-1.772-3.67-3.111M168.974 265.402c.477-1.071 1.083-2.219 1.026-3.406-.692-.165-2.277 1.08-2.128 1.775l.005.004c.006.002.013.013.001.014-.106-.015-.142-.236-.162-.309-.323-1.545 1.35-3.713 3.083-2.81 2.003 1.195.143 4.69-.553 6.265-.482.984-1.402 1.76-2.471 2.095-.232-1.343.473-2.539 1.199-3.628"/><path fill="#000" d="m143.445 262.217.003.002c-4.309-4.787-.925-11.671 3.145-15.527 4.118-3.212 10.019-4.094 15.053-2.591 4.484 1.076 8.116 4.699 9.298 8.929.536 1.667.587 3.432.328 5.151-.073.616-.234 1.237-.615 1.753a3 3 0 0 1-1.409 1.112c-.042-.275-.086-.57-.11-.854-.059-1.876.79-3.681.366-5.56-.866-4.838-4.867-8.39-9.894-9.166-3.815-.702-8.152.059-11.214 2.408-2.01 1.825-3.562 4.168-4.383 6.702-.645 2.334-.715 4.846-.395 7.231.073.257.081.605.334.73a.2.2 0 0 1-.044.006c-.161-.002-.364-.21-.463-.326"/><path fill="#000" d="M155.924 244.418c-1.238-1.644-1.553-4.38.229-5.783 1.278-1.093 2.928-1.502 4.382-.446-.85.453-2.03 1.486-2.911 2.114-.582.44-.887 1.07-1.117 1.727-.255.788-.615 1.667-.433 2.488l.001-.004c0 .004.005-.006.002-.006.001-.005.01-.011.012-.002q-.003.042-.025.04c-.042-.001-.126-.104-.14-.128M169.136 249.926c-.245-.052-.461-.176-.687-.272.03-.06.092-.124.118-.19.671-1.431 2.125-1.978 2.853-3.317.676-1.438.281-3.066.125-4.574-.218-.878-.483-1.772-.932-2.565-.033-.05-.057-.121-.004-.166.016-.016.004.022.004.022-.01.024.011.04.027.055.78.459 1.383 1.17 1.845 1.926 1.102 2.088 1.793 4.808.356 6.903-.668 1.157-1.639 2.261-3.034 2.26a3 3 0 0 1-.671-.082"/><path fill="#000" d="M171.194 240.046c-.794-.324-2.112-.467-2.241-1.456.991-.564 2.013.562 2.316 1.384a.2.2 0 0 0 .084.052c-.009.02-.043.024-.079.024-.029 0-.06-.003-.08-.004M156.324 268.252c-.654-.115-1.612-.364-1.905-.906.52.096 1.047.039 1.568-.019.632-.068 1.258-.138 1.86.063.386.079-.035.54-.221.665-.254.178-.541.231-.835.231a4 4 0 0 1-.467-.034M150.016 267.073c-1.946-.938-.499-4.887 1.682-3.563 1.19.984.497 3.67-1.112 3.669a1.6 1.6 0 0 1-.57-.106M161.213 267.369c-2.131-.223-1.964-4.115.295-3.81.841.157 1.5.875 1.401 1.71-.052.858-.487 2.11-1.536 2.109q-.08 0-.16-.009M149.458 262.274c-.27-.024-.582-.044-.832-.156-.021-.012-.016-.044.01-.043.466-.067.897-.211 1.317-.37-.462.042-.935-.023-1.386-.052.505-1.109 1.747-1.906 3.031-1.721 2.132.204 2.25 1.906.057 2.178-.585.088-1.177.182-1.77.181q-.212 0-.427-.017M162.882 262.392c-.854-.114-1.714-.406-2.431-.865-.034-.024-.369-.227-.31-.297.014-.017.072.006.03.013h-.001c.225.072.47.082.704.111-.314-.129-.523-.409-.764-.608.317-.752 1.336-.829 2.071-.765.883.127 2.419.688 2.197 1.755-.157.494-.683.681-1.184.68a1.7 1.7 0 0 1-.312-.024M156.339 275.296c-1.691-.07-3.285-1.279-3.575-2.899.014-.01.041-.004.067 0q.03.005.053.005c1.252.041 2.206.569 3.251.951 1.424.296 3.115-.122 3.921-1.347-.997.104-1.957.413-2.951.525-1.84.12-3.835-.15-5.404-1.094-.003.013.029.052.003.047-.096-.103.025-.116.131-.114 2.019.045 4.088-.183 6.05-.582a14.7 14.7 0 0 0 2.654-.731c.449-.122.978-.364 1.392-.041.431.323.345.889.153 1.315-.555 2.352-2.978 3.974-5.455 3.974q-.144-.001-.29-.009M259.91 382.183l.004-.013v.014a.47.47 0 0 1-.126.313q.064-.156.122-.314M132.532 302.185c-1.216-2.456.735-4.891 2.097-6.882 1.69-2.029 3.328-4.203 5.61-5.665 3.191-2.237 7.225-3.47 9.931-6.285.622-.84.784-1.877.898-2.876.096-.879.262-1.692.199-2.549-.026-.022-.035-.072.003-.087.168-.004.24.252.324.363.642 1.479 1.412 3.151.985 4.771-.303 1.302-1.234 2.347-2.396 3.043-3.277 2.375-7.291 3.643-10.405 6.238-2.031 1.896-3.882 4.041-5.266 6.416-.65 1.285-.991 2.479-1.975 3.515zM177.435 303.572c-.754-1.472-.526-3.108-.835-4.676-.859-4.151-2.97-7.874-6.998-9.871-6.143-2.651-11.331-2.992-7.87-10.911.01-.02.016-.053.021-.072 0-.005.007-.01.011-.004.228 1.209.317 2.454.55 3.665.149.643.238 1.315.56 1.904 1.083 1.491 2.988 2.157 4.687 2.803 4.894 1.617 8.502 4.943 9.957 9.727.68 2.317 1.799 5.406-.077 7.439z"/><path fill="#000" d="M117.782 299.53c-.727-2.718-1.677-5.489-1.681-8.304.03-.741.519-1.4 1.179-1.754 1.331-.835 2.792-1.448 4.182-2.176.716-.394 1.406-.846 2.169-1.16 1.533-.732 2.854-.482 3.143 1.3 1.011 3.671 2.691 7.137 4.2 10.641.682 1.54 1.099 3.223 1.935 4.689h.004q.002-.001.003-.002.002-.005.006-.007c.013-.005.024-.085.043-.069.011.62-1.472-.94-1.602-1.114-1.408-1.605-2.385-3.501-3.233-5.417-1.264-2.827-2.531-5.666-3.281-8.663-1.356.5-2.52 1.366-3.831 1.967-1.049.575-2.389 1.044-3.223 1.817-.298 2.065.567 4.146 1.024 6.15.457 2.079 1.538 3.909 1.289 6.009-1.444-.847-1.913-2.435-2.326-3.907"/><path fill="#000" d="M124.875 285.417a15.5 15.5 0 0 1 .387-2.877c.238-1.066.572-2.107.827-3.172.103-.669.382-1.513-.049-2.114-1.165.86-1.09 2.501-1.896 3.586-.318.489-.76.88-1.251 1.211a5.3 5.3 0 0 1-.16-1.056c-.029-.806.253-1.576.607-2.296.357-.763.65-1.581 1.228-2.222.902-1.073 2.544-.95 3.129.348.781 2.041-.16 4.339-.714 6.346-.445 1.314-1.176 2.547-1.763 3.789-.086.207-.137.453-.109.647-.399-.647-.207-1.469-.236-2.19"/><path fill="#000" d="M122.8 282.154c-1.104-2.731-1.488-5.671-2.214-8.471-.338-1.26-.596-2.586-1.279-3.726-.078-.103-.16-.218-.284-.272-.954 2.224-.231 4.732-.026 7.044.142.882.31 1.784.05 2.664-.081.277-.176.58-.295.833-.331-.449-.658-.89-.871-1.403-.247-.597-.313-1.23-.397-1.863-.231-2.029-.573-4.098-.307-6.136.156-.937.332-2.237 1.442-2.543 1.056-.246 1.938.574 2.398 1.4.634 1.027.88 2.213 1.218 3.349.414 1.447.824 2.911.944 4.412.168 1.463-.139 2.921-.327 4.362-.001.136-.041.347.063.411q.009.012-.003.012c-.023-.001-.098-.042-.112-.073"/><path fill="#000" d="M113.148 274.702c-.298-1.556-1.555-6.749 1.35-6.373 2.576.918 3.09 3.978 3.547 6.239.374 2.118.869 4.349.639 6.473-.716-2.224-1.875-4.337-2.356-6.642-.472-1.576-.788-3.374-2.136-4.509-.434 2.505.567 4.909 1.106 7.317.378 1.252.722 2.589.285 3.86-1.787-1.648-1.821-4.2-2.435-6.365"/><path fill="#000" d="M109.657 276.788c-.501-1.657-2.217-4.852-1.323-6.42 1.372-1.23 3.369 1.002 4.081 2.059 1.831 2.807 2.682 6.269 3.318 9.468.098.235-.284-.299-.327-.36-1.036-1.621-1.991-3.307-2.798-5.045-.787-1.738-1.409-3.568-3.078-4.672.234 2.116 1.381 3.999 2.027 6.011.562 1.711 1.617 3.466 1.071 5.293-1.898-1.614-2.096-4.194-2.971-6.334"/><path fill="#000" d="M110.068 281.023c-.758-.67-1.493-1.475-1.392-2.532 1.165.071 1.954.978 2.41 1.937.444.829.932 1.719 1.185 2.594-.737-.662-1.491-1.311-2.203-1.999M112.838 288.418c-2.065-2.129-4.297-4.419-5.013-7.321 1.437 1.586 3.563 3.303 5.098 5.059 1.339 1.553 3.336 2.942 3.362 5.126-1.425-.622-2.417-1.782-3.447-2.864M107.824 281.096zl.001.001zM194.206 255.004c-2.237-.162-4.476-.159-6.716-.154-1.236.001-2.471.003-3.705-.022-1.396-.003-2.797-.408-4.183-.323-.017.01-.038.025-.032.044 0 0 0 .011.002.014 0 .005-.008.007-.011.003-.065-.116.142-.211.221-.256 1.248-.599 2.657-.876 4.024-1.127 4.065-.514 8.234-.24 12.304.073.723.175 1.394.564 2.005.945a6.02 6.02 0 0 1-3.909.803M191.531 261.331c-3.53-.251-7.182.063-10.573-1.087-.055-.022-.265-.067-.221-.156.034-.02.122-.011.038.014 1.424-.144 2.802-.536 4.232-.663 2.743-.272 5.521-.144 8.265.056 1.211.032 2.398.404 3.437.966-1.286.705-2.719.901-4.167.9a21 21 0 0 1-1.011-.03M185.403 267.862c-1.487-.146-3.145-.275-4.469-.899 1.691-.159 3.38-.548 5.09-.643 1.676-.094 3.356-.052 5.035-.085 1.464-.046 3.006.006 4.288.738-1.506.821-3.238.78-4.916.812-1.274.016-2.548.112-3.822.111q-.6.003-1.206-.034M187.295 274.344a46 46 0 0 0-1.478-.02c-1.947-.11-3.829-.598-5.697-1.095 2.119-.453 4.838-.677 7.182-.591 2.041.11 4.19-.127 6.061.815-1.424.776-3.062.914-4.707.913-.454 0-.909-.01-1.361-.022M220.361 258.164c-2.649-.095-6.01-.175-7.388-2.739-.521-1.233-.317-2.604-.379-3.9-.035-2.881-.347-5.869-.041-8.691-.489-1.019-.466-2.371.279-3.271.951-.996 2.601-.782 3.881-1.049 2.722-.362 5.474-.36 8.216-.413 2.983.04 6.025.023 8.932.718 1.797.37 3.589 1.128 3.832 3.057.266 1.325.245 2.46.332 3.701.127 2.164.418 4.322.406 6.491-.15 1.522.061 3.551-1.433 4.511-.831.406-1.832.345-2.723.565-3.763.672-7.579 1.087-11.405 1.085a51 51 0 0 1-2.509-.065m-3.479-17.822c-.894.186-1.933.099-2.728.455-.177.566-.204 1.154-.43 1.709 1.4 3.645 1.044 7.526 1.119 11.315.032 2.09 2.804 2.071 4.418 2.221 1.228.078 2.457.118 3.687.144 3.659.125 7.2-.346 10.786-.911.791-.127 1.633-.15 2.393-.367.269-.504.282-1.091.35-1.645.22-3.077-.541-6.079-.689-9.138-.132-.918.025-2.021-.556-2.805-1.498-.924-3.38-1.074-5.114-1.241-1.996-.09-4.006-.166-6.013-.167-2.419-.001-4.836.106-7.223.43"/><path fill="#000" d="M227.913 248.243c-.639-.185-1.205-.572-1.777-.896-.99-.599-2.155-1.162-2.761-2.156-.001-.025.024-.033.04-.032.394.11.771.179 1.15.257 1.315.288 2.674.589 3.856 1.225.614.39 1.082 1.016 1.155 1.725q-.268.03-.538.031a4 4 0 0 1-1.125-.154"/><path fill="#000" d="M223.583 253.444c-1.744-.292-1.172-3.366-1.065-4.592.235-1.194.299-2.6 1.12-3.571.377-.226.338.267.322.488q-.001 0-.002.01c0 .007-.001.015-.007.007l-.05-.101c-.001-.003-.003-.005-.003.046.202 1.678.661 3.336.697 5.034 1.392-1.14 2.55-2.815 4.534-2.944-.11 1.223-.776 2.309-1.775 3.068-.683.599-1.352 1.212-2.068 1.777-.44.344-.946.79-1.538.789a1 1 0 0 1-.165-.011M219.205 280.771c-5.902-.154-5.578-1.803-6.181-6.655-.342-3.164-.508-6.36.111-9.506.012-.128.202-.233.313-.095 1.405-1.807 4.248-1.199 6.213-1.43 1.801-.11 3.602-.13 5.408-.141 1.84-.025 3.68-.056 5.519-.143 1.352-.057 2.707-.169 4.062-.082.724.04 1.508.11 2.074.59.798.68.684 1.862.651 2.785-.031.799-.063 1.591-.022 2.388.124 1.731.425 3.446.505 5.18-.016 1.795.074 3.675-.47 5.406-.662 1.22-2.44.822-3.631.958-4.159.228-8.252.803-12.399.801a38 38 0 0 1-2.153-.056m1.962-1.624c4.898-.012 9.711-.852 14.604-.934.509-2.906-.124-5.765-.38-8.653-.132-1.627-.078-3.259-.081-4.887-2.104-.34-4.259-.06-6.381-.05-3.004.028-6.009.182-9.013.22-.792-.042-1.57.022-2.337.088-1.356.117-2.688.233-4.026-.246 1.407 3.119 1.37 6.573 1.689 9.899.148 1.259.028 2.651.563 3.821 1.278.738 2.829.735 4.314.733h.308q.373 0 .74.009"/><path fill="#000" d="M222.373 276.267c-1.522-.754-.844-3.091-.759-4.422.019-.219.596-3.522.756-2.381.445 1.579.895 3.167 1.126 4.791 1.084-.596 2.105-1.292 3.2-1.872-1.383-.378-3.113-.732-3.676-2.167 1.084-.392 2.359-.349 3.42.027.959.366 2.096.558 2.835 1.29.623.717.095 1.588-.709 1.902-1.258.6-2.458 1.294-3.651 2.002-.627.339-1.316.921-2.056.92a1.4 1.4 0 0 1-.486-.09M219.264 304.817c-4.983-.3-4.888-1.986-5.326-6.134-.264-3.529-.453-7.134.565-10.573.062-.159.096-.343.208-.473.026-.022.045-.018.081-.012.014.01-.016.014-.025.015.004 0-.011.002-.005.003q-.005 0-.01.004c-.013.305.113.591.176.889.786-.885 2.042-1.077 3.189-1.16 1.345-.142 2.691-.251 4.037-.393 4.411-.187 8.916-.754 13.295-.036 2.692.536 2.608 11.854 2.085 14.103-.202 1.164-.811 2.362-2.154 2.559-1.72.362-3.47.633-5.231.716-3.164.116-6.365.521-9.52.519q-.686.001-1.365-.027m-3.08-5.777c.055.92.125 1.846.299 2.753.058.27.116.58.367.749 1.689.718 3.652.583 5.463.536 3.033-.216 5.853-.32 8.795-.582 1.461-.13 2.961-.258 4.335-.774 1.271-2.871.412-10.108-.5-13.113-2.665-.621-5.542-.252-8.212-.168-1.78.101-3.562.231-5.335.403-.904.088-1.809.182-2.717.262-1.215.121-2.511.385-3.647-.195 1.116 3.254.909 6.767 1.152 10.129"/><path fill="#000" d="M222.049 299.948c-1.435-1.085-.453-5.394-.002-6.924.052-.042.142-.018.145.052.563 1.628 1.046 3.286 1.295 4.985.871-.424 1.73-.871 2.589-1.318.456-.237.919-.465 1.374-.701-1.472-.448-3.216-.584-4.318-1.724-.318-.33-.514-.714-.812-1.048.406-.15.833-.311 1.275-.381.862-.132 1.695.186 2.447.553 1.072.448 2.117.779 3.163 1.137.567.176 1.269.403 1.348 1.056.086 1.025-1.16 1.342-1.923 1.723-1.209.603-2.429 1.192-3.604 1.855-.671.343-1.434.986-2.206.986a1.34 1.34 0 0 1-.771-.251M185.299 314.871q.445.164.865.406a8 8 0 0 1-.979.411 6 6 0 0 1-1.749.33c-2.538.029-5.075-.008-7.611-.043-3.843-.054-7.685-.109-11.528.065-11.096.383-22.203.261-33.301.552-3.815.047-7.602.575-11.391.573a31 31 0 0 1-3.885-.229c-1.533-.205-3.868-.865-3.495-2.758.059-.249.217-1.464.49-1.99.098-.189.21-.288.339-.225.092.082.105.21.116.336a.7.7 0 0 0 .051.258c-.015.017-.053-.057-.069-.061q.101.45.213.896c.091.373.164.749.264 1.117l-.014-.005c2.668 1.806 8.683.894 11.919.796 4.057-.249 8.117-.323 12.179-.375 6.227.029 12.451-.153 18.673-.335 8.515-.249 17.028-.5 25.546-.202 1.15-.001 2.304.09 3.367.483"/><path fill="#000" d="M187.792 312.485a2.87 2.87 0 0 1 1.258 2.219c-.092 1.006-1.148 1.358-2.148 1.358a4 4 0 0 1-1.715-.374 6 6 0 0 1-.533-.266q.308-.293.647-.551c.495-.377 1.047-.68 1.672-.821-.402-.395-.95-.486-1.448-.622-1.691-.276-3.463-.365-5.155-.517-5.528-.342-11.064-.541-16.604-.412-13.059.135-26.119.348-39.175.607-3.795-.091-7.683.2-11.377-.796l-.043-.011c-.144-.037-.284-.087-.431-.106l-.024-.005a.26.26 0 0 1-.171-.385c.269-.295.85-.178 1.227-.249 2.047-.164 4.094-.065 6.141.036 1.355.067 2.711.132 4.069.123 11.157-.233 22.314-.488 33.473-.57 8.455-.126 17.016-.45 25.439.288 1.646.167 3.445.209 4.898 1.054M117.444 326.779c-1.977-.062-4.231-1.005-3.581-3.262-.07-.033-.172-.04-.229-.075q.15-.166.317-.316c.104-.341.168-.836.351-1.089a.07.07 0 0 0 0 .04l-.002-.002c.034.23.096.452.153.678 1.285-.751 2.813-.534 4.239-.71 2.547-.153 5.099-.177 7.649-.193 6.981-.13 13.959-.028 20.939.121q5.225.059 10.448.014c.798.038 1.651.012 2.522-.015 2.409-.076 4.951-.154 6.816 1.198.709.524.756 1.548.107 2.137-.586.604-1.471.603-2.283.601-.91.006-1.821.015-2.731.018-5.218.065-10.43.297-15.646.363-4.609-.032-9.219.11-13.824.252-4.209.129-8.419.261-12.628.258q-1.31.001-2.617-.018m.397-1.588c1.729.103 3.46.075 5.19.042 14.088-.38 28.171-.878 42.261-1.163-1.527-.533-3.17-.48-4.796-.428-.644.021-1.287.04-1.916.027-5.315-.061-10.629-.102-15.943-.17-6.869-.201-13.745-.1-20.615.081-1.468.07-2.934.227-4.398.358-.954.094-1.956.264-2.873-.089.278 1.32 2.005 1.166 3.09 1.342M98.338 319.881zv.002zM153.164 200.34c-1.553-1.172-1.415-3.071-1.527-4.774-.376-5.059-.513-10.136-.536-15.207.002-5.242.068-10.482-.048-15.723-.09-2.791-.133-5.623.662-8.338.007-.028.081-.384.169-.341h.002c.012.007-.006.012-.013.009.175 1.772.752 3.511.929 5.293.596 6.915.174 13.864.229 20.792.028 3.364.065 6.73.284 10.088.113 1.708.189 3.419.351 5.125.212 1.061-.142 2.089-.498 3.079q-.004 0-.004-.003"/><path fill="#000" d="M187.354 211.48c-.368-.281-.52-.684-.68-1.085-1.13-2.408-2.1-4.958-3.673-7.138-4.03-.365-8.078-.615-12.13-.558-5.655.055-12.749.937-17.576-2.417-.069-.059-.315-.273-.244-.387.015-.022.046-.028.072-.021.011.003.002.012-.006.012-.002-.002-.022.014-.025.014.156.191.541.198.775.263 1.624.273 3.275.323 4.917.449 3.074.413 6.229.339 9.364.262 2.112-.051 4.218-.102 6.281-.002 1.842.029 3.684.108 5.527.186 1.281.088 2.633-.001 3.837.488 1.101.566 1.575 1.783 2.159 2.772.881 1.569 1.774 3.143 2.393 4.826.892-1.387 1.587-2.882 2.313-4.353.416-.969.814-2.011 1.645-2.734.731-.529 1.719-.54 2.586-.696.903-.127 1.806-.258 2.712-.365 5.97-.699 11.996-.352 17.981-.776 1.199-.1 2.404-.167 3.598-.303.754-.174 1.792-.092 2.327-.679 1.383-2.491 1.507-5.434 1.59-8.188.141-5.426-.114-10.842-.279-16.264.02-4.588-.703-9.265-1.117-13.805-.228-1.754-.81-3.587.148-5.245 1.08.867 1.501 2.215 1.592 3.525a60 60 0 0 1 .449 3.916c.358 3.481.795 6.96.865 10.458.215 4.47.376 8.948.39 13.42.019 3.986.233 8.075-1.131 11.906-.49 1.724-1.818 2.847-3.703 2.942-2.508.281-5.041.372-7.566.455-5.345.053-10.705-.084-16.025.524-1.053.145-2.142.239-3.143.604-.405.721-.725 1.489-1.126 2.218-.596 1.26-1.224 2.512-1.956 3.708-.566.806-1.309 2.305-2.392 2.304a1.5 1.5 0 0 1-.749-.236"/><path fill="#000" d="M159.432 154.496c.407.005.784.013 1.119.013 3.674.002 7.344-.243 11.018-.265 9.331.061 18.552.464 27.865.711 5.662.08 11.33.618 16.993.346 1.862-.106 4.057-.45 5.511.943-1.227.855-2.779.98-4.256.939-5.389.237-10.755-.273-16.134-.508-11.585-.386-23.176-1.02-34.769-.709-2.771.071-5.539.177-8.309.188-1.48.003-2.961.082-4.434.194-.648.108-1.318.209-1.918.48-.406.244-.702.655-.997.973.271-3.406 5.178-3.355 8.311-3.305M173.368 190.272c-1.917-.093-4.065-.381-5.517-1.688-.356-.402-.522-.926-.58-1.447-.25-1.718-.268-3.449-.281-5.18-.009-3.344-.549-6.685-.292-10.028.119-1.323.393-2.634.487-3.959-.018-.061-.022-.124 0-.171.049-.073.15-.042.193.023.45-.997 1.793-1.103 2.785-1.132a44 44 0 0 1 4.19-.086c1.876.025 3.75-.047 5.618-.164 4.522-.171 9.115-.657 13.626-.469 1.571.057 3.151.022 4.731-.014 2.879-.066 5.758-.131 8.591.378 1.29.233 1.664 1.128 1.667 2.283.147 1.736.283 3.465.458 5.197.201 2.22.404 4.438.575 6.658-.111 2.586-.214 5.294-1.102 7.752-.304.696-.899 1.309-1.722 1.375-1.315.179-2.66.08-3.963.058a247 247 0 0 0-5.579-.005c-5.951.106-11.903.242-17.85.48-1.475.095-2.955.17-4.435.169a33 33 0 0 1-1.6-.03m15.681-22.52c-2.948.156-5.893.365-8.845.49-4.13.234-8.363.22-12.441.336.974 2.296 1.081 4.796 1.251 7.237.294 3.085.355 6.184.381 9.279-.041 2.424-.168 2.716 2.505 3.28 2.865.36 5.767.145 8.641.024a590 590 0 0 1 26.049-.657c.569-1.279.565-2.731.734-4.097.34-2.623-.113-5.204-.265-7.82-.204-2.589-.24-5.191-.472-7.776-3.315-.552-6.742-.458-10.093-.259a66 66 0 0 1-3.382-.033c-.786-.022-1.566-.045-2.354-.045-.567.001-1.134.012-1.709.041"/><path fill="#000" d="M187.456 182.854c-3.329-1.11-6.261-3.03-9.404-4.525-4.154-2.279-9.037-5.267-10.976-9.618-.067-.165.036-.186.168-.135.011.016-.063.015-.094.023 3.758 2.393 7.026 5.371 10.886 7.614 2.679 1.505 5.519 2.725 8.198 4.231.624.287 1.219.617 1.871.779.921-.304 1.721-.864 2.514-1.394a65 65 0 0 0 4.302-3.441c3.3-2.871 6.487-5.926 10.159-8.367.698-.391 1.53-.479 2.321-.429-.129.415-.26.841-.493 1.223-.339.553-.819.959-1.307 1.301-1.408 1.01-2.736 2.121-4.128 3.15-2.525 1.837-10.26 9.64-13.582 9.638a1.6 1.6 0 0 1-.435-.05"/><path fill="#000" d="M170.535 188.295c-.16-2.041 1.416-3.517 2.678-4.967 1.274-1.524 2.629-3.002 4.232-4.222.725-.531 1.48-1.213 2.385-1.407.054-.012.191.169.176.172-.054-.015-.123-.069-.179-.039-.711 1.123-1.24 2.344-1.979 3.455-.749 1.243-1.877 2.427-2.766 3.495-1.226 1.47-2.385 3.331-4.545 3.52q-.001 0-.002-.007M206.225 188.02c-1.306-.525-2.126-1.706-3.19-2.552-1.663-1.582-3.145-3.011-4.638-4.687a29 29 0 0 1-1.294-1.737c-.24-.207-1.466-2.584-1.59-1.862-.169-.508.467-.378.772-.232 2.817 1.146 4.733 3.455 6.848 5.409 1.296 1.235 2.805 2.279 3.923 3.673.486.675.801 1.436.952 2.238a3 3 0 0 1-.395.024 3.8 3.8 0 0 1-1.388-.274M46.21 176.293c-2.73-.037-5.869-.735-7.387-3.105-.967-1.6-.85-3.545-1.02-5.329-.15-3.444-.411-6.879-.702-10.315-.752-8.869-.436-17.774-.39-26.661.065-3.377-.326-6.893 1.016-10.103.018-.045.202-.483.29-.326 0-.004.003.006.005.01 0 .017-.023-.008-.031-.013v.002l-.006-.003h-.002q-.002.004-.006.007c.057 1.775.472 3.457.505 5.217.094 6.3.01 12.608-.007 18.911-.058 6.167.364 12.326.923 18.466.303 2.942.195 5.986 1.009 8.85 2.048 3.636 7.43 2.324 10.97 2.232 4.98-.28 9.973-.716 14.966-.562 2.108.045 4.422.312 5.937 1.849-1.719.473-3.474.147-5.224.095a103 103 0 0 0-5.8.052c-4.801.174-9.588.731-14.394.728q-.327.001-.651-.002"/><path fill="#000" d="M77.43 188.399c-.284-.127-.456-.39-.622-.629a20 20 0 0 1-1.702-2.656c-1.767-3.212-3.501-6.459-4.51-9.974-.021-.115-.317-.755-.089-.523 3.742 2.993 5.184 7.595 7.583 11.491 1.878-2.969 4.246-10.493 7.968-11.315 4.137-.887 8.429-.967 12.654-.923 1.695.013 3.388-.003 5.083-.018 3.613-.033 7.224-.066 10.836.165 1.548-.008 3.237-.087 4.501.901-.991.9-2.376 1.176-3.706 1.074-3.702-.227-7.377-.417-11.056-.308-.729.015-1.947-.012-3.428-.038-5.496-.098-14.62-.201-15.847 1.847-1.264 1.625-2.217 3.454-3.25 5.216-.838 1.565-1.556 3.188-2.427 4.736-.255.563-.805 1.098-1.432 1.098-.18 0-.367-.044-.555-.144"/><path fill="#000" d="M118.148 174.931c-.003 0-.005-.006-.005-.006.143-.746.334-1.452.58-2.166.696-2.858.571-5.859.789-8.778.395-7.17.34-14.395.699-21.501.151-5.405-.296-10.821.069-16.222.117-1.648.741-3.256.885-4.881-.032.02-.053.048-.078.074-.003.004-.012 0-.007-.005.012-.036.029-.119.078-.139.163-.067.263.375.282.439.747 2.889.573 5.781.609 8.669.404 8.549-.209 17.113-.42 25.65-.093 3.927-.292 7.806-.507 11.723-.119 1.755-.171 3.521-.47 5.258-.212.934-1.042 1.94-2.083 1.94q-.208.001-.421-.055M38.061 122.491c-.432-.826.256-1.701 1.015-2.113 2.224-1.347 4.993-1.153 7.518-1.403 6.065-.41 12.245-.976 18.316-.808 16.884.186 33.726.25 50.568 1.269 1.608.265 3.611.038 4.824 1.242.431.455.615 1.112.335 1.683-.577-.362-1.283-.402-1.959-.421-1.993-.315-4.029-.316-6.033-.563-9.688-.971-19.436-.987-29.159-1.359-6.217-.238-12.4-.161-18.61-.344-7.096-.155-14.17.62-21.226 1.206-1.45.281-5.356-.145-5.58 1.58l-.001-.002q0 .007.003.014h.006c.014-.012.014-.003.008.006-.004.006-.011.013-.019.013zM66.548 162.729c-1.98-.153-3.985-.779-5.364-2.208-1.404-1.28-1.785-3.743-.169-5.008 1.336-.86 3.06-.659 4.592-.734 2.723-.159 5.579-.029 8.03-1.197.732-.43 1.49-.984 1.722-1.812.254-.772.077-1.745-.721-2.157-1.568-.66-3.624-.462-5.235-.338-2.704.159-6.07 2.001-8.387-.047-1.011-1.073-1.256-2.614-1.43-3.987-.365-2.857-.447-5.766.121-8.607-1.194-2.901 2.4-3.779 4.675-3.991 2.772-.443 5.586-.577 8.384-.786 2.793-.092 6.841-.625 9.086 1.237 1.092.937 1.083 2.926-.292 3.616-2.41.719-4.973 1.115-7.482 1.402-2.39.147-4.788.213-7.18.357-.786.046-1.59.053-2.349.275.014 1.622-.357 3.332.183 4.907 1.838-.185 3.651-.593 5.512-.547 2.922.034 5.966.098 8.69 1.221 2.63 1.111 4.963 3.272 5.64 6.001.513 2.347-.825 4.698-2.383 6.431-2.163 2.515-5.222 4.156-8.48 5.012-1.867.591-3.83 1.035-5.804 1.034q-.679.002-1.36-.074m-4.44-5.357c-.37.868.325 1.761.984 2.313 1.311 1.045 3.07 1.255 4.716 1.355 3.758-.075 7.607-1.207 10.676-3.294 5.355-3.785 6.087-8.74-.497-11.662-3.052-1.067-6.421-1.181-9.638-.967-1.293.098-2.53.57-3.827.585-1.9-.159-2.165-2.364-2.21-3.817-.14-4.734.287-5.119 5.252-5.207 4.374-.151 8.868-.199 13.014-1.682.096-1.644-5.324-1.387-9.023-1.131-1.424.101-2.594.198-3.096.191a37.5 37.5 0 0 0-6.236.885c-.969.166-1.3 1.177-1.73 1.898.66 2.021.948 4.117 1.005 6.227.223 1.6-.052 3.514 1.043 4.85.428.4 1.085.345 1.639.317 1.86-.238 3.677-.744 5.55-.901 1.99-.093 4.207-.366 5.994.647 2.993 1.909 1.867 5.836-.976 7.33-2.944 1.73-6.609 1.583-9.95 1.689-.26.025-.544.021-.834.015q-.177-.004-.356-.005c-.557-.001-1.108.045-1.5.364M93.445 151.657c-1.807.392-3.697.727-5.479.043-2.603-.94-1.752-3.149.206-4.27 1.322-.866 2.96-.86 4.459-1.186-.207-1.974-.76-4.059.131-5.941.963-1.668 2.744-.429 3.32.853.607 1.058.768 2.306.69 3.485.243.525.33 1.088.403 1.652 2.63-.788 5.638-.918 8.12.334 1.384.742 1.701 2.412.276 3.29-2.083 1.175-4.644 1.181-6.993 1.425 1.067 2.266.072 7.629-3.063 7.789-2.97-.435-1.03-5.591-2.07-7.474m.738-1.552c2.151 1.133.998 5.323 1.569 7.265 1.092-1.104 1.343-2.82 1.24-4.287-.349-1.403-1.382-2.934.832-3.409 2.197-.355 4.646-.228 6.638-1.282-1.605-1-3.825-.938-5.631-.503-.875.175-1.738.722-2.647.419-1.597-.651-1.395-3.302-.618-4.502-.364-.708-.723-1.3-1.238-1.882-.112 1.186.103 2.358.297 3.517.201.748.174 1.583-.433 2.157-1.728 1.456-4.307.26-5.937 2.323.762.527 1.828.5 2.74.428.773-.07 1.579-.396 2.364-.395.278.001.553.042.824.151M144.007 120.543c-1.226-1.36-1.152-3.149-1.102-4.833.055-5.087-.268-10.164-.324-15.249-.052-5.014-.122-10.028-.082-15.041.032-3.684-.366-7.53 1.086-11.022.192-.12.133.214.136.314.594 3.39.638 6.82.669 10.249.063 6.754-.089 13.507.137 20.26.116 3.348.174 6.699.262 10.049.058 1.786.341 3.719-.782 5.273"/><path fill="#000" d="M179.689 133.368c-.953-.199-1.417-1.106-1.829-1.856-.462-.785-.924-1.573-1.423-2.338-1.376-2.076-2.915-4.101-4.859-5.726-.835-.712-1.926-.866-3.005-.871-1.396-.056-2.791-.102-4.178-.253-4.965-.524-9.983-.579-14.93-1.265-1.697-.234-3.279-.879-4.906-1.34.014.054.098.139.092.176-1.338-.794 3.373-.76 3.741-.739 4.964.241 9.905.823 14.873 1.004 2.626.149 5.339.01 7.893.661 1.294.423 2.356 1.3 3.28 2.239 2.359 2.234 3.997 4.998 5.693 7.693 1.08-1.458 1.804-3.136 2.586-4.751.613-1.243.988-2.685 2.055-3.662.934-.646 2.172-.709 3.287-.784 1.476-.071 2.95-.083 4.427-.138 3.86-.148 7.724-.232 11.575-.536 3.158-.212 6.335-.576 9.471-.892 1.62-.203 3.414-.577 4.811.475.05.032.109.054.147.091l-.113.1c-1.329 1.551-3.544 1.362-5.428 1.614-3.877.372-7.759.7-11.652.878-4.605.296-9.23.035-13.835.304-.757.04-1.457.282-1.662 1.046-.593 1.291-1.131 2.604-1.671 3.763-.722 1.396-2.467 5.621-4.44 5.107"/><path fill="#000" d="M217.728 120.392c-.784-1.512-.543-3.18-.424-4.798.114-1.644.23-3.286.312-4.933.192-3.822.362-7.683.338-11.465q-.174-7.85-.298-15.7c-.09-2.733-.057-5.526.874-8.14.01-.051.073-.1.117-.053.025.027.021.07.024.099-.003.03.034.098.016.116.771 3.397.771 6.866.844 10.322.138 7.012.433 14.026.106 21.035-.14 3.353-.309 6.706-.492 10.058-.032 1.247-.242 2.727-1.417 3.459M213.46 76.715c-11.531-.799-23.073-1.526-34.632-1.844-9.391-.08-18.773.488-28.16.643-2.184.149-4.344-.48-6.507-.423.002.2.166.477.132.623-.159-.311-.617-.45-.589-.832.846-1.498 5.456-1.278 7.104-1.295 4.7-.058 9.404-.216 14.105-.32 13.152-.558 26.302.11 39.422.982 3.45.163 6.902.282 10.347.512.934.126 1.867.495 2.564 1.092-1.055.835-2.463 1.032-3.786.862"/><path fill="#000" d="M217.588 77.006c-.29-.464-.724-.978-.924-1.463.01-.09.108-.092.181-.094.015.015-.053.036-.06.061.768.05 1.614.467 1.83 1.228a.91.91 0 0 1-.133.708 1.17 1.17 0 0 1-.894-.44M163.773 109.575c-1.924-1.653-1.072-4.319-1.267-6.496-.082-2.764-.282-5.692.646-8.329.06-.03.144.005.163.065 1.172 2.75 1.534 5.7 1.55 8.648-.069 2.047.608 4.511-1.092 6.112"/><path fill="#000" d="M172.801 113.246a216 216 0 0 1-5.916-.121c-1.499-.198-3.337.034-4.534-1-.83-.834-.561-2.07-.392-3.098.101-1.154.784-2.116 1.52-2.952.456.639.796 1.404.845 2.195.029.723-.186 1.436-.213 2.158 5.049.616 10.15.771 15.221.313 2.66-.308 5.499-.104 8.007-1.095.915-.447.179-1.069-.065-1.674-.438-1.648 2.002-1.911 2.342-3.291.303-1.134-1.4-1.215-2.205-1.25-.52-.112-.848-.517-.905-1.01-.093-.792.666-1.191 1.283-1.519 1.562-.855.162-1.389-.804-1.834-.882-.32-2.005-.87-1.586-1.95.348-.856 1.327-1.222 1.967-1.848 1.343-1.19.404-1.67-.981-1.93-2.342-.468-7.818 1.685-5.723-2.647.923-1.83 1.931-3.789 1.796-5.873-.116-.545-.238-1.458-.952-1.497-.975.247-1.665 1.38-2.259 1.978a30 30 0 0 0-1.671 2.264c-2.702 4.66-5.736 7.441-11.511 7.96-.9.168-2.178.018-2.561 1.01-.07.234-.124.577.113.72q.012.004.022.01c-.128.053-.383-.148-.471-.251-.42-.404-.431-1.022-.238-1.53 1.215-2.214 4.633-2.18 6.757-3.04 1.978-.82 3.605-2.328 4.693-4.083 1.373-1.979 2.659-4.067 4.378-5.79 2.376-2.263 5.369-1.262 5.773 1.922.317 2.386-.725 4.726-1.663 6.889 1.708-.17 3.506-.504 5.145.158 3.239 1.117 3.012 4.182.503 5.972 1.987.797 3.288 2.776 1.711 4.578 2.675 1.255 1.794 5.026-.629 6.062.818 1.083.309 2.573-.752 3.323-1.675 1.21-3.893 1.101-5.887 1.257-3.396.081-6.763.638-10.158.514M97.77 318.759c.956-.711.742-2.168.573-3.2-.397-2.135-1.534-4.096-3.022-5.714-.916-.884-1.77-1.902-1.896-3.175-1.643-.9-3.346-1.748-4.797-2.92a30 30 0 0 1-3.67-3.657c.165 1.277.662 2.491 1.04 3.722.66 2.114 1.246 4.254 2.215 6.265 1.56 2.816 3.473 5.606 6.29 7.406.787.51 1.619.966 2.514 1.283.268.134.583.068.844-.036zm.998-14.411c-.179.733-.629 1.467-1.497 1.489-.932-.123-1.772-.605-2.62-.971-2.719-1.352-5.28-3.031-7.221-5.328-3.822-4.413-6.063-8.821-5.567-14.694.063-.717.115-1.488.229-2.222 1.276 2.282 2.91 4.395 4.798 6.281 1.741 1.671 3.628 3.241 5.702 4.528q.67.338 1.375.61c.11.894.559 1.747 1.207 2.416 1.12 1.295 2.275 2.588 3.06 4.104.603 1.173.875 2.503.534 3.787m1.637-11.883c.606-1.445.342-3.126-.35-4.506-1.32-2.367-3.361-4.27-4.962-6.457-.905-1.039-1.49-2.446-.98-3.781a.3.3 0 0 1 .051.03c-1.904-1.757-3.496-3.911-4.875-5.964-1.676-2.617-2.942-5.526-3.582-8.542-1.8 1.11-3.081 3.01-3.85 4.887-1.26 4.424.07 9.32 2.07 13.373 1.61 3.001 3.868 5.705 6.52 7.898 1.032.874 2.095 1.732 3.29 2.399 1.078.489 2.277.823 3.425 1.056 1.074.171 2.422.495 3.243-.393m2.89-13.294c-.991.78-2.362.268-3.47.004-3.55-1.295-5.895-4.449-8.012-7.313-5.585-7.942-7.133-19.246 2.383-24.999.037 2.018.094 4.036.182 6.05.014.73.026 1.487.176 2.203-1.254 2.686 2.08 6.857 3.442 9.124 1.86 2.952 4.248 5.646 5.512 8.904.56 1.865 1.142 4.374-.213 6.027m122.209 59.452.894.939a12 12 0 0 1-.227-.958l-.004-.024a2.2 2.2 0 0 1-.487.049q-.089-.002-.176-.006m20.444-37.489c-.02 6.557-.41 13.167-.495 19.731-.053 4.822.331 9.669.454 14.487-.035.914-.124 1.816-.056 2.716-1.584.126-3.183.588-4.721.829a37 37 0 0 0-1.696-1.188c-1.975-1.254-3.977-2.469-5.876-3.827-1.289-.924-2.479-2.106-4.053-2.565-3.395-.39-3.787 3.929-3.454 6.551-.393-.079-.819-.048-1.238.03-2.321-2.428-4.673-4.832-7.153-7.105-2.165-1.774-4.274-3.623-6.379-5.46-2.719-2.116-5.189-4.519-8.03-6.487-1.47-1.016-3.061-1.975-4.852-2.358-3.448-.68-5.375 2.345-5.017 5.296 1.087 5.818 5.205 10.705 9.132 15.275a5.7 5.7 0 0 0-1.801-.238c-8.396-.49-16.843-.158-25.251-.424-5.834-.09-11.666-.013-17.5.062-5.47.071-10.939.141-16.41.079-4.228.132-8.456.119-12.684.105-2.584-.009-5.167-.019-7.752.008-4.472.066-8.948.232-13.42.143-1.661-.088-3.371-.203-5.032-.495-1.414-1.07-2.297-2.376-2.645-4.247-.698-2.36-.725-5.066-.972-7.53-.14-1.098-.349-2.187-.52-3.282.915-.187 1.671-1.164 1.2-1.935.739-1.34.693-3.374.328-4.75-.537-2.295-2.196-5.112-4.208-6.826q.227.07.464.12.48.093.91.094.516 0 .96-.125c-.196.819-.23 1.706.407 2.327.632-.679.548-1.717.23-2.574 2.328-1.22 2.686-5.143 1.562-7.48a10 10 0 0 0-1.031-1.816c.053-1.056-.283-2.172-.595-3.175l.171.003c3.811.001 4.25-3.938 3.335-6.848-.595-1.74-1.809-3.177-2.977-4.61.539-.776.317-1.91-.075-2.76.845.289 1.736.485 2.678.566q.133.006.262.006c3.515.002 4.238-3.802 3.885-6.544-.396-2.911-2.015-5.536-3.652-7.97a66 66 0 0 1-3.215-4.757c.612-1.215.498-2.621.353-3.964-.079-1.38-.116-2.76-.168-4.14-.102-3.314-.185-6.627-.367-9.937-.018-4.223-.779-9.666.861-13.853.53-.194 1.111-.315 1.645-.464 1.612-.3 3.242-.486 4.865-.706 4.548-.319 9.117-.237 13.674-.375 4.515-.081 9.025-.241 13.541-.259 6.546-.043 13.093.03 19.64.104 8.494.096 16.988.192 25.486.036 10.466-.23 20.941-.47 31.41-.278 3.833.189 7.666.403 11.535.503 5.582.375 11.215-.045 16.774.6 1.972.257 3.541 1.561 5.431 2.028q.125.407.238.814c2.581 8.739 1.606 17.85 1.548 26.798.074 6.701-.257 13.401-.089 20.099.301 7.318.488 14.623.405 21.942m1.071 108.955q.062-.02.128-.038c-.374-.483-.675-1.007-.846-1.591-1.224-.239-2.286-.941-3.368-1.505a226 226 0 0 1-4.314-2.46c-4.472-2.486-8.728-5.309-13.262-7.689-3.022-1.725-6.087-3.398-9.024-5.257-4.416-2.876-8.473-6.278-11.947-10.162-3.72-4.423-8.6-10.472-7.888-16.423.248-1.354 1.105-2.734 2.58-3.082.279-.066.604-.122.921-.115a14 14 0 0 1-.444-.94c-.731-1.935-1.267-4.109-.84-6.157.42-1.77 2.171-3.138 4.067-2.56-.959-2.091-1.496-4.313-.657-6.525.47-1.29 1.196-2.558 2.458-3.278.576-.344 1.304-.602 1.983-.523q-.062-.07-.122-.138c-.771.227-1.585.293-2.402.252-1.557.008-3.112-.004-4.666.026-1.26.047-2.522.066-3.785.065q-1.491-.001-2.983-.035c-11.737-.227-23.468-.411-35.206-.289-3.742.067-7.481-.006-11.222-.078-3.229-.061-6.46-.124-9.69-.096a204 204 0 0 0-3.833-.036c2.417 2.304 3.777 5.514 5.366 8.382 2.628 4.899 5.275 9.784 8.22 14.518 5.928 9.441 12.5 18.515 19.751 27.048 6.559 7.675 14.919 13.877 24.193 18.291 4.782 2.458 9.769 4.948 15.153 5.817 7.262 1.179 14.603 1.474 21.865.514 5.352-.892 10.668-2.142 15.732-4.034 1.439-.477 2.704-1.31 4.082-1.902m19.411-41.545c-2.497 5.949-5.282 11.773-8.075 17.602-1.676 3.235-3.153 6.568-5.064 9.684-1.06 1.706-2.079 3.427-3.183 5.103-1.125 1.838-3.229 4.012-3.722 6.227-.97-.728-2.163-1.149-3.224-1.742-3.245-1.844-6.525-3.705-9.715-5.64-5.859-3.621-12.07-6.716-17.758-10.587-4.164-2.886-7.858-6.352-11.107-10.158-3.005-3.737-6.033-8.011-6.275-12.881-.007-1.269.056-2.771 1.201-3.609.206-.14.438-.298.682-.405.999 1.837 2.326 3.499 3.599 5.171 1.074 1.397 2.06 2.992 3.886 3.561-.083-1.592-1.172-2.835-2.182-4.026-1.508-1.908-2.94-3.708-3.959-5.944-.938-2.34-2.293-7.642 1.398-8.277l.09-.005c.535 1.082 1.162 2.125 1.749 3.11a35 35 0 0 0 3.286 4.439c.915.974 1.628 2.191 2.839 2.857.379.204.787.344 1.197.489a5.8 5.8 0 0 0-.31-1.238c-.496-1.243-1.623-2.103-2.442-3.147-1.82-2.173-3.396-4.533-4.58-7.078-1.106-2.475-1.63-4.577-.177-7.054.602-.992 1.522-2.523 2.938-2.131l.006.001c3.161 3.495 6.507 6.835 9.724 10.285.59.622 1.407 1.108 2.215 1.396-.304-1.143-.99-2.141-1.835-2.984-2.713-3.064-5.654-5.948-8.381-9.003-4.267-4.958-8.79-9.889-12.142-15.483-.88-1.778-1.723-3.63-1.92-5.608.006-3.065 1.902-3.835 4.565-2.404 2.469 1.208 4.447 3.097 6.546 4.794 3.925 3.114 7.682 6.377 11.427 9.696 4.258 4.303 8.595 8.539 12.654 13.018a201 201 0 0 1 3.35 3.772c1.427 1.613 3.067 2.957 4.768 4.329.04.029.186.146.251.146a.03.03 0 0 0 .025-.013c-2.169-3.891-5.079-7.257-8.092-10.574-.55-.729-1.058-1.484-1.464-2.307-1.16-2.215-1.773-4.777-1.26-7.239.183-.544.363-1.724 1.201-1.564 1.715.751 3.028 2.139 4.62 3.094 2.105 1.435 4.128 2.677 6.208 4.215 2.898 2.048 5.334 4.614 7.852 7.063 1.858 1.757 3.622 3.554 5.294 5.48 2.062 2.464 4.303 4.809 6.385 7.312 2.306 2.693 3.746 6.332 6.911 8.257m6.62-228.556a.8.8 0 0 0-.258.292 1.2 1.2 0 0 1-.134-.237c-2.745 2.126-4.607 5.331-5.46 8.554-.74 3.385-.849 6.981.297 10.299.808 2.04 1.977 4.024 3.586 5.567.659-8.183 1.269-16.328 1.969-24.475m8.689-.978-.065-.023c-1.243-.411-2.596-.721-3.934-.75l-.419.126c-.872.253-1.696.619-2.536.949q-.042.487-.088.974l-.001.028c1.436-.231 2.823-.567 4.251-.833.914-.168 1.854-.31 2.792-.471m3.736 237.429c.731-3.77-2.983-5.9-6.212-6.94-2.117-.81-4.314-1.539-6.601-1.721-1.388.064-3.158-.139-4.238.838-1.446 2.566-2.226 5.404-3.61 7.993-2.263 4.463-4.374 9.043-6.651 13.453-2.46 4.99-5.489 9.773-8.709 14.334-.544.821-1.05 1.568-1.363 2.488-.128.409-.302.891-.059 1.288 1.224 1.717 3.152 2.854 4.68 4.311 2.069 1.775 3.709 3.939 5.731 5.751 1.445 1.05 3.336 1.745 5.166 1.655q.287-.101.557-.231l-.014-.043q.054-.003.11-.002c1.936-.956 3.255-2.904 4.518-4.543 1.522-2.004 2.818-4.123 3.986-6.307a3 3 0 0 1-.127-.462 8 8 0 0 1 .388-.028c2.071-3.953 3.751-8.1 5.625-12.138 2.712-6.474 5.258-12.871 6.823-19.696m2.911-239.892c-1.177-.34-2.456-.167-3.656-.031-.87.121-1.753.297-2.633.505.706.224 1.391.492 2.043.796q.47.195.922.426c1.194-.381 2.324-.908 3.324-1.696m2.129 17.716c-.064 1.242-.031 2.494-.165 3.732q-1.111.207-2.182.563c-.381.121-.798.257-1.132.472-.021.014-.149.081-.109.124.011.014.067.011.053-.005q-.01-.001-.021-.005c.829.062 1.658.237 2.493.395q-.049.07-.099.138c-1.422 1.943-3.111 3.699-4.966 5.271-.86.691-1.809 1.36-2.485 2.218-.766.062-1.528.167-2.296.238-1.961.092-3.978-.178-5.756-.994a10 10 0 0 1-1.062-.596c.55-8.381 1.371-16.756 1.887-25.15.579.16 1.178.237 1.779.293q.476.018.948.018a27.7 27.7 0 0 0 6.818-.872c5.28 2.896 6.878 8.071 6.295 14.16m29.44-12.594q.868.134 1.741.272a27 27 0 0 0-2.951-1.004 17.5 17.5 0 0 0-3.645-.086c1.605.333 3.234.529 4.855.818m6.646.85a11 11 0 0 0-.542-.38c-1.98-1.262-4.132-2.339-6.432-3.016-1.364-.379-2.802-.306-4.207-.27-1.345.089-2.701.3-4.019.642-.441-.329-.67-.739-.252-1.224 1.444-.508 3.039-.534 4.544-.819 1.567.607 3.34.516 4.925 1.108 2.72.992 5.398 2.255 7.698 3.973a21 21 0 0 1-1.715-.014m2.188 21.536c-2.863 5.289-6.636 8.626-13.128 8.681-6.323.473-10.858-2.277-13.702-7.607-.489-.946-.958-1.986-1.187-3.04-.125-.766-.246-1.54-.644-2.234.506-2.972.826-6.013 1.857-8.874 1.335-3.197 3.391-6.296 6.44-8.226a17 17 0 0 1 3.234-1.288c1.573.74 3.346.934 5.05 1.263 2.886.504 5.785 1.041 8.711 1.284 1.316 1.002 2.408 2.242 3.104 3.788 2.247 5.058 2.787 11.186.265 16.253m16.138-23.559c.015 4.409-.837 8.751-1.208 13.133-.042.931-.117 1.938-.06 2.924-1.383.261-2.762.54-4.133.854-1.937.435-3.924.776-5.73 1.609-.196.091-1.088.492-1.823.901.187-1.052.287-2.119.301-3.189-.125-4.306-.959-9.187-3.904-12.566q.074.002.149.003c1.378 0 2.533-.74 1.65-2.191-.778-1.136-2.046-1.864-3.236-2.555-3.098-1.828-8.541-4.435-12.158-3.06-1.833-.322-4.696-.58-5.428 1.52-.295.861-.13 1.581.299 2.168-2.598.951-4.93 2.487-6.543 4.718-2.987 4.041-5.519 9.674-3.824 14.621-1.016-.829-2.465-.972-3.716-1.327a11.5 11.5 0 0 0-2.546-.301 28 28 0 0 0 2.236-5.701c1.18-3.579 1.303-7.341.777-11.037-1.097 2.362-1.494 5.496-2.107 8.185a32 32 0 0 1-1.686 5.336c.475-2.2.421-4.529.02-6.713-.401-1.675-.843-3.386-1.786-4.868a14.6 14.6 0 0 0-3.665-3.675c1.671-.7 4.471-1.953 2.851-3.801-2.297-1.798-7.994-.096-10.673.572q-.45.143-.899.28a10.4 10.4 0 0 0-3.081.392c.376-4.716.635-9.468.706-14.196 1.326-.794 2.51-1.829 3.546-2.932 1.516-1.474 3.084-3.285 5.423-3.335 2.313-.061 4.173.943 6.398 1.559 1.759.485 3.619.502 5.429.315 7.568-.8 14.675-4.585 22.435-3.694 15.176.975 15.007 7.73 23.843 8.001.757 2.721 1.057 5.522 1.472 8.302.525 3.277.771 6.377.671 9.748m24.487 34.32c-1.609 1.839-3.775 3.073-6.155 3.779-1.096.327-2.212.627-3.359.725-.368.018-.732-.024-1.094-.07-.405-.049-.807-.097-1.217-.058-.57-.026-1.283.259-1.848.4.43 1.415 1.92 2.015 3.356 2.089-.723 2.432-1.044 4.952-1.079 7.482-.17 3.533-.23 7.068-.245 10.603-.055 3.155.258 6.302.478 9.445.22 4.676.728 9.528 1.741 14.142.79 4.16 1.939 8.277 3.216 12.329.381 1.3.681 2.714 1.643 3.719a5.5 5.5 0 0 0-.765 1.087c-4.024 9.26-20.388 11.174-29.611 10.362-3.472-.284-7.006-.724-10.133-2.337-2.349-1.128-4.401-2.681-6.386-4.314-.516-.474-1.108-.922-1.582-1.45.609-1.159.645-2.558.674-3.86.02-1.672.034-3.35-.056-5.022q-.018-.272-.036-.548c4.026-.659 7.518-2.864 10.544-5.407 2.969-2.585 5.832-5.329 8.07-8.533 2.656-3.698 5.553-7.518 7.145-11.823.513-1.211 1.221-2.805.685-4.181.2-.479.321-.988.327-1.541a7.1 7.1 0 0 0-3.082 2.35c-3.894 4.593-8.392 8.691-13.254 12.339-5.695 4.429-13.166 6.113-20.41 5.935-4.025.024-7.962-.828-11.73-2.147-3.187-1.12-6.031-3.009-8.566-5.142-8.698-7.207-13.586-17.983-14.381-28.87-.208-6.238-.008-12.462.368-18.68 1.487.783 3.174 1.267 5.064 1.354.434.01.9.024 1.374.024.652.001 1.321-.028 1.954-.138-.728 2.715.558 5.172 2.994 6.736 1.485 1.114 3.122 2.225 5.071 2.34.418.038.855.068 1.293.068 1.528.001 3.067-.34 3.869-1.721-.602-.255-1.263-.524-1.949-.534-.438-.019-.869.039-1.301.096-.52.07-1.038.139-1.565.077-2.199-.186-4.025-1.726-5.546-3.141-1.271-1.407-1.122-3.825.511-4.919a30.9 30.9 0 0 0 7.367-8.012c2.023.177 4.013.48 5.955 1.043a3.2 3.2 0 0 0 .982.02c-.393 2.232 1.152 4.578 2.215 6.547 2.319 3.867 6.284 6.894 11.033 7.302q.964.05 1.948.052c2.706.002 5.482-.309 7.993-1.282 2.935-1.457 5.332-3.825 7.07-6.492 1.362-1.893 2.28-4.021 2.788-6.243 3.924-.022 7.685-1.172 11.51-1.88l.803-.136q.15.387.374.75c-.88 2.507-.776 6.838 2.696 7.274q.208.014.415.014c3.389.002 6.018-2.73 7.056-5.714q.036.537.153 1.09c.994-2.155 2.715-4.057 4.247-5.962 2.47-2.636 6.638-3.177 10.156-2.74 3.135.347 4.217 3.394 4.801 5.948.941 5.365-1.202 11.124-4.589 15.376m8.268 70.51c.342-1.375.294-2.749-1.162-3.476-2.128-1.263-4.338-2.421-6.25-3.989-1.422-1.047-2.831-2.276-4.615-2.697a5 5 0 0 0-.887-.106c.449 1.383 1 2.796.809 4.224.583.881.391 2.16-.103 2.998-1.43 2.462-3.721 4.5-6.273 5.893-6.308 3.232-13.569 4.597-20.687 4.617-4.038-.115-8.157-.313-12.052-1.41-2.003-.598-3.867-1.523-5.657-2.559-2.048-1.221-4.303-2.998-4.964-5.293a4 4 0 0 1-.239.245c-1.129-1.507-.823-3.344-.782-5.079q.005-.52-.004-1.04l-.067.01a4.6 4.6 0 0 0-2.679 1.521c-1.013.985-1.896 2.076-2.713 3.214-1.086 1.441-2.256 2.833-3.553 4.107-.806.838-1.939 1.367-2.614 2.317-.271.495.069 1.069.191 1.567q.36.959.909 1.829c1.73 2.481 4.09 4.455 6.651 6.125 3.879 2.53 7.855 5.13 12.297 6.652 8.771 2.851 18.285 3.316 27.308 1.364 5.794-1.111 11.597-2.783 16.554-5.938 4.103-2.593 6.59-4.838 8.478-9.282.758-1.339 1.208-2.851 2.06-4.129-.085-.59-.089-1.194.044-1.685m87.706 119.717c.17-3.751.067-7.507-.131-11.254-.296-5.709-.503-11.432-1.346-17.099-.854-5.487-2.32-10.889-4.233-16.125-2.357-5.973-5.333-11.708-8.441-17.353-5.048-9.626-12.053-18.165-19.709-26.019-6.35-6.355-12.671-12.868-20.142-18.045-6.066-3.844-12.398-7.306-18.756-10.689-2.905-1.535-5.914-2.872-8.984-4.072-1.37-.502-2.595-1.379-3.959-1.876.527 1.637.134 3.803-1.081 5.045-.035.903-.217 1.85-.502 2.795 2.402.018 4.737 1 6.69 2.286 1.639 1.154 3.616 2.219 4.369 4.116-1.971-.348-3.702-1.736-5.406-2.532a40 40 0 0 1-4.318-2.337c-.523-.286-1.01-.662-1.527-.947-.532 1.543-1.32 3.055-2.166 4.34.94.111 1.866.433 2.73.774 1.89.871 3.451 2.264 4.996 3.593 1.345 1.294 3.09 2.405 3.663 4.219-1.28-.381-2.344-1.161-3.329-2a55 55 0 0 0-3.12-2.242c-1.877-1.105-3.601-2.464-5.426-3.639q-.272.375-.544.713c-6.027 6.084-14.493 9.499-23.006 11.024-3.98.759-8.033 1.378-12.099 1.376a38 38 0 0 1-2.625-.093c-6.842-.379-13.749-1.737-19.787-4.937-5.688-3.3-14.25-7.569-15.919-14.173-1.588.768-3.187 1.634-4.87 2.218-6.932 2.517-13.537 5.865-19.32 10.324-6.823 4.698-13.214 9.826-19.173 15.443-1.366 1.376-2.611 2.855-3.805 4.37-.754 1.026-1.491 2.158-2.596 2.828a297 297 0 0 1-.038 10.925c.198 8.15-.035 16.31.163 24.457.191 3.73-.023 7.461.083 11.193-.009 2.983.526 7.124-1.806 9.327.08.669-.53 1.317-1.234 1.464a2.8 2.8 0 0 1-.732.087c-.356 0-.715-.05-1.05-.101-.637-.145-1.353-.272-2.033-.453 2.626 2.367 5.052 4.941 7.538 7.44 2.926 3.438 5.982 6.803 8.899 10.229q.058.075.116.15c-.039-.542-.055-1.099-.097-1.663a68 68 0 0 1-.126-5.741c.076-3.977.317-7.95.606-11.917.192-3.063.823-6.705 2.433-9.128-.121 2.062.305 4.125.087 6.191-.357 4.303-.609 8.653-.691 12.957-.05 2.848-.006 5.691.174 8.535.025.965.254 1.949.006 2.902a4.6 4.6 0 0 1-.317.825c1.115 1.745 2.114 3.542 3.132 5.356.815-1.521 2.802-1.818 4.463-1.866 4.215-.187 8.317 1.412 12.044 3.14 2.106 1.082 3.736 2.995 4.093 5.284q.037.328.052.662l.034.003c2.458.5 4.8 1.404 7.145 2.244 5.905 1.918 11.658 4.282 17.67 5.888 7.237 1.527 14.36 3.529 21.64 4.874 10.241 1.818 20.712 3.277 31.143 2.838 13.493-.617 24.795-5.13 32.622-15.984 3.582-5.446 5.687-11.776 6.979-18.058q.055-.5.108-1.003c-.257-.865-.317-1.777-.363-2.682-.286-1.937-.859-3.811-1.564-5.639-1.495-3.585-3.508-6.879-5.214-10.34-.026-.056-.074-.101-.088-.156.587.408 1.119.9 1.631 1.391 1.91 1.665 4.657 6.263 6.056 10.594a28 28 0 0 0-.179-3.19c-.437-3.427-1.383-6.749-2.387-10.025-.412-1.263-.938-2.537-1.425-3.76-.544-1.223-1.122-2.461-1.124-3.819 1.856 1.602 2.533 4.083 3.56 6.208 1.579 3.901 2.761 8.001 3.163 12.175.213 2.974-.067 5.952-.297 8.918-.174 2.37-.77 4.688-1.483 6.959-1.384 4.607-3.049 9.207-5.826 13.236-8.759 12.423-22.64 16.802-37.633 16.795a76 76 0 0 1-1.645-.02c-12.576-.32-25.054-2.352-37.222-5.34-3.525-.856-7.094-1.54-10.615-2.403-4.766-1.248-9.382-2.952-14.018-4.567-2.553-.917-5.214-1.6-7.647-2.787-1.072-.511-2.029-1.201-3.014-1.842-.033 1.227-.391 2.443-1.393 3.28-.111 2.53-.975 4.945-1.816 7.322-1.841 5.424-4.266 10.627-6.6 15.869a77 77 0 0 1-2.805 6.088 5.1 5.1 0 0 1 1.651.669c2.082.807 3.982 2.018 6.06 2.803.091.018.189.042.279.02a.2.2 0 0 0 .083-.046c.004-.003.012.002.007.007-.106.177-.35.226-.542.275-1.306.288-2.688.254-3.998.013-1.016-.179-1.973-.55-2.886-1.005a4.7 4.7 0 0 1-1.602-.964 63 63 0 0 1-2.5 4.155q.689.052 1.34.319c.867.365 1.553 1.015 2.332 1.518 1.79 1.197 3.86 1.924 5.743 2.964 1.113.605 2.092 1.392 3.125 2.105.184.095.381.265.589.229a.02.02 0 0 1 .012-.006l.006-.006c.005.121-.318.137-.458.124-3.619-.199-6.93-1.712-10.03-3.401-.92-.502-1.928-.929-2.67-1.667a3.5 3.5 0 0 1-.727-1.078q-.63.92-1.299 1.82c-.784.971-1.462 2.043-2.384 2.897.197.098.39.215.571.345 6.147 4.044 12.617 7.65 19.288 10.836 12.53 6.072 25.892 10.344 39.46 13.716 9.363 2.559 18.872 3.785 28.5 4.839 3.472.294 6.962.36 10.443.416 5.13.123 10.271.154 15.384-.299 7.586-.777 15.221-1.648 22.6-3.554 5.467-1.562 10.655-3.565 15.853-5.765q.39-.161.788-.3l.005-.003q.066-.03.131-.066a40 40 0 0 0 3.653-2.177c3.489-2.493 7.179-4.612 10.384-7.347 2.705-2.451 5.145-5.151 7.511-7.902 3.79-4.515 7.548-9.075 10.816-13.953 4.092-6.68 7.36-13.882 9.461-21.361 1.882-7.427 3.399-14.931 3.735-22.524m.564-29.175c1.293 9.495 1.756 19.121 1.669 28.689-.304 8.501-2.01 16.911-4.227 25.129-2.554 7.971-5.99 15.816-10.849 22.765-2.487 3.419-5.163 6.711-7.854 9.987-3.421 4.038-6.821 8.189-11.017 11.525-1.36 1.024-3.042 2.029-4.369 2.961-2.629 1.85-5.358 3.616-8.452 4.679q-.326.108-.652.222c-2.351 1.382-4.956 2.366-7.498 3.404-4.516 1.822-9.222 3.281-14.028 4.227-9.009 1.527-18.155 2.748-27.32 2.742q-1.603.001-3.202-.052c-6.722-.139-13.46-.332-20.114-1.325-10.184-1.148-20.166-3.401-29.978-6.212-11.112-2.865-21.936-6.75-32.186-11.729-6.217-2.877-12.299-6.018-18.031-9.714-.876-.528-1.803-1.055-2.529-1.746-.655.426-1.404.694-2.209.694q-.238 0-.483-.033c-4.858-.405-6.735-3.424-9.713-6.551a85 85 0 0 0-4.001-3.7 29 29 0 0 1-.62-.557 4 4 0 0 1-.364.356c-3.064 2.061-6.675 3.296-10.282 4.188-3.732.891-7.454 1.871-11.273 2.353-2.886.285-5.792.51-8.697.508a51 51 0 0 1-2.763-.075c-8.054-.267-14.628-1.265-21.752-5.058-9.159-4.167-17.883-9.398-24.895-16.473-5.247-5.361-9.773-11.333-14.245-17.289-5.68-7.766-10.916-15.838-15.48-24.252-1.671-2.993-3.226-6.024-4.877-9.002a49 49 0 0 1-2.593-5.064c-5.996.03-11.973.252-17.938.414-2.334.051-4.667-.013-7.004-.032a35 35 0 0 0-2.019.01c-2.617.054-5.74.11-7.412-1.543a.4.4 0 0 0 .022.075h-.043c-.439.001-.845-.203-1.17-.482-1.185-.978-1.154-2.566-1.253-3.942-.111-1.354-.244-2.703-.308-4.059-.13-3.372-.538-6.978.267-10.27l.01-.28c.017-.588.09-1.181.109-1.769-4.406-2.295-7.69-6.671-9.22-11.134-.974-2.441-1.43-5.12-.684-7.677.081-.298.21-.596.39-.857-1.973-2.375-3.547-5.058-4.521-7.932-.873-2.932-1.294-6.338.454-9.055.248-.373.534-.819.896-1.149-1.444-2.82-2.346-5.879-2.527-9.072-.33-3.651.569-8.181 4.51-9.729.244-.139 1.234-.407 1.95-.424a20 20 0 0 1-.243-5.493c.341-4.273 2.164-9.545 7.23-10.282.535-.086 1.092-.139 1.63-.06l.005.002a545 545 0 0 1-.056-3.818c.047-4.346-.394-8.717-.006-13.049.162-1.22.436-2.445.7-3.636-.005-.095.138-.152.19-.059q.17.481.308.971c1.309-2.173 7.502-2.808 9.434-2.739 9.205-.065 18.411.139 27.615.19 17.698-.112 35.396-.428 53.093-.732 11.138-.082 22.272.21 33.395.724 4.819.167 9.644.015 14.45.475 2.81.223 5.632.152 8.444.279 2.436.084 5.072.657 6.634 2.575l.002.002c.642.515 1.221 1.126 1.51 1.887.27.771.286 1.595.394 2.397.2 1.605.134 3.23.162 4.844.276 8.409.106 16.765.362 25.12.227 6.674.503 13.369.636 20.058.862-1.309 2.112-2.472 3.064-3.657 1.921-2.241 4.108-4.246 6.359-6.18 2.937-2.557 5.904-5.092 9.028-7.438 4.772-3.321 9.205-7.128 14.365-9.902 4.202-2.207 8.612-4.15 13.178-5.555.539-.145 2.424-.441 3.682-.423.014-1.618 1.804-2.669 2.757-3.822a54 54 0 0 0 3.411-3.924c1.792-2.399 4.301-5.419 7.485-4.511a119 119 0 0 0-.166-3.364c-.182-3.241-.771-6.46-.664-9.709a41.6 41.6 0 0 1-6.184.45 45 45 0 0 1-3.286-.123c-2.363-.08-4.673-.582-6.935-1.221-2.292-.63-4.561-1.383-6.615-2.564-9.67-5.573-16.458-15.137-19.163-25.529-1.468-5.29-1.604-10.753-1.375-16.19.073-4.02.277-8.035.525-12.049-2.088-1.601-3.68-3.849-4.776-6.363-1.507-3.557-1.533-7.595-.78-11.318.931-4.266 3.474-8.374 7.174-10.928q.353-.246.722-.448.22-2.498.455-4.996c.054-.598.095-1.199.133-1.801-.338.136-.738.178-1.081.074a10.6 10.6 0 0 1-1.673.121c-.447 0-.888-.021-1.31-.06-4.133-.44-7.75-2.787-10.929-5.205-2.282-1.729-4.828-4.547-3.729-7.509q.092-.187.214-.349c-4.183-2.162-6.599-7.169-6.405-11.669.031-2.913 1.84-5.558 4.38-7.094-1.775-2.222-2.563-4.984-2.895-7.723-.906-6.373 3.157-11.871 9.912-12.745 3.981-.781 8.175-.566 11.85 1.201.908.441 1.87.88 2.782 1.388l-.094-.303c-1.072-4.419 3.534-8.185 7.699-8.988 3.838-.811 7.492 1.025 10.912 2.464 1.673-7.494 13.165-10.692 19.63-6.954 2.871 1.635 5.277 3.946 7.737 6.08.529-1.674 2-3.07 3.791-3.576 4.61-1.326 9.838 1.581 14.125 3.055 1.611.633 3.354 1.243 5.074 1.447 1.87.161 3.74-.012 5.602-.172 3.022-.318 6.134-.16 8.337 2.099 2.219 1.792 4.143 3.931 5.278 6.51.143.264.24.541.302.825.415-.921 1.089-1.756 1.798-2.468.769-.767 1.799-1.225 2.847-1.54 1.381-.567 3.042-.499 4.179.516 1.373 1.612 1.163 4.12.331 5.936 1.431.113 2.938.242 4.211.928 3.448 2.008 3.091 5.506-.918 6.458 1.364 1.295 3.295 2.621 3.463 4.586.007 1.358-1.295 2.347-2.637 2.438 2.214 4.26 2.807 9.016 3.623 13.621 1.128 7.776 1.624 15.787-.549 23.442-.897 3.751-1.863 7.494-3.071 11.166-.392 1.051-.679 2.211-1.22 3.207-.228.687-.88 1.337-1.487 1.885.489.641.896 1.419 1.202 2.361 2.3 5.639.713 11.909-2.075 17.117-1.482 3.046-4.049 5.423-7.122 6.876.033.599-.005 1.204-.08 1.804-.321 2.742-1.601 5.265-2.617 7.819-.941 1.952-1.308 4.429-3.373 5.598-.094 4.931-.04 9.887.332 14.775.316 6.567 1.365 13.06 2.94 19.452.413 1.645.912 3.267 1.427 4.884q.005.02.012.039c3.503-1.876 7.008 1.958 9.821 3.732 1.588 1.151 3.647 1.837 4.843 3.408 3.894-.562 7.489 1.732 10.937 3.153 4.986 2.375 9.734 5.166 14.537 7.856 2.864 1.607 5.729 3.235 8.436 5.079 9.637 7.005 17.819 15.674 25.816 24.313 2.842 3.27 5.601 6.617 8.108 10.13 3.626 5.196 6.609 10.778 9.455 16.394 1.953 3.896 3.91 7.804 5.412 11.885a89 89 0 0 1 4.002 15.452"/><path fill="#000" d="M97.833 310.681c-.397-.089-.578-.434-.687-.799-.367-.08-.681-.577-.861-.798-.31-.336-.631-.703-.64-1.165-.013-.757.989-1.151 1.573-.664.184-.063.392-.07.583-.022.257-.23.747-.218.93.12.157.269.029.533.06.813.071.862.532 2.704-.958 2.515"/><path fill="#000" d="M98.084 311.505c-.45-.456-.187-1.191-.236-1.761-.044-.514-.134-1.024-.145-1.539-.007-.32-.04-.68.23-.916.382-.372 1.1-.189 1.225.322.15.686-.145 1.373-.168 2.059-.12.553.15 2.344-.906 1.835M95 327.717a6.3 6.3 0 0 1-.684-1.835q-.002-.008-.003-.017c-.4-.276-.377-.819-.404-1.245-.025-.733-.04-1.464-.076-2.197a38 38 0 0 0-.223-2.424c-.052-.511-.265-1.206.311-1.514.903-.378 1.303.436 1.198 1.19.106.513.048 1.051.067 1.574-.061 1.387.353 2.756.327 4.135l-.003-.002a.74.74 0 0 1-.241.436 7 7 0 0 1-.26 1.898q.001.001-.004.002-.003.003-.005-.001M97.622 325.674c-.634-1.686-.22-3.64.125-5.325.324 1.724.62 3.676-.12 5.327q-.003.002-.005-.002"/><path fill="#D4D4D4" d="M462.789 408.607c-.057-2.39 1.431-4.485 2.112-6.72.893-2.41 1.783-4.738 2.684-7.095 2.253-6.407 4.227-12.94 5.34-19.623.559-2.989.608-6.037 1.153-9.026.224-1.152.477-2.339.732-3.464.151.735.322 1.478.439 2.225 1.095 10.761-3.792 27.075-8.468 36.906-.582 1.198-1.184 2.385-1.768 3.581-.539 1.179-1.129 2.426-2.224 3.216M448.513 427.046c.362-1.961 1.883-3.409 3.006-5.006 2.088-2.641 4.131-5.436 7.11-7.231.157-.101.48-.219.617-.139-.212.037-.349.238-.447.416-.808 1.643-1.525 3.35-2.665 4.821-1.187 1.603-2.559 3.071-3.991 4.477-1.059 1.056-2.134 2.207-3.63 2.662"/><path fill="#000" d="M226.95 360.59c-1.229-2.049 1.211-4.105 3.095-4.74.314-.108 1.114-.316.963.247a.5.5 0 0 0-.01.143c-.018.048-.094-.152-.13-.166-.806 1.015-1.351 2.195-1.997 3.305-.403.686-1.157 1.026-1.918 1.214q0 0-.003-.003M219.729 370.949c-3.138-2.579 3.106-7.621 4.397-5.253h.002-.002c-.118.001-.34-.096-.494-.065-.221.041-.417.212-.551.333-1.402 1.489-1.624 3.766-3.352 4.985M214.623 380.384c-1.104-.399-1.336-1.664-1.012-2.636.225-.942 1.465-3.481 2.75-2.758.04.019.121.022.137.05-.206.061-.455.11-.51.335-.406 1.685.042 3.674-1.359 5.007q0 .002-.006.002M385.031 139.644c-.445-1.815.171-3.626.324-5.439.391-3.517.817-7.048.797-10.573a72 72 0 0 0-.158-4.489c-.198-3.876-1.167-7.751-.621-11.637 1.463 3.253 2.176 6.907 2.516 10.482.545 4.514.657 9.098-.191 13.586-.3 1.802-.734 3.583-1.24 5.342-.241.996-.708 1.978-1.427 2.728M119.505 213.243c-1.73-3.198-1.006-7.029-.843-10.494.053-.861.062-1.741.232-2.59.176-.845.733-1.596 1.217-2.293.626.988 1.171 2.07 1.051 3.258-.109 2.516-.273 5.024-.649 7.508-.233 1.535-.86 3.034-.971 4.57l.006.004c.016.007.084-.013.066.011-.04.012-.069.042-.109.026M109.695 212.867c-.015-.007.009-.013.016-.013-.003.002.01-.007.01-.004.042-.044.009-.12-.004-.163-.589-.847-1.503-1.67-2.115-2.397-1.371-1.446-2.339-3.168-3.356-4.847-.943-1.685-2.119-3.275-2.883-5.041-.222-.748-.213-1.571-.153-2.331.905.448 1.849.956 2.409 1.799 1.061 1.634 2.001 3.334 3.022 4.992 1.473 2.302 3.054 4.689 3.209 7.462.006.083.066.579-.155.543M138.209 100.368c-.921-1.648-.736-3.571-.888-5.365-.186-3.26-.236-6.526-.299-9.79-.064-3.276-.222-6.599.651-9.799.071-.177.095-.535.301-.57.018.008-.016.015-.023.015-.091.413.13.914.181 1.335.319 1.56.576 3.139.607 4.731.032 1.642.067 3.282.127 4.921.119 3.213.243 6.428.128 9.642-.091 1.64.08 3.407-.785 4.88M31.9 150.656c-.847-1.57-.644-3.407-.786-5.101-.11-1.584-.254-3.17-.33-4.757-.093-2.972-.314-5.959-.082-8.928.1-1.384.412-2.774.535-4.143-.023-.01.01-.017.02-.003 1.458 4.331 1.275 8.959 1.417 13.455-.001 1.631-.073 3.258-.12 4.886-.055 1.547.106 3.169-.652 4.594q-.002 0-.003-.003M32.687 163.161c-1.358-1.701-.617-3.924-.335-5.837v-.002h-.003l.001-.001-.029.01c-.009.001-.009-.009-.003-.011.012-.013.025-.036.044-.031.131.08.17.277.253.402.713 1.683 1.223 3.876.072 5.47M199.223 71.13a360 360 0 0 1-11.875-.73c-2.333-.105-4.581-.73-6.82-1.298.004.004.041.014.02.023-.28.005-.219-.137.037-.165 2.367-.349 4.786-.316 7.169-.145 3.48.232 6.97.244 10.454.406 1.72.056 3.528.091 4.937 1.151-1.199.682-2.548.892-3.922.759M211.125 70.796c-1.285-.047-2.618-.447-3.638-1.149 1.461-.225 2.981-.411 4.453-.157.56.114 1.117.406 1.533.758-.695.424-1.523.646-2.348.548M201.917 210.995c-1.529-.668-2.48-2.009-3.414-3.281-1.296-1.69-2.409-3.523-3.035-5.543-.111-.415-.33-.979-.173-1.354.152.608.732 1.088 1.129 1.585 1.098 1.23 2.142 2.519 3.03 3.885.981 1.486 2.264 2.912 2.463 4.708M198.733 212.336c-1.632-.674-2.574-2.155-3.601-3.459-1.195-1.596-2.176-3.393-2.726-5.288-.016-.073-.025-.193.055-.177.015.01-.015.011-.021.015 1.082 1.388 2.56 2.551 3.6 4.009 1.072 1.523 2.469 3.022 2.693 4.9M210.072 213.73c-1.577-.618-2.511-1.992-3.521-3.223-1.368-1.688-2.771-3.356-4.113-5.063-.758-1.013-1.461-2.061-2.173-3.102-.252-.292-.419-.745-.805-.867.013-.042.138-.03.187-.015.702.245 1.285.744 1.867 1.181 1.91 1.487 3.361 3.408 4.841 5.266 1.32 1.87 3.357 3.512 3.717 5.823M215.308 212.105c-1.62-.509-2.676-1.819-3.758-2.997-1.926-2.079-3.876-4.392-4.891-6.967a45 45 0 0 1 6.443 6.457c.926 1.042 1.92 2.144 2.206 3.507M220.594 211.354c-1.407-.487-2.418-1.539-3.429-2.544-1.652-1.564-3.177-3.018-4.467-4.809-.346-.548-1.089-1.464-1.094-1.98.522.65 1.354 1.067 2.01 1.605 1.245.926 2.304 1.798 3.335 2.884 1.326 1.516 3.14 2.858 3.645 4.844M226.809 209.642c-1.205-.356-2.213-1.104-3.045-1.992-.884-.863-1.8-1.696-2.6-2.635-.555-.671-2.951-3.614-2.517-4.296-.074.092.054.204.113.285.83.824 1.825 1.443 2.704 2.213 1.277 1.027 2.35 2.248 3.453 3.436.862.836 1.595 1.848 1.892 2.989M230.002 206.072c-1.932-.311-2.932-2.019-4.056-3.36-1.254-1.602-2.341-3.358-3.135-5.207 1.672 1.51 3.497 3.114 4.92 4.845.599.728 1.354 1.36 1.758 2.214.232.487.347 1.027.513 1.508M232.299 200.545c-1.488-.562-2.549-1.641-3.516-2.812a58 58 0 0 1-4.131-5.293c2.344 1.493 4.381 3.157 6.216 5.139.851.775 1.335 1.866 1.431 2.966M232.459 193.662c-1.646-.498-2.722-1.773-3.731-3.035-1.575-1.826-3.023-3.85-4.02-5.996 1.578 1.38 3.213 2.786 4.617 4.312 1.258 1.426 2.863 2.784 3.134 4.719M231.593 185.329c-1.677-.572-2.732-1.908-3.737-3.234a39 39 0 0 1-3.373-5.162c1.967 1.519 3.876 3.117 5.448 5.023.919.93 1.52 2.108 1.662 3.373M230.573 177.278c-1.645-.509-2.644-1.877-3.602-3.162-.921-1.284-1.946-2.569-2.763-3.887 1.248.906 2.464 1.864 3.589 2.91 1.23 1.155 2.674 2.389 2.776 4.139M228.117 171.03c-1.354-1.149-2.323-2.676-3.364-4.085-.378-.57-.8-1.13-1.044-1.768.112.084.238.24.361.34 1.619 1.352 3.314 2.641 4.764 4.164.561.614.79 1.407 1.074 2.152-.632-.105-1.268-.437-1.791-.803M229.043 164.463c-1.54-.309-2.606-1.439-3.487-2.609-.818-1.085-1.737-2.194-2.329-3.385 1.101.893 2.278 1.724 3.364 2.644 1.119.883 2.191 1.944 2.452 3.35M190.913 127.341c-1.968-1.165-3.118-3.332-5.048-4.491-.009.006-.01.01-.015.016-.001-.005-.003.007-.003.007-.003.004-.01.002-.01-.002 0-.018.003-.034.018-.046.212-.054.449.035.662.076 1.913.612 3.753 1.619 5.235 2.931.598.606.895 1.382 1.15 2.164-.675-.145-1.364-.338-1.989-.655M198.567 127.898c-2.828-.585-4.37-3.128-6.379-4.874-.174-.115-.409-.405-.602-.328-.043-.12.284-.08.311-.076.463.065.902.241 1.329.414 2.22 1.022 4.574 2.523 5.341 4.864M206.541 128.627c-2.138-.43-3.695-2.029-5.31-3.302-1.233-1.106-2.587-2.265-3.514-3.588 2.131 1.151 4.346 2.237 6.221 3.785 1.132.8 2.18 1.804 2.603 3.105M211.335 129.1c-2.38-.703-3.951-2.693-5.487-4.45-.581-.739-1.274-1.452-1.646-2.311-.012-.021.023-.122.025-.059.098.228.432.358.622.507 2.481 1.684 5.554 3.385 6.486 6.313M216.641 128.971c-1.609-.217-2.816-1.259-3.889-2.347-1.558-1.585-3.4-3.287-4.236-5.28l.006.019-.002-.002c1.385 1.279 3.153 2.319 4.517 3.589 1.349 1.204 2.862 2.376 3.604 4.021M219.276 125.293c-1.471-.137-2.508-1.161-3.365-2.216-.729-.924-1.607-1.871-1.898-3.008 1.648 1.768 4.769 2.63 5.263 5.224M221.03 122.903c-.794-.759-1.385-1.712-1.856-2.681-.172-.487-.507-1.026-.377-1.548.047.149.169.336.3.465.945 1.045 2.166 1.873 2.958 3.037.237.426.371.908.398 1.378-.518-.113-1.014-.318-1.423-.651M224.782 120.132c-1.654-.267-2.684-1.565-3.528-2.834-.796-1.191-1.619-2.477-1.987-3.832.966 1.149 2.119 2.138 3.207 3.18 1.084.952 2.07 2.065 2.308 3.486M226.737 115.28c-1.13-.545-1.818-1.605-2.682-2.447-1.434-1.587-2.854-3.264-3.758-5.184.169.132.347.336.519.471 2.273 1.771 4.543 3.604 6.396 5.786.372.556.583 1.188.751 1.825a7 7 0 0 1-1.226-.451M227.497 109.633c-1.763-.416-2.713-1.916-3.761-3.191-1.299-1.628-2.576-3.366-3.534-5.176 1.921 1.526 3.739 3.077 5.307 4.913.53.612 1.081 1.091 1.448 1.796.258.526.403 1.107.54 1.658M227.726 103.919c-1.681-.275-2.763-1.549-3.736-2.755a24.7 24.7 0 0 1-2.522-3.8c-.122-.235-.289-.508-.245-.78.665.889 1.916 1.579 2.695 2.335 1.57 1.417 3.496 2.839 3.808 5M227.312 96.897c-1.624-.497-2.657-1.76-3.624-3.024-1.082-1.466-2.418-3.005-3.106-4.61 1.604 1.33 3.427 2.615 4.775 4.179.993.97 1.739 2.112 1.955 3.455M225.782 89.076c-1.598-.323-2.678-1.491-3.531-2.745-.779-1.175-1.821-2.323-2.201-3.675 1.931 2.03 5.13 3.471 5.732 6.42M226.322 84.103c-1.839-.42-3.096-1.818-4.28-3.129-1.159-1.41-2.711-2.922-3.399-4.55 1.321 1.254 3.122 2.336 4.448 3.57 1.338 1.148 2.796 2.382 3.231 4.109M88.524 180.348c-1.799-.014-2.342-1.977-3.558-2.838-.06.021-.016.083-.04.077-.159-.215.242-.247.411-.185 1.381.392 3.174 1.417 3.187 2.946M94.087 180.045c-2.84-.469-4.194-3.234-5.939-5.122l-.001-.001c1.073.342 2.171 1.077 3.138 1.721 1.273.839 2.504 1.893 2.802 3.402M99.193 180.009c-3.013-.744-4.404-3.796-6.678-5.489-.04-.066.258-.008.262.002 1.198.345 2.238 1.056 3.228 1.769 1.343.984 2.744 2.096 3.188 3.718M104.42 180.353c-2.974-.875-4.693-3.608-6.868-5.532 1.153.268 2.22 1.049 3.244 1.65 1.493.996 3.05 2.177 3.624 3.882M110.005 181.311c-3.222-.857-5.807-4.439-7.821-6.853 1.856.982 3.687 2.287 5.289 3.676 1.048.89 2.097 1.884 2.532 3.177M114.695 180.558c-1.562-.316-2.744-1.33-3.77-2.44-1.133-1.243-2.397-2.534-3.154-3.999l.002.002q.007.001.002.008c1.23.946 2.592 1.759 3.796 2.75 1.295 1.008 2.645 2.103 3.124 3.679M118.458 179.636c-1.426-.228-2.489-1.138-3.354-2.19-.777-.865-1.528-1.775-2.05-2.805-.059-.128-.169-.362-.109-.482.39.61 1.153.966 1.725 1.421 1.496 1.118 3.402 2.144 3.788 4.056M123.3 179.701c-2.057-.368-3.405-2.059-4.69-3.463-.652-.777-1.536-1.604-1.925-2.472-.004 0 .009.01.003.01 2.359 1.76 5.602 3.032 6.612 5.925M125.762 176.221c-1.361-.204-2.257-1.206-2.995-2.232-.648-.868-1.282-1.765-1.695-2.76-.062-.133.048-.078.018-.067h-.002c1.665 1.538 4.304 2.665 4.674 5.059M128.189 172.618c-1.601-.373-2.647-1.594-3.573-2.809-.828-1.04-1.568-2.153-2.07-3.373-.135-.357-.358-.74-.267-1.13.05.21.206.422.363.588 1.846 2.223 4.711 3.89 5.547 6.724M127.703 165.304c-1.575-.487-2.644-1.683-3.544-2.95-.823-1.121-1.728-2.218-2.314-3.472-.025-.066-.08-.206-.024-.271.037.169.228.318.37.445.768.64 1.575 1.243 2.278 1.848 1.419 1.198 3.016 2.495 3.234 4.4M128.643 160.422c-.997-.397-1.95-.946-2.548-1.833-1.488-1.887-2.88-3.875-4.054-5.923 1.306 1.013 2.566 2.079 3.721 3.249 1.255 1.306 2.789 2.623 2.881 4.507M128.096 155.268c-1.539-.563-2.497-1.819-3.275-3.144-.747-1.211-1.564-2.466-2.042-3.773 1.013 1.02 2.131 1.947 3.115 2.998 1.109 1.085 2.15 2.348 2.202 3.919M125.588 148.453c-.914-1.04-1.669-2.172-2.404-3.32-.319-.625-.93-1.237-.894-1.962.061.21.254.414.441.563 1.465 1.212 2.951 2.42 4.196 3.848.509.651.784 1.46.996 2.226-.867-.282-1.729-.677-2.335-1.355M128.009 143.407c-1.945-.406-3.05-2.059-4.13-3.483-.475-.801-1.402-1.714-1.158-2.672.038.392.403.735.676.978 1.712 1.532 4.182 2.805 4.612 5.177M126.315 136.953c-.981-.637-1.674-1.694-2.334-2.572-.286-.474-.705-.962-.783-1.508.014-.014.013.024.019.032.015.03.046.056.071.085 1.269.927 2.682 1.739 3.712 2.925.315.425.459.913.583 1.411a3.15 3.15 0 0 1-1.268-.373M126.961 130.39c-1.258-.109-2.08-1.021-2.766-1.941-.631-.824-1.305-1.663-1.718-2.601.842.614 1.767 1.212 2.596 1.872.919.675 1.842 1.5 1.888 2.67M123.951 123.54c-.367-.271-.952-.897-1.033-1.259.484.251 1.047.433 1.45.81.149.155.247.373.231.578a.95.95 0 0 1-.648-.129M47.407 177.729c-1.585-.97-2.94-2.279-4.175-3.626-.024-.03-.145-.124-.112-.154-.002.003.012.007.016.01 1.796.755 3.72 1.394 5.253 2.6.482.455.835 1.056 1.044 1.657-.698-.066-1.399-.173-2.026-.487M56.076 179.818c-2.699-.94-4.338-3.495-6.814-4.77a.2.2 0 0 0-.078.008c-.006-.002-.03.019-.025-.001.102-.111.302-.076.432-.063 2.336.362 4.377 1.744 6.175 3.146.607.537 1.014 1.242 1.328 1.964-.338-.058-.7-.186-1.038-.294zM62.536 179.956c-1.63-.267-2.912-1.244-3.997-2.381-1.014-1.045-2.222-2.136-2.775-3.451 2.235 1.915 5.728 2.898 6.772 5.832M65.622 179.499a24.3 24.3 0 0 1-4.528-4.917c.852.443 2.168 1.388 3.141 2.048 1.448 1.035 2.965 2.152 3.572 3.843-.772-.168-1.533-.524-2.185-.974M70.345 179.206c-1.113-.543-1.95-1.543-2.779-2.396-.456-.524-1.018-1.13-1.292-1.712l.002.005c1.446.918 2.993 1.722 4.288 2.837.468.426.8 1.002.989 1.59-.407-.027-.828-.162-1.208-.324M151.038 124.735c-2.118-.373-3.281-2.247-4.469-3.776-.312-.36-.544-.878-.992-1.084l-.001.002-.002.001-.001.002c.001.005-.008.007-.009 0-.01-.065.184-.028.202-.025.452.104.851.357 1.247.58 1.665 1.062 3.611 2.305 4.025 4.3M157.459 125.753c-1.659-.423-2.831-1.636-3.932-2.821-.803-.868-1.626-1.73-2.325-2.586 2.503 1.121 5.49 2.679 6.257 5.407M162.83 126.513c-1.641-.37-2.768-1.552-3.754-2.781-.833-1.043-1.801-2.086-2.3-3.313l.002-.001c0-.004.007-.003.009.001 2.029 1.927 5.283 3.219 6.043 6.094M168.665 128.068a6.7 6.7 0 0 1-3.071-2.151c-1.17-1.362-2.306-2.779-3.155-4.328 2.269 1.857 5.484 3.509 6.226 6.479M172.038 126.225c-1.141-.203-1.901-1.076-2.53-1.941-.595-.831-1.194-1.712-1.545-2.656 1.491 1.328 3.807 2.487 4.075 4.597M160.082 205.338c-2.159-.324-3.225-2.404-4.243-4.026-.062-.178-.57-.929-.181-.915.004 0 .004.009 0 .01-.025.01-.055.014-.065.041v.015c1.57 1.519 4.309 2.445 4.489 4.875M167.296 206.978c-1.702-.328-2.941-1.53-3.983-2.774-.82-.927-1.729-1.921-2.449-2.863 2.428 1.323 5.711 2.831 6.432 5.637M175.484 209.209c-1.496-.448-2.588-1.516-3.639-2.572-1.465-1.45-2.86-3.188-4.137-4.681l.006.005c2.547 1.245 7.036 4.567 7.77 7.248M177.312 207.004c-1.4-1.38-2.777-2.918-3.916-4.451l.004.004c1.871 1.034 3.725 2.21 5.233 3.705.462.528.755 1.224.953 1.867-.83-.223-1.647-.538-2.274-1.125M183.71 207.067c-1.455-.296-2.388-1.414-3.231-2.496-.58-.741-1.176-1.485-1.595-2.324-.015-.017-.143-.314-.068-.285v.001l-.001.003c1.666 1.6 4.496 2.636 4.895 5.101"/><path fill="#fff" d="M425.467 186.921c5.206 0 9.426 4.032 9.426 9.006 0 4.973-4.22 9.005-9.426 9.005s-9.428-4.032-9.428-9.005 4.219-9.006 9.428-9.006M452.085 186.921c5.206 0 9.426 4.032 9.426 9.006 0 4.973-4.22 9.005-9.426 9.005s-9.428-4.032-9.428-9.005 4.221-9.006 9.428-9.006M480.174 186.921c5.208 0 9.428 4.032 9.428 9.006 0 4.973-4.22 9.005-9.428 9.005-5.205 0-9.426-4.032-9.426-9.005s4.221-9.006 9.426-9.006"/><path fill="#E5E5E5" d="M527.188 269.471c-1.823-.581-2.465-2.184-3.331-3.652-1.398-2.289-2.739-4.638-4.378-6.778-2.507 2.408-5.049 4.789-7.476 7.271-1.569 1.711-3.456 3.634-4.877.565-1.746-2.986-3.517-6.145-6.519-8.151-2.476 1.823-4.294 4.31-6.256 6.605-1.144 1.124-3.291 4.87-5.185 3.867-1.097-.86-1.803-2.11-2.683-3.165-1.42-1.759-2.408-3.835-3.991-5.467-3.278 2.707-6.132 6.063-10.17 7.761-.034-.007-.05-.046-.03-.07.86-1.483 1.849-2.904 3.006-4.188a153 153 0 0 1 5.614-5.191c2.608-2.231 4.376 1.764 5.619 3.466 1.134 1.6 2.334 3.155 3.546 4.703 2.15-2.092 3.837-4.586 5.898-6.762.899-.96 1.813-1.911 2.813-2.776.436-.369.916-.76 1.51-.852 1.297-.162 2.207.981 3.105 1.696 2.569 2.22 4.034 5.264 5.782 8.057 2.499-2.469 4.905-5.025 7.463-7.442.735-.635 1.245-1.539 2.158-1.957 1.989-.606 2.995 1.725 3.915 2.98a151 151 0 0 1 2.819 4.438c.962 1.542 2.122 3.155 1.655 5.037.002.003-.004.006-.007.005"/></g><defs><clipPath id="a"><rect width="542" height="452" fill="#fff" rx="8"/></clipPath></defs></svg>