<svg xmlns="http://www.w3.org/2000/svg" width="630" height="552" fill="none"><path fill="#D4D4D4" d="M315 551.371c173.97 0 315-7.496 315-16.743s-141.03-16.742-315-16.742S0 525.382 0 534.628s141.03 16.743 315 16.743" opacity=".4"/><path fill="#007FFF" d="M565.503 532.198H306.4c-10.37 0-18.856-8.486-18.856-18.856V43.44c0-10.37 8.486-18.856 18.856-18.856h259.103c10.371 0 18.856 8.485 18.856 18.856v469.902c-.002 10.373-8.485 18.856-18.856 18.856"/><path fill="#1E40AF" d="M560.362 532.198H301.258c-10.37 0-18.855-8.486-18.855-18.856V43.44c0-10.37 8.485-18.856 18.855-18.856h259.104c10.37 0 18.856 8.485 18.856 18.856v469.902c0 10.373-8.486 18.856-18.856 18.856"/><path fill="#DBEAFE" d="M562.244 480.907H299.376a6.11 6.11 0 0 1-6.109-6.108V44.276a6.11 6.11 0 0 1 6.109-6.109h262.868a6.11 6.11 0 0 1 6.109 6.109V474.8a6.11 6.11 0 0 1-6.109 6.106"/><mask id="a" width="276" height="443" x="293" y="38" maskUnits="userSpaceOnUse" style="mask-type:luminance"><path fill="#fff" d="M562.244 480.907H299.376a6.11 6.11 0 0 1-6.109-6.108V44.276a6.11 6.11 0 0 1 6.109-6.109h262.868a6.11 6.11 0 0 1 6.109 6.109V474.8a6.11 6.11 0 0 1-6.109 6.106"/></mask><g mask="url(#a)"><path fill="#60A5FA" d="M372.464 533.284a92 92 0 0 0 7.277-3.341c51.982-26.618 65.718-80.391 77.789-132.9 9.3-40.464 19.214-84.928 51.795-113.589 50.986-44.853 146.414 36.438 171.001-44.961C702.802 164.08 586.723 24.429 528.037-9.3c-75.394-43.335-180.882 1.898-185.223 90.28-1.763 35.871 13.826 95.339-17.636 122.802-35.178 30.71-71.211-5.617-101.056-24.16-90.409-56.174-160.384 13.157-98.424 99.358 20.39 28.371 71.425 65.789 58.373 106.872-11.674 36.75-65.454 53.984-20.447 98.212 20.806 20.448 51.958 19.176 78.933 21.86 14.768 1.469 28.066 4.571 41.441 11.155 13.339 6.568 26.023 14.806 40.338 19.182 3.387 1.035 6.836 1.855 10.34 2.363 12.747 1.853 25.812-.461 37.788-5.34"/></g><path fill="#007FFF" d="M457.315 514.692h-53.007c-5.316 0-9.642-4.325-9.642-9.64s4.326-9.64 9.642-9.64h53.007c5.315 0 9.642 4.324 9.642 9.64 0 5.315-4.327 9.64-9.642 9.64m-53.007-16.564c-3.819 0-6.926 3.105-6.926 6.924 0 3.816 3.107 6.923 6.926 6.923h53.007c3.819 0 6.926-3.107 6.926-6.923a6.93 6.93 0 0 0-6.926-6.924z"/><path fill="#2563EB" d="m474.4 231.376 2.119 13.173 3.449 21.54.218 1.331 7.849 49 .326 2.037 1.929 12.114.136.815.679 4.346.135.788 4.862 30.367.191 1.168.135.815 4.319 26.944.163.951 1.304 8.284.244 1.44 3.07 19.176H356.11l31.127-194.289c-16.731-11.191-28.9-28.629-33.164-49-1.141-5.243-1.712-10.675-1.712-16.243 0-43.324 35.121-78.471 78.444-78.471 1.738 0 3.45.054 5.134.19 40.96 2.635 73.337 36.669 73.337 78.281 0 6.301-.733 12.413-2.146 18.28a78 78 0 0 1-3.911 12.033 77 77 0 0 1-3.966 8.094 78.7 78.7 0 0 1-24.853 26.836"/><path fill="#3B82F6" d="m474.4 231.376 2.119 13.173 3.449 21.54.217 1.331 7.85 49 .326 2.037 1.929 12.114.136.815.679 4.346.135.788 4.862 30.367.19 1.168.136.815 4.319 26.944.163.951 1.304 8.284.244 1.44 3.07 19.176H366.377l31.127-194.289c-16.731-11.191-28.9-28.629-33.164-49.001-1.141-5.242-1.712-10.674-1.712-16.242 0-41.613 32.377-75.646 73.311-78.281 40.96 2.635 73.337 36.668 73.337 78.281 0 6.301-.733 12.413-2.146 18.28a78 78 0 0 1-3.911 12.032 77 77 0 0 1-3.966 8.095 78.7 78.7 0 0 1-24.853 26.836"/><path fill="#1E40AF" d="M496.428 368.87c-6.682 1.956-13.689 4.618-20.235 6.112-.272.054-.571.135-.842.19-4.862 1.032-9.426 1.385-13.391.326-12.549-3.396-15.347-10.268-15.727-18.253v-.842c-.109-3.721.272-7.687.38-11.626.027-.271.027-.543.027-.814a54 54 0 0 0-.027-3.64c0-.272-.027-.543-.054-.815a28 28 0 0 0-.652-4.781c-1.766-7.768-8.094-12.603-14.396-17.247a6 6 0 0 0-.679-.516c-7.116-5.297-13.934-10.539-13.662-19.856.081-3.015.679-5.731 1.466-8.23.082-.272.163-.57.272-.842 2.689-8.176 7.008-14.341 1.657-23.115h-.027c-.109-.244-.272-.462-.408-.706-.706-1.086-1.575-2.2-2.58-3.368-2.879-3.314-5.758-6.682-8.067-10.05-.136-.217-.299-.462-.435-.679-5.921-8.909-7.687-17.764 4.536-25.478.245-.136.489-.272.761-.435.163-.108.326-.19.489-.298 6.546-3.803 16.297-6.302 23.875-2.472 3.232 1.657 5.405 4.264 7.442 7.035.163.217.299.434.462.652 2.418 3.341 4.726 6.79 8.556 9.045 3.26 1.901 6.655 3.069 10.05 3.911.245.081.489.136.761.19 3.667.896 7.279 1.44 10.538 2.282l3.45 21.539.217 1.331 7.85 49 .326 2.037 1.929 12.115.135.815.68 4.345.135.788 4.862 30.367.19 1.168z"/><path fill="#fff" d="m488.035 316.42.326 2.037a748 748 0 0 0-7.605-11.978v-.027a14 14 0 0 0-.516-.815 735 735 0 0 0-13.282-19.855c-.218-.354-.462-.68-.679-1.006-6.221-8.936-11.897-16.595-17.004-23.114-.244-.326-.462-.625-.706-.897-4.645-5.948-8.828-10.946-12.549-15.129a10 10 0 0 1-.733-.815c-14.26-15.944-21.485-19.991-21.621-20.1l-.082-.081c-.135-.109-.163-.299-.081-.462a.4.4 0 0 1 .516-.163c.027 0 .136.082.326.19 1.575 1.005 8.963 5.949 22.055 20.671.082.108.191.217.299.326v.027c1.983 2.2 4.047 4.617 6.247 7.279.299.353.598.706.924 1.087v.054a375 375 0 0 1 5.867 7.279v.027c.109.109.163.163.217.272 0 0 .027.027.027.054 2.689 3.396 5.46 7.063 8.421 11.082v.028c.353.434.679.923 1.032 1.385v.054a450 450 0 0 1 8.094 11.354c.054.054.082.136.136.19 1.874 2.689 3.775 5.514 5.758 8.447l.815 1.223v.027a488 488 0 0 1 6.981 10.675c.108.054.19.163.217.271a937 937 0 0 1 6.6 10.403"/><path fill="#fff" d="M436.495 245.609a.4.4 0 0 1-.212.043c-17.522-1.314-26.705 5.066-26.795 5.131a.383.383 0 0 1-.549-.092.393.393 0 0 1 .09-.549c.09-.065 9.48-6.614 27.314-5.275.217.017.38.207.364.421a.39.39 0 0 1-.212.321M449.778 261.637a.4.4 0 0 1-.234.041c-18.641-2.515-28.9 3.183-29.009 3.229-.198.095-.431.044-.537-.146a.39.39 0 0 1 .146-.538c.106-.054 10.577-5.881 29.506-3.327a.393.393 0 0 1 .337.442.38.38 0 0 1-.209.299M443.655 253.999a.396.396 0 0 1-.573-.298c-2.184-16.417 2.738-24.78 2.95-25.128a.39.39 0 0 1 .54-.133.394.394 0 0 1 .136.541c-.051.084-4.987 8.501-2.844 24.614a.4.4 0 0 1-.209.404M467.479 285.817a.38.38 0 0 1-.296.027c-23.596-7.154-48.05 2.947-48.294 3.051a.395.395 0 0 1-.516-.21.4.4 0 0 1 .209-.516c.247-.106 24.956-10.316 48.829-3.077a.394.394 0 0 1 .264.491.4.4 0 0 1-.196.234M459.227 274.181a.396.396 0 0 1-.57-.28c-2.836-15.762 6.53-31.76 6.625-31.921a.39.39 0 0 1 .54-.138.393.393 0 0 1 .136.54c-.092.158-9.308 15.909-6.527 31.38a.385.385 0 0 1-.204.419M481.226 306.446a.4.4 0 0 1-.21.044c-23.579-1.63-49.432 10.933-49.69 11.057a.394.394 0 0 1-.355-.703l.005-.003c.261-.13 26.304-12.782 50.092-11.139a.396.396 0 0 1 .158.744M480.185 267.42c-3.449 7.008-6.464 16.487-5.948 27.624v.027a.43.43 0 0 1-.217.38c-.055.027-.109.027-.163.027a.357.357 0 0 1-.408-.353c-.027-.434-.054-.869-.027-1.304-.272-11.272 2.988-20.806 6.546-27.732zM489.013 254.138l-.136.136a7 7 0 0 0-.299-.788.44.44 0 0 1 .435.082.45.45 0 0 1 0 .57M491.104 335.732l.136.788c-18.742-1.928-44.165 8.122-44.464 8.23-.054.027-.109.027-.163.027a.37.37 0 0 1-.353-.244.39.39 0 0 1 .217-.516s.055-.027.163-.055c2.146-.842 26.239-9.995 44.464-8.23M490.29 330.572l.135.815c-18.089-3.558-43.377 8.746-43.649 8.882-.054.027-.081.054-.163.054a.47.47 0 0 1-.38-.217.44.44 0 0 1 .19-.543s.054-.028.136-.055c1.765-.869 20.344-9.561 36.804-9.561 2.363 0 4.699.19 6.927.625"/><path fill="#CDEFF9" d="M502.214 405.049c-2.716 5.677-6.791 9.235-12.087 10.648-28.385 7.496-84.963-47.371-91.183-53.51 4.21-.842 25.098-4.644 47.289-4.943 18.85-.272 38.651 2.01 50.059 10.81l-.19-1.168c-11.652-8.501-31.236-10.728-49.869-10.484-24.745.326-47.832 5.025-48.24 5.106-.163.028-.271.136-.326.299-.081.136 0 .299.109.408 2.526 2.553 62.201 62.336 92.541 54.296 5.242-1.385 9.289-4.753 12.141-10.022z"/><path fill="#CDEFF9" d="M493.495 392.881a864 864 0 0 0-14.776-5.677h-.011c-3.463-9.366-2.686-21.032-2.678-21.149a.42.42 0 0 0-.388-.448.415.415 0 0 0-.448.389c-.009.116-.756 11.413 2.496 20.83l-.003-.003a854 854 0 0 0-19.692-6.98c-.017-.008-.041-.008-.06-.016-.025-.011-.046-.014-.074-.019-.029-.006-.051-.022-.084-.022a618 618 0 0 0-13.336-4.4h-.014c-5.272-8.366-5.191-13.883-5.191-13.937a.415.415 0 0 0-.407-.429.416.416 0 0 0-.432.404c-.008.226-.054 5.465 4.84 13.589l-.021-.008c-17.683-5.595-28.71-8.366-28.928-8.42s-.462.082-.516.299a.43.43 0 0 0 .326.516c.272.054 17.137 4.291 42.642 12.902-9.04 5.028-13.399 13.708-13.443 13.795-.1.22-.016.462.193.563a.42.42 0 0 0 .56-.19c.043-.09 4.503-8.986 13.765-13.81a770 770 0 0 1 34.455 12.652l.025.011c-7.57 4.042-15.078 17.778-15.407 18.384a.416.416 0 0 0 .171.567c.204.109.46.033.571-.168.081-.15 8.168-14.972 15.71-18.381 2.497.978 5.02 2.008 7.568 3.037l-.163-.951a368 368 0 0 0-7.198-2.906c-.025.003-.025.003-.052-.024"/><path fill="#fff" d="M303.714 123.925c2.831-3.137 6.294-5.934 10.447-6.429 4.319-.516 8.545 1.578 12.003 4.213 3.46 2.637 6.462 5.867 10.115 8.225 4.704 3.031 8.988 3.354 14.064 1.456 8.85-3.309 16.67-8.853 25.131-13.052s18.228-7.078 27.327-4.528c1.293.362 2.594.853 3.583 1.76 2.795 2.567 2.018 7.071 1.086 10.748-.931 3.678-1.51 8.274 1.464 10.629 2.195 1.738 5.338 1.366 8.084.809a122 122 0 0 0 19.956-5.839c6.356-2.464 13.714-5.422 19.613-2.005 4.053 2.349 6.128 7.472 5.3 12.082-2.116 11.777-16.078 12.516-25.625 12.483l-99.128-.318q-20.568-.066-41.136-.133c-6.47-.021-12.834-.7-19.266-1.043-1.693-.089-3.444-.32-4.879-1.222s-2.466-2.643-2.061-4.289c.309-1.271 1.361-2.208 2.404-2.999 4.997-3.783 11.144-5.293 16.835-7.689 6.293-2.648 9.601-6.929 13.939-12.011q.367-.428.744-.848M507.13 184.413a78 78 0 0 1-3.911 12.033c-24.935.081-49.815.217-74.723.298-10.376.028-21.947 1.196-32.132-1.575-6.546-1.793-3.287-6.139 1.222-8.23 7.171-3.341 14.477-6.437 21.729-9.643 9.371-4.155 18.932-8.365 29.227-9.479 3.395-.353 7.035-.326 10.022 1.412 4.835 2.852 6.112 10.268 2.445 14.26-.299.353-.652.679-.733 1.114-.163.733.407 1.44 1.005 1.928 2.933 2.499 7.035 3.097 10.837 3.233a64.3 64.3 0 0 0 16.297-1.521c6.22-1.413 12.305-3.749 18.715-3.83"/><path fill="#1D4ED8" d="M311.562 170.514h-1.225a4.23 4.23 0 0 0-4.23 4.229v27.227c0 3.213-2.629 5.843-5.842 5.843h-28.8c-3.213 0-5.842-2.63-5.842-5.843v-27.227a4.23 4.23 0 0 0-4.23-4.229H217.38v-19.323c0-5.84-4.24-11.085-10.052-11.672-6.671-.673-12.351 4.604-12.351 11.145v227.894c0 17.691-14.331 31.79-32.021 32.038q-.332.003-.663.016c-19.956.617-36.533 16.884-37.497 36.829-1.076 22.237 16.707 40.669 38.714 40.669 1.439 0 2.86-.092 4.259-.247-.207 1.619-.351 3.257-.351 4.93 0 21.371 17.387 38.76 38.761 38.76 21.373 0 38.76-17.386 38.76-38.76 0-1.673-.142-3.311-.351-4.93 1.402.155 2.82.247 4.259.247 22.007 0 39.787-18.429 38.714-40.666-.961-19.945-17.538-36.215-37.497-36.832q-.335-.01-.665-.016c-17.688-.248-32.022-14.347-32.022-32.038V262.161h6.598a4.23 4.23 0 0 0 4.229-4.229v-2.002c0-3.227 2.64-5.864 5.864-5.864h28.754c3.213 0 5.843 2.629 5.843 5.842v2.027a4.23 4.23 0 0 0 4.229 4.229h38.684c7.271 0 13.22-5.949 13.22-13.22v-65.183c.005-7.288-5.954-13.247-13.236-13.247M143.016 449.35c0-11.302 9.194-20.496 20.497-20.496s20.496 9.197 20.496 20.496c0 11.302-9.194 20.497-20.496 20.497-11.303-.003-20.497-9.197-20.497-20.497m63.165 63.937c-11.302 0-20.496-9.197-20.496-20.497 0-11.302 9.194-20.496 20.496-20.496s20.497 9.194 20.497 20.496c-.003 11.303-9.197 20.497-20.497 20.497m42.669-84.436c11.302 0 20.496 9.197 20.496 20.497 0 11.302-9.197 20.496-20.496 20.496s-20.494-9.194-20.494-20.496c0-11.3 9.195-20.497 20.494-20.497"/><path fill="#F4A556" d="M139.257 197.627c17.859-.541 11.288-12.03 6.541-27.42-3.803-12.329-25.492-12.894-24.957-.179.054 1.317.109 2.773.193 4.297l-.003-.003c0 4.33 3.189 32.735-1.119 37.171-4.533 4.666-2.233 8.456 9.336 9.404 11.53.945 18.535-3.722 11.973-7.848-4.18-2.629-4.718-9.982-4.474-15.512.804.063 1.619.117 2.51.09M217.38 272.808l-2.868-7.149 2.548-4.272 4.837-1.244 1.782 4.243-2.8 5.076z"/><path fill="#223451" d="m217.38 262.023-34.99-3.719-27.925-41.259a9 9 0 0 0-.489-.657c-1.564-1.926-3.74-3.048-6.019-3.357l-.011-.019-15.659-2.692a32.5 32.5 0 0 0-13.217.459l-7.812 1.909c-3.547-.081-6.988 1.837-8.653 5.232L80.47 263.071l-.429.875a6.37 6.37 0 0 0 2.52 8.29l23.621 13.787c-.065 7.812-.337 12.891-.337 12.891h49.788c4.074-16.903 4.851-33.089 4.615-45.024l12.415 15.284.652.804a5.73 5.73 0 0 0 5.033 2.057l39.03-4.148a2.954 2.954 0 0 0 2.621-2.621 2.946 2.946 0 0 0-2.619-3.243m-111.277 11.918-10.275-8.882 8.917-14.629c.807 8.132 1.195 16.278 1.358 23.511"/><path fill="#003056" d="M111.975 171.158c7.828 11.791 8.499 19.024 10.124 22.137 1.727 1.347 6.092 1.211 8.643.26.41-.152.627-.537.953-.825 10.949-9.686 16.381-21.062 16.553-27.909.225-9.075-3.396-13.69-13.185-13.356 0 0 1.641 4.414-2.434 4.754-4.074.339-11.429-1.981-19.578.793 0 0 3.96 1.868 2.773 2.998s-8.431 4.246-3.849 11.148"/><path fill="#F4A556" d="M146.069 178.516c-.133 3.558.106 6.829-3.27 5.905s-3.806-5.332-2.581-7.958c1.524-3.265 5.957-.796 5.851 2.053"/><path fill="#1E40AF" d="m166.848 407.793-.025-.003c.37-4.12.348-8.281-.127-12.421l-11.061-96.455h-49.788L88.667 407l.014.013c-15.958 44.408-17.837 117.126-17.837 117.126H82.93s31.448-112.065 35.666-129.742l-.043.016c.201-.763.426-1.521.6-2.292l10.868-48.669 12.926 67.753c-9.021 44.638-2.2 112.934-2.2 112.934h12.087s11.155-91.563 13.755-114.064q.076-.62.141-1.239c.038-.35.084-.739.117-1.043"/><path fill="#223451" d="M152.833 524.141s13.067 6.236 21.976 6.31l1.114 4.177h-36.53l1.114-10.487zM82.929 524.141s2.708 3.292 10.883 6.31l1.114 4.177H69.874l.968-10.487z"/><path fill="#DBEAFE" d="M211.428 102.768c10.622-31.09-10.807-66.556-47.863-79.216-37.057-12.66-75.707 2.28-86.329 33.37s10.808 66.556 47.864 79.216 75.707-2.28 86.328-33.37"/><path fill="#1E40AF" d="M109.795 60.421c3.218-13.573-5.176-27.185-18.75-30.403-13.572-3.218-27.184 5.176-30.402 18.75-3.218 13.572 5.176 27.184 18.749 30.402s27.185-5.176 30.403-18.749"/><path fill="#fff" d="M97.43 54.56 78.082 43.388V65.73z"/><path fill="#60A5FA" d="M157.776 66.22h63.14c9.798 0 17.813 8.016 17.813 17.816v15.675c0 9.797-8.015 17.813-17.813 17.813h-28.055l-26.616 13.222c-3.694 1.837-8.032-.852-8.032-4.978v-8.244h-.437c-9.798 0-17.813-8.016-17.813-17.813V84.036c0-9.797 8.015-17.815 17.813-17.815"/></svg>