<svg xmlns="http://www.w3.org/2000/svg" width="630" height="604" fill="none"><path fill="#DBEAFE" d="M480.831 399.016H70.388c-9.862 0-17.855-8.031-17.855-17.935V71.188h428.3c9.862 0 17.856 8.03 17.856 17.937V381.08c-.002 9.904-7.996 17.935-17.858 17.935"/><path fill="#fff" d="M203.663 105.606v100.151c0 4.527-3.642 8.185-8.148 8.185H95.81a8.04 8.04 0 0 1-4.764-1.552 8.13 8.13 0 0 1-3.384-6.633V105.606c0-4.526 3.642-8.203 8.148-8.203h99.705c4.506 0 8.148 3.677 8.148 8.203M456.677 131.722H222.072a3.484 3.484 0 0 1-3.476-3.492V112.7a3.483 3.483 0 0 1 3.476-3.491h234.605a3.483 3.483 0 0 1 3.476 3.491v15.53a3.484 3.484 0 0 1-3.476 3.492M456.677 165.193H222.072a3.484 3.484 0 0 1-3.476-3.492v-15.53a3.484 3.484 0 0 1 3.476-3.492h234.605a3.484 3.484 0 0 1 3.476 3.492v15.53a3.484 3.484 0 0 1-3.476 3.492M456.677 198.663H222.072a3.483 3.483 0 0 1-3.476-3.491v-15.53a3.484 3.484 0 0 1 3.476-3.492h234.605a3.484 3.484 0 0 1 3.476 3.492v15.53a3.483 3.483 0 0 1-3.476 3.491"/><path fill="#1E40AF" d="M275.61 231.199H91.052v1.848H275.61zM290.942 252.136H91.052v1.848h199.89zM225.513 272.575H91.052v1.848h134.461z"/><path fill="#fff" d="M125.074 360.186c17.194 0 31.131-14 31.131-31.27s-13.937-31.27-31.131-31.27c-17.193 0-31.13 14-31.13 31.27s13.937 31.27 31.13 31.27"/><path fill="#007FFF" d="M120.82 360.186c17.193 0 31.131-14 31.131-31.27s-13.938-31.271-31.131-31.271-31.131 14.001-31.131 31.271 13.938 31.27 31.131 31.27"/><path fill="#fff" d="m118.217 345.63-15.453-17.549 5.511-4.898 9.852 11.189 16.844-19.765 5.59 4.806z"/><path fill="#000" d="M154.379 118.623s-11.812-5.812-22.75.615c-10.938 6.426-7.529 22.368-7.529 22.368s-14.889 13.538-16.967 27.797c-2.079 14.259 5.148 18.275 5.148 18.275l24.487-10.048 11.08-44.526zM176.779 184.499s6.404-20.853 1.65-27.631c-5.008-7.143-13.544-7.883-13.296-13.625.576-13.339-8.834-19.848-8.834-19.848l-2.269 52.529z"/><path fill="#1E40AF" d="M188.14 213.942h-86.518c-.736-15.852 2.685-31.407 19.846-43.859 3.016-2.18 13.371-7.205 23.156-5.894 22.31 2.993 40.371 15.408 42.431 37.91z"/><path fill="#000" d="M134.675 122.141s-13.583-22.216-21.561-8.615c-7.979 13.601 11.723 33.975 19.691 27.356 7.967-6.62 1.87-18.741 1.87-18.741"/><path fill="#FC8165" d="m139.281 153.476-.168 15.914s2.476 2.016 10.567 2.762c6.027.556 8.135-1.027 8.135-1.027l-1.499-13.692-14.591-3.386z"/><path fill="#000" d="M141.729 154.047c.031.38.169.829.388 1.347 3.025 6.979 11.478 8.566 14.958 8.915l-.758-6.876z"/><path fill="#FC8165" d="M159.738 125.769s7.083 17.513 4.117 27.168c-2.965 9.656-11.749 7.894-16.98 5.876s-7.596-5.333-7.596-5.333-4.975 1.55-8.154-3.143c-3.178-4.692-1.011-9.928 1.836-11.066s6.143.99 6.143.99l-2.494-5.101s11.705-25.283 23.128-9.391"/><path fill="#000" d="M139.104 140.261s7.357 1.768 12.797-6.331c5.443-8.1 5.09-11.517 5.09-11.517l4.826 8.734s1.357-5.887-.87-9.752c-2.228-3.865-4.705-3.169-4.705-3.169l-16.483 3.516-4.769 13.001zM158.39 147.814a.616.616 0 0 1-.579-.819c1.072-3.115-1.17-6.619-1.192-6.654a.617.617 0 0 1 .178-.854.617.617 0 0 1 .85.178c.107.162 2.597 4.04 1.326 7.733a.62.62 0 0 1-.583.416"/><path fill="#000" d="M151.146 135.616a.615.615 0 0 1-.569-.846c1.486-3.732 3.892-3.024 3.995-2.989a.615.615 0 0 1 .403.772.61.61 0 0 1-.76.407c-.077-.024-1.462-.333-2.497 2.269a.62.62 0 0 1-.572.387M162.109 133.348a.615.615 0 0 1-.601-.49c-.044-.212-.254-.8-.661-.979-.38-.168-.886.057-1.245.271a.614.614 0 0 1-.842-.216.62.62 0 0 1 .213-.846c.887-.53 1.685-.646 2.373-.338 1.054.468 1.337 1.715 1.365 1.855a.616.616 0 0 1-.602.743M138.123 148.421a.6.6 0 0 1-.459-.208l-4.517-5.136a.62.62 0 0 1 .053-.871.61.61 0 0 1 .866.054l4.517 5.136a.618.618 0 0 1-.46 1.025"/><path fill="#000" d="M133.213 146.923a.617.617 0 0 1-.072-1.23l3.256-.387a.61.61 0 0 1 .682.542.617.617 0 0 1-.539.685l-3.255.386q-.036.004-.072.004M161.648 141.142a.615.615 0 0 1-.611-.548l-.351-3.189a.63.63 0 0 1 .147-.473l1.26-1.454a.61.61 0 0 1 .866-.061.617.617 0 0 1 .061.87l-1.083 1.251.323 2.919a.617.617 0 0 1-.612.685M152.223 141.564a.615.615 0 0 1-.61-.562l-.291-3.194a.61.61 0 0 1 .195-.51l1.828-1.683a.613.613 0 0 1 .868.039.62.62 0 0 1-.038.872l-1.604 1.476.263 2.889a.615.615 0 0 1-.556.671z"/><path fill="#fff" d="M149.998 173.035c-4.113 0-9.005-1.079-13.629-4.812a.63.63 0 0 1-.095-.883.625.625 0 0 1 .879-.097c10.255 8.285 21.968 2.7 22.085 2.644a.628.628 0 0 1 .55 1.129c-.073.035-4.212 2.019-9.79 2.019M172.512 213.763a.627.627 0 0 1-.471-1.039c9.859-11.38-1.179-30.33-1.291-30.52a.626.626 0 1 1 1.074-.643c.48.809 11.608 19.929 1.159 31.987a.61.61 0 0 1-.471.215"/><path fill="#000" d="M156.555 153.046c-1.503 0-2.713-.896-3.265-1.558a.617.617 0 0 1 .075-.866.613.613 0 0 1 .865.072c.066.077 1.651 1.908 3.748.715a.618.618 0 0 1 .607 1.073c-.71.403-1.398.564-2.03.564"/><path fill="#1E40AF" d="M0 419.849v66.409c0 2.021 1.865 3.666 4.171 3.666h132.67c2.292 0 4.157-1.645 4.157-3.666v-66.409c0-2.021-1.865-3.666-4.157-3.666H4.171C1.865 416.182 0 417.828 0 419.849"/><path fill="#DBEAFE" d="M0 421.092v5.206h140.998v-5.206c0-2.706-1.865-4.91-4.157-4.91H4.171c-2.306 0-4.171 2.204-4.171 4.91"/><path fill="#FFAF45" d="M115.468 421.24a2.4 2.4 0 0 0 2.394 2.406 2.4 2.4 0 0 0 2.395-2.406 2.4 2.4 0 0 0-2.395-2.405 2.4 2.4 0 0 0-2.394 2.405"/><path fill="#EA366E" d="M125.532 423.646a2.4 2.4 0 0 0 2.395-2.406 2.4 2.4 0 0 0-2.395-2.405 2.4 2.4 0 0 0-2.395 2.405 2.4 2.4 0 0 0 2.395 2.406"/><path fill="#7C4FD3" d="M130.809 421.24a2.4 2.4 0 0 0 2.395 2.406 2.4 2.4 0 0 0 2.394-2.406 2.4 2.4 0 0 0-2.394-2.405 2.4 2.4 0 0 0-2.395 2.405"/><path fill="#fff" d="M51.952 444.623h75.975v-4.549H51.952zM51.952 456.707h75.975v-4.547H51.952zM51.952 468.789h75.975v-4.548H51.952zM11.745 468.79h31.87v-28.514h-31.87z"/><path fill="#1E40AF" d="M405.661 85.901H289.377c-3.426 0-6.215-2.8-6.215-6.24V6.643c0-3.442 2.789-6.24 6.215-6.24h116.286c3.427 0 6.215 2.8 6.215 6.24v73.016c-.002 3.442-2.79 6.242-6.217 6.242M289.377 2.25c-2.413 0-4.375 1.971-4.375 4.393v73.016c0 2.424 1.962 4.393 4.375 4.393h116.286c2.413 0 4.376-1.971 4.376-4.393V6.643c0-2.424-1.963-4.393-4.376-4.393z"/><path fill="#1E40AF" d="M410.957 16.459H284.082a.92.92 0 0 1-.92-.924c0-.51.412-.924.92-.924h126.875c.507 0 .919.414.919.924s-.412.924-.919.924M296.942 11.85a.92.92 0 0 1-.546-.18l-6.75-4.992a.923.923 0 0 1 1.092-1.487l6.75 4.992a.926.926 0 0 1 .195 1.291.92.92 0 0 1-.741.375"/><path fill="#1E40AF" d="M290.192 11.849a.927.927 0 0 1-.546-1.668l6.75-4.992a.917.917 0 0 1 1.285.196.926.926 0 0 1-.195 1.291l-6.75 4.992a.9.9 0 0 1-.544.181"/><path fill="#000" d="M475.828 221.79s12.055-5.283 22.7 1.617c10.648 6.902 6.544 22.678 6.544 22.678s14.282 14.181 15.735 28.519c1.453 14.336-5.942 18.031-5.942 18.031l-24.027-11.118-9.122-44.971zM448.49 277.394s-3.408-11.893 1.639-18.457c5.315-6.913 13.875-7.277 13.879-13.024.009-13.352 9.692-19.439 9.692-19.439l-.029 52.579z"/><path fill="#1E40AF" d="M438.549 557.622s-33.588 16.16-43.518 25.58c-9.93 9.421-10.436 15.835-9.292 18.989s70.619.022 70.619.022.754-19.17 8.156-17.932c7.401 1.238 3.358 18.41 3.358 18.41l21.004-.197s.968-19.059-.555-26.539c-1.645-8.072-6.309-18.972-6.309-18.972z"/><path fill="#FC8165" d="M445.72 552.05s-28.904 16.38-23.629 18.079c5.275 1.702 35.062 1.988 43.793-1.204s16.038-12.284 16.038-12.284l-19.822-9.428z"/><path fill="#FC8165" d="m481.922 556.641 3.75-16.631-35.523-7.248-5.152 26.364z"/><path fill="#1E40AF" d="M578.951 497.007s20.122 31.479 30.657 40.21 16.934 8.441 19.908 6.911c2.974-1.529-8.718-70.392-8.718-70.392s-19.029 1.622-18.724-5.908c.307-7.531 17.771-5.626 17.771-5.626l-2.796-20.912s-18.948 1.393-26.148 3.84c-7.769 2.638-17.96 8.636-17.96 8.636z"/><path fill="#FC8165" d="M572.558 490.548s19.757 26.782 20.785 21.314c1.026-5.469-2.376-35.193-6.61-43.501s-14.12-14.465-14.12-14.465l-6.86 20.924z"/><path fill="#FC8165" d="m572.613 453.896-16.894-1.68-2.762 36.305 26.682 1.873zM376.881 284.693s-25.021.434-29.549 0c-4.53-.432 0-3.684 0-3.684s-8.628-.866-5.608-3.25 31.545-2.906 37.962-1.995 15.745 2.212 15.745 2.212z"/><path fill="#2563EB" d="M473.936 267.633s-15.093.593-18.976 1.894-31.274 16.121-36.236 16.121-25.452-13.089-25.452-13.089l-30.197 17.333s18.766 38.564 48.746 42.031 41.627-8.882 41.627-8.882z"/><path fill="#1E40AF" d="M369.399 293.419c-2.544 0-6.224-2.672-6.695-3.021a.63.63 0 0 1-.13-.878.624.624 0 0 1 .875-.131c1.823 1.353 5.203 3.272 6.524 2.675 1.309-.598 1.975-4.271 2.089-6.445a.63.63 0 0 1 .318-.516.62.62 0 0 1 .604-.004c1.848 1.007 7.022 3.241 8.762 1.495 2.213-2.222 1.664-7.854 1.659-7.909a.62.62 0 0 1 .217-.541.61.61 0 0 1 .568-.128c3.697 1.005 7.32 1.323 7.755.688.926-1.355.721-3.265.717-3.283a.627.627 0 0 1 .55-.695.617.617 0 0 1 .693.55c.011.098.261 2.4-.929 4.139-1.081 1.57-5.874.624-8.269.033.072 1.823-.015 5.967-2.076 8.038-2.25 2.258-7.315.163-9.395-.846-.192 1.855-.813 5.69-2.743 6.572-.329.14-.697.207-1.094.207"/><path fill="#2563EB" d="m492.13 554.413-60.088-1.146s-13.684-49.124-14.089-94.516c-.239-26.826 6.584-55.332 12.194-74.176 3.899-13.062 7.21-21.468 7.21-21.468l33.915 2.457 6.144.444.643 47.738s2.263 70.278 3.127 81.363c.866 11.103 10.944 59.304 10.944 59.304"/><path fill="#3B82F6" d="m472.029 387.42-41.88-2.845c3.899-13.062 7.21-21.468 7.21-21.468l33.916 2.457z"/><path fill="#3B82F6" d="M510.949 348.218s6.257 36.857 8.758 58.207c1.683 14.369 13.392 29.362 26.848 33.784 13.456 4.421 26.224 6.489 26.224 6.489l1.725 52.453s-45.441 12.236-77.366-7.837c-15.963-10.035-24.891-25.183-29.882-40.417-4.543-13.865-5.981-31.174-6.035-47.269l4.495-43.939z"/><path fill="#2563EB" d="M483.574 267.741c-22.395-2.182-41.001 13.606-44.039 36.001l.518 10.343s-3.672 47.302-2.7 49.015c.973 1.711 16.774 6.047 36.432 5.068 19.658-.978 35.367-2.847 36.342-3.581.283-.214 9.374-8.559 9.266-19.881-.261-27.471-14.508-73.59-14.508-74.111 0-.351-9.301-1.685-21.311-2.854"/><path fill="#fff" d="M507.778 382.105c-11.357 0-12.429-8.887-12.439-8.975a.624.624 0 0 1 .554-.689c.371-.052.651.212.69.554.038.336 1.063 8.21 11.813 7.846a.615.615 0 0 1 .644.61.63.63 0 0 1-.607.646q-.335.007-.655.008M521.819 440.836q-.306-.001-.616-.059c-1.086-.211-1.499-.848-1.652-1.345-1.036-3.3 6.737-11.577 8.306-13.202a.624.624 0 0 1 1.068.521c-.057.436-1.449 10.735-5.149 13.41-.62.449-1.277.675-1.957.675m5.536-12.23c-3.278 3.63-7.16 8.703-6.614 10.449.037.112.119.375.699.488.559.11 1.081-.023 1.606-.4 2.207-1.596 3.65-7.044 4.309-10.537"/><path fill="#FC8165" d="M498.444 323.721s-2.051-5.879-2.836-7.756c-.786-1.877-.425-8.234-2.689-9.296-2.263-1.063-2.96 9.146-2.96 9.146s-13.382-15.197-15.865-14.502 3.243 10.968 3.243 10.968-10.017-10.898-11.926-8.947 6.619 12.792 6.619 12.792-7.636-6.581-9.142-4.456c-1.507 2.124 10.695 18.886 10.695 18.886s7.02 17.516 16.691 15.013c9.674-2.498 8.17-21.848 8.17-21.848"/><path fill="#000" d="M347.332 281.637a.62.62 0 0 1-.583-.406.627.627 0 0 1 .362-.809c.276-.106 5.829-2.199 11.446-3.124l-1.685-.468a.625.625 0 0 1-.434-.772.624.624 0 0 1 .769-.438l4.745 1.317a.628.628 0 0 1-.125 1.231c-6.301.423-14.194 3.397-14.273 3.427a.6.6 0 0 1-.222.042"/><path fill="#525252" d="M324.034 272.398h101.81l-21.161-7.806H302.875z"/><path fill="#A3A3A3" d="M323.606 276.682h102.238v-4.284H323.606z"/><path fill="#737373" d="M302.875 264.592v4.743l20.731 7.347v-4.284z"/><path fill="#A3A3A3" d="m404.683 264.593-19.207-53.723a1.68 1.68 0 0 0-1.58-1.116h-94.927a1.683 1.683 0 0 0-1.609 2.163l15.514 52.674h101.809z"/><path fill="#fff" d="m393.147 255.316-14.267-39.903a1.34 1.34 0 0 0-1.261-.893h-75.838c-.896 0-1.539.867-1.285 1.73l11.918 40.467a2.24 2.24 0 0 0 2.15 1.613h76.47c1.554 0 2.637-1.547 2.113-3.014"/><path fill="#2563EB" d="M504.885 270.595s29.882 12.147 47.929 41.468c16.643 27.043 16.967 50.843-11.216 57.774-28.183 6.934-56.395-20.51-56.395-20.51l14.653-29.754 6.657 2.599z"/><path fill="#000" d="M491.197 321.308a.525.525 0 0 1-.511-.401l-1.236-4.962a.533.533 0 0 1 .384-.643.523.523 0 0 1 .64.386l1.236 4.963a.533.533 0 0 1-.513.657M473.936 318.827a.52.52 0 0 1-.395-.179l-1.904-2.171a.53.53 0 0 1 .046-.746.524.524 0 0 1 .743.046l1.904 2.171a.531.531 0 0 1-.394.879M479.334 314.903a.53.53 0 0 1-.381-.163l-1.995-2.091a.528.528 0 0 1 .761-.732l1.996 2.092c.2.21.193.547-.017.748a.53.53 0 0 1-.364.146"/><path fill="#1E40AF" d="M539.286 331.794a.6.6 0 0 1-.335-.098c-13.066-8.284-32.429-11.493-32.623-11.524a.623.623 0 0 1-.516-.719.623.623 0 0 1 .715-.519c.197.032 19.807 3.278 33.094 11.702.29.185.378.573.193.867a.62.62 0 0 1-.528.291"/><path fill="#7C4FD3" d="M535.039 326.342c-3.803 0-8.561-.75-10.498-1.385a.63.63 0 0 1-.015-1.188c.471-.168 11.624-4.129 15.198-.665.949.918.745 1.631.541 1.973-.561.931-2.678 1.265-5.226 1.265m-8.041-2.05c4.615.931 11.629 1.117 12.192.14-.011 0-.047-.148-.338-.429-2.06-1.993-8.096-.801-11.854.289"/><path fill="#1E40AF" d="M416.27 297.847c-.537 0-.98-.224-1.262-.639-1.46-2.158 2.373-10.239 3.157-11.837a.623.623 0 0 1 1.18.214c.09.894.806 8.815-1.331 11.386-.438.529-.969.821-1.582.87a2 2 0 0 1-.162.006m1.983-9.688c-1.617 3.713-2.788 7.489-2.211 8.343.028.039.061.118.291.087.272-.022.502-.157.724-.421 1.13-1.36 1.284-5.186 1.196-8.009M506.428 364.733a.6.6 0 0 1-.293-.074c-.608-.325-14.977-8.039-19.718-14.549a.63.63 0 0 1-.033-.689.62.62 0 0 1 .618-.303c1.041.133 3.895.181 4.57-1.181.615-1.239-.96-3.964-2.1-5.394a.629.629 0 0 1 .546-1.016c.063-.002 6.355.546 8.996-2.271 2.065-2.206-2.005-8.685-3.747-10.996a.63.63 0 0 1-.055-.667c.112-.218.374-.358.576-.34.039.006 3.875.116 5.954-1.99.334-.34.485-.726.461-1.184-.081-1.524-2.006-3.418-2.742-4.02a.627.627 0 1 1 .791-.975c.125.103 3.073 2.54 3.198 4.927.044.82-.232 1.539-.82 2.134-1.687 1.707-4.194 2.187-5.674 2.318 1.729 2.503 5.619 8.82 2.967 11.65-2.268 2.426-6.489 2.716-8.702 2.716.955 1.439 2.312 3.965 1.468 5.664-.795 1.604-2.936 1.924-4.405 1.942 5.304 6.065 18.297 13.04 18.435 13.113a.63.63 0 0 1 .259.848.62.62 0 0 1-.55.337"/><path fill="#000" d="M495.359 226.174s14.541-21.595 21.919-7.656c7.377 13.941-13.197 33.425-20.867 26.46s-1.052-18.804-1.052-18.804"/><path fill="#FC8165" d="m489.387 257.275-.529 15.906s-2.562 1.905-10.679 2.293c-6.045.29-8.083-1.385-8.083-1.385l2.096-13.613 14.723-2.739z"/><path fill="#000" d="M486.917 257.737c-.048.378-.206.822-.447 1.328-3.327 6.839-11.841 8.051-15.334 8.249l1.058-6.838z"/><path fill="#FC8165" d="M470.162 228.693s-7.841 17.181-5.301 26.96 11.392 8.404 16.706 6.619 7.822-4.993 7.822-4.993 4.902 1.768 8.284-2.779c3.381-4.548 1.444-9.875-1.35-11.138-2.794-1.264-6.18.718-6.18.718l2.715-4.986s-10.588-25.774-22.696-10.401"/><path fill="#000" d="M490.143 244.08s-7.427 1.441-12.508-6.889c-5.082-8.331-4.582-11.732-4.582-11.732l-5.203 8.513s-1.098-5.941 1.295-9.704c2.393-3.762 4.839-2.958 4.839-2.958l16.314 4.24 4.195 13.198zM470.572 250.777a.614.614 0 0 1-.589-.442c-1.109-3.746 1.551-7.51 1.665-7.667a.61.61 0 0 1 .857-.14.62.62 0 0 1 .14.861c-.026.035-2.417 3.436-1.485 6.595a.616.616 0 0 1-.588.793"/><path fill="#000" d="M478.343 238.911a.61.61 0 0 1-.58-.414c-.927-2.664-2.339-2.391-2.4-2.376a.615.615 0 0 1-.734-.455.61.61 0 0 1 .431-.74c.106-.028 2.54-.63 3.864 3.162a.617.617 0 0 1-.581.823M467.487 236.156a.617.617 0 0 1-.596-.766c.035-.139.372-1.371 1.444-1.792.706-.274 1.494-.124 2.356.441a.62.62 0 0 1 .179.854.61.61 0 0 1-.85.179c-.351-.229-.857-.477-1.234-.327-.416.161-.649.739-.705.948a.61.61 0 0 1-.594.463M490.791 252.277a.618.618 0 0 1-.442-1.045l4.74-4.933a.61.61 0 0 1 .868-.015.62.62 0 0 1 .017.872l-4.74 4.933a.61.61 0 0 1-.443.188"/><path fill="#000" d="M495.764 250.997q-.049-.001-.099-.007l-3.236-.529a.613.613 0 0 1-.505-.707.61.61 0 0 1 .704-.51l3.235.528a.613.613 0 0 1 .506.708.61.61 0 0 1-.605.517M467.609 243.967a.615.615 0 0 1-.607-.711l.449-2.902-1.027-1.297a.62.62 0 0 1 .1-.867.613.613 0 0 1 .864.1l1.192 1.508a.6.6 0 0 1 .125.478l-.491 3.17a.61.61 0 0 1-.605.521M477.006 244.804c-.418-.051-.653-.362-.609-.7l.388-2.876-1.536-1.547a.616.616 0 1 1 .87-.87l1.751 1.763a.63.63 0 0 1 .175.519l-.429 3.179a.616.616 0 0 1-.61.532M472.873 256.977c-1.733 0-3.85-1.506-4.113-1.698a.62.62 0 0 1-.239-.633.62.62 0 0 1 .488-.472l7.524-1.422a.618.618 0 0 1 .62.955c-.19.277-1.9 2.719-3.636 3.189a2.5 2.5 0 0 1-.644.081m-2.067-1.888c.855.438 1.804.772 2.389.615.623-.168 1.335-.796 1.922-1.43z"/><path fill="#D2D2DB" d="m316.057 219.316 9.428 32.963c.162.567.753 1.027 1.317 1.027h46.426c.563 0 .891-.46.729-1.027l-9.428-32.963c-.164-.569-.754-1.031-1.317-1.031h-46.426c-.563 0-.891.462-.729 1.031"/><path fill="#E4E4EA" d="m316.057 219.316.467 1.633h48.472l-.467-1.633c-.164-.569-.754-1.031-1.317-1.031h-46.426c-.563 0-.891.462-.729 1.031"/><path fill="#fff" d="M332.585 233.851h-7.006l-2.014-7.037h7.006zM335.033 242.41h-7.008l-2.012-7.037h7.006zM337.379 250.969h-7.007l-2.012-7.037h7.005z"/><path fill="#1E40AF" d="M361.759 230.034h-28.181l-.3-1.05h28.181zM364.207 238.593h-28.181l-.3-1.05h28.181zM328.375 232.761l-3.296-1.961.551-.936 2.364 1.404 1.668-2.836.934.554zM330.99 241.29l-3.296-1.96.552-.937 2.361 1.406 1.67-2.837.935.554zM478.082 282.672q-.354.001-.721-.043c-1.704-.201-2.951-.879-3.708-2.012-.666-.999-.81-2.158-.786-3.055-1.716 1.145-4.671 2.828-6.238 2.056a1.54 1.54 0 0 1-.828-1.037c-.456-1.781 1.685-4.975 2.119-5.598a.62.62 0 0 1 .809-.192c.116.061 11.569 6.16 22.181-1.666a.624.624 0 0 1 .966.314c.156.484 1.457 4.776-1.03 5.967-1.746.837-3.614-.227-4.558-.927-1.004 1.749-3.974 6.193-8.206 6.193m-3.868-6.762c.082.142.11.316.062.482-.005.02-.552 2.082.421 3.532.545.811 1.49 1.303 2.811 1.458 4.342.508 7.546-5.217 7.982-6.05-4.195 1.361-8.185 1.176-11.276.578m-5.564-1.764c-.881 1.367-1.845 3.31-1.639 4.121.035.133.094.185.169.222 1.027.508 4.251-1.358 6.118-2.766a25 25 0 0 1-4.648-1.577m17.807.844a.5.5 0 0 1 .078.063c.022.02 2.133 2.004 3.776 1.217 1.002-.48.855-2.355.594-3.604a21.6 21.6 0 0 1-4.448 2.324M439.601 330.871a.63.63 0 0 1-.625-.647l.448-16.027c-.368-.927-2.358-6.392-1.526-14.179 1.245-11.663 8.821-16.428 9.143-16.624a.625.625 0 0 1 .859.209.63.63 0 0 1-.206.863c-.074.044-7.376 4.665-8.551 15.685-.861 8.057 1.464 13.627 1.488 13.682a.7.7 0 0 1 .05.266l-.453 16.16a.63.63 0 0 1-.627.612"/><path fill="#fff" d="M475.512 458.932c-3.003 0-5.334-.504-5.551-.552a.63.63 0 0 1-.474-.75.63.63 0 0 1 .747-.477c.114.03 11.394 2.457 16.198-3.647 1.475-1.873 2.073-3.686 1.78-5.385-.449-2.589-2.845-4.118-2.871-4.133a.627.627 0 0 1-.121-.966c.093-.098 9.234-9.967 3.415-20.509-1.784-3.229-4.09-5.245-6.857-5.986-4.416-1.182-8.534 1.267-8.572 1.291a.625.625 0 0 1-.936-.661c.389-1.979 1.044-7.512-.58-9.315-.39-.432-.868-.597-1.532-.543-4.607.445-8.604 6.575-8.642 6.638a.624.624 0 0 1-.865.187.633.633 0 0 1-.186-.869c.175-.271 4.361-6.701 9.574-7.203 1.035-.105 1.929.229 2.576.951 1.843 2.046 1.422 6.84 1.087 9.164 1.658-.732 4.907-1.79 8.398-.852 3.107.833 5.671 3.05 7.626 6.588 5.462 9.893-1.251 19.155-3.136 21.444.875.706 2.45 2.258 2.851 4.547.362 2.071-.32 4.221-2.029 6.392-2.989 3.796-8.006 4.646-11.9 4.646M516.667 487.902c-5.545.002-9.604-7.77-10.588-9.84-1.753.414-7.477 1.497-11.569-.949-2.036-1.218-3.355-3.124-3.923-5.67-.561-2.524-.177-4.578 1.142-6.104 2.185-2.527 6.31-2.834 8.181-2.834-.346-1.864-1.074-6.33 1.208-8.591 1.459-1.45 3.826-1.705 7.035-.752 1.036-1.459 4.926-6.187 11.345-5.091 1.681.288 2.878 1.112 3.557 2.442 1.64 3.224-.377 8.528-1.19 10.405 2.126.665 8.333 2.889 9.75 6.536.533 1.371.353 2.781-.534 4.189-3.187 5.063-8.096 5.368-10.274 5.202.655 1.868 1.782 5.91.379 8.578-.668 1.273-1.81 2.071-3.392 2.374q-.572.105-1.127.105m-10.239-11.207c.243 0 .471.143.572.377.044.107 4.683 10.634 10.559 9.489 1.205-.231 2.031-.796 2.52-1.728 1.558-2.961-.782-8.435-.806-8.491a.63.63 0 0 1 .092-.65.6.6 0 0 1 .62-.212c.254.055 6.344 1.347 10.037-4.512.671-1.066.811-2.067.425-3.059-1.45-3.736-9.535-5.968-9.618-5.99a.625.625 0 0 1-.397-.883c.033-.066 3.197-6.632 1.504-9.956-.496-.972-1.362-1.554-2.654-1.775-6.628-1.148-10.187 4.663-10.336 4.91a.63.63 0 0 1-.728.276c-2.962-.954-5.051-.85-6.226.312-2.332 2.309-.6 8.114-.581 8.171a.64.64 0 0 1-.113.578.61.61 0 0 1-.535.233c-.053-.007-5.696-.408-8.098 2.376-1.041 1.208-1.333 2.891-.863 5.005.488 2.197 1.612 3.832 3.34 4.866 4.319 2.581 11.039.708 11.109.686a.8.8 0 0 1 .177-.023M545.981 453.681c-1.231 0-2.415-.271-3.491-.929-6.125-3.737-3.914-15.648-3.817-16.152a.63.63 0 0 1 .732-.499.625.625 0 0 1 .495.735c-.024.116-2.146 11.558 3.239 14.843 5.356 3.264 14.793-5.221 14.889-5.306a.6.6 0 0 1 .504-.155.62.62 0 0 1 .443.286c.024.037 2.325 3.634 5.887 3.9 2.436.187 4.937-1.203 7.444-4.118a.625.625 0 1 1 .945.82c-2.784 3.239-5.637 4.785-8.49 4.551-3.266-.25-5.53-2.727-6.422-3.889-1.746 1.479-7.398 5.912-12.358 5.913M562.063 502.131a.63.63 0 0 1-.625-.643c0-.02-.022-2.418-3.112-5.322-2.439-2.295-8.426 1.533-10.526 3.203a.63.63 0 0 1-.574.108.63.63 0 0 1-.412-.414c-.098-.311-2.444-7.595-10.473-8.044-8.057-.466-12.865 10.166-12.913 10.274a.63.63 0 0 1-.826.317.63.63 0 0 1-.316-.829c.204-.46 4.997-11.03 13.542-11.03q.289 0 .581.017c7.243.405 10.357 5.99 11.284 8.116 2.069-1.502 8.341-5.59 11.486-2.633 3.537 3.324 3.509 6.151 3.508 6.269a.625.625 0 0 1-.624.611M514.666 424.386q-.197 0-.396-.013c-1.596-.094-2.758-.673-3.455-1.724-.927-1.393-.749-3.251-.523-4.349-3.016.218-12.439.251-14.057-7.667-1.665-8.156 6.855-13.719 9.29-15.125-.978-1.635-1.793-4.501.469-6.699 3.18-3.091 11.628 4.338 12.58 5.195a.627.627 0 0 1 .048.885.617.617 0 0 1-.881.048c-3.263-2.932-9.108-6.945-10.877-5.226-2.41 2.342-.041 5.499.059 5.631a.632.632 0 0 1-.21.944c-.11.055-10.958 5.74-9.251 14.094 1.684 8.251 13.454 6.605 13.571 6.586a.61.61 0 0 1 .574.22c.138.17.18.399.111.606-.01.026-.883 2.624.139 4.163.469.702 1.306 1.093 2.487 1.163 4.747.22 7.927-5.904 7.958-5.967a.625.625 0 1 1 1.113.567c-.141.281-3.428 6.668-8.749 6.668"/><path fill="#E5E5E5" d="M467.188 451.526c-.984 0-10.203-.205-11.115-7.688-.804-6.579 2.983-13.477 4.1-15.339-2.218-1.905-11.861-10.86-9.086-20.324 3.018-10.296 10.473-14.376 10.789-14.544a.62.62 0 0 1 .844.259.63.63 0 0 1-.257.85c-.074.039-7.315 4.022-10.177 13.789-2.829 9.646 8.976 19.251 9.093 19.347a.63.63 0 0 1 .133.833c-.05.078-5.062 7.907-4.199 14.978.822 6.741 9.82 6.584 9.926 6.584a.625.625 0 0 1 .642.612.627.627 0 0 1-.609.644zM462.689 534.514c-4.238 0-8.622-4.172-9.943-5.537-1.714 1.24-7.774 5.372-11.462 4.473-1.091-.264-1.891-.922-2.386-1.959-2.22-4.661 3.622-9.73 5.971-11.521-2.228-1.086-7.148-4.276-7.17-11.264-.005-1.599.556-2.913 1.663-3.9 2.477-2.202 7-2.095 8.624-1.974.431-2.236 2.338-9.945 8.155-10.322 1.348-.08 2.527.349 3.475 1.293 2.67 2.671 2.749 8.748 2.703 10.688 2.274.284 10.34 1.559 12.781 5.507.837 1.354.947 2.873.324 4.51-2.292 6.035-6.702 6.734-8.852 6.671 1.249 2.625 3.871 9.426-.74 12.415a5.66 5.66 0 0 1-3.143.92m-9.868-7c.172 0 .343.07.466.207.072.081 7.156 7.875 11.865 4.82 4.677-3.034-.155-11.702-.203-11.789a.627.627 0 0 1 .686-.922c.238.061 5.936 1.293 8.619-5.77.484-1.271.412-2.383-.217-3.401-2.465-3.987-12.326-4.977-12.426-4.988a.625.625 0 0 1-.564-.661c.003-.076.417-7.584-2.316-10.318-.693-.691-1.506-.994-2.512-.932-5.66.368-7.087 9.744-7.1 9.838-.048.338-.336.586-.695.532-.052-.005-5.67-.669-8.234 1.617-.839.746-1.246 1.714-1.242 2.956.026 8.057 7.074 10.431 7.374 10.527a.62.62 0 0 1 .426.51.62.62 0 0 1-.268.607c-.089.06-8.687 5.916-6.456 10.601.327.687.835 1.107 1.551 1.279 3.031.726 8.87-3.063 10.866-4.588a.63.63 0 0 1 .38-.125M424.008 491.418q-1.882 0-4.153-.588a.627.627 0 0 1 .313-1.216c3.851 1.002 6.718.634 8.519-1.09 3.52-3.369 2.019-10.883 2.003-10.957a.62.62 0 0 1 .116-.506.62.62 0 0 1 .452-.248c.359-.027 8.801-.755 11.019-10.209 2.204-9.389-8.854-13.865-9.327-14.05a.62.62 0 0 1-.358-.371.64.64 0 0 1 .038-.516c.019-.031 1.623-3.007.795-5.788-.431-1.444-1.459-2.608-3.055-3.455-.949-.504-1.935-.574-2.998-.208-4.628 1.576-8.753 10.488-8.793 10.576a.62.62 0 0 1-.828.309.626.626 0 0 1-.307-.831c.176-.388 4.392-9.494 9.527-11.242 1.392-.473 2.731-.377 3.986.286 1.905 1.013 3.139 2.431 3.669 4.216.737 2.492-.114 4.999-.603 6.128 2.492 1.175 11.607 6.145 9.474 15.236-2.053 8.746-9.215 10.682-11.466 11.078.311 2.037.916 8.212-2.479 11.463-1.385 1.319-3.239 1.983-5.544 1.983M421.904 423.091q-.241 0-.488-.013a.623.623 0 0 1-.592-.656c.019-.345.261-.643.655-.595 2.062.093 3.756-.541 5.039-1.903 4.019-4.256 3.061-14.142 3.05-14.242a.63.63 0 0 1 .403-.654c.187-.072 4.653-1.829 5.918-7.855 1.236-5.886-5.88-9.147-5.951-9.18a.63.63 0 0 1-.319-.828.63.63 0 0 1 .824-.32c.081.037 8.113 3.703 6.668 10.586-1.183 5.65-4.954 7.941-6.259 8.578.154 2.09.513 10.603-3.423 14.776-1.446 1.534-3.303 2.306-5.525 2.306"/><path fill="#fff" d="M479.586 473.928a.63.63 0 0 1-.497-.246c-22.883-29.849-19.26-64.36-17.312-82.9.127-1.202.246-2.338.349-3.395L446 386.469a.625.625 0 0 1-.587-.662c.018-.345.254-.656.658-.589l16.774.955a.625.625 0 0 1 .585.685 326 326 0 0 1-.414 4.057c-1.929 18.366-5.519 52.55 17.061 82.004a.63.63 0 0 1-.116.881.6.6 0 0 1-.375.128"/><path fill="#DBEAFE" d="M343.872 519.527H206.199c-5.205 0-9.424-4.238-9.424-9.468V325.284c0-5.229 4.219-9.469 9.424-9.469h137.673c5.205 0 9.426 4.238 9.426 9.469V510.06c-.002 5.229-4.221 9.467-9.426 9.467"/><path fill="#fff" d="M239.232 367.722h-26.353a3.445 3.445 0 0 1-3.437-3.453v-26.47a3.445 3.445 0 0 1 3.437-3.453h26.353a3.445 3.445 0 0 1 3.437 3.453v26.47a3.445 3.445 0 0 1-3.437 3.453M239.232 418.932h-26.353a3.445 3.445 0 0 1-3.437-3.453v-26.471a3.445 3.445 0 0 1 3.437-3.452h26.353a3.445 3.445 0 0 1 3.437 3.452v26.471a3.444 3.444 0 0 1-3.437 3.453M239.232 470.142h-26.353a3.445 3.445 0 0 1-3.437-3.453v-26.47a3.445 3.445 0 0 1 3.437-3.453h26.353a3.445 3.445 0 0 1 3.437 3.453v26.47a3.444 3.444 0 0 1-3.437 3.453"/><path fill="#1E40AF" d="m225.34 361.88-10.443-10.608 3.923-3.898 6 6.095 8.245-10.766 4.372 3.381zM225.34 413.09l-10.443-10.608 3.923-3.896 6 6.093 8.245-10.764 4.372 3.381zM225.34 464.301l-10.443-10.609 3.923-3.896 6 6.093 8.245-10.765 4.372 3.381zM331.121 339.512l-72.996.474.036 5.543 72.996-.474zM312.229 354.833l-54.105.352.036 5.542 54.105-.352z"/><path fill="#fff" d="m314.314 390.544-54.105.351.036 5.542 54.105-.351zM331.121 405.635l-70.913.461.037 5.542 70.912-.46zM333.202 441.337l-72.994.475.036 5.542 72.994-.474zM314.312 456.658l-54.105.352.036 5.542 54.105-.351zM220.277 71.188H52.531V34.61c0-4.966 4.008-8.992 8.951-8.992h129.855c15.983 0 28.94 13.016 28.94 29.07z"/><path fill="#1E40AF" d="M93.964 60.142a40 40 0 0 1-4.282.246q-2.027 0-2.621-.246-.595-.246-.594-.772V37.114q0-.911.908-1.3.91-.386 3.425-.385h12.965q.734 0 .734 2.649 0 2.651-.333 4.037c-.223.923-.506 1.385-.857 1.385l-7.094-.35v2.386q4.65-.21 6.222-.21.523 0 .715.561.194.562.194 2.158-.001 1.599-.35 3.054-.35 1.458-.978 1.458l-5.801-.211v7.02q.001.531-2.254.776M118.756 60.702q-2.9 0-4.978-.543-2.08-.544-3.828-1.95-3.528-2.77-3.529-10.635.002-3.298.96-5.757.962-2.459 2.674-3.896 3.355-2.809 8.701-2.809 2.762 0 4.806.492 2.042.492 3.861 1.79 3.669 2.666 3.669 10.18 0 6.74-3.32 9.934-3.32 3.195-9.016 3.194m-1.153-6.02q.42.51 1.153.509.738 0 1.154-.508.419-.509.7-2.177.278-1.666.278-4.652-.001-2.98-.278-4.598-.281-1.614-.7-2.106-.417-.491-1.154-.492-.733 0-1.153.492-.417.493-.699 2.106-.279 1.616-.277 4.598 0 2.984.277 4.652.282 1.668.699 2.177M143.151 59.37q-.001.456-2.132.737t-4.28.28q-2.149.001-2.761-.245t-.612-.772V36.797q0-.91 2.29-1.298 2.286-.386 5.784-.387 3.493.001 4.525.019a42 42 0 0 1 2.427.122q1.399.106 2.22.35.821.247 1.816.633.997.385 1.556 1.001.559.614 1.083 1.456.946 1.51.945 4.3 0 2.792-.927 4.704-.926 1.914-2.464 2.897 4.02 6.354 4.02 8.074t-6.884 1.72q-1.993 0-2.761-.176-.767-.174-.978-.772l-2.27-7.23-.594-.034v7.194zm0-12.604h.908q2.026 0 2.027-3.159 0-1.614-.541-2.282-.543-.667-1.241-.667h-1.153zM163.767 60.386h-2.533q-1.66 0-2.255-.246t-.594-.772v-22.15q.001-.806 2.15-1.28 2.147-.474 4.595-.475 2.446 0 3.494.632 1.05.633 1.223 1.334l2.377 9.267h.314l2.237-8.846q.246-.948 2.288-1.666 2.046-.72 4.491-.72 2.446 0 3.616.385 1.173.385 1.172.983v22.536q0 .455-1.992.737-1.993.28-4.858.28-2.867 0-2.867-1.017 0-2.772.594-9.864h-.314l-1.818 9.162q-.104.527-.855.772-.753.246-2.255.246-1.504 0-1.835-.211-.331-.21-.436-.807l-1.887-9.162h-.315q.63 7.232.629 9.864.003.913-4.366 1.018M438.681 150.762l.681-5.012c-.02-.016 78.629-97.397 78.629-97.397 1.738-2.15 4.974-2.405 7.229-.567s2.674 5.071.936 7.222l-78.65 97.38c-.02-.017-4.762 1.685-4.762 1.685l-3.59 1.288c-.511.183-1.059-.263-.986-.804z"/><path fill="#A3A3A3" d="M509.672 80.926c-.314 0-.629-.112-.881-.34a1.324 1.324 0 0 1-.092-1.86c.109-.118 10.788-11.986 14.722-18.214 3.239-5.13-.913-8.273-1.396-8.615a1.324 1.324 0 0 1-.328-1.83 1.305 1.305 0 0 1 1.817-.335c2.362 1.633 5.847 6.283 2.117 12.19-4.051 6.417-14.546 18.079-14.989 18.572a1.3 1.3 0 0 1-.97.432"/><path fill="#fff" d="M443.673 143.563a.398.398 0 0 1-.307-.649l14.855-18.393a.395.395 0 0 1 .558-.058.4.4 0 0 1 .057.56l-14.856 18.394a.4.4 0 0 1-.307.146"/></svg>