<svg xmlns="http://www.w3.org/2000/svg" width="630" height="649" fill="none"><path fill="#DBEAFE" d="M518.587 525.053h50.766v-16.158h-50.766zM210.047 264.615h50.766v-16.157h-50.766zM546.906 545.425c8.431-.143 30.049-.502 38.187-.596l12.578-.062-.659.658-.063-16.157.72.72c-8.429-.026-29.928-.104-38.073-.22l-12.69-.158.342-.342zm0 0-.342-16.157-.008-.338.35-.004c6.333-.084 19.051-.23 25.382-.28l25.383-.099.725-.002-.003.723-.064 16.157-.003.662-.655-.003-12.805-.062c-8.087-.09-29.609-.454-37.96-.597M305.506 424.98c8.431-.143 30.05-.503 38.188-.596l12.577-.062-.658.658-.064-16.157.721.72c-8.43-.026-29.929-.104-38.073-.221l-12.691-.157.342-.342zm0 0-.342-16.157-.007-.338.349-.005c6.333-.083 19.053-.229 25.383-.28l25.382-.098.724-.003-.003.724-.064 16.157-.003.661-.655-.003-12.805-.062c-8.087-.088-29.607-.453-37.959-.596M333.824 445.353c8.431-.142 30.05-.502 38.188-.596l12.578-.062-.659.658-.063-16.157.72.721c-8.429-.026-29.929-.104-38.073-.221l-12.691-.158.343-.342zm0 0-.342-16.157-.007-.338.349-.004c6.333-.084 19.053-.23 25.383-.28l25.383-.098.723-.003-.003.723-.063 16.157-.003.662-.656-.003-12.804-.062c-8.088-.088-29.608-.454-37.96-.597M362.03 424.98h50.766v-16.157H362.03zM.35 545.426h50.765v-16.158H.35zM28.668 26.594h50.765V10.437H28.668zM.35 46.967l25.557-.423 12.63-.173 12.578-.062-.659.658-.063-16.157.72.72-25.382-.098-12.691-.123-12.69-.157.343-.342zm0 0L.006 30.81 0 30.47l.35-.004 12.691-.157 12.691-.123 25.383-.098.723-.003-.003.725-.063 16.157-.003.662-.656-.003-12.804-.062-12.753-.174zM518.588 26.594l25.557-.423 12.63-.174 12.578-.062-.658.659-.064-16.158.721.72-25.383-.097-12.691-.123-12.69-.158.342-.342zm0 0-.342-16.158-.008-.339.35-.004 12.69-.158 12.691-.123 25.383-.098.724-.003-.003.724-.063 16.157-.003.662-.655-.003-12.805-.062-12.753-.174z"/><path fill="#DBEAFE" d="M417.464 582.95h168.599l5.422-106.981H412.041z"/><path stroke="#BAE6FD" stroke-miterlimit="10" d="M423.874 488.458h151.514l-2.3 35.824H425.845zM428.515 534.801l1.603 32.209h140.957l2.013-32.209z"/><path stroke="#BAE6FD" stroke-miterlimit="10" d="M515.961 509.739h-30.319l-.986-7.641h32.291zM515.961 554.725h-30.319l-.986-7.641h32.291z"/><path fill="#DBEAFE" d="m440.846 582.95-1.637 11.654-3.293 23.417h-6.439V582.95z"/><path fill="#BAE6FD" d="m440.846 582.95-1.637 11.654h-9.732V582.95z"/><path fill="#DBEAFE" d="m562.682 582.95 1.636 11.654 3.293 23.417h6.439V582.95z"/><path fill="#BAE6FD" d="m562.682 582.95 1.636 11.654h9.732V582.95z"/><path stroke="#DBEAFE" stroke-miterlimit="10" d="M600.397 1.285H359.181v207.404h241.216z"/><path fill="#7DD3FC" d="M370.559 8.553a2.95 2.95 0 1 1-5.902.001 2.95 2.95 0 0 1 5.902 0"/><path fill="#DBEAFE" d="M382.613 8.553a2.951 2.951 0 1 1-5.902 0 2.951 2.951 0 0 1 5.902 0"/><path fill="#1E40AF" d="M394.665 8.553a2.95 2.95 0 1 1-5.902.001 2.95 2.95 0 0 1 5.902 0"/><path stroke="#DBEAFE" stroke-miterlimit="10" d="M359.181 15.751h241.216"/><path fill="#1E40AF" d="M518.247 457.765c1.181 8.088.74 16.429-1.232 24.346-.925 3.707-2.198 7.28-3.73 10.763-1.936 4.455-3.96 8.804-3.472 13.677.471.315-1.144.263-1.196-.211-13.024-7.414-29.726-8.773-39.749-20.898-4.748-5.741-7.142-13.018-8.278-20.295-1.233-7.925-1.575-16.699.469-24.511 1.723-6.606 5.584-12.978 11.791-16.215 6.408-3.332 14.8-3.055 21.546-.96 14.555 4.521 21.792 20.226 23.851 34.304"/><path fill="#E5E5E5" d="M524.932 554.179c-1.779-5.925-3.553-11.849-5.379-17.759-3.573-11.576-7.288-23.109-11.401-34.505a524 524 0 0 0-7.795-20.283c.466-4.206.649-8.398 1.555-12.59 1.088-5.049 2.671-9.926 4.144-14.868.091-.303-.402-.463-.526-.174-2.924 6.808-6.74 15.517-6.835 23.582a386 386 0 0 0-10.236-22.407c-.207-6.272-.436-12.35.573-18.661.045-.285-.387-.368-.439-.085-.979 5.299-1.668 10.982-1.275 16.473a313 313 0 0 0-8.887-16.364c-.283-.483-.953.012-.705.489 4.895 9.424 9.435 19.046 13.694 28.796-5.9-5.233-13.044-9.194-20.42-11.826-.324-.116-.568.354-.238.492 8.394 3.509 15.441 8.469 22.086 14.623a591 591 0 0 1 8.755 21.589c-8.15-7.989-19.301-13.245-30.089-16.063-.368-.096-.464.466-.111.573 12.484 3.758 22.182 10.836 31.675 19.338a671 671 0 0 1 3.248 8.814c4.023 11.161 7.834 22.398 11.49 33.685q2.63 8.115 5.171 16.258c1.822 5.841 3.246 12.008 5.617 17.648.227.539 1.194.416 1.071-.23-1.07-5.596-3.106-11.093-4.743-16.545"/><path fill="#D4D4D4" d="M503.328 446.366c-2.333 3.576-3.891 7.507-4.691 11.693-.02.107.147.17.186.062 1.451-3.939 3.158-7.744 5.086-11.472.198-.381-.361-.621-.581-.283M480.094 473.501c-3.371-1.917-7.846-3.43-11.688-3.936-.106-.014-.172.142-.062.188 1.878.78 3.853 1.324 5.755 2.055 1.91.733 3.772 1.624 5.702 2.295.401.142.676-.384.293-.602M473.549 440.859c-1.184-.784-2.445-1.791-3.76-2.322-.207-.084-.387.172-.217.329 1.043.96 2.495 1.674 3.707 2.404.238.145.505-.257.27-.411"/><path fill="#1E40AF" d="M562.153 502.001c-9.379 2.784-18.808 5.358-28.186 8.111-.815.244-16.673-30.142-10.942-45.796 5.296-14.488 17.424-25.332 31.883-30.253 6.698-2.275 14.931-4.185 22.008-2.626 6.291 1.393 10.734 6.541 12.779 12.458 2.785 8.041 1.857 17.633.342 25.843-1.408 7.613-4.195 15.111-9.23 21.093-4.984 5.921-11.34 9.003-18.654 11.17"/><path fill="#E5E5E5" d="M575.754 473.123c-5.972 3.012-12.024 5.194-18.392 7.24-3.988 1.282-8.454 2.438-12.277 4.444 3.96-8.831 8.308-17.478 12.923-26.047 6.06-1.754 12.432-4.489 17.002-8.777.25-.234-.071-.585-.341-.394-4.999 3.531-10.51 5.653-16.04 8.041a576 576 0 0 1 3.79-6.906c.358-.64-.523-1.275-.953-.653-4.916 7.095-9.339 14.614-13.329 22.385-.989-6.856-1.345-13.535-.964-20.51.01-.177-.246-.192-.273-.02-1.16 7.376-1.105 15.182.231 22.535a251 251 0 0 0-8.978 20.104c-1.07-4.092-2.461-8.119-3.389-12.244-1.336-5.938-1.963-11.986-1.347-18.058.017-.178-.244-.191-.273-.02-1.82 10.764-.161 22.921 3.936 33.146a294 294 0 0 0-4.433 12.339c-7.004 21.105-11.322 42.865-12.451 65.083-.026.512.734.564.793.057 2.548-21.793 7.049-43.486 13.978-64.317 2.721-8.179 5.852-16.119 9.288-23.91 5.54-1.638 11.059-3.858 16.501-5.744 5.309-1.84 10.75-3.966 15.208-7.456.174-.135-.017-.416-.21-.318"/><path fill="#D4D4D4" d="M584.499 464.296c-5.736 2.041-11.174 4.897-16.905 6.966-.268.096-.113.522.157.466 6.065-1.252 12.079-3.126 16.965-7.103.189-.153-.017-.399-.217-.329M537.656 451.919c.069-.303-.376-.479-.468-.166-1.574 5.288-2.66 10.9-1.128 16.305.061.212.393.218.406-.026.274-5.445-.03-10.744 1.19-16.113M561.361 439.703c-1.924 2.455-2.615 5.939-2.49 8.993.009.202.331.319.386.081.699-3.025 1.868-5.783 2.795-8.721.137-.432-.418-.701-.691-.353"/><path fill="#1E40AF" d="M450.578 515.404c2.75 8.727 9.283 20.792 19.633 20.889 6.708.063 13.464-.732 20.189-.828 7.2-.111 14.418-.095 21.603.334.588.032-.862-21.564-18.17-32.08-4.849-2.945-10.777-3.878-16.279-5.071-6.295-1.367-12.781-2.288-19.235-2.002-3.974.158-7.281 1.002-8.696 5.071-1.477 4.261-.365 9.538.955 13.687"/><path fill="#E5E5E5" d="M458.024 504.482c4.206 1.081 8.45 2.325 12.67 3.664-1.127-1.168-2.229-2.355-3.487-3.401-1.812-1.508-3.807-2.711-5.751-4.03-.163-.112-.065-.423.143-.341 3.838 1.509 7.829 4.658 10.207 8.118 5.26 1.699 10.47 3.575 15.485 5.632a58.3 58.3 0 0 1 9.915 5.221c-1.104-2.135-2.111-4.328-3.588-6.242-2.296-2.977-5.405-4.635-8.411-6.748-.284-.2-.043-.6.27-.461 6.791 3.018 10.922 7.917 13.498 14.637 3.55 2.533 6.801 5.487 9.817 8.913 11.45 13.007 20.469 30.312 20.502 47.97.002.42-.674.54-.756.102-3.249-17.54-10.177-33.292-21.838-46.907a59 59 0 0 0-2.518-2.747c-3.15-.331-6.268-.751-9.461-.702-3.685.056-7.341.541-11.008.839-6.042.491-12.723.562-18.173-2.478-.24-.134-.078-.551.192-.453 12.149 4.418 24.893-1.187 37.071 1.448-5.195-4.983-11.098-8.739-17.96-11.583-.371-.155-.745-.298-1.117-.448-7.797.937-16.029 2.969-23.623.435-.225-.075-.135-.417.1-.36 7.338 1.833 14.374-.472 21.615-.839-7.883-3.069-15.919-5.511-23.83-8.559-.667-.257-.683-.865.036-.68"/><path fill="#D4D4D4" d="M454.585 512.158c3.806.626 7.522.647 11.349.859.086.004.114.137.021.159-3.732.839-7.814.322-11.45-.731-.187-.053-.107-.318.08-.287M480.217 504.672c2.071.717 3.997 2.472 5.617 3.906.198.175-.068.53-.286.37a64 64 0 0 0-2.921-1.986c-.902-.581-1.91-1.046-2.736-1.731-.257-.211.019-.665.326-.559"/><path fill="#1E40AF" d="M541.328 532.774c-.127.286.286.556.444.254.016 0 .016 0 .016-.016.064.08.143.159.27.175 6.995 1.51 14.021 3.052 21.144 3.688 5.722.508 12.319.826 17.327-2.497 6.787-4.499 11.255-16.533 7.582-24.178-4.339-9.077-17.423-4.15-23.988-.923-10.093 4.93-18.201 13.26-22.795 23.497"/><path fill="#E5E5E5" d="M536.252 536.97c3.851-3.767 8.109-6.903 12.625-9.609 3.094-5.255 7.844-9.618 12.801-13.048.249-.171.461.221.233.398-4.274 3.29-7.611 7.15-10.788 11.347 5.051-2.818 10.392-5.139 15.839-7.203 1.897-3.479 4.985-6.733 8.507-8.525.071-.036.16.062.091.117-3.071 2.404-5.536 4.9-7.684 8.064a280 280 0 0 1 9.716-3.398c.293-.096.403.347.125.455-5.783 2.26-11.694 4.642-17.425 7.392 7.233.97 13.745 1.194 21.102-.063.193-.033.278.245.082.301-7.097 2.026-15.235 2.401-22.389.333-3.655 1.797-7.223 3.756-10.62 5.948 2.843-.37 5.702.13 8.582.702 5.025.997 9.94 1.884 15.083 1.708.192-.006.243.307.047.342-8.751 1.506-17.024-2.472-25.696-1.437-3.212 2.208-6.25 4.645-9.034 7.377-5.45 5.35-9.811 11.745-13.172 18.586-3.651 7.431-5.632 15.307-8.582 22.983a.28.28 0 0 1-.538-.149c2.53-15.136 10.067-31.831 21.095-42.621"/><path fill="#D4D4D4" d="M562.643 516.211c.51-1.044 1.403-1.934 2.241-2.719.733-.687 1.627-1.574 2.583-1.934.088-.033.137.087.085.146-.716.815-1.717 1.411-2.489 2.191-.78.785-1.425 1.704-2.215 2.475-.111.106-.27-.028-.205-.159M577.075 520.911c1.296-.325 2.67-.302 3.989-.572 1.335-.273 2.576-.749 3.869-1.158.17-.054.268.195.119.284-2.129 1.265-5.489 2.341-7.977 1.854-.208-.043-.195-.359 0-.408"/><path fill="#37474F" d="m500.196 560.939 1.148 13.044 3.899 44.038h34.489l4.869-44.038 1.44-13.044z"/><path fill="#263238" d="m500.196 560.939 1.148 13.044h43.257l1.44-13.044z"/><path fill="#37474F" d="M496.781 567.963h52.674v-10.581h-52.674z"/><path fill="#263238" d="m6.535 618.021 73.118-.351 73.119-.127 146.238-.243 146.238.242 73.119.127 73.118.352-73.118.354-73.119.127-146.238.239-146.238-.241-73.118-.128z"/><path fill="#fff" d="M564.887 27.318H33.135v336.405h531.752z"/><path fill="#263238" d="M564.885 363.723c-.088.084-531.865.16-531.97.221-.116-.078-.059-336.494-.14-336.626v-.36h.359c.059-.051 531.819.258 531.89.22.121.078-.224 336.442-.139 336.545m0 0c.029.071-.329-337.021 0-336.265l-531.75.22.36-.36c-.04-.11.151 337.372-.358 336.186z"/><path fill="#263238" d="M564.887 27.318H33.135v12.945h531.752z"/><path fill="#DC2626" d="M45.618 33.792a2.608 2.608 0 1 1-5.216 0 2.608 2.608 0 0 1 5.216 0"/><path fill="#FDE047" d="M56.267 33.792a2.608 2.608 0 1 1-5.215 0 2.608 2.608 0 0 1 5.215 0"/><path fill="#22C55E" d="M66.916 33.792a2.608 2.608 0 1 1-5.216 0 2.608 2.608 0 0 1 5.216 0"/><path fill="#EBEBEB" d="M194.113 203.07h-54.956v72.064h54.956zM260.3 203.07h-54.955v72.064H260.3zM326.488 203.07h-54.956v72.064h54.956zM392.675 203.07H337.72v72.064h54.955zM458.861 203.07h-54.955v72.064h54.955z"/><path fill="#C7C7C7" d="M174.577 235.388c2.636 2.582 3.927 6.025 3.927 9.468 0 3.39-1.344 6.832-3.927 9.414-2.582 2.636-6.024 3.927-9.415 3.927h-.108c-3.336 0-6.831-1.291-9.361-3.927-1.237-1.131-1.237-3.067 0-4.304 1.131-1.183 3.12-1.183 4.304 0 1.398 1.454 3.227 2.151 5.165 2.151 1.828 0 3.713-.699 5.11-2.151 1.399-1.4 2.152-3.281 2.152-5.11 0-1.937-.699-3.765-2.152-5.164-1.399-1.454-3.228-2.099-5.11-2.099-1.829 0-3.767.645-5.165 2.099a3.053 3.053 0 0 1-4.304 0c-.215-.215-.377-.485-.592-.7 0-.107 0-.162-.053-.162a.4.4 0 0 0-.109-.268c0-.162-.053-.269-.053-.377 0-.054-.054-.054-.054-.109a2.6 2.6 0 0 1 0-.914l1.613-13.932c.162-.914.646-1.668 1.345-2.153.108-.053.161-.053.215-.108.053-.054.108-.054.161-.108a3 3 0 0 1 1.4-.322h15.87a3.03 3.03 0 0 1 3.065 3.066c0 1.615-1.344 3.014-3.065 3.014h-13.235l-.646 5.325a14 14 0 0 1 3.606-.484c3.392 0 6.834 1.291 9.416 3.928M240.745 235.334c2.635 2.582 3.926 6.024 3.926 9.415 0 3.387-1.291 6.831-3.926 9.467a13.4 13.4 0 0 1-9.467 3.928c-3.389 0-6.833-1.346-9.415-3.928a3.055 3.055 0 0 1 0-4.304 3.056 3.056 0 0 1 4.305 0c1.399 1.399 3.228 2.097 5.11 2.097s3.71-.699 5.164-2.097a7.2 7.2 0 0 0 2.152-5.163c0-1.883-.699-3.714-2.152-5.112-1.399-1.452-3.227-2.098-5.11-2.15a2.66 2.66 0 0 1-2.206-.969c-.053 0-.053 0-.053-.053-1.238-1.184-1.238-3.067-.109-4.304l5.487-5.596h-8.715c-1.668 0-3.012-1.344-3.012-3.066a3.006 3.006 0 0 1 3.012-3.012h15.87c1.721 0 3.067 1.344 3.067 3.012 0 .537-.161 1.022-.377 1.454-.16.268-.322.537-.537.752l-6.778 6.994c1.396.644 2.687 1.506 3.764 2.635M306.933 235.334c2.635 2.582 3.926 6.024 3.926 9.415 0 3.387-1.291 6.831-3.926 9.467a13.41 13.41 0 0 1-9.469 3.928c-3.389 0-6.831-1.346-9.415-3.928a3.055 3.055 0 0 1 0-4.304 3.056 3.056 0 0 1 4.305 0c1.399 1.399 3.228 2.097 5.11 2.097a7.38 7.38 0 0 0 5.165-2.097 7.2 7.2 0 0 0 2.151-5.163c0-1.883-.7-3.714-2.151-5.112-1.4-1.452-3.228-2.098-5.11-2.15a2.66 2.66 0 0 1-2.207-.969c-.053 0-.053 0-.053-.053-1.238-1.184-1.238-3.067-.108-4.304l5.486-5.596h-8.714c-1.667 0-3.013-1.344-3.013-3.066a3.01 3.01 0 0 1 3.013-3.012h15.869c1.723 0 3.067 1.344 3.067 3.012 0 .537-.162 1.022-.377 1.454-.16.268-.322.537-.537.752l-6.778 6.994c1.398.644 2.689 1.506 3.766 2.635M378.054 245.396c0 7.046-5.757 12.803-12.803 12.803-7.101 0-12.911-5.756-12.911-12.803 0-4.465 2.259-8.392 5.757-10.706-1.131-1.454-1.776-3.336-1.776-5.326 0-4.842 3.98-8.822 8.93-8.822 4.842 0 8.822 3.98 8.822 8.822 0 1.99-.645 3.872-1.774 5.326 3.442 2.312 5.755 6.24 5.755 10.706m-5.863 0c0-3.82-3.121-6.995-6.94-6.995-3.874 0-6.994 3.174-7.048 6.995a7.05 7.05 0 0 0 7.048 6.939c3.819-.001 6.94-3.12 6.94-6.939m-10.005-16.032a3.065 3.065 0 0 0 3.067 3.067c1.612 0 2.958-1.399 2.958-3.067 0-1.614-1.344-2.959-2.958-2.959-1.723 0-3.067 1.345-3.067 2.959"/><path fill="#1E40AF" d="M338.085 300.351h-78.15v24.481h78.15z"/><path fill="#fff" d="M276.592 314.49a.63.63 0 0 1 .883-.086c.532.435 1.452.943 2.311.933.605 0 1.149-.182 1.513-.447.362-.267.52-.571.52-.872a.7.7 0 0 0-.11-.387 1.15 1.15 0 0 0-.362-.364c-.351-.228-.945-.435-1.658-.568h-.025c-.567-.108-1.101-.254-1.56-.472s-.858-.52-1.124-.943a1.85 1.85 0 0 1-.279-.992c0-.726.411-1.354.968-1.767.569-.41 1.307-.641 2.092-.641 1.162 0 2.02.567 2.638.967.277.194.363.581.169.859a.61.61 0 0 1-.859.182c-.617-.411-1.209-.774-1.948-.774-.544 0-1.028.169-1.356.41-.326.242-.459.509-.459.763a.6.6 0 0 0 .084.338c.061.096.17.206.326.313.316.219.859.412 1.513.533h.025c.617.12 1.184.278 1.669.508.495.241.931.557 1.21 1.005.181.29.29.651.29 1.027 0 .774-.436 1.441-1.039 1.875-.594.436-1.379.69-2.24.69-1.307-.013-2.405-.665-3.097-1.21a.64.64 0 0 1-.095-.88M288.432 316.594a3.49 3.49 0 0 1-3.496-3.496v-4.306c0-.375.29-.667.666-.667.364 0 .677.292.677.667v4.306c0 1.187.967 2.154 2.154 2.154a2.15 2.15 0 0 0 2.155-2.154v-4.306c0-.375.303-.667.677-.667s.664.292.664.667v4.306a3.5 3.5 0 0 1-3.497 3.496M294.765 315.928v-7.137c0-.376.303-.667.667-.667h1.717a2.298 2.298 0 0 1 1.838 3.677 2.6 2.6 0 0 1 1.221 2.189 2.59 2.59 0 0 1-2.588 2.601h-2.142c-.013 0-.013-.012-.013-.012-.024 0-.024.012-.034.012a.67.67 0 0 1-.666-.663m1.344-4.524h1.04c.533 0 .956-.448.956-.98a.95.95 0 0 0-.956-.955h-1.04zm0 3.847h1.512a1.257 1.257 0 0 0 1.246-1.259c0-.689-.557-1.234-1.246-1.247h-1.512zM309.231 308.792v7.137a.68.68 0 0 1-.677.665.663.663 0 0 1-.664-.665v-5.092l-1.741 2.418a.66.66 0 0 1-.545.279h-.024a.68.68 0 0 1-.558-.279l-1.729-2.418v5.092a.672.672 0 0 1-1.342 0v-7.137c0-.364.303-.667.664-.667h.038c.193 0 .41.097.531.279l2.409 3.338 2.408-3.338a.66.66 0 0 1 .545-.279h.011c.36.013.674.303.674.667M312.239 308.792c0-.375.29-.667.664-.667.364 0 .678.292.678.667v7.137a.673.673 0 0 1-.678.665.655.655 0 0 1-.664-.665zM321.02 309.469h-1.924v6.46c0 .376-.29.665-.664.665a.664.664 0 0 1-.667-.665v-6.46h-1.91a.674.674 0 0 1-.665-.677c0-.375.291-.667.665-.667h5.165c.363 0 .664.292.664.667a.68.68 0 0 1-.664.677"/><path fill="#EBEBEB" d="M309.197 86.302v10.993h-3.106V86.302c0-4.18-3.175-7.579-7.081-7.579s-7.081 3.399-7.081 7.58v10.992h-3.106V86.302c0-5.986 4.57-10.855 10.187-10.855s10.187 4.869 10.187 10.855"/><path fill="#C7C7C7" d="m288.823 89.161 3.106.124v8.01h-3.106zM309.197 89.99v7.305h-3.106v-7.432z"/><path fill="#1E40AF" d="M313.178 93.227h-28.337v23.517h28.337z"/><path fill="#263238" d="m300.209 104.832 1.186 5.627h-5.035l1.187-5.627a2.509 2.509 0 0 1 1.33-4.644 2.51 2.51 0 0 1 2.517 2.517 2.52 2.52 0 0 1-1.185 2.127M145.411 175.909c0-.171.144-.317.317-.317h2.6140000000000003a2.636 2.636 0 0 1 2.626 2.64 2.625 2.625 0 0 1-2.626 2.626l-2.284.028v3.63a.324.324 0 0 1-.647 0zm2.929 4.328a2.02 2.02 0 0 0 1.993-2.007 2 2 0 0 0-1.993-1.992h-2.284v3.999zM153.052 175.909c0-.171.146-.317.316-.317.185 0 .331.145.331.317v8.605a.325.325 0 0 1-.331.318.32.32 0 0 1-.316-.318zM156.377 181.611c0-1.795 1.4-3.248 3.141-3.248 1.663 0 2.983 1.32 3.116 3.011v.052c0 .172-.145.29-.316.29h-5.305c.066 1.412 1.174 2.482 2.506 2.482.858 0 1.651-.449 2.087-1.175a.31.31 0 0 1 .423-.106c.144.106.198.291.105.449a3.08 3.08 0 0 1-2.613 1.466c-1.744 0-3.144-1.453-3.144-3.221m.675-.516h4.896c-.211-1.214-1.24-2.098-2.429-2.098-1.214 0-2.231.871-2.467 2.098M170.302 178.679v5.834a.32.32 0 0 1-.316.318.32.32 0 0 1-.316-.318v-.963c-.554.765-1.438 1.281-2.429 1.281-1.702 0-3.062-1.466-3.062-3.235s1.36-3.234 3.062-3.234c.991 0 1.875.501 2.429 1.268v-.951c0-.184.144-.316.316-.316s.316.133.316.316m-.633 2.919c0-1.451-1.095-2.614-2.429-2.614-1.32 0-2.429 1.163-2.429 2.614s1.109 2.6 2.429 2.6c1.333 0 2.429-1.149 2.429-2.6M172.598 183.485a.316.316 0 0 1 .449-.041c.449.33 1.163.753 1.98.753.501 0 .937-.159 1.229-.396.316-.211.488-.501.488-.793-.013-.303-.133-.514-.462-.791-.277-.211-.74-.37-1.373-.475l-.028-.013c-.58-.105-1.094-.238-1.465-.501-.409-.238-.699-.66-.699-1.162 0-.516.29-.963.699-1.268.382-.264.924-.436 1.584-.436.831 0 1.425.382 1.927.7a.337.337 0 0 1 .093.449.32.32 0 0 1-.436.093c-.476-.318-.951-.647-1.584-.647-.527 0-.951.144-1.228.369-.264.211-.408.475-.408.74 0 .264.118.449.369.647.29.197.726.356 1.32.449h.026a4.5 4.5 0 0 1 1.571.528c.423.277.726.78.726 1.32 0 .541-.303.977-.738 1.307a2.64 2.64 0 0 1-1.611.515c-1.043-.013-1.861-.502-2.388-.924-.135-.12-.148-.29-.041-.423M179.077 181.611c0-1.795 1.399-3.248 3.142-3.248 1.663 0 2.983 1.32 3.114 3.011v.052c0 .172-.144.29-.316.29h-5.305c.067 1.412 1.174 2.482 2.507 2.482.858 0 1.65-.449 2.086-1.175a.31.31 0 0 1 .422-.106c.144.106.198.291.105.449a3.08 3.08 0 0 1-2.613 1.466c-1.741 0-3.142-1.453-3.142-3.221m.674-.516h4.897c-.211-1.214-1.242-2.098-2.429-2.098-1.214 0-2.231.871-2.468 2.098M191.075 181.611c0-1.795 1.399-3.248 3.142-3.248 1.663 0 2.983 1.32 3.114 3.011v.052c0 .172-.144.29-.316.29h-5.305c.066 1.412 1.174 2.482 2.508 2.482a2.43 2.43 0 0 0 2.085-1.175.31.31 0 0 1 .423-.106c.144.106.198.291.105.449a3.08 3.08 0 0 1-2.613 1.466c-1.744 0-3.143-1.453-3.143-3.221m.672-.516h4.897c-.211-1.214-1.241-2.098-2.429-2.098-1.213 0-2.231.871-2.468 2.098M204.194 181.004a1.99 1.99 0 0 0-1.993-1.992c-1.096 0-1.981.896-2.007 1.992v3.5639999999999996c-.013.052-.026.105-.066.144a.28.28 0 0 1-.238.119h-.08a.35.35 0 0 1-.211-.172c-.013-.013-.013-.026-.013-.041 0-.013-.013-.026-.013-.026v-5.9c0-.171.133-.317.317-.317.17 0 .303.146.303.317v.621a2.62 2.62 0 0 1 2.007-.937 2.634 2.634 0 0 1 2.626 2.627v3.51a.313.313 0 0 1-.317.318.313.313 0 0 1-.316-.318zM209.921 178.679a.34.34 0 0 1-.318.318h-.832v4.712c0 .317.318.475.475.475.159 0 .329.171.329.329 0 .159-.17.318-.329.318-.647 0-1.135-.476-1.135-1.122v-4.712h-.805c-.317 0-.317-.159-.317-.318 0-.158 0-.316.317-.316h.805v-2.401c0-.159.159-.316.317-.316.171 0 .343.159.343.316v2.401h.832c.159 0 .318.159.318.316M211.952 181.611c0-1.795 1.399-3.248 3.142-3.248 1.663 0 2.983 1.32 3.115 3.011v.052c0 .172-.145.29-.317.29h-5.305c.067 1.412 1.174 2.482 2.507 2.482.858 0 1.65-.449 2.087-1.175a.306.306 0 0 1 .421-.106c.145.106.198.291.106.449a3.08 3.08 0 0 1-2.614 1.466c-1.741 0-3.142-1.453-3.142-3.221m.674-.516h4.897c-.211-1.214-1.241-2.098-2.429-2.098-1.214 0-2.231.871-2.468 2.098M220.175 178.694c0-.185.145-.318.329-.318.159 0 .305.133.305.318v1.425c.026-.053.052-.107.093-.159.488-.765 1.345-1.584 2.587-1.584.172 0 .318.133.318.318 0 .17-.146.316-.318.316-.845 0-1.425.475-1.874 1.056-.436.58-.687 1.24-.78 1.504-.026.054-.026.08-.026.106v2.837a.31.31 0 0 1-.305.318c-.184 0-.329-.133-.329-.318zM232.184 178.679c0 .159-.159.318-.316.318h-.832v4.712c0 .317.318.475.475.475.159 0 .33.171.33.329 0 .159-.171.318-.33.318-.647 0-1.135-.476-1.135-1.122v-4.712h-.805c-.316 0-.316-.159-.316-.318 0-.158 0-.316.316-.316h.805v-2.401c0-.159.159-.316.317-.316.171 0 .343.159.343.316v2.401h.832c.157 0 .316.159.316.316M239.695 180.91c0-1.135-.924-1.9-2.059-1.9-1.122 0-2.046.765-2.046 1.9v3.6420000000000003c0 .027-.013.039-.013.053-.013.026-.013.039-.027.052a.3.3 0 0 1-.198.159s-.013.013-.026.013h-.065a.36.36 0 0 1-.251-.105.4.4 0 0 1-.052-.107c-.013-.039-.013-.067-.013-.106v-8.605a.323.323 0 0 1 .645 0v3.406a2.67 2.67 0 0 1 2.046-.952c1.492 0 2.706 1.057 2.706 2.547v3.603a.324.324 0 0 1-.329.318.32.32 0 0 1-.316-.318zM242.572 181.611c0-1.795 1.399-3.248 3.14-3.248 1.664 0 2.983 1.32 3.116 3.011v.052c0 .172-.144.29-.317.29h-5.305c.066 1.412 1.174 2.482 2.506 2.482.858 0 1.651-.449 2.087-1.175a.31.31 0 0 1 .423-.106c.144.106.198.291.105.449a3.08 3.08 0 0 1-2.613 1.466c-1.743 0-3.142-1.453-3.142-3.221m.673-.516h4.896c-.211-1.214-1.24-2.098-2.429-2.098-1.214 0-2.231.871-2.467 2.098M259.227 175.459c2.468 0 4.409 2.098 4.423 4.686-.013 2.587-1.953 4.685-4.423 4.685-2.495 0-4.448-2.098-4.461-4.685.013-2.588 1.966-4.686 4.461-4.686m0 8.726c2.033 0 3.749-1.782 3.762-4.039-.013-2.284-1.729-4.025-3.762-4.025-2.099 0-3.814 1.741-3.814 4.025 0 2.256 1.715 4.039 3.814 4.039M268.057 176.239h-2.786a.323.323 0 0 1-.316-.33c0-.171.145-.317.316-.317h6.204a.324.324 0 0 1 0 .647h-2.786v8.275a.323.323 0 0 1-.317.318.32.32 0 0 1-.317-.318v-8.275zM274.218 175.909c0-.171.144-.317.318-.317h2.613a2.64 2.64 0 0 1 2.627 2.64 2.626 2.626 0 0 1-2.627 2.626l-2.284.028v3.63a.324.324 0 0 1-.647 0zm2.931 4.328a2.02 2.02 0 0 0 1.993-2.007 2 2 0 0 0-1.993-1.992h-2.284v3.999zM285.265 181.585c0-1.797 1.479-3.222 3.326-3.222a3.33 3.33 0 0 1 2.059.714c.131.092.159.29.039.436a.326.326 0 0 1-.436.052 2.65 2.65 0 0 0-1.664-.581c-1.504 0-2.691 1.176-2.691 2.601 0 1.451 1.188 2.613 2.691 2.613.621 0 1.202-.211 1.664-.569a.326.326 0 0 1 .436.054c.118.144.092.343-.067.462a3.35 3.35 0 0 1-2.033.686c-1.845.001-3.324-1.426-3.324-3.246M295.823 178.363c1.703 0 3.063 1.479 3.063 3.235s-1.359 3.234-3.063 3.234c-1.689 0-3.062-1.479-3.062-3.234.001-1.756 1.373-3.235 3.062-3.235m0 5.835c1.32 0 2.429-1.162 2.429-2.6s-1.109-2.614-2.429-2.614-2.428 1.176-2.428 2.614 1.11 2.6 2.428 2.6M306.488 183.577a3.08 3.08 0 0 1-2.482 1.253c-1.741 0-3.128-1.451-3.128-3.219 0-1.795 1.387-3.248 3.128-3.248 1.016 0 1.913.501 2.482 1.268v-3.722c0-.171.146-.317.329-.317.172 0 .318.145.318.317v8.607a.324.324 0 0 1-.647 0zm0-1.861v-.211c-.053-1.386-1.148-2.495-2.482-2.495-1.359 0-2.482 1.161-2.482 2.601 0 1.425 1.123 2.574 2.482 2.574 1.334 0 2.429-1.096 2.482-2.469M309.364 181.611c0-1.795 1.4-3.248 3.142-3.248 1.662 0 2.983 1.32 3.116 3.011v.052c0 .172-.147.29-.317.29h-5.307c.067 1.412 1.174 2.482 2.508 2.482.858 0 1.651-.449 2.085-1.175a.31.31 0 0 1 .422-.106c.147.106.199.291.107.449a3.08 3.08 0 0 1-2.614 1.466c-1.742 0-3.142-1.453-3.142-3.221m.673-.516h4.897c-.211-1.214-1.239-2.098-2.429-2.098-1.214 0-2.231.871-2.468 2.098M321.375 183.485a.315.315 0 0 1 .449-.041c.449.33 1.162.753 1.979.753.503 0 .938-.159 1.228-.396.317-.211.489-.501.489-.793-.013-.303-.131-.514-.462-.791-.277-.211-.739-.37-1.373-.475l-.027-.013c-.581-.105-1.096-.238-1.466-.501-.409-.238-.7-.66-.7-1.162 0-.516.291-.963.7-1.268.383-.264.924-.436 1.585-.436.832 0 1.426.382 1.927.7a.335.335 0 0 1 .092.449.317.317 0 0 1-.435.093c-.475-.318-.951-.647-1.584-.647-.528 0-.951.144-1.227.369-.264.211-.41.475-.41.74 0 .264.118.449.37.647.29.197.726.356 1.319.449h.028a4.5 4.5 0 0 1 1.569.528c.424.277.727.78.727 1.32 0 .541-.303.977-.74 1.307-.449.33-.976.515-1.61.515-1.042-.013-1.861-.502-2.389-.924-.132-.12-.146-.29-.039-.423M327.855 181.611c0-1.795 1.399-3.248 3.142-3.248 1.663 0 2.983 1.32 3.116 3.011v.052c0 .172-.147.29-.318.29h-5.306c.066 1.412 1.174 2.482 2.507 2.482.857 0 1.65-.449 2.086-1.175a.307.307 0 0 1 .422-.106c.147.106.199.291.105.449a3.08 3.08 0 0 1-2.613 1.466c-1.742 0-3.141-1.453-3.141-3.221m.673-.516h4.898c-.213-1.214-1.241-2.098-2.43-2.098-1.215 0-2.231.871-2.468 2.098M340.973 181.004a1.99 1.99 0 0 0-1.993-1.992c-1.095 0-1.979.896-2.007 1.992v3.5639999999999996a.3.3 0 0 1-.066.144.28.28 0 0 1-.238.119h-.08a.34.34 0 0 1-.21-.172c-.013-.013-.013-.026-.013-.041 0-.013-.013-.026-.013-.026v-5.9a.31.31 0 1 1 .62 0v.621a2.62 2.62 0 0 1 2.007-.937 2.635 2.635 0 0 1 2.627 2.627v3.51a.315.315 0 0 1-.316.318.314.314 0 0 1-.318-.318zM346.701 178.679c0 .159-.159.318-.316.318h-.832v4.712c0 .317.316.475.474.475s.33.171.33.329c0 .159-.171.318-.33.318-.646 0-1.135-.476-1.135-1.122v-4.712h-.804c-.318 0-.318-.159-.318-.318 0-.158 0-.316.318-.316h.804v-2.401c0-.159.159-.316.317-.316.172 0 .344.159.344.316v2.401h.832c.157 0 .316.159.316.316M355.939 178.679c0 .159-.159.318-.317.318h-.832v4.712c0 .317.315.475.474.475s.33.171.33.329c0 .159-.172.318-.33.318-.646 0-1.135-.476-1.135-1.122v-4.712h-.805c-.317 0-.317-.159-.317-.318 0-.158 0-.316.317-.316h.805v-2.401a.34.34 0 0 1 .317-.316c.172 0 .344.159.344.316v2.401h.832a.34.34 0 0 1 .317.316M361.522 178.363c1.702 0 3.062 1.479 3.062 3.235s-1.359 3.234-3.062 3.234c-1.69 0-3.063-1.479-3.063-3.234 0-1.756 1.373-3.235 3.063-3.235m0 5.835c1.319 0 2.428-1.162 2.428-2.6s-1.107-2.614-2.428-2.614-2.429 1.176-2.429 2.614 1.109 2.6 2.429 2.6M370.429 178.668c0-.172.144-.305.303-.305.185 0 .331.133.331.305v3.51a1.98 1.98 0 0 0 1.979 1.993 2.004 2.004 0 0 0 2.007-1.993v-3.51c0-.053.013-.118.052-.159 0-.013.013-.027.013-.039.013 0 .013-.013.028-.013a.24.24 0 0 1 .118-.079h.028c.013 0 .026-.013.039-.013h.079a.7.7 0 0 1 .159.066.3.3 0 0 1 .079.106.24.24 0 0 1 .041.132v5.648c0 1.689-1.373 3.036-3.076 3.036-.475 0-.924-.118-1.334-.303-.144-.093-.211-.277-.131-.422.079-.159.251-.198.408-.159.317.159.688.252 1.057.252a2.43 2.43 0 0 0 2.442-2.403v-.423c-.49.554-1.2.924-2.007.924a2.643 2.643 0 0 1-2.614-2.639v-3.512zM381.094 178.363c1.702 0 3.062 1.479 3.062 3.235s-1.359 3.234-3.062 3.234c-1.69 0-3.063-1.479-3.063-3.234 0-1.756 1.372-3.235 3.063-3.235m0 5.835c1.319 0 2.428-1.162 2.428-2.6s-1.107-2.614-2.428-2.614-2.429 1.176-2.429 2.614 1.107 2.6 2.429 2.6M386.241 178.668c0-.185.145-.316.318-.316.17 0 .315.131.315.316v3.524c0 1.109.885 1.993 1.981 2.007a2.016 2.016 0 0 0 2.007-2.007v-3.524a.32.32 0 0 1 .316-.316c.185 0 .331.131.331.316v3.524a2.643 2.643 0 0 1-2.653 2.64c-1.451 0-2.613-1.189-2.613-2.64v-3.524zM394.463 178.694c0-.185.144-.318.331-.318a.31.31 0 0 1 .303.318v1.425c.026-.053.052-.107.092-.159.488-.765 1.346-1.584 2.586-1.584.172 0 .318.133.318.318 0 .17-.144.316-.318.316-.844 0-1.426.475-1.874 1.056-.435.58-.686 1.24-.778 1.504-.026.054-.026.08-.026.106v2.837a.31.31 0 0 1-.303.318c-.185 0-.331-.133-.331-.318zM408.836 181.004a1.99 1.99 0 0 0-1.993-1.992c-1.096 0-1.98.896-2.007 1.992v3.5639999999999996a.3.3 0 0 1-.065.144.28.28 0 0 1-.238.119h-.08a.34.34 0 0 1-.21-.172c-.013-.013-.013-.026-.013-.041 0-.013-.013-.026-.013-.026v-5.9a.31.31 0 1 1 .62 0v.621a2.62 2.62 0 0 1 2.007-.937 2.635 2.635 0 0 1 2.627 2.627v3.51a.315.315 0 0 1-.318.318.313.313 0 0 1-.316-.318zM412.174 178.668c0-.185.144-.316.318-.316a.31.31 0 0 1 .314.316v3.524c0 1.109.886 1.993 1.981 2.007a2.015 2.015 0 0 0 2.007-2.007v-3.524a.32.32 0 0 1 .317-.316c.185 0 .33.131.33.316v3.524a2.643 2.643 0 0 1-2.652 2.64c-1.451 0-2.614-1.189-2.614-2.64v-3.524zM429.65 181.004c-.028-1.096-.898-2.007-2.007-2.007-1.096 0-1.993.911-1.993 2.007v3.564c0 .013-.013.026-.013.026v.026a.33.33 0 0 1-.159.172.36.36 0 0 1-.159.039h-.066c-.013 0-.028-.013-.028-.013-.027 0-.051-.026-.079-.039-.013 0-.027-.013-.039-.026l-.04-.039c-.013-.013-.013-.026-.026-.026 0-.013 0-.013-.013-.028 0 0 0-.013-.013-.026 0-.013 0-.026-.013-.039v-3.589a2.003 2.003 0 0 0-1.993-2.007 2.003 2.003 0 0 0-1.993 2.007v3.524a.28.28 0 0 1-.144.25c-.013.013-.052.039-.079.039-.013.013-.028.013-.052.013h-.08c-.12-.013-.225-.118-.264-.238v-5.916c0-.17.144-.303.303-.303.185 0 .318.133.318.303v.621a2.58 2.58 0 0 1 1.993-.924c1.003 0 1.861.554 2.31 1.373a2.68 2.68 0 0 1 2.323-1.373 2.62 2.62 0 0 1 2.625 2.626v3.525a.31.31 0 0 1-.315.303.306.306 0 0 1-.303-.303zM432.946 181.742v-5.835a.32.32 0 0 1 .316-.316c.184 0 .331.144.331.316v3.722a3.09 3.09 0 0 1 2.481-1.267c1.742 0 3.129 1.452 3.129 3.247 0 1.769-1.387 3.22-3.129 3.22a3.07 3.07 0 0 1-2.481-1.253v.937a.325.325 0 0 1-.331.317.32.32 0 0 1-.316-.317zm.648-.132c0 1.426 1.122 2.575 2.481 2.575 1.373 0 2.482-1.148 2.482-2.575 0-1.439-1.109-2.6-2.482-2.6-1.333 0-2.429 1.109-2.481 2.495zM441.195 181.611c0-1.795 1.399-3.248 3.142-3.248 1.662 0 2.983 1.32 3.116 3.011v.052c0 .172-.147.29-.318.29h-5.306c.067 1.412 1.174 2.482 2.508 2.482.858 0 1.651-.449 2.085-1.175a.307.307 0 0 1 .422-.106c.147.106.199.291.107.449a3.08 3.08 0 0 1-2.614 1.466c-1.743 0-3.142-1.453-3.142-3.221m.673-.516h4.896c-.21-1.214-1.238-2.098-2.428-2.098-1.213 0-2.23.871-2.468 2.098M449.417 178.694c0-.185.144-.318.33-.318a.31.31 0 0 1 .304.318v1.425c.026-.053.052-.107.092-.159.488-.765 1.346-1.584 2.586-1.584.172 0 .318.133.318.318 0 .17-.146.316-.318.316-.845 0-1.427.475-1.874 1.056-.435.58-.686 1.24-.78 1.504-.026.054-.026.08-.026.106v2.837a.31.31 0 0 1-.303.318c-.185 0-.331-.133-.331-.318zM234.291 149.785c-.051-.05-.101-.076-.179-.127 0-.026-.026-.026-.026-.076a.7.7 0 0 1-.127-.153s-.026 0-.026-.026a.9.9 0 0 0-.129-.204l-6.244-14.885a1.356 1.356 0 0 1 .765-1.809c.689-.307 1.504.026 1.81.739l4.97 11.801 4.97-11.801c.306-.713 1.148-1.046 1.836-.739.713.281 1.045 1.121.765 1.809l-6.296 14.885c-.026.051-.05.153-.102.204 0 .026 0 .026-.026.026-.026.05-.101.101-.127.153s-.026.052-.051.076c-.05.051-.102.077-.153.127l-.05.026c-.051.026-.129.103-.204.129-.026 0-.026 0-.05.026-.077 0-.128.026-.204.05h-.051c-.101.026-.179.026-.255.026s-.179 0-.256-.026h-.05a.6.6 0 0 0-.204-.05c0-.026-.026-.026-.026-.026h-.026c-.05-.026-.153-.103-.229-.153 0 0 .001-.002-.025-.002M244.647 143.669c.026-3.467 2.727-6.372 6.219-6.372 3.314 0 5.939 2.472 6.142 5.913v.127c0 .052 0 .179-.026.229-.076.611-.612 1.02-1.325 1.02h-8.105c.129.586.409 1.249.866 1.682.536.612 1.555 1.07 2.446 1.146.919.077 2.015-.153 2.651-.636.536-.561 1.581-.484 1.912-.077.331.357.586 1.122 0 1.656-1.249 1.147-2.752 1.682-4.563 1.682-3.49-.024-6.191-2.905-6.217-6.37m2.778-1.249h7.212c-.255-1.02-1.555-2.523-3.773-2.702-2.164.101-3.235 1.656-3.439 2.702M268.383 138.647a1.36 1.36 0 0 1-1.351 1.351c-.586 0-1.096.153-1.529.485-.485.307-.867.74-1.173 1.223-.612.816-.918 1.785-1.045 2.142v4.843c0 .739-.638 1.351-1.402 1.351a1.36 1.36 0 0 1-1.352-1.351v-10.043c0-.739.611-1.325 1.352-1.325.764 0 1.402.586 1.402 1.325v.179c.153-.179.357-.382.536-.509.84-.561 1.936-1.02 3.211-.995.764-.002 1.351.585 1.351 1.324M274.506 134.11c0 .766-.587 1.402-1.376 1.402-.766 0-1.376-.638-1.376-1.402v-.535c0-.764.612-1.377 1.376-1.377.789 0 1.376.613 1.376 1.377zm0 4.614v9.941c0 .765-.587 1.376-1.376 1.376a1.37 1.37 0 0 1-1.376-1.376v-9.941c0-.816.612-1.402 1.376-1.402.789 0 1.376.586 1.376 1.402M283.072 136.455v.357h.766c.765 0 1.402.612 1.402 1.402 0 .764-.637 1.402-1.402 1.402h-.766v8.997c0 .765-.612 1.402-1.402 1.402s-1.402-.637-1.402-1.402v-8.997h-.663c-.789 0-1.426-.638-1.426-1.402 0-.79.637-1.402 1.426-1.402h.663v-.357c0-.943.101-1.759.484-2.498a3.03 3.03 0 0 1 1.835-1.58 5.2 5.2 0 0 1 1.529-.203c.765 0 1.402.638 1.402 1.402 0 .79-.637 1.428-1.402 1.428-.33 0-.56.026-.663.076-.102.026-.128.051-.153.077-.024-.001-.228.355-.228 1.298M290.9 134.11c0 .766-.586 1.402-1.376 1.402-.766 0-1.376-.638-1.376-1.402v-.535c0-.764.612-1.377 1.376-1.377.79 0 1.376.613 1.376 1.377zm0 4.614v9.941c0 .765-.586 1.376-1.376 1.376a1.37 1.37 0 0 1-1.376-1.376v-9.941c0-.816.612-1.402 1.376-1.402.791 0 1.376.586 1.376 1.402M294.396 143.695c0-3.544 2.957-6.372 6.474-6.398 1.528 0 2.956.56 4.052 1.402.586.459.687 1.325.281 1.886-.509.612-1.327.714-1.912.255-.662-.483-1.478-.816-2.42-.816-2.064 0-3.772 1.707-3.772 3.671 0 1.962 1.708 3.644 3.772 3.644.917 0 1.759-.33 2.42-.816.561-.433 1.403-.33 1.912.281.407.56.305 1.376-.281 1.885-1.096.79-2.524 1.352-4.052 1.352-3.517 0-6.474-2.856-6.474-6.346M320.629 143.695v4.996a1.36 1.36 0 0 1-1.351 1.351c-.664 0-1.172-.485-1.325-1.096a5.8 5.8 0 0 1-3.39 1.096 5.92 5.92 0 0 1-4.334-1.861c-1.095-1.172-1.732-2.752-1.732-4.485 0-1.758.637-3.339 1.732-4.486 1.096-1.172 2.601-1.912 4.334-1.912 1.273 0 2.421.434 3.39 1.122.154-.636.663-1.122 1.325-1.122.74 0 1.351.611 1.351 1.376zm-2.702 0c0-1.07-.381-1.988-.995-2.625a3.15 3.15 0 0 0-2.369-1.046c-.919 0-1.784.357-2.37 1.046-.611.637-.969 1.555-.969 2.625 0 1.045.357 1.962.969 2.625.586.638 1.453.995 2.37.995.892 0 1.758-.357 2.369-.995.614-.663.995-1.581.995-2.625M331.365 138.698c0 .765-.662 1.402-1.428 1.402h-.636v7.111c.791 0 1.402.637 1.402 1.426 0 .79-.611 1.402-1.402 1.402a2.84 2.84 0 0 1-2.829-2.828V140.1h-.739a1.397 1.397 0 0 1-1.402-1.402c0-.79.61-1.402 1.402-1.402h.739v-3.695c0-.79.637-1.403 1.428-1.403s1.401.613 1.401 1.403v3.695h.636c.766.001 1.428.612 1.428 1.402M338.608 134.11c0 .766-.586 1.402-1.376 1.402-.764 0-1.377-.638-1.377-1.402v-.535c0-.764.613-1.377 1.377-1.377.79 0 1.376.613 1.376 1.377zm0 4.614v9.941c0 .765-.586 1.376-1.376 1.376a1.37 1.37 0 0 1-1.377-1.376v-9.941c0-.816.613-1.402 1.377-1.402.79 0 1.376.586 1.376 1.402M344.169 148.18c-1.096-1.122-1.76-2.702-1.76-4.485 0-1.734.664-3.237 1.76-4.46 1.146-1.197 2.623-1.937 4.383-1.937 1.683 0 3.21.74 4.256 1.937 1.147 1.224 1.784 2.727 1.784 4.46 0 1.783-.637 3.364-1.784 4.485a5.64 5.64 0 0 1-4.256 1.937c-1.76 0-3.237-.739-4.383-1.937m1.018-4.485c0 1.096.332 1.988.918 2.701.637.611 1.479.943 2.447.943.891 0 1.709-.33 2.345-.943.637-.714.995-1.605.995-2.701 0-1.046-.357-1.964-.995-2.651-.636-.56-1.454-.969-2.345-.969-.968 0-1.81.409-2.447.969-.586.687-.918 1.605-.918 2.651M369.561 142.599v6.092c0 .739-.586 1.351-1.325 1.351-.713 0-1.35-.612-1.35-1.351v-6.092c0-1.428-1.197-2.575-2.651-2.575-1.428 0-2.55 1.147-2.55 2.575v6.092c0 .076 0 .153-.051.255a1.39 1.39 0 0 1-1.35 1.096 1.344 1.344 0 0 1-1.351-1.351v-10.043c0-.739.586-1.351 1.351-1.351.536 0 1.02.306 1.249.79a5.1 5.1 0 0 1 2.702-.79c2.955 0 5.326 2.421 5.326 5.302"/><path fill="#1E40AF" d="M630 57.104s-9.486 75.952-25.078 93.042c-18.717 20.503-32.3 17.505-39.858 28.076-.016 0-.016.016-.016.016-7.557-10.587-21.14-7.574-39.873-28.092-15.592-17.09-25.062-93.042-25.062-93.042 41.085-19.945 64.935-42.297 64.935-42.297l.016.016c.734.686 24.489 22.655 64.936 42.28"/><path fill="#000" d="M565.064 14.824v163.399c-.016 0-.016.016-.016.016-7.557-10.587-21.14-7.573-39.873-28.091-15.592-17.09-25.062-93.043-25.062-93.043 41.085-19.946 64.935-42.298 64.935-42.298z" opacity=".1"/><path fill="#1E40AF" d="M510.19 63.223s8.012 64.16 21.182 78.604c15.825 17.344 27.306 14.797 33.692 23.73 6.385-8.933 17.867-6.385 33.693-23.73 13.169-14.444 21.166-78.604 21.166-78.604-34.705-16.854-54.859-35.734-54.859-35.734s-20.17 18.88-54.874 35.734"/><path fill="#fff" d="M619.906 63.226s-8.011 64.153-21.185 78.604c-15.811 17.331-27.28 14.8-33.674 23.707V27.507c.617.58 20.691 19.125 54.859 35.719" opacity=".2"/><path fill="#455A64" d="M565.056 121.964c14.051 0 25.441-11.391 25.441-25.442s-11.39-25.441-25.441-25.441c-14.052 0-25.442 11.39-25.442 25.441s11.39 25.442 25.442 25.442"/><path fill="#fff" d="m562.156 113.052-11.33-11.784 4.205-4.041 6.246 6.496 13.464-20.658 4.887 3.185z"/><path fill="#1E40AF" d="m619.906 167.075-3.599.664-.804 3.793-.803-3.793-3.598-.667 3.582-.875.819-3.582.82 3.582zM513.33 138.234l-3.596.664-.805 3.794-.804-3.794-3.598-.667 3.582-.875.82-3.582.819 3.582zM529.752 38.25l-3.598.666-.805 3.793-.804-3.793-3.598-.667 3.582-.875.82-3.583.821 3.583zM613.467 150.015l-2.01.373-.45 2.119-.449-2.119-2.01-.373 2.001-.489.458-2.003.459 2.003zM627.375 107.815l-2.011.373-.449 2.119-.45-2.119-2.011-.373 2.003-.489.458-2.003.457 2.003zM610.304 33.792l-2.01.372-.449 2.12-.451-2.12-2.01-.374 2.001-.49.46-2 .457 2zM558.941 187.353l-2.012.371-.449 2.12-.449-2.12-2.011-.372 2.003-.49.457-2.002.458 2.002zM502.152 143.169l-2.01.373-.451 2.12-.449-2.12-2.011-.373 2.002-.489.458-2.003.459 2.003zM505.281 84.405l-2.01.371-.451 2.12-.449-2.12-2.01-.372 2.001-.49.458-2.003.459 2.003zM589.634 159.528c-.751 0-.751 1.165 0 1.165s.752-1.165 0-1.165M496.942 53.868c-.751 0-.751 1.165 0 1.165.749.001.751-1.165 0-1.165M607.845 162.812c-.751 0-.751 1.166 0 1.166.749 0 .75-1.166 0-1.166M548.797 71.765c-.749 0-.751 1.165 0 1.165.75.002.751-1.165 0-1.165M494.835 95.245c-.751 0-.751 1.165 0 1.165.75 0 .751-1.165 0-1.165M481.241 88.888c-.53 0-.532.825 0 .825.53 0 .531-.825 0-.825M592.477 26.182c-.53 0-.531.825 0 .825.53 0 .531-.825 0-.825M534.917 167.356c-.53 0-.532.825 0 .825.53 0 .531-.825 0-.825M522.027 159.776c-1.438 0-1.441 2.235 0 2.235 1.438 0 1.441-2.235 0-2.235"/><path fill="#fff" d="M244.439 257.455v24.288h6.405v11.069l11.069-11.069h75.182v-24.288z"/><path fill="#263238" d="M244.439 257.455c.059 8.189.302 16.283.303 24.288l-.303-.303 6.405-.017.321-.002.001.322.03 11.07-.599-.249 11.039-11.099c.125-.136.108-.117.278-.116 18.729-.053 56.456-.112 75.182-.127l-.521.521.071-24.288.449.449c-23.097-.041-69.562-.283-92.656-.449m0 0 46.208-.29 46.448-.16.447-.002.002.452.071 24.288.001.522-.523-.002-37.591-.043c.203-.136-38.694.144-37.312-.199l-11.099 11.037-.602.599.003-.847.03-11.069.321.32-6.406-.017-.303-.002v-.303c.003-8.183.246-16.28.305-24.284"/><path fill="#263238" d="M260.638 266.243v3.257h-.92v-3.257c0-1.239-.94-2.245-2.098-2.245-1.156 0-2.098 1.006-2.098 2.245v3.257h-.919v-3.257c0-1.773 1.354-3.216 3.017-3.216 1.665-.001 3.018 1.441 3.018 3.216"/><path fill="#263238" d="m254.602 267.089.92.038v2.372h-.92zM260.638 267.335v2.164h-.92v-2.202z"/><path fill="#263238" d="M261.818 268.295h-8.395v6.967h8.395zM275.209 266.721c-1.208 2.255-2.956 4.011-5.214 5.214 1.202-2.26 2.958-4.007 5.214-5.214"/><path fill="#263238" d="M269.995 266.721c2.255 1.207 4.011 2.954 5.214 5.214-2.26-1.203-4.007-2.959-5.214-5.214"/><path fill="#263238" d="M276.289 269.327c-2.449.741-4.926.747-7.375 0 2.448-.746 4.926-.74 7.375 0"/><path fill="#263238" d="M272.601 265.641c.741 2.449.746 4.925 0 7.374-.747-2.449-.741-4.927 0-7.374M287.927 266.721c-1.208 2.255-2.955 4.011-5.214 5.214 1.202-2.26 2.96-4.007 5.214-5.214"/><path fill="#263238" d="M282.713 266.721c2.255 1.207 4.011 2.954 5.214 5.214-2.259-1.203-4.006-2.959-5.214-5.214"/><path fill="#263238" d="M289.006 269.327c-2.448.741-4.925.747-7.374 0 2.449-.746 4.927-.74 7.374 0"/><path fill="#263238" d="M285.32 265.641c.741 2.449.747 4.925 0 7.374-.746-2.449-.741-4.927 0-7.374M300.646 266.721c-1.207 2.255-2.954 4.011-5.214 5.214 1.203-2.26 2.959-4.007 5.214-5.214"/><path fill="#263238" d="M295.432 266.721c2.255 1.207 4.011 2.954 5.214 5.214-2.258-1.203-4.007-2.959-5.214-5.214"/><path fill="#263238" d="M301.726 269.327c-2.449.741-4.925.747-7.374 0 2.447-.746 4.925-.74 7.374 0"/><path fill="#263238" d="M298.04 265.641c.74 2.449.746 4.925 0 7.374-.748-2.449-.742-4.927 0-7.374M313.365 266.721c-1.207 2.255-2.955 4.011-5.214 5.214 1.203-2.26 2.959-4.007 5.214-5.214"/><path fill="#263238" d="M308.151 266.721c2.256 1.207 4.012 2.954 5.214 5.214-2.259-1.203-4.006-2.959-5.214-5.214"/><path fill="#263238" d="M314.446 269.327c-2.449.741-4.926.747-7.375 0 2.448-.746 4.926-.74 7.375 0"/><path fill="#263238" d="M310.758 265.641c.74 2.449.746 4.925 0 7.374-.747-2.449-.741-4.927 0-7.374M326.083 266.721c-1.207 2.255-2.954 4.011-5.213 5.214 1.202-2.26 2.96-4.007 5.213-5.214"/><path fill="#263238" d="M320.87 266.721c2.255 1.207 4.011 2.954 5.213 5.214-2.258-1.203-4.006-2.959-5.213-5.214"/><path fill="#263238" d="M327.163 269.327c-2.448.741-4.925.747-7.374 0 2.449-.746 4.927-.74 7.374 0"/><path fill="#263238" d="M323.477 265.641c.741 2.449.747 4.925 0 7.374-.748-2.449-.741-4.927 0-7.374"/><path fill="#C7C7C7" d="m142.935 550.791-83.378 67.23h4.699l96.293-67.23z"/><path fill="#C7C7C7" d="m150.768 550.791-41.199 67.23h4.697l50.496-67.23z"/><path fill="#C7C7C7" d="m170.967 550.791 41.199 67.23h-4.697l-50.495-67.23z"/><path fill="#C7C7C7" d="m178.165 550.791 83.376 67.23h-4.697l-96.295-67.23z"/><path fill="#455A64" d="M317.32 526.13v-19.669l-114.495-4.697-60.478-161.47H3.777L52.806 526.13l117.138 32.881h7.34z"/><path fill="#000" d="M3.777 340.294h15.854L70.715 509.69l103.633 29.359 142.973-32.588v19.669l-140.036 32.881h-7.34L52.806 526.13z" opacity=".1"/><path fill="#AD6359" d="M254.988 648.593c-3.498-1.331-82.091-65.724-83.536-70.073-.557-1.648 8.154-13.641 19.09-27.833 2.361-3.065 4.818-6.216 7.332-9.401 16.293-20.703 34.065-42.288 34.065-42.288l52.699 42.922-35.515 41.106-7.788 9.031s19.064 38.112 20.136 43.053c1.055 4.927-2.986 14.814-6.483 13.483"/><path fill="#EBEBEB" d="M254.988 648.593c-3.499-1.331-82.091-65.724-83.536-70.073-.669-2.009 12.327-19.296 26.422-37.234l51.247 41.74-7.788 9.031s19.064 38.112 20.137 43.053c1.055 4.927-2.985 14.814-6.482 13.483"/><path fill="#1E40AF" d="M254.988 648.593c-3.498-1.331-82.091-65.724-83.536-70.073-.557-1.648 8.154-13.641 19.09-27.833l50.791 41.368s19.064 38.112 20.137 43.053c1.055 4.928-2.985 14.816-6.482 13.485"/><path fill="#263238" d="M256.436 644.526c-12.91-11.119-66.027-54.741-79.631-64.75-.112-.082-.171-.01-.068.082 12.555 11.299 66.024 54.489 79.523 64.883.285.221.449.019.176-.215M258.731 628.14c-3.021-2.687-7.289-3.705-10.518-3.24-3.101.447-6.561 1.813-8.706 4.622-.062.081.08.201.158.13 4.976-4.54 13.377-5.226 18.93-1.346.113.078.24-.074.136-.166M245.369 597.552c-5.214-4.394-12.851-7.541-19.662-5.913-.264.064-.17.438.052.485 6.781 1.449 12.812 3.33 19.168 6.153.449.198.816-.41.442-.725M248.14 602.476c-5.213-4.394-12.851-7.542-19.662-5.914-.264.063-.17.437.052.485 6.781 1.448 12.812 3.329 19.168 6.152.449.198.816-.41.442-.723M250.911 607.397c-5.213-4.394-12.853-7.542-19.662-5.914-.264.063-.17.437.052.485 6.781 1.448 12.812 3.329 19.168 6.152.449.199.814-.408.442-.723M253.68 612.319c-5.212-4.394-12.851-7.542-19.662-5.914-.264.063-.17.437.052.485 6.779 1.448 12.812 3.33 19.168 6.152.451.2.816-.408.442-.723"/><path fill="#fff" d="M190.412 570.012c-5.93-4.83-13.447 4.378-7.507 9.217 5.93 4.83 13.447-4.378 7.507-9.217"/><path fill="#263238" d="M262.596 588.151c-.855-4.4-5.989-4.992-9.518-4.043-5.715 1.538-11.821 5.254-15.84 9.558-.098.107-.05.221.042.286-.198.471-.01 1.154.599 1.203 5.881.48 12.11 1.721 17.964.38 3.418-.783 7.563-3.223 6.753-7.384m-15.652 5.907c-2.898-.166-5.771-.472-8.675-.53 3.094-1.856 6.094-3.837 9.373-5.379 1.565-.735 3.186-1.462 4.84-1.978 2.573-.804 11.359-.97 7.183 5.197-2.3 3.399-9.265 2.886-12.721 2.69"/><path fill="#263238" d="M222.535 584.888c4.014 4.467 9.82 7.04 14.904 10.036.527.311 1.073-.14 1.183-.638.112 0 .218-.066.197-.209-.805-5.834-3.657-12.389-7.443-16.937-2.338-2.809-6.876-5.282-10.11-2.179-3.057 2.937-1.075 7.319 1.269 9.927m-.723-5.61c.138-7.446 7.225-2.25 8.865-.111 1.054 1.374 1.962 2.902 2.817 4.405 1.794 3.151 3.103 6.496 4.564 9.796-2.407-1.625-4.932-3.03-7.397-4.564-2.938-1.828-8.927-5.421-8.849-9.526M339.372 461.281c-3.982 27.604-73.085 106.581-81.07 115.639-1.178 1.334-1.818 2.062-1.818 2.062l-55.83-43.995.658-.828 50.419-64.379-148.02-2.671 56.736-43.019s4.528 2.686 14.023 1.417c32.728-4.384 106.513-14.077 123.873-13.166 22.394 1.196 44.682 23.615 41.029 48.94"/><path fill="#37474F" d="M269.848 445.841c-1.948 1.927-3.515 4.345-5.2 6.5-1.782 2.278-3.592 4.535-5.371 6.815l-.052.068c.319-.67.631-1.345.961-2.009 1.134-2.277 2.048-4.632 3.382-6.805.082-.133-.121-.26-.205-.128-1.37 2.157-2.954 4.204-4.133 6.478a62 62 0 0 0-1.571 3.255c-.268.604-.544 1.207-.786 1.821-.112.28-.25.579-.334.882a137 137 0 0 0-2.354 3.204c-1.699 2.4-3.207 4.941-4.926 7.322-.093.129.111.25.205.129 1.74-2.237 3.686-4.319 5.453-6.538 1.8-2.26 3.508-4.585 5.196-6.927 1.647-2.286 3.261-4.594 4.905-6.883 1.656-2.303 3.615-4.571 4.968-7.069.048-.087-.062-.19-.138-.115M264.19 566.017c-3.181-2.774-6.588-5.325-9.934-7.898a1181 1181 0 0 0-10.116-7.695c-6.776-5.095-13.522-10.236-20.368-15.237-3.761-2.748-7.547-5.458-11.45-8.001-.175-.113-.358.164-.204.296 6.437 5.507 13.279 10.512 20.048 15.596 6.782 5.092 13.581 10.168 20.44 15.158 3.752 2.732 7.489 5.55 11.402 8.047.156.101.319-.146.182-.266"/><path fill="#AD6359" d="M144.025 351.178c15.354 29.24 33.575 60.269 50.846 64.764 16.427 4.277 55.511-36.655 62.14-50.244 2.286-4.685-28.657-25.207-33.037-21.759-8.255 6.499-26.327 27.098-28.9 26.582-2.678-.547-24.503-20.052-44.283-36.466-11.99-9.949-17.402-3.132-6.766 17.123"/><path fill="#A6A6A6" d="m229.558 296.441-11.827 41.399c-.484 1.21.1 2.225 1.302 2.262l21.534.677c1.202.038 2.573-.915 3.056-2.125l11.827-41.399c.486-1.212-.099-2.225-1.301-2.262l-21.533-.677c-1.202-.039-2.573.912-3.058 2.125"/><path fill="#DBDBDB" d="m232.115 296.499-11.825 41.398c-.484 1.21.099 2.225 1.302 2.263l21.533.677c1.203.038 2.573-.915 3.057-2.125l11.827-41.399c.485-1.213-.1-2.225-1.302-2.262l-21.534-.678c-1.202-.037-2.573.913-3.058 2.126"/><path fill="#455A64" d="M237.959 298.591a1.83 1.83 0 1 1-3.656-.196 1.83 1.83 0 0 1 3.656.196"/><path fill="#AD6359" d="M266.974 342.261c1.817-12.034.436-15.401 7.363-24.743 4.545-6.13 2.582-11.663-4.569-8.218-11.694 5.636-17.298 20.667-17.741 26.44z"/><path fill="#AD6359" d="M251.451 373.797s11.228-13.11 14.433-25.742c2.216-8.735 4.918-28.277-14.176-47.223-4.53-4.493-14.171-7.684-9.439 2.341 3.361 7.121 7.644 10.622 8.845 15.12 0 0-12.744-2.603-17.07 2.11-1.932 2.107-7.073 7.979-10.423 13.121 0 0 .924 1.031 2.281 2.17 0 0-3.624 4.784-2.863 13.877z"/><path fill="#AD6359" d="M266.668 339.379c-2.135-4.214-6.812-13.066-13.157-18.978-7.046-6.567-22.392-17.317-27.184-12.064-3.515 3.851 1.982 8.47 1.982 8.47s-7.279-3.105-9.693 1.067c-2.2 3.804 2.267 7.122 2.267 7.122s-4.739-1.125-6.152 2.945c-1.701 4.897 8.511 6.452 11.074 12.9.575 1.449 40.863-1.462 40.863-1.462"/><path fill="#263238" d="M247.815 329.004c-2.658-3.633-10.812-10.334-19.315-12.26-.192-.043-.33.079-.162.156 8.913 4.108 16.385 9.635 19.415 12.171.042.034.092-.025.062-.067M240.979 335.925c-2.615-2.9-11.329-9.43-20.012-11.087-.194-.036-.322.096-.152.165 9.488 3.909 16.93 8.64 20.107 10.991.043.033.092-.032.057-.069"/><path fill="#1E40AF" d="m213.315 349.264 32.234 34.179s-34.041 38.165-50.024 34.174-46.204-47.253-55.893-74.721c-6.704-19.006 3.873-15.955 14.975-6.636 11.103 9.317 40.143 32.445 41.412 32.101 1.269-.347 17.296-19.097 17.296-19.097"/><path fill="#000" d="M202.398 417.262c-2.514.682-4.843.866-6.874.355-15.979-3.991-46.203-47.253-55.889-74.721-4.417-12.527-1.334-15.467 4.474-13.337 17.413 25.836 40.592 60.462 58.289 87.703" opacity=".1"/><path fill="#263238" d="M235.091 389.126c-4.668-4.713-23.068-24.697-26.75-29.284-.255-.318-.117-.558.192-.26 14.33 13.786 22.395 24.497 26.737 29.353.11.121-.061.309-.179.191"/><path fill="#1E40AF" d="M179.869 443.707S74.046 463.06 73.503 462.413c-.487-.564 11.645-115.043 47.564-134.39 5.694-3.067 19.439-4.874 25.306 1.113 16.727 17.073 34.883 113.019 33.496 114.571"/><path fill="#EBEBEB" d="M178.767 434.217 74.55 452.097c.395-3.147.916-6.904 1.57-11.127l100.725-17.282c.771 3.99 1.414 7.553 1.922 10.529M175.722 418.101 77.05 435.032q.457-2.808.995-5.794l96.545-16.563c.403 1.851.775 3.673 1.132 5.426"/><path fill="#AD6359" d="M141.7 346.57c-5.905-.029-13.432-10.886-15.548-18.721-.141-.537 1.794-5.361 3.869-11.335 1.244-3.63 2.545-7.7 3.463-11.5l22.437 11.552s-4.268 7.4-5.83 14.037a9 9 0 0 0-.214 1.598c-.01.074-.01.166-.029.267-.229 3.079-2.438 14.126-8.148 14.102"/><path fill="#263238" d="M155.93 316.565s-4.274 7.396-5.836 14.045c-.12.547-.204 1.077-.211 1.594a1.3 1.3 0 0 1-.032.256 12.7 12.7 0 0 1-2.483-.461c-13.79-3.665-13.553-21.782-13.227-26.652z"/><path fill="#AD6359" d="M132.52 278.851c-3.591 8.352-1.781 33.823 3.753 40.068 8.021 9.053 22.526 11.434 30.564 1.478 7.793-9.651 4.846-42.803-1.462-48.619-9.292-8.567-27.55-5.263-32.855 7.073"/><path fill="#263238" d="M155.765 297.178c-.018-.064-.125.092-.117.161.211 1.696.166 3.674-1.319 4.38-.047.022-.034.107.023.094 1.852-.438 1.884-3.063 1.413-4.635"/><path fill="#263238" d="M154.083 295.542c-2.755.043-2.463 5.55.088 5.508 2.511-.04 2.221-5.546-.088-5.508M165.783 296.629c.01-.066.138.074.139.144.036 1.709.365 3.659 1.938 4.144.049.016.049.101-.009.096-1.897-.165-2.307-2.76-2.068-4.384"/><path fill="#263238" d="M167.213 294.768c2.732-.354 3.237 5.137.706 5.464-2.492.323-2.996-5.168-.706-5.464M151.777 293.137c.741-.228 1.385-.561 2.094-.863.8-.339 1.47-.528 1.967-1.288.265-.407.109-1.105-.262-1.399-.865-.687-1.948-.514-2.926-.143-1.063.401-1.778.983-2.347 1.964-.553.95.498 2.031 1.474 1.729M169.195 291.883c-.769-.084-1.465-.29-2.217-.452-.851-.182-1.545-.241-2.175-.892-.338-.35-.316-1.063-.007-1.424.717-.839 1.813-.874 2.846-.695 1.119.194 1.932.628 2.677 1.485.719.828-.109 2.089-1.124 1.978M154.758 312.342c.348.453.674 1.057 1.28 1.195.582.134 1.31-.033 1.879-.164.056-.013.102.052.061.096-.532.587-1.514.861-2.277.611-.747-.244-1.031-.959-1.117-1.685-.013-.101.122-.118.174-.053"/><path fill="#263238" d="M156.646 307.324c1.033 1.429 2.479 2.164 4.013 2.38a7.3 7.3 0 0 0 2.094-.015c.137-.01.631-.108.766-.144.198-.039.298-.21.322-.4l-.001-.012c-.004-.063-.303-3.641-.303-3.641.492.215 2.997 1.187 2.922.502-.64-5.661-1.35-11.957-3.181-17.457-.05-.185-.335-.125-.309.061.399 5.465 1.756 10.823 2.244 16.307-.796-.255-2.098-.737-2.785-.687-.098.029.488 4.456.478 4.494-2.192.398-3.89-.181-6.11-1.548-.131-.093-.259.03-.15.16"/><path fill="#263238" d="M162.2 309.435s-1.219 1.658-2.894 2.26c-.617.223-1.282.313-1.981.13-1.434-.372-1.474-1.687-1.216-2.813.21-.926.637-1.726.637-1.726s2.098 1.953 5.454 2.149"/><path fill="#FF9CBD" d="M159.306 311.695c-.616.223-1.282.313-1.981.129-1.434-.371-1.474-1.686-1.216-2.812 1.537.153 3.061 1.19 3.197 2.683"/><path fill="#263238" d="M130.173 301.856c6.64.515 10.164-7.379 8.657-13.762 0 0 17.641 2.473 18.593-11.699 0 0 4.196 6.442 12.204 6.71l1.165 4.98c1.815-.51 3.782-5.644-.621-9.716 0 0-.254-7.069-5.432-11.349s-10.376-1.529-10.376-1.529-4.116-3.489-10.628-2.703c-6.512.784-9.234 6.698-9.234 6.698s-8.762 1.607-10.297 7.81 1.646 10.394 1.646 10.394-2.213 2.424-1.137 7.736c.691 3.415 3.468 6.275 5.46 6.43"/><path fill="#263238" d="M157.042 275.133c.108 1.158.146 2.319.014 3.463-.073 1.146-.322 2.268-.665 3.344-.728 2.138-2.156 4.002-4.127 5.058-1.916 1.208-4.271 1.383-6.522 1.587-1.144-.044-2.3-.005-3.45-.113-1.148-.124-2.296-.277-3.461-.378 1.126.283 2.27.515 3.414.777 1.152.19 2.33.225 3.503.343 2.331-.078 4.795-.257 6.92-1.504 2.111-1.2 3.689-3.276 4.322-5.584.624-2.304.601-4.73.052-6.993M166.085 283.395c-1.961-.73-3.789-1.649-5.335-2.924-.792-.615-1.453-1.368-2.052-2.171-.625-.799-1.017-1.739-1.464-2.695.117 1.037.378 2.101.931 3.03a8.2 8.2 0 0 0 2.065 2.467c.84.675 1.772 1.231 2.769 1.608.992.379 2.029.652 3.086.685"/><path fill="#1E40AF" d="M152.411 305.782c-3.309-.16-6.226-2.544-6.916-5.936-.816-4.013 1.785-7.942 5.796-8.757 4.012-.818 7.94 1.783 8.757 5.796.816 4.011-1.785 7.94-5.796 8.757a7.4 7.4 0 0 1-1.841.14m.672-13.843a6.44 6.44 0 0 0-6.616 7.709c.709 3.474 4.113 5.731 7.586 5.021a6.44 6.44 0 0 0 5.022-7.588 6.446 6.446 0 0 0-5.992-5.142M169.406 304.529c-2.837-.138-5.272-3.17-5.537-7.035-.135-1.951.296-3.829 1.211-5.286.944-1.509 2.293-2.397 3.798-2.5 1.508-.107 2.961.592 4.103 1.958 1.105 1.321 1.786 3.122 1.919 5.071.279 4.085-1.967 7.578-5.007 7.787a5 5 0 0 1-.487.005m-.084-13.835a3 3 0 0 0-.377.005c-1.178.081-2.252.804-3.025 2.036-.802 1.282-1.179 2.948-1.061 4.691.244 3.539 2.462 6.281 4.966 6.108 2.495-.171 4.326-3.19 4.085-6.728-.12-1.742-.721-3.342-1.691-4.503-.833-.998-1.85-1.558-2.897-1.609"/><path fill="#1E40AF" d="m159.858 297.758-.689-.715c1.058-1.02 3.571-2.467 5.511-.655l-.677.725c-1.737-1.626-4.047.553-4.145.645M128.461 302.095l-.911-.394c.185-.424 1.861-4.164 4.049-4.675 2.044-.472 13.925-.308 14.492-.293l-.026.992c-3.831-.1-12.662-.101-14.24.267-1.445.338-2.918 3.077-3.364 4.103"/><path fill="#AD6359" d="M136.44 301.407s-4.93-8.6-8.782-6.914c-3.852 1.687-.654 13.797 3.512 15.79 4.164 1.992 6.084-1.828 6.084-1.828z"/><path fill="#263238" d="M128.662 297.943c-.068-.013-.091.084-.033.112 2.912 1.496 4.25 4.442 5.102 7.448-.798-1.2-1.966-1.922-3.56-.987-.084.049-.021.179.066.168 1.262-.153 2.136.142 2.882 1.209.53.755.853 1.679 1.206 2.528.117.283.618.182.543-.138l-.018-.072c.423-3.847-2.086-9.509-6.188-10.268M150.203 335.174c-.003-.05-.079-.053-.082-.001-.238 4.814-1.118 15.939-8.87 14.413-3.123-.615-5.783-2.813-7.972-4.922-2.248-2.165-7.133-8.221-10.357-14.863-.063-.13-.248-.033-.206.11.527 1.812 1.936 5.06 3.771 8.046 1.766 2.874 3.841 5.596 6.352 7.921 2.352 2.177 5.199 4.392 8.523 4.89 3.162.474 5.691-1.152 6.944-3.859 1.646-3.557 2.078-7.884 1.897-11.735"/><path fill="#AD6359" d="M109.198 337.169c-16.525 14.484-58.872 71.474-48.474 83.687 10.473 12.299 75.755 3.735 94.55-3.011 5.591-2.007-11.349-37.31-17.542-38.717-5.156-1.171-33.077 8.362-33.695 6.749-.699-1.822 4.827-14.21 13.577-36.758 10.087-25.997-1.117-18.348-8.416-11.95M165.321 371.051c13.151-.505 16.605 1.383 27.476-4.937 7.135-4.147 12.844-1.372 8.283 5.899-7.463 11.89-24.293 16.105-30.548 15.886z"/><path fill="#AD6359" d="M129.619 380.08s15.383-6.631 29.345-8.555c9.654-1.33 30.98-1.885 49.045 20.915 4.284 5.407 6.555 16.151-3.652 9.862-7.25-4.469-10.497-9.493-15.187-11.325 0 0 1.265 14.01-4.32 18.091-2.495 1.824-9.424 6.642-15.355 9.624 0 0-.996-1.117-2.057-2.712 0 0-5.578 3.319-15.258 1.408z"/><path fill="#AD6359" d="M168.381 371.725c4.271 2.803 13.223 8.893 18.812 16.422 6.209 8.363 15.917 26.146 9.696 30.667-4.561 3.314-8.864-3.149-8.864-3.149s2.463 8.196-2.313 10.289c-4.352 1.908-7.381-3.293-7.381-3.293s.639 5.228-3.906 6.258c-5.467 1.239-5.91-9.923-12.53-13.453-1.486-.794 6.486-43.741 6.486-43.741"/><path fill="#263238" d="M177.264 393.234c3.584 3.293 9.805 12.862 10.852 22.233.023.213-.124.344-.188.155-3.342-10.072-8.383-18.768-10.744-22.33-.031-.047.039-.094.08-.058M169.003 399.747c2.8 3.16 8.772 13.309 9.507 22.842.016.212-.142.335-.195.143-3.06-10.668-7.25-19.235-9.394-22.931-.029-.049.046-.094.082-.054M189.183 390.892c4.101 1.668 6.642 4.018 9.96 6.853 1.642 1.402 3.31 2.782 5.099 3.995 1.629 1.105 4.026 2.766 6.007 1.492 1.101-.709 1.234-2.188 1.124-3.375-.124-1.334-1.174-3.878-1.841-5.042-.033-.059.068-.12.103-.061.619 1.038 1.808 3.365 2.111 4.537.273 1.061.449 2.281.05 3.337-.854 2.268-3.634 2.299-5.515 1.463-1.127-.5-2.166-1.231-3.165-1.944a49 49 0 0 1-2.812-2.186c-1.872-1.559-3.654-3.224-5.508-4.805-2.038-1.737-3.476-2.63-5.694-4.128-.072-.052 0-.169.081-.136"/><path fill="#263238" d="M196.541 406.651c-.851-2.52-5.766-13.152-7.454-15.667-.044-.065.044-.133.095-.074 2.982 3.454 7.443 12.279 8.411 15.06.956 2.75 2.024 6.247 1.729 9.174-.441 4.417-3.455 4.958-4.559 5.066-1.319.129-2.597-.274-3.697-.992-1.224-.798-2.335-2.313-3.085-3.543-.039-.065.049-.139.095-.074 1.356 1.893 3.725 3.866 6.157 3.791 1.055-.032 2.157-.4 2.879-1.2.849-.939 1.042-2.267 1.063-3.486.044-2.761-.758-5.468-1.634-8.055"/><path fill="#1E40AF" d="m129.619 380.08 16.126 45.053s-81.758 9.935-87.26-4.674 31.015-65.968 46.599-80.428c18.06-16.756 19.504-10.296 14.296 5.64-5.452 16.685-15.149 40.634-15.149 40.634z"/><path fill="#263238" d="M78.779 395.314c3.95-2.217 8.119-4.056 12.347-5.679 4.187-1.607 8.527-2.756 12.901-3.731 2.498-.556 5.015-.99 7.533-1.442.076-.015.095.104.019.12-4.404.909-8.749 2.209-13.016 3.618a366 366 0 0 0-12.663 4.443c-2.374.882-4.704 1.877-7.046 2.837-.111.045-.175-.109-.075-.166"/><path fill="#263238" d="M129.417 379.932c-.413.065-23.003 5.09-23.754 5.353.124-.321 5.214-11.554 5.972-13.197.075-.164.143-.331.217-.494.475-.719.954-1.435 1.4-2.173.572-.946 1.137-1.898 1.704-2.846.017-.029-.025-.059-.043-.031-.608.922-1.217 1.841-1.821 2.766a39 39 0 0 0-.806 1.301c.506-1.164.997-2.332 1.487-3.508.783-1.871 1.504-3.763 2.22-5.661.023-.061-.068-.093-.096-.034-1.5 3.275-3.102 6.501-4.613 9.77-1.507 3.265-7.261 15.298-7.225 15.291.036.036 24.936-6.082 25.418-6.229.19-.058.143-.339-.06-.308M128.078 408.132c-1.769-5.025-3.498-10.066-5.453-15.027-1.111-2.818-2.207-5.643-3.344-8.451-.044-.105-.23-.048-.197.063 1.575 5.115 3.168 10.239 4.977 15.281 1.799 5.017 3.558 10.047 5.424 15.04a150 150 0 0 0 3.435 8.408c.024.055.12.026.102-.033-1.405-5.171-3.163-10.222-4.944-15.281"/><path fill="#263238" d="M146.709 425.908c-.669-1.403-1.487-3.413-2.214-4.788-.192-.364-.462-.319-.316.058.488 1.262.858 2.665 1.337 3.959-1.145.111-2.291.196-3.436.319-1.324.142-2.647.29-3.97.428a372.299 372.299 0 0 1-23.589 1.699c-10.571.426-21.186.468-31.747-.204a176 176 0 0 1-8.849-.769c-2.987-.341-6.213-.729-8.654-1.29-.078-.017-.107.115-.03.139 2.513.784 4.868 1.35 7.467 1.74 2.653.398 5.318.723 7.99.962 5.32.472 10.666.661 16.005.706 10.59.089 21.188-.282 31.749-1.073q4.439-.332 8.869-.77c1.49-.147 2.98-.294 4.467-.469 1.487-.176 5.034-.407 4.921-.647"/><path fill="#C7C7C7" d="M252.038 424.907H149.106v4.611h102.932z"/><path fill="#A6A6A6" d="M252.037 424.907v4.611h-69.968l3.527-4.611z"/><path fill="#A6A6A6" d="M196.222 429.519h90.088l13.035-63.559h-90.088z"/><path fill="#C7C7C7" d="M200.431 429.519h90.089l13.036-63.559h-90.089z"/><path fill="#fff" d="M260.116 395.372c.094 3.004-1.916 5.873-4.489 6.41s-4.735-1.461-4.829-4.465 1.916-5.872 4.489-6.409 4.735 1.461 4.829 4.464"/><path fill="#AD6359" d="M461.822 561.456c-1.343 3.494-65.989 81.878-70.342 83.311-1.649.551-13.613-8.197-27.771-19.18a1024 1024 0 0 1-9.378-7.362c-20.651-16.36-42.178-34.201-42.178-34.201l43.092-52.56 40.993 35.648 9.004 7.817s38.174-18.941 43.118-19.998c4.93-1.04 14.803 3.032 13.462 6.525"/><path fill="#EBEBEB" d="M461.822 561.456c-1.343 3.494-65.989 81.878-70.342 83.311-2.01.661-19.256-12.391-37.149-26.542l41.905-51.113 9.005 7.817s38.174-18.941 43.118-19.998c4.931-1.04 14.804 3.032 13.463 6.525"/><path fill="#1E40AF" d="M461.822 561.456c-1.343 3.494-65.989 81.878-70.342 83.311-1.649.551-13.613-8.197-27.771-19.18l41.533-50.657s38.174-18.941 43.118-19.998c4.93-1.041 14.803 3.031 13.462 6.524"/><path fill="#263238" d="M457.758 559.994c-11.158 12.874-54.952 65.85-65.005 79.424-.082.11-.01.169.083.068 11.339-12.517 54.702-65.848 65.139-79.314.219-.284.019-.449-.217-.178M441.382 557.648c-2.698 3.012-3.728 7.277-3.274 10.507.436 3.103 1.792 6.567 4.593 8.723.081.062.203-.081.132-.159-4.524-4.99-5.182-13.392-1.285-18.934.076-.114-.074-.241-.166-.137M410.75 570.911c-4.411 5.199-7.582 12.827-5.976 19.643.062.264.436.171.485-.051 1.47-6.776 3.372-12.802 6.213-19.149.201-.448-.405-.816-.722-.443M415.683 568.155c-4.411 5.2-7.584 12.828-5.976 19.643.062.265.436.172.485-.051 1.47-6.775 3.371-12.801 6.213-19.15.199-.446-.407-.814-.722-.442M420.614 565.4c-4.411 5.2-7.584 12.828-5.977 19.644.063.264.437.171.486-.051 1.47-6.775 3.371-12.8 6.214-19.148.198-.447-.408-.817-.723-.445M425.545 562.647c-4.411 5.199-7.582 12.826-5.977 19.643.062.264.438.172.486-.051 1.469-6.774 3.371-12.8 6.214-19.149.198-.447-.408-.816-.723-.443"/><path fill="#fff" d="M383.033 625.779c-4.849 5.914 4.335 13.46 9.192 7.536 4.85-5.916-4.335-13.462-9.192-7.536"/><path fill="#263238" d="M401.404 553.653c-4.402.842-5.012 5.975-4.073 9.505 1.519 5.719 5.217 11.839 9.507 15.87.106.1.221.051.285-.04.47.198 1.153.014 1.205-.597.498-5.879 1.76-12.105.437-17.963-.769-3.418-3.197-7.571-7.361-6.775m5.857 15.671c-.175 2.898-.491 5.769-.559 8.673-1.847-3.1-3.816-6.105-5.348-9.39-.731-1.568-1.453-3.191-1.964-4.847-.796-2.574-.934-11.362 5.22-7.166 3.394 2.313 2.859 9.276 2.651 12.73"/><path fill="#263238" d="M398.012 593.704c4.481-4 7.071-9.798 10.085-14.872.311-.526-.136-1.073-.634-1.184 0-.113-.065-.218-.21-.2-5.836.787-12.4 3.617-16.96 7.389-2.816 2.329-5.303 6.859-2.211 10.103 2.926 3.067 7.315 1.099 9.93-1.236m-5.612.706c-7.446-.162-2.227-7.232-.083-8.866 1.378-1.049 2.909-1.952 4.415-2.802 3.156-1.782 6.506-3.083 9.811-4.533-1.633 2.403-3.045 4.923-4.587 7.383-1.839 2.93-5.451 8.908-9.556 8.818M394.117 559.076l-47.976 56.867-144.718-103.049-14.251-10.154s-4.102 2.689-10.271 6.003c-8.566 4.6-21.11 10.405-32.16 11.895-18.538 2.514-46.44 1.88-61.78-19.165-12.922-17.72-8.502-40.581-8.502-40.581l20.422-8.478s48.569-39.475 79.729-40.304c13.235-.365 32.375 9.895 50.086 20.586 17.697 10.676 169.421 126.38 169.421 126.38"/><path fill="#37474F" d="M187.172 502.739s-4.102 2.689-10.271 6.002c-10.672-13.096-33.315-36.923-34.001-37.768zM112.663 439.218c-2.898 1.961-5.705 4.048-8.565 6.062-2.813 1.981-5.717 3.839-8.394 6.007-2.723 2.204-5.307 4.562-7.878 6.943a144 144 0 0 0-3.669 3.496c-1.188 1.18-2.516 2.362-3.507 3.715-.092.126.088.28.21.204 1.383-.864 2.63-2.056 3.89-3.089 1.36-1.114 2.702-2.248 4.057-3.37 2.61-2.166 5.272-4.268 7.876-6.441 2.588-2.157 4.99-4.524 7.553-6.71 2.745-2.339 5.635-4.514 8.482-6.726.055-.04.004-.131-.055-.091M379.301 553.601c-2.907 3.06-5.6 6.356-8.313 9.59a1223 1223 0 0 0-8.118 9.781c-5.378 6.554-10.8 13.077-16.088 19.703-2.905 3.64-5.773 7.309-8.478 11.1-.12.169.148.364.287.217 5.775-6.197 11.066-12.819 16.433-19.367 5.377-6.56 10.736-13.138 16.013-19.777 2.888-3.635 5.862-7.247 8.523-11.051.106-.156-.134-.329-.259-.196M270.536 561.938c-7.345-5.934-24.067-17.551-31.689-23.127-7.584-5.548-15.163-11.11-22.863-16.494-2.211-1.546-4.442-3.061-6.67-4.582-2.223-1.517-4.541-2.922-6.718-4.496-.127-.091-.244.12-.12.211 2 1.47 3.884 3.116 5.849 4.641 1.876 1.455 3.736 2.929 5.627 4.365 3.691 2.802 7.419 5.553 11.141 8.314 7.549 5.598 15.154 11.128 22.84 16.537 4.364 3.071 17.805 12.16 22.268 15.083.263.173.588-.248.335-.452M318.06 500.93c-6.785-5.764-22.275-16.871-29.394-22.209-7.201-5.4-14.364-10.848-21.594-16.211l-21.518-15.957c-6.954-5.156-13.872-10.394-21.226-14.974a146 146 0 0 0-12.405-6.938c-4.128-2.044-8.418-4.123-12.842-5.43-.133-.039-.208.155-.091.223 3.627 2.083 7.442 3.846 11.114 5.859a224 224 0 0 1 10.717 6.27c7.3 4.548 14.183 9.697 21.1 14.8 14.362 10.597 28.695 21.237 43.163 31.689 8.094 5.85 24.227 17.928 32.644 23.317.264.17.573-.234.332-.439"/></svg>